<svg xmlns="http://www.w3.org/2000/svg" xmlns:xlink="http://www.w3.org/1999/xlink" width="500" zoomAndPan="magnify" viewBox="0 0 375 374.999991" height="500" preserveAspectRatio="xMidYMid meet" version="1.0"><defs><clipPath id="e6bcba73f0"><path d="M 211 45.015625 L 219 45.015625 L 219 62 L 211 62 Z M 211 45.015625 " clip-rule="nonzero"/></clipPath><clipPath id="571869e86c"><path d="M 274 143 L 293.398438 143 L 293.398438 151 L 274 151 Z M 274 143 " clip-rule="nonzero"/></clipPath><clipPath id="cfad28ac10"><path d="M 187 319 L 210 319 L 210 337.515625 L 187 337.515625 Z M 187 319 " clip-rule="nonzero"/></clipPath></defs><g clip-path="url(#e6bcba73f0)"><path fill="#639ece" d="M 217.480469 45.707031 C 215.082031 50.328125 210.964844 54.691406 212.136719 60.804688 C 212.300781 61.660156 213.8125 61.808594 213.648438 60.957031 C 212.535156 55.136719 216.652344 50.890625 218.933594 46.492188 C 219.285156 45.8125 217.832031 45.023438 217.480469 45.707031 Z M 217.480469 45.707031 " fill-opacity="1" fill-rule="nonzero"/></g><path fill="#639ece" d="M 99.046875 145.527344 C 93.753906 146.398438 88.609375 147.957031 83.207031 148.207031 C 81.898438 148.269531 82.351562 150.269531 83.644531 150.210938 C 89.050781 149.960938 94.195312 148.402344 99.488281 147.53125 C 100.777344 147.316406 100.339844 145.316406 99.046875 145.527344 Z M 99.046875 145.527344 " fill-opacity="1" fill-rule="nonzero"/><path fill="#639ece" d="M 253.074219 202.9375 C 250.003906 198.523438 247.378906 193.886719 245.21875 189.054688 C 244.757812 188.019531 243.339844 188.6875 243.796875 189.710938 C 245.957031 194.542969 248.582031 199.179688 251.652344 203.59375 C 252.304688 204.527344 253.734375 203.882812 253.074219 202.9375 Z M 253.074219 202.9375 " fill-opacity="1" fill-rule="nonzero"/><path fill="#639ece" d="M 111.441406 95.503906 C 105.671875 94.296875 100.785156 90.082031 95.59375 86.777344 C 93.695312 85.570312 92.195312 89.019531 94.097656 90.230469 C 99.527344 93.683594 104.695312 98.117188 110.734375 99.378906 C 111.609375 99.5625 112.457031 99.15625 112.664062 98.007812 C 112.839844 97.046875 112.320312 95.6875 111.441406 95.503906 Z M 111.441406 95.503906 " fill-opacity="1" fill-rule="nonzero"/><path fill="#639ece" d="M 277.488281 77.207031 C 272.398438 79.921875 267.320312 82.785156 263.359375 87.191406 C 261.636719 89.113281 264.140625 91.898438 265.878906 89.960938 C 269.617188 85.800781 274.339844 83.179688 279.144531 80.621094 C 281.410156 79.40625 279.746094 76.003906 277.488281 77.207031 Z M 277.488281 77.207031 " fill-opacity="1" fill-rule="nonzero"/><g clip-path="url(#571869e86c)"><path fill="#639ece" d="M 291.671875 146.460938 C 287.097656 143.671875 281.558594 143.125 276.363281 144.457031 C 275.117188 144.777344 274.554688 146.355469 274.960938 147.441406 C 275.433594 148.714844 276.730469 149.105469 277.972656 148.785156 C 282.003906 147.75 286.210938 148.5625 289.6875 150.679688 C 290.773438 151.34375 292.324219 150.5625 292.8125 149.523438 C 293.402344 148.261719 292.753906 147.121094 291.671875 146.460938 Z M 291.671875 146.460938 " fill-opacity="1" fill-rule="nonzero"/></g><path fill="#639ece" d="M 123.234375 187.679688 C 119.53125 192 114.441406 195.734375 113.257812 202.265625 C 113.09375 203.175781 114.339844 203.617188 114.503906 202.703125 C 115.628906 196.488281 120.671875 192.875 124.199219 188.761719 C 124.746094 188.125 123.78125 187.042969 123.234375 187.679688 Z M 123.234375 187.679688 " fill-opacity="1" fill-rule="nonzero"/><path fill="#639ece" d="M 156.261719 50.539062 C 155.652344 47.433594 151.042969 47.730469 151.644531 50.828125 C 152.804688 56.761719 155.617188 62.390625 158.828125 67.828125 C 160.515625 70.683594 164.6875 69.203125 162.984375 66.328125 C 159.980469 61.246094 157.34375 56.089844 156.261719 50.539062 Z M 156.261719 50.539062 " fill-opacity="1" fill-rule="nonzero"/><path fill="#306191" d="M 184.523438 196.492188 C 183.089844 195.179688 181.203125 196.449219 177.066406 196.691406 C 172.914062 196.933594 168.601562 196.53125 164.5625 195.53125 C 164.539062 195.527344 164.519531 195.519531 164.5 195.511719 C 162.105469 198.398438 160.582031 202.175781 158.957031 205.867188 C 157.523438 209.117188 155.410156 212.199219 154.175781 215.484375 C 153.855469 216.34375 153.570312 217.242188 153.316406 218.15625 C 162.285156 229.585938 173.1875 239.386719 185.859375 246.039062 C 186.804688 243.5 187.667969 240.925781 188.410156 238.3125 C 192.191406 224.984375 190.386719 213.320312 186.457031 200.503906 C 185.785156 198.328125 185.207031 197.117188 184.523438 196.492188 Z M 184.523438 196.492188 " fill-opacity="1" fill-rule="nonzero"/><path fill="#27557a" d="M 159.234375 213.6875 C 159.132812 213.761719 159.03125 213.847656 158.925781 213.945312 C 156.453125 216.222656 157.332031 224.84375 156.726562 227.976562 C 155.988281 231.800781 154.847656 235.351562 153.5625 239.085938 C 149.246094 251.640625 143.652344 263.515625 141.667969 276.964844 C 140.304688 286.214844 150.691406 295.582031 158.566406 288.019531 C 165.8125 281.054688 170.992188 272.175781 175.5625 263.179688 C 179.851562 254.738281 184.121094 246.191406 187.328125 237.238281 C 187.21875 237.535156 174.550781 228.644531 173.546875 227.8125 C 169.921875 224.820312 166.792969 221.714844 164.144531 217.769531 C 162.746094 215.6875 161.492188 212.011719 159.234375 213.6875 Z M 159.234375 213.6875 " fill-opacity="1" fill-rule="nonzero"/><path fill="#c25c4c" d="M 125.863281 259.480469 C 125.917969 256.246094 125.648438 255.964844 122.507812 254.898438 C 119.867188 254 118.308594 253.257812 115.640625 252.296875 C 113.136719 251.394531 107.027344 249.824219 104.738281 248.449219 C 104.648438 248.398438 104.5625 248.335938 104.484375 248.273438 C 103.273438 248.996094 101.992188 249.601562 100.664062 250.085938 C 100.394531 250.222656 100.128906 250.359375 99.863281 250.5 C 99.363281 250.757812 98.835938 250.921875 98.308594 250.976562 C 97.566406 253.800781 97.042969 256.703125 95.890625 256.90625 C 96.488281 256.804688 97.0625 256.792969 97.625 256.855469 C 99.128906 257.015625 100.523438 257.660156 101.988281 258.203125 C 108.039062 260.453125 114.351562 262.929688 119.867188 266.332031 C 121.160156 267.132812 124.054688 268.769531 125.867188 268.144531 C 128.761719 267.144531 125.824219 261.914062 125.863281 259.480469 Z M 125.863281 259.480469 " fill-opacity="1" fill-rule="nonzero"/><path fill="#27557a" d="M 159.269531 282.472656 C 160.035156 279.980469 160.121094 277.292969 159.273438 275.234375 C 156.84375 269.296875 149.691406 266.65625 144.324219 263.957031 C 137.476562 260.507812 130.675781 256.964844 123.722656 253.75 C 121.640625 252.789062 116.707031 249.59375 114.578125 249.855469 C 112.757812 250.078125 110.742188 253.46875 110.023438 254.808594 C 107.121094 260.21875 106.558594 266.480469 106.714844 272.742188 C 106.738281 273.5 120.175781 277.078125 121.738281 277.75 C 127.605469 280.277344 133.195312 283.453125 139.054688 285.996094 C 143.59375 287.964844 149.1875 291.046875 153.9375 289.183594 C 156.414062 288.214844 158.339844 285.488281 159.269531 282.472656 Z M 159.269531 282.472656 " fill-opacity="1" fill-rule="nonzero"/><path fill="#c9dae2" d="M 99.6875 257.535156 C 100.816406 257.847656 101.953125 258.164062 103.09375 258.496094 C 104.222656 254.8125 105.578125 252.371094 106.699219 249.265625 C 105.992188 248.96875 105.292969 248.652344 104.609375 248.3125 C 103.304688 247.65625 100.714844 245.121094 99.140625 245.566406 C 95.761719 246.527344 95.957031 256.289062 93.851562 256.847656 C 94.421875 256.695312 94.972656 256.636719 95.511719 256.644531 C 96.941406 256.664062 98.285156 257.148438 99.6875 257.535156 Z M 99.6875 257.535156 " fill-opacity="1" fill-rule="nonzero"/><path fill="#78a8da" d="M 97.71875 259.046875 C 98.839844 258.71875 100.390625 258.941406 101.050781 257.496094 C 101.445312 256.632812 100.292969 255.191406 99.796875 254.765625 C 97.777344 256.292969 96.28125 257.367188 94.894531 259.691406 C 94.886719 259.703125 95.027344 259.683594 95.257812 259.632812 C 95.976562 259.480469 97.523438 259.101562 97.71875 259.046875 Z M 97.71875 259.046875 " fill-opacity="1" fill-rule="nonzero"/><path fill="#001c2d" d="M 88.378906 265.4375 C 90.273438 262.976562 92.664062 260.921875 95.355469 259.667969 C 95.363281 259.664062 95.371094 259.660156 95.378906 259.652344 C 96.808594 257.207031 99.59375 255.671875 99.730469 252.734375 C 99.839844 250.363281 100.035156 247.644531 102.761719 246.691406 C 102.523438 244.699219 97.167969 244.371094 97.585938 242.621094 C 96.613281 246.300781 95.847656 248.382812 93.304688 251.160156 C 90.835938 253.851562 88.394531 256.332031 86.554688 259.5625 C 84.324219 263.5 82.609375 272.914062 88.378906 265.4375 Z M 88.378906 265.4375 " fill-opacity="1" fill-rule="nonzero"/><path fill="#306191" d="M 92.6875 260.0625 C 93.753906 259.5 95.175781 258.566406 96.304688 258.382812 L 96.597656 256.765625 C 96.078125 254.230469 95.53125 251.53125 94.96875 248.988281 C 93.929688 249.765625 93.035156 251.421875 92.292969 252.503906 C 91.304688 253.953125 90.488281 255.078125 89.484375 256.511719 C 87.972656 258.675781 87.664062 259.0625 89.511719 259.984375 C 91.183594 260.820312 90.941406 260.984375 92.6875 260.0625 Z M 92.6875 260.0625 " fill-opacity="1" fill-rule="nonzero"/><path fill="#e6eaed" d="M 94.457031 260.75 C 94.449219 259.808594 94.144531 259.007812 93.589844 258.492188 C 93.457031 258.367188 93.238281 258.390625 93.101562 258.542969 C 93.09375 258.558594 93.082031 258.570312 93.074219 258.582031 C 92.96875 258.734375 92.980469 258.9375 93.105469 259.046875 C 93.53125 259.445312 93.765625 260.074219 93.769531 260.824219 C 93.769531 261.023438 93.925781 261.164062 94.117188 261.144531 C 94.304688 261.125 94.457031 260.945312 94.457031 260.75 Z M 94.457031 260.75 " fill-opacity="1" fill-rule="nonzero"/><path fill="#e6eaed" d="M 97.101562 259.570312 C 97.027344 258.503906 96.597656 257.601562 95.902344 257.03125 C 95.773438 256.921875 95.566406 256.957031 95.449219 257.105469 C 95.441406 257.113281 95.4375 257.121094 95.433594 257.128906 C 95.332031 257.277344 95.347656 257.46875 95.476562 257.574219 C 96.050781 258.046875 96.398438 258.792969 96.460938 259.683594 C 96.472656 259.867188 96.625 259.988281 96.804688 259.957031 C 96.984375 259.929688 97.113281 259.75 97.101562 259.570312 Z M 97.101562 259.570312 " fill-opacity="1" fill-rule="nonzero"/><path fill="#0f497b" d="M 98.53125 262.574219 C 98.796875 261.875 98.609375 260.933594 97.273438 260.394531 C 97.234375 260.382812 97.195312 260.371094 97.15625 260.371094 C 97.121094 260.285156 97.042969 260.21875 96.945312 260.203125 C 96.8125 260.175781 96.679688 260.242188 96.605469 260.359375 C 96.578125 260.394531 96.558594 260.433594 96.550781 260.476562 C 95.890625 262.992188 96.667969 263.480469 97.03125 263.578125 C 97.578125 263.714844 98.265625 263.257812 98.53125 262.574219 Z M 97.054688 261.050781 C 97.804688 261.375 98.132812 261.871094 97.933594 262.378906 C 97.910156 262.449219 97.875 262.515625 97.835938 262.574219 C 97.664062 262.824219 97.40625 262.960938 97.242188 262.917969 C 97.027344 262.863281 96.773438 262.402344 97.054688 261.050781 Z M 97.054688 261.050781 " fill-opacity="1" fill-rule="nonzero"/><path fill="#0f497b" d="M 95.921875 261.472656 C 95.914062 261.40625 95.882812 261.351562 95.839844 261.308594 C 95.84375 261.308594 95.847656 261.308594 95.847656 261.308594 C 96.019531 261.253906 96.132812 261.066406 96.097656 260.886719 C 96.0625 260.710938 95.890625 260.613281 95.71875 260.667969 C 94.933594 260.917969 94.515625 261.257812 94.300781 261.582031 C 94.039062 261.96875 94.066406 262.332031 94.097656 262.492188 C 94.214844 263.089844 94.800781 263.507812 95.3125 263.355469 C 95.582031 263.273438 96.175781 262.925781 95.921875 261.472656 Z M 94.726562 262.292969 C 94.675781 262.023438 94.878906 261.757812 95.289062 261.539062 C 95.285156 261.574219 95.28125 261.613281 95.289062 261.65625 C 95.417969 262.390625 95.28125 262.679688 95.191406 262.707031 C 95.054688 262.75 94.777344 262.5625 94.726562 262.292969 Z M 94.726562 262.292969 " fill-opacity="1" fill-rule="nonzero"/><path fill="#0f497b" d="M 99.863281 261.59375 C 99.960938 261.746094 100.164062 261.777344 100.320312 261.664062 C 100.480469 261.546875 100.53125 261.328125 100.433594 261.171875 C 99.777344 260.097656 98.429688 259.90625 97.679688 259.890625 C 97.558594 259.890625 97.441406 259.957031 97.375 260.058594 C 97.339844 260.109375 97.316406 260.167969 97.308594 260.230469 C 97.285156 260.425781 97.414062 260.582031 97.597656 260.585938 C 98.222656 260.601562 99.351562 260.753906 99.863281 261.59375 Z M 99.863281 261.59375 " fill-opacity="1" fill-rule="nonzero"/><path fill="#306191" d="M 103.496094 246.4375 C 103.730469 245.925781 98.042969 243.585938 97.59375 243.472656 C 96.996094 244.6875 97.632812 245.875 98.691406 246.671875 C 100.25 247.84375 102.710938 248.160156 103.496094 246.4375 Z M 103.496094 246.4375 " fill-opacity="1" fill-rule="nonzero"/><path fill="#c13c27" d="M 90.542969 255.980469 C 91.226562 255.007812 91.902344 254.023438 92.578125 253.027344 C 93.714844 251.339844 95.015625 249.765625 96.152344 248.070312 C 96.800781 247.097656 97.519531 246.082031 97.96875 245 C 98.75 243.125 98.390625 243.226562 96.660156 242.316406 C 95.234375 244.257812 94.261719 246.339844 92.914062 248.324219 C 90.734375 251.53125 88.644531 254.796875 86.484375 257.988281 C 85.003906 260.175781 82.207031 263.601562 82.949219 266.355469 C 83.167969 267.1875 84.976562 268.144531 85.003906 268.320312 C 84.273438 263.542969 87.945312 259.6875 90.542969 255.980469 Z M 90.542969 255.980469 " fill-opacity="1" fill-rule="nonzero"/><path fill="#11324c" d="M 146.339844 266.574219 C 145.53125 265.753906 144.976562 264.742188 144.324219 263.804688 C 144.046875 263.402344 143.484375 263.910156 143.761719 264.304688 C 144.414062 265.246094 144.96875 266.257812 145.773438 267.078125 C 146.113281 267.425781 146.679688 266.921875 146.339844 266.574219 Z M 146.339844 266.574219 " fill-opacity="1" fill-rule="nonzero"/><path fill="#11324c" d="M 148.65625 265.34375 C 148.015625 265.117188 147.519531 264.683594 146.984375 264.285156 C 146.59375 263.992188 146.179688 264.625 146.566406 264.914062 C 147.160156 265.359375 147.710938 265.8125 148.421875 266.0625 C 148.882812 266.222656 149.113281 265.503906 148.65625 265.34375 Z M 148.65625 265.34375 " fill-opacity="1" fill-rule="nonzero"/><path fill="#ffffff" d="M 143.308594 280.738281 C 143.671875 281.003906 144.132812 280.367188 143.765625 280.101562 C 135.339844 274.007812 125.539062 270.449219 115.539062 267.445312 C 115.109375 267.316406 114.8125 268.035156 115.25 268.167969 C 125.1875 271.15625 134.929688 274.679688 143.308594 280.738281 Z M 143.308594 280.738281 " fill-opacity="1" fill-rule="nonzero"/><path fill="#ffffff" d="M 156.074219 257.613281 C 157.214844 254.929688 158.511719 251.972656 160.839844 250.222656 C 161.148438 249.988281 160.625 249.472656 160.320312 249.703125 C 158.023438 251.429688 156.730469 254.320312 155.578125 256.949219 C 154.320312 259.828125 153.335938 262.859375 152.136719 265.769531 C 151.988281 266.136719 152.601562 266.523438 152.753906 266.15625 C 153.914062 263.339844 154.882812 260.414062 156.074219 257.613281 Z M 156.074219 257.613281 " fill-opacity="1" fill-rule="nonzero"/><path fill="#c25c4d" d="M 204.5 162.800781 C 200.886719 162.375 200.421875 164.378906 200.378906 167.621094 C 200.34375 170.5625 198.671875 172.9375 198.65625 175.734375 C 198.640625 179.921875 203.320312 179.109375 206.09375 178.375 C 209.421875 177.496094 215.210938 176.796875 217.695312 174.566406 C 219.75 172.722656 218.644531 168.769531 217.316406 166.832031 C 215.082031 163.570312 211.59375 163.535156 208.011719 163.28125 C 206.886719 163.207031 205.648438 162.933594 204.5 162.800781 Z M 204.5 162.800781 " fill-opacity="1" fill-rule="nonzero"/><path fill="#c25c4d" d="M 236.371094 154.472656 C 235.59375 157.242188 232.292969 160.570312 231.199219 162.082031 C 229.195312 164.847656 226.652344 167.304688 224.210938 169.679688 C 222.566406 171.28125 220.125 174.421875 217.605469 174.566406 C 213.777344 174.785156 210.902344 168.261719 212.902344 165.191406 C 215.785156 160.765625 221.289062 159.574219 225.070312 156.292969 C 227.5 154.191406 230.71875 149.214844 234.542969 150.796875 C 236.453125 151.585938 236.792969 152.941406 236.371094 154.472656 Z M 236.371094 154.472656 " fill-opacity="1" fill-rule="nonzero"/><path fill="#1b3c5e" d="M 204.167969 161.351562 C 203.515625 161.050781 202.675781 161.007812 201.773438 160.933594 C 199.007812 160.710938 194.046875 159.050781 191.339844 158.511719 C 189.191406 158.082031 188.59375 157.582031 186.578125 158.992188 C 182.609375 161.78125 182.664062 168.492188 182.683594 172.792969 C 182.695312 175.234375 187.0625 189.0625 186.4375 189.621094 C 189.15625 187.203125 192.101562 184.019531 195.558594 182.671875 C 196.339844 182.367188 204.054688 181.554688 204.050781 181.625 C 204.226562 178.726562 207.332031 162.824219 204.167969 161.351562 Z M 204.167969 161.351562 " fill-opacity="1" fill-rule="nonzero"/><path fill="#c25c4d" d="M 211.753906 174.589844 C 212.042969 177.632812 215.90625 177.921875 217.9375 176.117188 C 222.492188 172.074219 211.242188 169.15625 211.753906 174.589844 Z M 211.753906 174.589844 " fill-opacity="1" fill-rule="nonzero"/><path fill="#efecec" d="M 215.328125 164.859375 C 215.773438 165.414062 216.265625 165.933594 216.601562 166.566406 C 216.707031 166.761719 217.007812 166.605469 216.902344 166.414062 C 216.554688 165.757812 216.042969 165.210938 215.582031 164.632812 C 215.441406 164.464844 215.191406 164.691406 215.328125 164.859375 Z M 215.328125 164.859375 " fill-opacity="1" fill-rule="nonzero"/><path fill="#efecec" d="M 213.839844 164.992188 C 213.714844 165.691406 213.644531 166.40625 213.386719 167.078125 C 213.308594 167.28125 213.621094 167.40625 213.699219 167.203125 C 213.964844 166.503906 214.042969 165.761719 214.175781 165.035156 C 214.210938 164.816406 213.878906 164.777344 213.839844 164.992188 Z M 213.839844 164.992188 " fill-opacity="1" fill-rule="nonzero"/><path fill="#77a7d9" d="M 187.996094 135.628906 C 186.910156 134.808594 185.667969 134.449219 184.53125 135.300781 C 182.636719 136.730469 182.3125 139.664062 180.976562 141.511719 C 179.972656 142.894531 172.390625 152.488281 177.820312 152.289062 C 180.191406 152.203125 182.351562 151.011719 184.707031 151.046875 C 186.300781 151.074219 188.6875 151.332031 189.777344 149.882812 C 190.535156 148.871094 191.21875 146.714844 191.453125 145.507812 C 191.886719 143.261719 191.648438 141.101562 190.6875 139.035156 C 190.21875 138.019531 189.203125 136.539062 187.996094 135.628906 Z M 187.996094 135.628906 " fill-opacity="1" fill-rule="nonzero"/><path fill="#eaf7f9" d="M 183.757812 146.664062 C 183.8125 146.4375 183.800781 146.199219 183.726562 145.980469 C 183.710938 145.9375 183.667969 145.914062 183.625 145.921875 C 183.585938 145.933594 183.554688 145.984375 183.570312 146.023438 C 183.632812 146.21875 183.644531 146.421875 183.597656 146.621094 C 183.574219 146.726562 183.734375 146.765625 183.757812 146.664062 Z M 183.757812 146.664062 " fill-opacity="1" fill-rule="nonzero"/><path fill="#eaf6f7" d="M 177.851562 147.703125 C 177.898438 147.796875 177.964844 147.867188 178.050781 147.921875 C 178.09375 147.945312 178.140625 147.964844 178.1875 147.988281 C 178.261719 148.015625 178.339844 148.023438 178.417969 148.007812 C 178.496094 148.007812 178.570312 147.992188 178.636719 147.949219 C 178.707031 147.914062 178.765625 147.867188 178.808594 147.804688 C 178.863281 147.75 178.902344 147.6875 178.921875 147.613281 C 178.929688 147.59375 178.933594 147.578125 178.9375 147.558594 C 178.953125 147.496094 178.96875 147.425781 178.972656 147.359375 C 178.976562 147.34375 178.976562 147.324219 178.972656 147.308594 C 178.96875 147.242188 178.964844 147.171875 178.957031 147.105469 C 178.953125 147.089844 178.949219 147.074219 178.945312 147.054688 C 178.925781 146.996094 178.902344 146.9375 178.878906 146.878906 C 178.847656 146.804688 178.792969 146.738281 178.75 146.679688 C 178.730469 146.652344 178.714844 146.628906 178.6875 146.605469 C 178.636719 146.558594 178.570312 146.496094 178.503906 146.460938 C 178.453125 146.433594 178.402344 146.410156 178.347656 146.386719 C 178.347656 146.382812 178.339844 146.382812 178.335938 146.382812 C 178.285156 146.371094 178.234375 146.363281 178.179688 146.355469 C 178.128906 146.359375 178.078125 146.363281 178.023438 146.367188 C 178.003906 146.371094 177.945312 146.398438 177.945312 146.398438 C 177.945312 146.398438 177.945312 146.398438 177.949219 146.394531 C 177.945312 146.394531 177.945312 146.398438 177.945312 146.398438 C 177.925781 146.40625 177.894531 146.414062 177.871094 146.425781 C 177.867188 146.425781 177.867188 146.425781 177.867188 146.429688 C 177.839844 146.441406 177.761719 146.496094 177.738281 146.519531 C 177.65625 146.585938 177.632812 146.636719 177.59375 146.722656 C 177.582031 146.746094 177.5625 146.777344 177.554688 146.804688 C 177.554688 146.804688 177.554688 146.808594 177.550781 146.8125 C 177.542969 146.832031 177.523438 146.949219 177.523438 146.96875 C 177.511719 147.078125 177.542969 147.226562 177.597656 147.324219 C 177.609375 147.347656 177.632812 147.375 177.644531 147.390625 C 177.632812 147.375 177.675781 147.441406 177.691406 147.457031 C 177.71875 147.484375 177.765625 147.523438 177.792969 147.546875 C 177.792969 147.550781 177.792969 147.554688 177.796875 147.554688 C 177.816406 147.609375 177.832031 147.65625 177.851562 147.703125 Z M 177.851562 147.703125 " fill-opacity="1" fill-rule="nonzero"/><path fill="#ec785a" d="M 177.132812 155.792969 C 176.84375 156.472656 175.863281 157.644531 175.8125 158.332031 C 175.746094 159.3125 176.183594 159.171875 176.753906 159.945312 C 177.394531 160.8125 177.691406 161.851562 178.171875 162.8125 C 179.464844 165.402344 182.414062 167.082031 185.304688 166.914062 C 187.464844 166.792969 188.832031 164.617188 189.675781 162.882812 C 190.046875 162.121094 190.796875 161.085938 190.878906 160.234375 C 191.101562 157.976562 187.632812 158.734375 187.375 156.300781 C 187.148438 154.199219 187.808594 152.308594 188.003906 150.242188 C 188.015625 150.128906 188.023438 149.996094 187.949219 149.90625 C 187.863281 149.792969 187.699219 149.785156 187.558594 149.78125 C 184.589844 149.75 181.636719 148.941406 179.066406 147.453125 C 179.460938 147.683594 178.25 152.214844 178.101562 152.847656 C 177.867188 153.855469 177.539062 154.839844 177.132812 155.792969 Z M 177.132812 155.792969 " fill-opacity="1" fill-rule="nonzero"/><path fill="#f2ddd4" d="M 183.757812 147.285156 L 183.808594 147.285156 L 183.84375 147.28125 C 183.816406 147.285156 183.789062 147.285156 183.757812 147.285156 Z M 183.757812 147.285156 " fill-opacity="1" fill-rule="nonzero"/><path fill="#f2dfd6" d="M 182.441406 146.753906 L 182.488281 146.757812 L 182.519531 146.753906 C 182.492188 146.753906 182.464844 146.753906 182.441406 146.753906 Z M 182.441406 146.753906 " fill-opacity="1" fill-rule="nonzero"/><path fill="#ec785a" d="M 187.929688 152.871094 C 189.597656 151.34375 190.78125 148.8125 190.417969 146.585938 C 190.34375 146.113281 190.160156 145.566406 190.238281 145.058594 C 190.351562 144.296875 190.644531 143.855469 190.457031 143.039062 C 190.101562 141.503906 189.335938 140.046875 187.761719 139.34375 C 187.234375 139.105469 186.617188 138.953125 185.914062 138.898438 C 178.15625 138.308594 176.78125 148.179688 180.980469 151.503906 C 182.03125 152.335938 183.246094 153.566406 184.613281 153.753906 C 185.953125 153.945312 187.054688 153.675781 187.929688 152.871094 Z M 187.929688 152.871094 " fill-opacity="1" fill-rule="nonzero"/><path fill="#04283a" d="M 183.894531 144.136719 C 184.644531 144.039062 184.730469 143.527344 184.652344 143.003906 C 184.183594 143.191406 183.792969 143.394531 183.292969 143.507812 C 182.804688 143.613281 181.765625 143.742188 181.742188 144.324219 C 181.742188 144.304688 181.859375 144.285156 182.042969 144.265625 C 182.609375 144.207031 183.773438 144.152344 183.894531 144.136719 Z M 183.894531 144.136719 " fill-opacity="1" fill-rule="nonzero"/><path fill="#04283a" d="M 189.875 144.300781 C 190.027344 143.742188 189.6875 143.671875 189.207031 143.460938 C 189.113281 143.421875 188.035156 142.996094 188.050781 142.914062 C 187.964844 143.320312 187.941406 143.640625 188.203125 143.847656 C 188.289062 143.917969 188.410156 143.976562 188.574219 144.023438 C 188.671875 144.046875 189.902344 144.210938 189.875 144.300781 Z M 189.875 144.300781 " fill-opacity="1" fill-rule="nonzero"/><path fill="#e95451" d="M 183.628906 148.445312 C 183.65625 148.53125 183.632812 148.464844 183.617188 148.425781 C 183.363281 147.726562 181.382812 147.605469 181.742188 148.808594 C 182.027344 149.761719 184.089844 149.5 183.628906 148.445312 Z M 183.628906 148.445312 " fill-opacity="1" fill-rule="nonzero"/><path fill="#e95451" d="M 188.496094 148.480469 C 188.808594 149.164062 190.273438 148.769531 189.820312 148.027344 C 189.847656 148.089844 189.824219 148.042969 189.8125 148.015625 C 189.546875 147.511719 188.101562 147.613281 188.496094 148.480469 Z M 188.496094 148.480469 " fill-opacity="1" fill-rule="nonzero"/><path fill="#e5694c" d="M 190.304688 141.445312 C 189.886719 140.769531 189.351562 139.992188 188.722656 139.484375 C 187.421875 138.433594 185.546875 138.421875 183.9375 138.789062 C 181.179688 139.421875 178.429688 142.355469 178.320312 145.21875 C 179.046875 144.160156 180.234375 143.523438 181.414062 143.015625 C 182.589844 142.511719 183.828125 142.078125 184.832031 141.277344 C 185.550781 140.703125 186.125 139.949219 186.492188 139.105469 C 186.488281 139.113281 187.28125 139.628906 187.363281 139.6875 C 187.945312 140.101562 188.484375 140.515625 188.929688 141.109375 C 189.222656 141.503906 189.492188 141.875 189.679688 142.328125 C 189.78125 142.570312 190.265625 143.515625 190.160156 143.757812 C 190.488281 142.988281 190.753906 142.171875 190.304688 141.445312 Z M 190.304688 141.445312 " fill-opacity="1" fill-rule="nonzero"/><path fill="#001c2d" d="M 183.394531 145.953125 C 183.359375 145.398438 183.125 145.003906 182.871094 145.0625 C 182.613281 145.125 182.433594 145.621094 182.464844 146.171875 C 182.5 146.722656 182.734375 147.121094 182.988281 147.058594 C 183.242188 146.996094 183.425781 146.5 183.394531 145.953125 Z M 183.394531 145.953125 " fill-opacity="1" fill-rule="nonzero"/><path fill="#001c2d" d="M 188.886719 145.648438 C 188.835938 145.132812 188.625 144.753906 188.417969 144.800781 C 188.210938 144.84375 188.085938 145.296875 188.144531 145.8125 C 188.195312 146.328125 188.410156 146.710938 188.617188 146.664062 C 188.820312 146.621094 188.945312 146.167969 188.886719 145.648438 Z M 188.886719 145.648438 " fill-opacity="1" fill-rule="nonzero"/><path fill="#77a7d9" d="M 186.742188 135.953125 C 185.921875 134.570312 183.199219 133.890625 181.75 134.082031 C 179.363281 134.394531 175.136719 136.351562 172.957031 134.644531 C 171.980469 133.882812 171.679688 132.53125 170.433594 132.171875 C 169.90625 132.03125 168.199219 135.320312 167.972656 135.703125 C 166.511719 138.164062 166.777344 138.929688 167.207031 141.675781 C 166.765625 141.144531 166.097656 140.519531 165.738281 139.871094 C 165.125 138.75 162.078125 143.636719 162.003906 144.160156 C 161.6875 146.507812 164.054688 149.195312 165.75 150.53125 C 166.941406 151.464844 168.398438 152.300781 169.917969 152.855469 C 168.0625 152.609375 166.253906 152.03125 164.71875 150.929688 C 162.867188 149.597656 161.816406 147.539062 161.472656 145.320312 C 161.449219 145.164062 161.214844 145.230469 161.238281 145.382812 C 161.585938 147.628906 162.640625 149.632812 164.453125 151.03125 C 166.222656 152.398438 168.46875 152.992188 170.664062 153.175781 C 170.710938 153.183594 170.742188 153.160156 170.761719 153.128906 C 171.355469 153.300781 171.945312 153.421875 172.535156 153.488281 C 173.507812 153.597656 174.550781 153.671875 175.523438 153.492188 C 175.886719 153.421875 177.855469 152.890625 177.992188 152.546875 C 178.707031 150.742188 178.941406 148.734375 178.859375 146.808594 C 178.769531 144.726562 179.378906 142.8125 181.117188 141.523438 C 182.871094 140.222656 185.265625 139.960938 186.5625 138.027344 C 187.101562 137.226562 187.085938 136.527344 186.742188 135.953125 Z M 186.742188 135.953125 " fill-opacity="1" fill-rule="nonzero"/><path fill="#ec785a" d="M 179.203125 148.960938 C 179.890625 148.335938 179.480469 146.515625 178.484375 146.542969 C 176.433594 146.597656 177.988281 150.074219 179.203125 148.960938 Z M 179.203125 148.960938 " fill-opacity="1" fill-rule="nonzero"/><path fill="#d04e38" d="M 178.660156 147.425781 L 178.351562 147.640625 C 178.375 147.96875 178.480469 148.476562 178.921875 148.167969 C 178.851562 147.917969 178.75 147.667969 178.660156 147.425781 Z M 178.660156 147.425781 " fill-opacity="1" fill-rule="nonzero"/><path fill="#77a7d9" d="M 189.324219 138.679688 C 188.574219 138.195312 187.882812 137.40625 186.988281 137.1875 C 186.292969 137.042969 185.953125 137.941406 185.636719 138.398438 C 187.214844 138.941406 188.472656 139.707031 189.425781 141.128906 C 190.050781 142.054688 190.324219 143.179688 190.550781 144.257812 C 190.5625 144.308594 191.09375 143.582031 191.132812 143.472656 C 191.710938 141.773438 190.859375 139.675781 189.324219 138.679688 Z M 189.324219 138.679688 " fill-opacity="1" fill-rule="nonzero"/><path fill="#77a7d9" d="M 159.808594 160.675781 C 160.378906 161.164062 160.984375 161.648438 161.757812 161.804688 C 162.707031 161.996094 163.664062 161.464844 164.425781 160.933594 C 164.535156 160.855469 164.417969 160.699219 164.304688 160.773438 C 163.429688 161.390625 162.425781 161.871094 161.378906 161.484375 C 160.5625 161.179688 159.921875 160.484375 159.273438 159.9375 C 158.515625 159.304688 157.707031 158.78125 156.671875 158.679688 C 155.617188 158.570312 154.535156 158.910156 153.480469 158.972656 C 153.347656 158.980469 153.367188 159.175781 153.5 159.171875 C 154.628906 159.105469 155.765625 158.75 156.890625 158.90625 C 158.078125 159.074219 158.957031 159.945312 159.808594 160.675781 Z M 159.808594 160.675781 " fill-opacity="1" fill-rule="nonzero"/><path fill="#e5785c" d="M 187.777344 147.585938 C 187.777344 147.585938 187.777344 147.582031 187.777344 147.582031 C 187.777344 147.582031 187.777344 147.585938 187.777344 147.589844 C 187.777344 147.597656 187.777344 147.605469 187.777344 147.609375 C 187.777344 147.621094 187.777344 147.632812 187.777344 147.640625 C 187.777344 147.644531 187.777344 147.644531 187.777344 147.644531 C 187.773438 147.648438 187.773438 147.65625 187.769531 147.664062 C 187.769531 147.671875 187.765625 147.683594 187.761719 147.691406 C 187.761719 147.691406 187.761719 147.695312 187.761719 147.695312 C 187.757812 147.699219 187.753906 147.703125 187.753906 147.707031 C 187.75 147.714844 187.746094 147.71875 187.742188 147.726562 C 187.734375 147.734375 187.726562 147.746094 187.71875 147.75 C 187.6875 147.78125 187.695312 147.832031 187.722656 147.859375 C 187.75 147.894531 187.800781 147.886719 187.832031 147.859375 C 188.03125 147.6875 187.921875 147.304688 187.664062 147.257812 C 187.621094 147.25 187.582031 147.269531 187.566406 147.3125 C 187.558594 147.351562 187.585938 147.398438 187.621094 147.40625 C 187.632812 147.40625 187.644531 147.410156 187.65625 147.414062 C 187.65625 147.414062 187.65625 147.414062 187.660156 147.417969 C 187.664062 147.417969 187.671875 147.421875 187.675781 147.425781 C 187.679688 147.429688 187.683594 147.429688 187.6875 147.433594 C 187.691406 147.4375 187.691406 147.4375 187.695312 147.4375 C 187.699219 147.445312 187.710938 147.449219 187.714844 147.457031 C 187.71875 147.460938 187.730469 147.46875 187.730469 147.472656 C 187.726562 147.472656 187.726562 147.46875 187.722656 147.46875 C 187.726562 147.46875 187.726562 147.472656 187.730469 147.476562 C 187.738281 147.484375 187.742188 147.496094 187.75 147.503906 C 187.75 147.511719 187.753906 147.515625 187.753906 147.519531 C 187.761719 147.53125 187.765625 147.542969 187.765625 147.554688 C 187.765625 147.554688 187.769531 147.574219 187.773438 147.582031 C 187.777344 147.582031 187.777344 147.582031 187.777344 147.585938 Z M 187.777344 147.585938 " fill-opacity="1" fill-rule="nonzero"/><path fill="#d04e38" d="M 184.25 147.292969 C 184.390625 147.347656 184.464844 147.121094 184.320312 147.074219 C 183.519531 146.78125 182.625 146.773438 181.816406 147.054688 C 181.675781 147.105469 181.726562 147.335938 181.867188 147.285156 C 182.640625 147.011719 183.480469 147.011719 184.25 147.292969 Z M 184.25 147.292969 " fill-opacity="1" fill-rule="nonzero"/><path fill="#d04e38" d="M 189.675781 146.96875 C 189.820312 147.011719 189.894531 146.789062 189.75 146.746094 C 189.183594 146.585938 188.578125 146.578125 188.011719 146.742188 C 187.867188 146.78125 187.917969 147.011719 188.0625 146.96875 C 188.589844 146.820312 189.148438 146.820312 189.675781 146.96875 Z M 189.675781 146.96875 " fill-opacity="1" fill-rule="nonzero"/><path fill="#306191" d="M 200.976562 229.085938 C 195.164062 224.496094 188.617188 220.136719 184.460938 213.882812 C 180.796875 208.367188 183.777344 202.675781 181.523438 197.054688 C 181.359375 196.652344 172.066406 195.824219 170.835938 195.371094 C 166.964844 193.953125 164.574219 190.296875 161.308594 194.464844 C 157.167969 199.746094 153.019531 208.5625 152.296875 215.179688 C 151.191406 225.339844 155.976562 234.289062 164.148438 239.980469 C 176.070312 248.285156 189.746094 255 202.863281 261.195312 C 209.820312 264.476562 215.609375 256.140625 219.675781 251.480469 C 219.929688 249.40625 220.886719 246.816406 220.152344 244.835938 C 219.347656 242.671875 216.601562 240.734375 214.902344 239.28125 C 210.738281 235.726562 205.511719 232.671875 200.976562 229.085938 Z M 200.976562 229.085938 " fill-opacity="1" fill-rule="nonzero"/><path fill="#c25c4c" d="M 200.507812 303.445312 C 199.558594 302.394531 197.734375 300.582031 196.160156 301.875 C 195.558594 302.367188 194.640625 302.585938 194.394531 303.527344 C 193.449219 307.054688 191.621094 316.339844 190.15625 322.804688 C 192.355469 323.46875 194.5 324.296875 196.679688 325.003906 C 196.742188 324.863281 196.796875 324.742188 196.84375 324.644531 C 197.585938 323.171875 201.054688 316.339844 201.832031 314.214844 C 202.671875 311.917969 204.054688 309.148438 203.363281 306.972656 C 202.859375 305.386719 201.429688 304.46875 200.507812 303.445312 Z M 200.507812 303.445312 " fill-opacity="1" fill-rule="nonzero"/><g clip-path="url(#cfad28ac10)"><path fill="#c13c27" d="M 203.105469 328.542969 C 200.8125 327.121094 197.546875 326.621094 195.8125 324.5625 C 195.589844 324.292969 195.410156 323.988281 195.289062 323.617188 C 194.910156 322.464844 195.796875 319.398438 192.984375 319.726562 C 190.675781 319.996094 187.867188 325.304688 187.304688 326.964844 C 188.5 327.800781 194.714844 332.074219 196.128906 332.808594 C 205.167969 337.492188 208.4375 337.132812 208.4375 337.132812 C 208.4375 337.132812 209.351562 336.355469 209.484375 335.625 C 209.816406 333.753906 204.898438 329.652344 203.105469 328.542969 Z M 203.105469 328.542969 " fill-opacity="1" fill-rule="nonzero"/></g><path fill="#c9dae2" d="M 190.675781 321.027344 C 190.375 321.933594 190.191406 321.816406 190.808594 322.644531 C 191.28125 323.277344 191.859375 323.175781 192.527344 323.464844 C 193.539062 323.902344 194.386719 324.667969 195.445312 325.058594 C 197.640625 325.871094 197.628906 326.535156 198.367188 324.875 C 198.871094 323.746094 199.976562 319.226562 200.597656 317.675781 C 197.378906 317.183594 194.097656 316.734375 191.601562 315.496094 C 191.300781 318.027344 190.988281 320.074219 190.675781 321.027344 Z M 190.675781 321.027344 " fill-opacity="1" fill-rule="nonzero"/><path fill="#001c2d" d="M 199.945312 322.007812 C 196.949219 324.207031 196.578125 323.15625 193.917969 320.785156 C 192.761719 319.753906 191.628906 318.796875 191.925781 316.898438 C 191.792969 317.753906 189.460938 320.5 189.144531 321.902344 C 188.695312 323.875 189.46875 325.320312 190.980469 326.335938 C 192.792969 327.546875 195.78125 329.492188 198.191406 329.265625 C 201.589844 328.945312 200.839844 324.722656 200.074219 322.382812 C 200.03125 322.253906 199.988281 322.125 199.945312 322.007812 Z M 199.945312 322.007812 " fill-opacity="1" fill-rule="nonzero"/><path fill="#78a8da" d="M 201.070312 319.570312 C 200.46875 319.21875 199.828125 319.136719 199.234375 319.261719 C 198.042969 319.511719 197.03125 320.597656 196.871094 322.03125 C 196.71875 323.464844 197.769531 324.945312 198.515625 326.042969 C 199.191406 327.03125 199.40625 327.644531 200.324219 326.613281 C 201.898438 324.847656 203.742188 321.136719 201.070312 319.570312 Z M 201.070312 319.570312 " fill-opacity="1" fill-rule="nonzero"/><path fill="#0f497b" d="M 204.691406 321.265625 C 204.425781 320.910156 203.898438 320.820312 203.476562 320.875 C 202.90625 320.949219 202.480469 321.394531 202.308594 321.929688 C 202.261719 322.082031 202.351562 322.253906 202.507812 322.296875 C 202.558594 322.3125 202.617188 322.308594 202.667969 322.296875 C 202.542969 322.351562 202.476562 322.515625 202.503906 322.644531 C 202.542969 322.8125 202.699219 322.882812 202.863281 322.855469 C 203.210938 322.804688 203.558594 322.734375 203.890625 322.613281 C 204.128906 322.527344 204.363281 322.421875 204.558594 322.253906 C 204.714844 322.117188 204.8125 321.945312 204.84375 321.746094 C 204.871094 321.566406 204.792969 321.402344 204.691406 321.265625 Z M 204.21875 321.761719 C 204.214844 321.765625 204.214844 321.765625 204.214844 321.765625 C 204.199219 321.78125 204.183594 321.796875 204.167969 321.8125 C 204.15625 321.820312 204.128906 321.839844 204.117188 321.851562 C 204.101562 321.859375 204.089844 321.871094 204.074219 321.878906 C 204.019531 321.914062 203.960938 321.945312 203.902344 321.972656 C 203.882812 321.980469 203.808594 322.011719 203.804688 322.011719 C 203.777344 322.023438 203.746094 322.039062 203.714844 322.042969 C 203.625 322.078125 203.535156 322.105469 203.445312 322.128906 C 203.210938 322.191406 202.96875 322.234375 202.726562 322.273438 C 202.714844 322.277344 202.699219 322.28125 202.6875 322.285156 C 202.777344 322.253906 202.847656 322.179688 202.882812 322.089844 C 202.894531 322.042969 202.910156 321.996094 202.925781 321.957031 C 202.929688 321.953125 202.929688 321.945312 202.9375 321.933594 C 202.941406 321.921875 202.949219 321.90625 202.957031 321.894531 C 202.976562 321.859375 202.996094 321.824219 203.019531 321.789062 C 203.03125 321.777344 203.054688 321.746094 203.066406 321.730469 C 203.105469 321.683594 203.152344 321.640625 203.199219 321.601562 C 203.210938 321.59375 203.222656 321.585938 203.234375 321.578125 C 203.261719 321.5625 203.289062 321.546875 203.316406 321.53125 C 203.328125 321.523438 203.34375 321.519531 203.359375 321.511719 C 203.386719 321.503906 203.414062 321.492188 203.441406 321.484375 C 203.472656 321.476562 203.507812 321.46875 203.539062 321.460938 C 203.546875 321.460938 203.558594 321.457031 203.566406 321.457031 C 203.628906 321.453125 203.6875 321.449219 203.75 321.453125 C 203.777344 321.449219 203.800781 321.457031 203.828125 321.457031 C 203.835938 321.457031 203.84375 321.460938 203.855469 321.464844 C 203.902344 321.472656 203.949219 321.484375 203.996094 321.5 C 204.011719 321.507812 204.03125 321.511719 204.046875 321.523438 C 204.085938 321.539062 204.125 321.5625 204.160156 321.585938 C 204.167969 321.589844 204.175781 321.59375 204.183594 321.601562 C 204.1875 321.605469 204.191406 321.613281 204.195312 321.613281 C 204.210938 321.625 204.222656 321.640625 204.234375 321.65625 C 204.238281 321.664062 204.242188 321.671875 204.246094 321.683594 C 204.25 321.6875 204.25 321.695312 204.25 321.699219 C 204.25 321.707031 204.25 321.710938 204.242188 321.714844 C 204.238281 321.734375 204.226562 321.75 204.21875 321.761719 Z M 204.21875 321.761719 " fill-opacity="1" fill-rule="nonzero"/><path fill="#0f497b" d="M 200.460938 320.453125 C 200.128906 320.285156 199.757812 320.1875 199.378906 320.1875 C 199.070312 320.1875 198.699219 320.246094 198.464844 320.476562 C 198.199219 320.738281 198.203125 321.125 198.398438 321.414062 C 198.722656 321.886719 199.238281 322.199219 199.730469 322.46875 C 200.082031 322.667969 200.425781 322.117188 200.074219 321.921875 C 199.867188 321.804688 199.664062 321.683594 199.46875 321.546875 C 199.3125 321.4375 199.25 321.394531 199.125 321.269531 C 199.082031 321.222656 199.035156 321.179688 198.996094 321.128906 C 198.988281 321.121094 198.96875 321.09375 198.960938 321.085938 C 198.953125 321.074219 198.945312 321.0625 198.941406 321.050781 C 198.929688 321.03125 198.917969 321.015625 198.910156 320.992188 C 198.90625 320.988281 198.90625 320.988281 198.90625 320.984375 C 198.902344 320.972656 198.898438 320.960938 198.894531 320.941406 C 198.898438 320.9375 198.90625 320.933594 198.910156 320.925781 C 198.925781 320.917969 198.949219 320.90625 198.957031 320.898438 C 198.964844 320.894531 198.972656 320.894531 198.980469 320.890625 C 199.039062 320.871094 199.097656 320.851562 199.15625 320.84375 C 199.167969 320.839844 199.175781 320.839844 199.183594 320.839844 C 199.191406 320.835938 199.203125 320.835938 199.210938 320.835938 C 199.25 320.832031 199.285156 320.832031 199.320312 320.832031 C 199.394531 320.828125 199.472656 320.835938 199.546875 320.839844 C 199.558594 320.84375 199.59375 320.84375 199.601562 320.851562 C 199.609375 320.851562 199.613281 320.851562 199.621094 320.851562 C 199.660156 320.855469 199.699219 320.863281 199.738281 320.875 C 199.816406 320.894531 199.898438 320.914062 199.972656 320.945312 C 199.996094 320.953125 200.023438 320.964844 200.046875 320.972656 C 200.085938 320.988281 200.121094 321.007812 200.15625 321.027344 C 200.222656 321.0625 200.289062 321.109375 200.355469 321.15625 C 200.355469 321.160156 200.359375 321.164062 200.367188 321.167969 C 200.382812 321.183594 200.394531 321.195312 200.410156 321.207031 C 200.4375 321.234375 200.464844 321.265625 200.488281 321.292969 C 200.496094 321.304688 200.503906 321.3125 200.511719 321.324219 C 200.515625 321.328125 200.519531 321.335938 200.523438 321.339844 C 200.542969 321.371094 200.5625 321.40625 200.578125 321.441406 C 200.585938 321.457031 200.59375 321.472656 200.597656 321.492188 C 200.601562 321.496094 200.609375 321.507812 200.609375 321.515625 C 200.617188 321.554688 200.628906 321.59375 200.636719 321.632812 C 200.636719 321.644531 200.640625 321.664062 200.640625 321.675781 C 200.640625 321.683594 200.644531 321.695312 200.640625 321.703125 C 200.640625 321.75 200.640625 321.796875 200.640625 321.839844 C 200.636719 321.855469 200.628906 321.917969 200.628906 321.914062 C 200.625 321.925781 200.625 321.941406 200.621094 321.953125 C 200.609375 322.007812 200.59375 322.054688 200.578125 322.109375 C 200.558594 322.160156 200.539062 322.214844 200.519531 322.261719 C 200.511719 322.277344 200.496094 322.308594 200.496094 322.308594 C 200.480469 322.339844 200.464844 322.367188 200.449219 322.394531 C 200.25 322.761719 200.789062 323.089844 200.988281 322.722656 C 201.214844 322.300781 201.378906 321.78125 201.21875 321.316406 C 201.078125 320.9375 200.816406 320.636719 200.460938 320.453125 Z M 200.460938 320.453125 " fill-opacity="1" fill-rule="nonzero"/><path fill="#001c2d" d="M 209.371094 333.90625 C 208.542969 332.070312 207.167969 330.257812 205.832031 328.738281 C 205.023438 327.820312 203.671875 325.140625 202.542969 324.796875 C 200.976562 324.316406 199.636719 325.875 197.917969 324.382812 C 197.699219 324.570312 194.578125 327.792969 194.171875 327.234375 C 196.246094 330.097656 205.519531 335.117188 208.609375 335.101562 C 209.6875 335.097656 209.742188 334.734375 209.371094 333.90625 Z M 209.371094 333.90625 " fill-opacity="1" fill-rule="nonzero"/><path fill="#306191" d="M 197.050781 322.84375 C 194.789062 322.949219 191.21875 327.128906 191.21875 327.128906 C 191.21875 327.128906 197.054688 330.207031 197.988281 330.285156 C 198.734375 329.539062 199.730469 328.652344 199.886719 327.199219 C 199.179688 326.453125 197.707031 323.636719 197.050781 322.84375 Z M 197.050781 322.84375 " fill-opacity="1" fill-rule="nonzero"/><path fill="#e6eaed" d="M 199.667969 323.207031 C 198.414062 323.132812 196.539062 323.183594 195.625 324.257812 C 195.355469 324.574219 195.804688 325.015625 196.074219 324.695312 C 196.808594 323.832031 198.386719 323.785156 199.398438 323.832031 C 200.042969 323.859375 201.988281 323.964844 202.039062 324.90625 C 202.058594 325.320312 202.695312 325.300781 202.675781 324.886719 C 202.605469 323.542969 200.695312 323.269531 199.667969 323.207031 Z M 199.667969 323.207031 " fill-opacity="1" fill-rule="nonzero"/><path fill="#e6eaed" d="M 201.890625 325.441406 C 200.695312 325.351562 198.90625 325.367188 198.03125 326.375 C 197.773438 326.671875 198.203125 327.09375 198.460938 326.796875 C 199.164062 325.988281 200.667969 325.96875 201.632812 326.03125 C 202.117188 326.0625 203.375 326.148438 203.90625 326.621094 C 203.996094 326.441406 204.085938 326.261719 204.179688 326.082031 C 203.542969 325.628906 202.535156 325.488281 201.890625 325.441406 Z M 201.890625 325.441406 " fill-opacity="1" fill-rule="nonzero"/><path fill="#e6eaed" d="M 203.574219 327.355469 C 202.441406 327.183594 200.707031 327.09375 199.644531 328.066406 C 199.332031 328.355469 199.65625 328.820312 199.96875 328.527344 C 200.820312 327.742188 202.28125 327.824219 203.203125 327.945312 C 203.667969 328.007812 204.867188 328.175781 205.277344 328.699219 C 205.402344 328.515625 205.523438 328.339844 205.652344 328.160156 C 205.132812 327.65625 204.1875 327.445312 203.574219 327.355469 Z M 203.574219 327.355469 " fill-opacity="1" fill-rule="nonzero"/><path fill="#306191" d="M 213.796875 248.234375 C 213.726562 248.222656 213.652344 248.210938 213.582031 248.203125 C 206.613281 247.234375 200.699219 253.132812 197.605469 259.023438 C 195.691406 262.671875 194.3125 266.691406 193.488281 270.746094 C 192.523438 275.515625 190.710938 279.890625 189.558594 284.597656 C 188.621094 288.429688 188.160156 292.359375 187.835938 296.300781 C 187.558594 299.65625 186.441406 302.265625 187.277344 305.179688 C 189.089844 306.398438 191 307.453125 192.988281 308.367188 C 196.113281 309.585938 199.351562 310.460938 202.660156 310.996094 C 204.585938 311.199219 206.523438 311.277344 208.453125 311.226562 C 211.023438 307.078125 211.652344 300.523438 212.640625 296.339844 C 215.074219 286.015625 217.136719 275.796875 219.648438 265.492188 C 221.71875 256.988281 225.625 249.976562 213.796875 248.234375 Z M 213.796875 248.234375 " fill-opacity="1" fill-rule="nonzero"/><path fill="#306191" d="M 220.734375 244.714844 C 213.917969 242.183594 214.136719 249.703125 212.757812 253.527344 L 213.066406 253.007812 C 213.820312 255.203125 214.046875 259.8125 217.671875 260.226562 C 222.386719 260.765625 224.441406 254.433594 224.464844 252.316406 C 224.492188 249.9375 223.609375 245.777344 220.734375 244.714844 Z M 220.734375 244.714844 " fill-opacity="1" fill-rule="nonzero"/><path fill="#ffffff" d="M 205.351562 262.648438 C 197.21875 275.34375 195.867188 290.648438 193.417969 305.082031 C 193.335938 305.558594 194.097656 305.617188 194.175781 305.148438 C 196.605469 290.855469 197.914062 275.65625 205.972656 263.082031 C 206.234375 262.671875 205.613281 262.242188 205.351562 262.648438 Z M 205.351562 262.648438 " fill-opacity="1" fill-rule="nonzero"/><path fill="#ffffff" d="M 172.265625 204.632812 C 170.300781 207.695312 167.375 210.175781 163.617188 210.816406 C 162.667969 210.980469 162.824219 212.433594 163.785156 212.269531 C 168.113281 211.527344 171.371094 208.78125 173.636719 205.25 C 174.148438 204.453125 172.765625 203.847656 172.265625 204.632812 Z M 172.265625 204.632812 " fill-opacity="1" fill-rule="nonzero"/><path fill="#ffffff" d="M 204.695312 252.773438 C 197.539062 245.632812 188 241.582031 179.074219 237.15625 C 175.445312 235.355469 171.703125 233.753906 168.148438 231.804688 C 164.636719 229.875 160.648438 227.183594 159.714844 223.023438 C 159.609375 222.558594 158.875 222.65625 158.980469 223.125 C 159.804688 226.796875 162.757812 229.324219 165.796875 231.269531 C 169.3125 233.519531 173.210938 235.070312 176.945312 236.90625 C 186.320312 241.511719 196.609375 245.75 204.113281 253.230469 C 204.445312 253.5625 205.035156 253.109375 204.695312 252.773438 Z M 204.695312 252.773438 " fill-opacity="1" fill-rule="nonzero"/><path fill="#11324c" d="M 202.132812 253.425781 C 201.207031 254.273438 200.355469 255.203125 199.367188 255.988281 C 198.992188 256.285156 199.488281 256.839844 199.859375 256.542969 C 200.84375 255.761719 201.699219 254.824219 202.625 253.976562 C 202.980469 253.65625 202.484375 253.101562 202.132812 253.425781 Z M 202.132812 253.425781 " fill-opacity="1" fill-rule="nonzero"/><path fill="#11324c" d="M 200.914062 257.890625 C 200.273438 258.019531 199.628906 258.167969 199.089844 258.558594 C 198.703125 258.835938 199.199219 259.390625 199.582031 259.113281 C 200.003906 258.808594 200.558594 258.71875 201.058594 258.621094 C 201.523438 258.527344 201.382812 257.800781 200.914062 257.890625 Z M 200.914062 257.890625 " fill-opacity="1" fill-rule="nonzero"/><path fill="#1b3c5e" d="M 187.550781 158.988281 C 186.847656 160.734375 185.453125 161.789062 183.285156 161.21875 C 180.496094 160.492188 177.910156 157.835938 177.597656 154.902344 C 176.222656 155.710938 174.941406 155.886719 173.46875 156.367188 C 170.132812 157.457031 165.925781 158.507812 164.832031 162.203125 C 162.589844 169.765625 161.023438 177.378906 158.609375 184.898438 C 155.28125 195.277344 178.914062 197.296875 185.359375 197.074219 C 187.902344 196.984375 190.867188 197.253906 191.769531 194.25 C 192.535156 191.707031 191.804688 189.363281 193.296875 186.765625 C 194.285156 185.046875 195.390625 184 195.761719 181.882812 C 196.652344 176.828125 192.09375 172.3125 191.703125 167.398438 C 191.53125 165.25 192.664062 163.207031 192.375 161.042969 C 192.082031 158.847656 189.867188 157.972656 187.957031 157.378906 C 187.863281 157.898438 187.734375 158.527344 187.550781 158.988281 Z M 187.550781 158.988281 " fill-opacity="1" fill-rule="nonzero"/><path fill="#c47b65" d="M 176.347656 207.964844 C 176.355469 207.957031 176.363281 207.953125 176.375 207.945312 C 176.367188 207.957031 176.359375 207.960938 176.347656 207.964844 Z M 176.347656 207.964844 " fill-opacity="1" fill-rule="nonzero"/><path fill="#b58172" d="M 192.847656 313.875 L 192.6875 313.539062 C 192.734375 313.65625 192.789062 313.769531 192.847656 313.875 Z M 192.847656 313.875 " fill-opacity="1" fill-rule="nonzero"/><path fill="#efecec" d="M 187.539062 158.921875 C 185.710938 163.957031 178.753906 158.324219 178.460938 155.054688 C 178.410156 154.535156 177.566406 154.652344 177.613281 155.171875 C 177.980469 159.226562 186.171875 165.160156 188.332031 159.222656 C 188.511719 158.730469 187.722656 158.421875 187.539062 158.921875 Z M 187.539062 158.921875 " fill-opacity="1" fill-rule="nonzero"/><path fill="#efecec" d="M 188.542969 161.398438 C 188.558594 161.367188 188.566406 161.332031 188.5625 161.289062 C 188.550781 161.199219 188.539062 161.101562 188.464844 161.039062 C 188.382812 160.976562 188.289062 160.976562 188.191406 160.988281 C 187.953125 161.011719 187.96875 161.351562 188.175781 161.386719 C 188.226562 161.507812 188.371094 161.53125 188.46875 161.476562 C 187.589844 162.90625 186.328125 164.132812 184.539062 164.074219 C 183.128906 164.027344 181.84375 163.179688 180.800781 162.304688 C 179.40625 161.136719 178.058594 159.53125 177.152344 157.789062 C 177.179688 157.796875 177.203125 157.800781 177.226562 157.796875 C 177.34375 157.78125 177.414062 157.683594 177.40625 157.574219 C 177.40625 157.546875 177.441406 157.503906 177.46875 157.496094 C 177.578125 157.480469 177.660156 157.390625 177.648438 157.273438 C 177.636719 157.167969 177.53125 157.074219 177.421875 157.09375 C 177.203125 157.132812 177.046875 157.292969 177.011719 157.503906 C 176.652344 156.761719 176.371094 156.007812 176.207031 155.25 C 176.148438 154.996094 175.746094 155.039062 175.804688 155.292969 C 176.46875 158.335938 178.746094 161.320312 181.214844 163.148438 C 182.371094 164.003906 183.773438 164.609375 185.234375 164.449219 C 186.871094 164.269531 188.039062 162.949219 188.84375 161.632812 C 188.964844 161.441406 188.703125 161.296875 188.542969 161.398438 Z M 188.542969 161.398438 " fill-opacity="1" fill-rule="nonzero"/><path fill="#efecec" d="M 185.5625 162.558594 C 185.605469 162.878906 185.757812 163.167969 185.800781 163.484375 C 185.832031 163.746094 186.234375 163.703125 186.203125 163.441406 C 186.160156 163.121094 186.007812 162.835938 185.96875 162.515625 C 185.9375 162.257812 185.53125 162.296875 185.5625 162.558594 Z M 185.5625 162.558594 " fill-opacity="1" fill-rule="nonzero"/><path fill="#efecec" d="M 182.707031 162.589844 C 182.710938 162.605469 182.710938 162.621094 182.710938 162.636719 C 182.710938 162.636719 182.710938 162.640625 182.710938 162.640625 C 182.710938 162.636719 182.710938 162.640625 182.710938 162.644531 C 182.707031 162.644531 182.707031 162.644531 182.707031 162.648438 C 182.6875 162.671875 182.667969 162.695312 182.648438 162.71875 C 182.480469 162.921875 182.800781 163.179688 182.960938 162.976562 C 183.074219 162.835938 183.128906 162.726562 183.113281 162.542969 C 183.085938 162.285156 182.679688 162.328125 182.707031 162.589844 Z M 182.707031 162.589844 " fill-opacity="1" fill-rule="nonzero"/><path fill="#efecec" d="M 180.070312 160.828125 C 180.070312 160.875 180.039062 160.929688 180.023438 160.972656 C 179.992188 161.066406 179.972656 161.148438 179.976562 161.246094 C 179.988281 161.507812 180.394531 161.460938 180.382812 161.203125 C 180.378906 161.152344 180.410156 161.097656 180.425781 161.054688 C 180.457031 160.964844 180.476562 160.882812 180.472656 160.785156 C 180.460938 160.523438 180.058594 160.566406 180.070312 160.828125 Z M 180.070312 160.828125 " fill-opacity="1" fill-rule="nonzero"/><path fill="#e6eaed" d="M 221.941406 253.34375 C 220.820312 255.3125 217.839844 255.789062 216.132812 254.320312 C 215.90625 254.128906 215.617188 254.492188 215.84375 254.683594 C 217.792969 256.359375 221.105469 255.746094 222.367188 253.527344 C 222.511719 253.269531 222.089844 253.085938 221.941406 253.34375 Z M 221.941406 253.34375 " fill-opacity="1" fill-rule="nonzero"/><path fill="#e2bcb0" d="M 179.527344 147.757812 L 179.53125 147.777344 Z M 179.527344 147.757812 " fill-opacity="1" fill-rule="nonzero"/><path fill="#e5beb1" d="M 179.246094 144.074219 C 179.242188 144.070312 179.242188 144.0625 179.238281 144.054688 Z M 179.246094 144.074219 " fill-opacity="1" fill-rule="nonzero"/><path fill="#cfa398" d="M 178.730469 146.613281 L 178.742188 146.632812 Z M 178.730469 146.613281 " fill-opacity="1" fill-rule="nonzero"/><path fill="#cfa398" d="M 178.601562 146.121094 L 178.617188 146.140625 Z M 178.601562 146.121094 " fill-opacity="1" fill-rule="nonzero"/><path fill="#cfa398" d="M 181.304688 148.28125 L 181.316406 148.300781 Z M 181.304688 148.28125 " fill-opacity="1" fill-rule="nonzero"/><path fill="#659cc9" d="M 207.136719 260.742188 C 207.117188 260.667969 207.050781 260.621094 206.980469 260.636719 C 206.90625 260.652344 206.851562 260.734375 206.871094 260.804688 C 206.886719 260.875 206.964844 260.917969 207.039062 260.902344 C 207.117188 260.886719 207.15625 260.824219 207.136719 260.742188 Z M 207.136719 260.742188 " fill-opacity="1" fill-rule="nonzero"/><path fill="#659cc9" d="M 204.820312 252.203125 C 204.757812 252.253906 204.75 252.339844 204.796875 252.402344 C 204.847656 252.46875 204.917969 252.472656 204.984375 252.421875 C 205.042969 252.378906 205.054688 252.289062 205.011719 252.234375 C 204.96875 252.179688 204.875 252.164062 204.820312 252.203125 Z M 204.820312 252.203125 " fill-opacity="1" fill-rule="nonzero"/><path fill="#efeceb" d="M 190.828125 160.242188 C 191.144531 161.886719 191.460938 163.535156 191.609375 165.210938 C 191.636719 165.511719 192.113281 165.507812 192.085938 165.203125 C 191.933594 163.492188 191.609375 161.800781 191.285156 160.113281 C 191.226562 159.8125 190.769531 159.945312 190.828125 160.242188 Z M 190.828125 160.242188 " fill-opacity="1" fill-rule="nonzero"/><path fill="#d04e38" d="M 187.058594 152.40625 C 186.671875 152.339844 186.300781 152.359375 185.921875 152.460938 C 185.722656 152.515625 185.808594 152.820312 186.007812 152.765625 C 186.332031 152.675781 186.644531 152.652344 186.976562 152.710938 C 187.179688 152.746094 187.257812 152.4375 187.058594 152.40625 Z M 187.058594 152.40625 " fill-opacity="1" fill-rule="nonzero"/><path fill="#d15e39" d="M 187.152344 148.375 C 187.148438 148.351562 187.144531 148.320312 187.144531 148.292969 C 187.144531 148.261719 187.144531 148.246094 187.152344 148.210938 C 187.15625 148.1875 187.136719 148.160156 187.113281 148.15625 C 187.085938 148.152344 187.058594 148.167969 187.054688 148.195312 C 187.03125 148.328125 187.058594 148.464844 187.132812 148.578125 C 187.144531 148.601562 187.179688 148.605469 187.199219 148.59375 C 187.222656 148.578125 187.230469 148.546875 187.214844 148.523438 C 187.1875 148.480469 187.164062 148.425781 187.152344 148.375 Z M 187.152344 148.375 " fill-opacity="1" fill-rule="nonzero"/><path fill="#d15e39" d="M 186.863281 148.15625 C 186.78125 148.253906 186.742188 148.382812 186.761719 148.507812 C 186.765625 148.535156 186.785156 148.554688 186.8125 148.554688 C 186.835938 148.550781 186.859375 148.527344 186.859375 148.5 C 186.851562 148.449219 186.855469 148.402344 186.867188 148.347656 C 186.871094 148.335938 186.871094 148.332031 186.878906 148.316406 C 186.882812 148.304688 186.886719 148.292969 186.894531 148.28125 C 186.910156 148.257812 186.917969 148.242188 186.9375 148.21875 C 186.953125 148.199219 186.953125 148.167969 186.933594 148.152344 C 186.914062 148.136719 186.878906 148.132812 186.863281 148.15625 Z M 186.863281 148.15625 " fill-opacity="1" fill-rule="nonzero"/><path fill="#d04e38" d="M 185.558594 153.753906 C 183.195312 153.269531 180.859375 151.941406 180.101562 149.28125 C 180.066406 149.160156 179.894531 149.222656 179.925781 149.34375 C 180.703125 152.066406 183.085938 153.449219 185.511719 153.949219 C 185.625 153.972656 185.671875 153.777344 185.558594 153.753906 Z M 185.558594 153.753906 " fill-opacity="1" fill-rule="nonzero"/><path fill="#d04e38" d="M 189.148438 150.867188 C 188.675781 152.167969 187.828125 153.035156 186.5625 153.417969 C 186.457031 153.449219 186.507812 153.628906 186.617188 153.597656 C 187.917969 153.203125 188.816406 152.304688 189.304688 150.960938 C 189.34375 150.851562 189.1875 150.757812 189.148438 150.867188 Z M 189.148438 150.867188 " fill-opacity="1" fill-rule="nonzero"/><path fill="#d04e38" d="M 187.570312 146.523438 C 187.226562 145.636719 186.761719 144.328125 187.488281 144.128906 C 187.675781 144.078125 187.574219 143.765625 187.386719 143.816406 C 186.777344 143.980469 186.777344 144.703125 186.890625 145.28125 C 186.96875 145.675781 187.0625 146.082031 187.199219 146.457031 C 187.28125 146.695312 187.40625 146.917969 187.496094 147.15625 C 187.710938 147.730469 186.859375 147.707031 186.652344 147.742188 C 186.464844 147.773438 186.488281 148.113281 186.679688 148.078125 C 187.09375 148.003906 188.042969 148 187.824219 147.210938 C 187.792969 147.09375 187.574219 146.511719 187.570312 146.523438 Z M 187.570312 146.523438 " fill-opacity="1" fill-rule="nonzero"/><path fill="#f79f8b" d="M 187.078125 146.402344 C 186.898438 145.863281 186.761719 145.296875 186.640625 144.71875 C 186.621094 144.625 186.511719 144.691406 186.535156 144.785156 C 186.652344 145.359375 186.792969 145.925781 186.96875 146.464844 C 187 146.550781 187.105469 146.488281 187.078125 146.402344 Z M 187.078125 146.402344 " fill-opacity="1" fill-rule="nonzero"/><path fill="#f79f8b" d="M 187.335938 146.957031 C 187.28125 146.859375 187.132812 146.957031 187.1875 147.054688 C 187.234375 147.132812 187.242188 147.210938 187.25 147.296875 C 187.253906 147.410156 187.433594 147.402344 187.425781 147.285156 C 187.421875 147.164062 187.398438 147.0625 187.335938 146.957031 Z M 187.335938 146.957031 " fill-opacity="1" fill-rule="nonzero"/><path fill="#d04e38" d="M 186.046875 147.710938 C 186.03125 147.644531 186.027344 147.496094 186.09375 147.449219 C 186.191406 147.375 186.089844 147.210938 185.992188 147.285156 C 185.84375 147.390625 185.828125 147.601562 185.859375 147.765625 C 185.882812 147.886719 186.070312 147.832031 186.046875 147.710938 Z M 186.046875 147.710938 " fill-opacity="1" fill-rule="nonzero"/><path fill="#d04e38" d="M 186.566406 146.792969 L 186.285156 146.875 C 186.101562 146.929688 186.183594 147.210938 186.367188 147.160156 L 186.648438 147.078125 C 186.832031 147.023438 186.75 146.742188 186.566406 146.792969 Z M 186.566406 146.792969 " fill-opacity="1" fill-rule="nonzero"/><path fill="#e6eaed" d="M 182.625 145.792969 C 182.582031 146.070312 182.621094 146.355469 182.664062 146.632812 C 182.6875 146.789062 182.925781 146.75 182.90625 146.597656 C 182.867188 146.339844 182.828125 146.078125 182.867188 145.820312 C 182.886719 145.664062 182.648438 145.636719 182.625 145.792969 Z M 182.625 145.792969 " fill-opacity="1" fill-rule="nonzero"/><path fill="#e6eaed" d="M 188.300781 145.480469 C 188.234375 145.714844 188.273438 145.957031 188.308594 146.195312 C 188.332031 146.351562 188.574219 146.3125 188.550781 146.160156 C 188.523438 145.972656 188.472656 145.757812 188.527344 145.574219 C 188.566406 145.421875 188.34375 145.332031 188.300781 145.480469 Z M 188.300781 145.480469 " fill-opacity="1" fill-rule="nonzero"/><path fill="#d04e38" d="M 178.328125 146.425781 C 176.855469 146.847656 177.328125 148.902344 178.578125 149.304688 C 178.726562 149.351562 178.8125 149.128906 178.664062 149.082031 C 177.683594 148.765625 177.105469 147.023438 178.363281 146.664062 C 178.511719 146.625 178.476562 146.382812 178.328125 146.425781 Z M 178.328125 146.425781 " fill-opacity="1" fill-rule="nonzero"/><path fill="#d04e38" d="M 179.351562 148.507812 C 179.234375 148.714844 179.066406 148.875 178.824219 148.917969 C 178.671875 148.945312 178.707031 149.1875 178.863281 149.160156 C 179.164062 149.105469 179.398438 148.917969 179.546875 148.65625 C 179.621094 148.519531 179.429688 148.371094 179.351562 148.507812 Z M 179.351562 148.507812 " fill-opacity="1" fill-rule="nonzero"/><path fill="#feffff" d="M 187.871094 149.214844 C 187.589844 149.195312 184.480469 149.304688 184.488281 149.523438 C 184.507812 150.402344 185.820312 151.484375 186.683594 151.296875 C 187.476562 151.125 188.171875 149.945312 187.871094 149.214844 Z M 187.871094 149.214844 " fill-opacity="1" fill-rule="nonzero"/><path fill="#db3e3e" d="M 184.816406 149.464844 C 184.988281 149.46875 185.152344 149.480469 185.320312 149.476562 C 185.453125 149.476562 186.023438 149.5 186.578125 149.46875 C 186.847656 149.453125 187.121094 149.410156 187.386719 149.355469 C 187.4375 149.34375 187.96875 149.195312 187.984375 149.207031 C 187.734375 149.054688 187.484375 148.59375 187.144531 148.714844 C 187.105469 148.730469 186.820312 148.9375 186.820312 148.941406 C 186.429688 148.589844 185.902344 148.832031 185.492188 149.019531 C 185.171875 149.164062 184.789062 149.328125 184.433594 149.367188 C 184.386719 149.371094 184.546875 149.457031 184.558594 149.460938 C 184.613281 149.476562 184.753906 149.460938 184.816406 149.464844 Z M 184.816406 149.464844 " fill-opacity="1" fill-rule="nonzero"/><path fill="#db3e3e" d="M 186.566406 150.949219 C 186.125 150.921875 185.652344 150.761719 185.386719 150.605469 C 185.058594 150.40625 184.816406 150.171875 184.65625 149.835938 C 184.609375 149.734375 184.546875 149.410156 184.449219 149.382812 C 184.414062 149.375 184.554688 150.035156 184.574219 150.082031 C 184.675781 150.347656 184.832031 150.589844 185.03125 150.796875 C 185.449219 151.222656 186.132812 151.527344 186.765625 151.425781 C 187.234375 151.347656 187.617188 150.863281 187.785156 150.472656 C 187.875 150.257812 187.910156 150.035156 187.925781 149.808594 C 187.9375 149.703125 187.898438 149.269531 187.964844 149.191406 C 187.824219 149.359375 187.769531 149.695312 187.746094 149.902344 C 187.722656 150.109375 187.679688 150.28125 187.546875 150.464844 C 187.320312 150.777344 186.976562 150.976562 186.566406 150.949219 Z M 186.566406 150.949219 " fill-opacity="1" fill-rule="nonzero"/><path fill="#ffffff" d="M 185.871094 149.066406 C 186.035156 148.988281 186.222656 148.972656 186.398438 149.015625 C 186.449219 149.027344 186.472656 148.945312 186.421875 148.933594 C 186.222656 148.882812 186.011719 148.902344 185.828125 148.988281 C 185.78125 149.015625 185.824219 149.085938 185.871094 149.066406 Z M 185.871094 149.066406 " fill-opacity="1" fill-rule="nonzero"/><path fill="#ffffff" d="M 186.945312 149.011719 C 186.953125 149.003906 186.960938 148.996094 186.96875 148.988281 C 186.972656 148.988281 186.976562 148.984375 186.976562 148.984375 C 186.980469 148.984375 186.980469 148.984375 186.980469 148.984375 C 186.984375 148.976562 186.992188 148.976562 186.996094 148.972656 C 187.011719 148.960938 187.035156 148.949219 187.058594 148.941406 C 187.058594 148.9375 187.0625 148.9375 187.0625 148.9375 C 187.0625 148.9375 187.0625 148.9375 187.066406 148.9375 C 187.070312 148.933594 187.074219 148.933594 187.082031 148.929688 C 187.09375 148.925781 187.105469 148.921875 187.113281 148.921875 C 187.125 148.917969 187.140625 148.914062 187.152344 148.914062 C 187.152344 148.914062 187.15625 148.914062 187.15625 148.914062 C 187.15625 148.914062 187.160156 148.914062 187.164062 148.914062 C 187.164062 148.914062 187.167969 148.914062 187.167969 148.914062 C 187.171875 148.914062 187.175781 148.914062 187.179688 148.914062 C 187.199219 148.910156 187.222656 148.894531 187.222656 148.871094 C 187.222656 148.851562 187.207031 148.824219 187.179688 148.828125 C 187.070312 148.835938 186.964844 148.882812 186.886719 148.957031 C 186.871094 148.972656 186.871094 149 186.886719 149.015625 C 186.902344 149.027344 186.929688 149.03125 186.945312 149.011719 Z M 186.945312 149.011719 " fill-opacity="1" fill-rule="nonzero"/><path fill="#c25c4c" d="M 160.550781 168.609375 C 162.890625 164.953125 163.722656 159.402344 161.828125 156.367188 C 158.605469 151.207031 152.226562 150.84375 148.128906 147.078125 C 145.640625 144.785156 143.863281 143.152344 140.691406 145.226562 C 138.519531 146.652344 137.449219 148.363281 137.742188 150.953125 C 138.277344 155.640625 141.765625 160.003906 144.675781 163.511719 C 147.332031 166.714844 152.074219 174 157.132812 171.785156 C 158.457031 171.207031 159.621094 170.054688 160.550781 168.609375 Z M 160.550781 168.609375 " fill-opacity="1" fill-rule="nonzero"/><path fill="#1b3c5e" d="M 166.382812 153.457031 C 162.894531 152.179688 160.03125 150.625 156.105469 150.511719 C 153.335938 150.433594 152.441406 158.773438 151.929688 160.414062 C 150.960938 163.511719 150.425781 167.273438 148.746094 170.027344 C 149.496094 168.804688 155.003906 174.464844 155.519531 174.976562 C 158.851562 178.277344 161.199219 181.710938 162.761719 186.230469 C 164.835938 192.238281 167.898438 180.828125 168.359375 178.992188 C 169.867188 172.984375 170.46875 166.195312 173.527344 160.710938 C 174.539062 158.902344 175.238281 157.949219 175.523438 155.914062 C 172.984375 155.265625 170.277344 154.769531 167.824219 153.964844 C 167.351562 153.804688 166.871094 153.636719 166.382812 153.457031 Z M 166.382812 153.457031 " fill-opacity="1" fill-rule="nonzero"/><path fill="#c25c4c" d="M 138.5625 148.363281 C 135.578125 148.4375 135.589844 152.316406 137.53125 154.5 C 141.871094 159.390625 143.886719 148.238281 138.5625 148.363281 Z M 138.5625 148.363281 " fill-opacity="1" fill-rule="nonzero"/><path fill="#efecec" d="M 164.90625 173.917969 C 165.839844 172.933594 166.636719 171.820312 167.261719 170.613281 C 167.332031 170.476562 167.117188 170.355469 167.046875 170.496094 C 166.433594 171.683594 165.65625 172.777344 164.734375 173.746094 C 164.625 173.859375 164.796875 174.03125 164.90625 173.917969 Z M 164.90625 173.917969 " fill-opacity="1" fill-rule="nonzero"/><path fill="#efecec" d="M 174.050781 156.761719 C 173.953125 156.476562 173.492188 156.585938 173.59375 156.878906 C 174.417969 159.277344 173.488281 161.726562 172.1875 163.765625 C 172.023438 164.023438 172.425781 164.273438 172.589844 164.015625 C 173.953125 161.875 174.917969 159.277344 174.050781 156.761719 Z M 174.050781 156.761719 " fill-opacity="1" fill-rule="nonzero"/><path fill="#0c2e44" d="M 188.816406 219.375 C 184.953125 215.074219 182.019531 209.511719 181.195312 203.761719 C 181.128906 203.292969 180.421875 203.496094 180.488281 203.957031 C 181.328125 209.832031 184.355469 215.503906 188.296875 219.894531 C 188.613281 220.246094 189.132812 219.726562 188.816406 219.375 Z M 188.816406 219.375 " fill-opacity="1" fill-rule="nonzero"/><path fill="#ffffff" d="M 185.539062 200.0625 C 178.816406 201.804688 171.128906 199.652344 165.355469 196.578125 C 164.886719 196.328125 164.449219 196.957031 164.917969 197.207031 C 170.882812 200.382812 178.820312 202.574219 185.761719 200.769531 C 186.285156 200.636719 186.070312 199.925781 185.539062 200.0625 Z M 185.539062 200.0625 " fill-opacity="1" fill-rule="nonzero"/><path fill="#e6eaed" d="M 185.417969 133.878906 C 183.621094 132.519531 181.097656 133.160156 179.085938 133.589844 C 177.199219 133.988281 174.234375 134.863281 173.214844 132.578125 C 173.148438 132.433594 172.941406 132.558594 173 132.703125 C 173.914062 134.742188 176.28125 134.394531 178.097656 134.042969 C 180.324219 133.609375 183.265625 132.558594 185.292969 134.09375 C 185.421875 134.183594 185.542969 133.972656 185.417969 133.878906 Z M 185.417969 133.878906 " fill-opacity="1" fill-rule="nonzero"/><path fill="#77a7d9" d="M 185.339844 135.144531 C 184.222656 133.078125 181.109375 133.703125 179.230469 133.9375 C 177.320312 134.179688 173.605469 134.984375 173.359375 132.148438 C 173.34375 131.996094 173.101562 131.992188 173.113281 132.148438 C 173.339844 134.726562 176.105469 134.546875 178.054688 134.328125 C 179.402344 134.179688 180.75 133.945312 182.109375 133.941406 C 183.261719 133.9375 184.535156 134.167969 185.128906 135.269531 C 185.203125 135.410156 185.414062 135.285156 185.339844 135.144531 Z M 185.339844 135.144531 " fill-opacity="1" fill-rule="nonzero"/><path fill="#77a7d9" d="M 190.777344 136.574219 C 189.675781 135.324219 188.054688 134.171875 186.304688 134.476562 C 186.148438 134.503906 186.214844 134.738281 186.367188 134.710938 C 188.097656 134.410156 189.640625 135.652344 190.710938 136.867188 C 191.769531 138.066406 192.722656 139.691406 192.824219 141.320312 C 192.835938 141.476562 193.082031 141.476562 193.070312 141.320312 C 192.960938 139.554688 191.921875 137.871094 190.777344 136.574219 Z M 190.777344 136.574219 " fill-opacity="1" fill-rule="nonzero"/><path fill="#77a7d9" d="M 168.542969 134.195312 C 168.652344 134.078125 168.476562 133.90625 168.371094 134.019531 C 167.628906 134.820312 166.878906 135.636719 166.4375 136.644531 C 166.003906 137.625 166.113281 138.667969 166.503906 139.644531 C 166.558594 139.789062 166.796875 139.726562 166.738281 139.578125 C 166.34375 138.585938 166.277344 137.605469 166.710938 136.617188 C 167.121094 135.691406 167.867188 134.925781 168.542969 134.195312 Z M 168.542969 134.195312 " fill-opacity="1" fill-rule="nonzero"/><path fill="#77a7d9" d="M 163.960938 139.769531 C 163.238281 140.496094 162.585938 141.285156 161.984375 142.117188 C 161.890625 142.242188 162.105469 142.367188 162.195312 142.238281 C 162.785156 141.421875 163.425781 140.65625 164.136719 139.941406 C 164.246094 139.828125 164.074219 139.65625 163.960938 139.769531 Z M 163.960938 139.769531 " fill-opacity="1" fill-rule="nonzero"/><path fill="#e6eaed" d="M 179.691406 138.636719 C 176.683594 139.628906 172.058594 140.515625 169.910156 137.46875 C 169.816406 137.34375 169.605469 137.464844 169.695312 137.59375 C 171.921875 140.742188 176.621094 139.902344 179.753906 138.871094 C 179.90625 138.824219 179.839844 138.585938 179.691406 138.636719 Z M 179.691406 138.636719 " fill-opacity="1" fill-rule="nonzero"/><path fill="#e6eaed" d="M 183.765625 137.410156 C 183.378906 137.410156 183 137.421875 182.628906 137.535156 C 182.480469 137.582031 182.542969 137.820312 182.695312 137.769531 C 183.046875 137.660156 183.402344 137.652344 183.765625 137.652344 C 183.921875 137.652344 183.921875 137.410156 183.765625 137.410156 Z M 183.765625 137.410156 " fill-opacity="1" fill-rule="nonzero"/><path fill="#e6eaed" d="M 186.453125 136.886719 C 186.351562 136.566406 186.3125 136.230469 186.210938 135.910156 C 186.160156 135.757812 185.925781 135.824219 185.976562 135.972656 C 186.078125 136.292969 186.117188 136.628906 186.21875 136.949219 C 186.265625 137.101562 186.503906 137.039062 186.453125 136.886719 Z M 186.453125 136.886719 " fill-opacity="1" fill-rule="nonzero"/><path fill="#e6eaed" d="M 170.539062 146.335938 C 168.832031 146.457031 166.773438 146.613281 165.480469 145.273438 C 165.371094 145.15625 165.199219 145.332031 165.308594 145.445312 C 166.652344 146.835938 168.765625 146.707031 170.539062 146.582031 C 170.695312 146.570312 170.695312 146.324219 170.539062 146.335938 Z M 170.539062 146.335938 " fill-opacity="1" fill-rule="nonzero"/><path fill="#e6eaed" d="M 175.894531 145.238281 C 175.027344 145.601562 174.132812 145.847656 173.199219 145.972656 C 173.046875 145.996094 173.109375 146.230469 173.265625 146.207031 C 174.199219 146.082031 175.09375 145.839844 175.960938 145.472656 C 176.105469 145.414062 176.039062 145.179688 175.894531 145.238281 Z M 175.894531 145.238281 " fill-opacity="1" fill-rule="nonzero"/><path fill="#e6eaed" d="M 174.457031 142.792969 C 173.476562 142.792969 172.496094 142.78125 171.519531 142.667969 C 171.359375 142.648438 171.363281 142.894531 171.519531 142.910156 C 172.496094 143.027344 173.472656 143.035156 174.457031 143.035156 C 174.617188 143.035156 174.617188 142.792969 174.457031 142.792969 Z M 174.457031 142.792969 " fill-opacity="1" fill-rule="nonzero"/><path fill="#e6eaed" d="M 175.5 150.023438 C 172.835938 151.367188 169.339844 151.015625 166.804688 149.53125 C 166.667969 149.453125 166.546875 149.664062 166.683594 149.746094 C 169.296875 151.273438 172.878906 151.621094 175.625 150.234375 C 175.761719 150.160156 175.636719 149.953125 175.5 150.023438 Z M 175.5 150.023438 " fill-opacity="1" fill-rule="nonzero"/><path fill="#e6eaed" d="M 190.851562 140.894531 C 190.34375 139.898438 189.738281 138.789062 188.871094 138.054688 C 188.753906 137.957031 188.578125 138.128906 188.699219 138.230469 C 189.546875 138.949219 190.140625 140.039062 190.636719 141.019531 C 190.710938 141.160156 190.921875 141.035156 190.851562 140.894531 Z M 190.851562 140.894531 " fill-opacity="1" fill-rule="nonzero"/><path fill="#efeceb" d="M 194.9375 178.492188 C 194.523438 177.261719 194.011719 176.058594 193.683594 174.796875 C 193.644531 174.644531 193.40625 174.710938 193.445312 174.863281 C 193.757812 176.0625 194.230469 177.210938 194.640625 178.378906 C 195.054688 179.554688 195.558594 180.902344 195.332031 182.164062 C 195.132812 183.285156 194.449219 184.222656 193.824219 185.144531 C 193.175781 186.105469 192.675781 187.101562 192.46875 188.25 C 192.441406 188.40625 192.675781 188.46875 192.703125 188.316406 C 192.941406 187.023438 193.566406 185.960938 194.296875 184.886719 C 194.929688 183.957031 195.460938 183.019531 195.625 181.886719 C 195.78125 180.78125 195.289062 179.519531 194.9375 178.492188 Z M 194.9375 178.492188 " fill-opacity="1" fill-rule="nonzero"/><path fill="#c25c4c" d="M 139.289062 120.789062 C 138.761719 120.804688 138.199219 121.023438 137.644531 121.511719 C 136.535156 122.492188 136.683594 124.363281 136.585938 125.6875 C 136.46875 127.253906 136.089844 128.695312 136 130.269531 C 135.785156 134.078125 135.570312 137.894531 135.765625 141.707031 C 135.871094 143.714844 136.242188 145.796875 136.667969 147.757812 C 137.34375 150.890625 138.925781 156.0625 143.160156 155.105469 C 148.511719 153.894531 147.972656 146.242188 146.984375 142.277344 C 146.183594 139.078125 145.128906 136.007812 144.105469 132.882812 C 143.398438 130.722656 141.703125 120.710938 139.289062 120.789062 Z M 139.289062 120.789062 " fill-opacity="1" fill-rule="nonzero"/><path fill="#efecea" d="M 242.273438 150.789062 C 241.949219 151.523438 241.625 152.261719 241.296875 152.996094 C 241.09375 153.449219 241.785156 153.800781 241.988281 153.34375 C 242.316406 152.609375 242.640625 151.871094 242.96875 151.136719 C 243.167969 150.683594 242.476562 150.335938 242.273438 150.789062 Z M 242.273438 150.789062 " fill-opacity="1" fill-rule="nonzero"/><path fill="#c25c4c" d="M 242.128906 151.042969 C 241.632812 151.125 241.203125 151.390625 240.894531 151.761719 C 240.773438 151.121094 240.417969 150.503906 239.996094 149.953125 C 239.386719 149.164062 238.964844 147.386719 237.6875 147.414062 C 236.820312 147.433594 235.152344 147.9375 234.425781 148.394531 C 231.898438 149.984375 230.492188 152.167969 232.882812 154.617188 C 234.160156 155.925781 235.871094 156.199219 237.585938 155.601562 C 238.371094 155.328125 238.988281 154.917969 239.675781 154.472656 C 240.21875 154.121094 241.253906 153.835938 241.496094 153.175781 C 241.507812 153.167969 241.523438 153.164062 241.535156 153.15625 C 242.019531 152.84375 242.714844 152.203125 242.792969 151.585938 C 242.851562 151.09375 242.527344 150.972656 242.128906 151.042969 Z M 242.128906 151.042969 " fill-opacity="1" fill-rule="nonzero"/><path fill="#b6544a" d="M 240.707031 147.40625 C 240.253906 148.070312 239.644531 148.628906 238.878906 148.988281 C 239.035156 149.257812 239.191406 149.527344 239.34375 149.792969 C 239.691406 150.40625 239.515625 151.671875 240.339844 151.832031 C 240.941406 151.949219 241.765625 151.265625 242.1875 150.964844 C 242.207031 150.949219 242.230469 150.933594 242.253906 150.921875 C 241.796875 150.296875 241.433594 149.589844 241.199219 148.820312 C 241.050781 148.34375 240.886719 147.875 240.707031 147.40625 Z M 240.707031 147.40625 " fill-opacity="1" fill-rule="nonzero"/><path fill="#b6544a" d="M 239.195312 146.082031 C 238.480469 146.433594 236.957031 147.292969 237.386719 148.304688 C 237.953125 149.636719 239.199219 148.042969 239.722656 147.5625 C 240.015625 147.292969 240.335938 147.0625 240.59375 146.761719 C 240.636719 146.71875 240.675781 146.667969 240.710938 146.617188 C 241.609375 145.382812 239.769531 145.800781 239.195312 146.082031 Z M 239.195312 146.082031 " fill-opacity="1" fill-rule="nonzero"/><path fill="#a24e45" d="M 239.820312 150.261719 L 239.996094 150.449219 C 240.316406 150.171875 240.90625 149.695312 241.378906 149.328125 C 241.347656 149.246094 241.3125 149.160156 241.285156 149.078125 C 240.804688 149.453125 240.160156 149.964844 239.820312 150.261719 Z M 239.820312 150.261719 " fill-opacity="1" fill-rule="nonzero"/><path fill="#a24e45" d="M 240.660156 147.394531 C 240.414062 147.585938 239.148438 148.574219 238.613281 149.039062 L 238.785156 149.226562 C 239.296875 148.785156 240.480469 147.859375 240.785156 147.621094 C 240.753906 147.527344 240.71875 147.429688 240.683594 147.335938 C 240.671875 147.359375 240.664062 147.378906 240.660156 147.394531 Z M 240.660156 147.394531 " fill-opacity="1" fill-rule="nonzero"/><path fill="#a24e45" d="M 237.640625 149.367188 C 237.539062 149.125 237.207031 149.234375 237.308594 149.476562 C 237.746094 150.515625 238.214844 151.542969 238.828125 152.511719 C 238.972656 152.734375 239.246094 152.53125 239.105469 152.3125 C 238.511719 151.375 238.0625 150.375 237.640625 149.367188 Z M 237.640625 149.367188 " fill-opacity="1" fill-rule="nonzero"/><path fill="#a24e45" d="M 236.5625 151.609375 C 236.476562 151.410156 236.160156 151.574219 236.246094 151.773438 C 236.441406 152.234375 236.617188 152.707031 236.816406 153.171875 C 236.898438 153.371094 237.214844 153.207031 237.128906 153.007812 C 236.933594 152.542969 236.757812 152.070312 236.5625 151.609375 Z M 236.5625 151.609375 " fill-opacity="1" fill-rule="nonzero"/><path fill="#a24e45" d="M 235.445312 149.261719 C 235.429688 149.980469 235.285156 150.726562 235.011719 151.394531 C 234.753906 152.03125 234.367188 152.710938 233.664062 152.9375 C 233.480469 152.996094 233.585938 153.269531 233.765625 153.210938 C 234.539062 152.964844 235.011719 152.21875 235.285156 151.507812 C 235.5625 150.78125 235.722656 150.007812 235.738281 149.230469 C 235.742188 149.042969 235.449219 149.078125 235.445312 149.261719 Z M 235.445312 149.261719 " fill-opacity="1" fill-rule="nonzero"/><path fill="#f79553" d="M 234.160156 161.578125 C 235.4375 164.300781 235.765625 164.867188 236.335938 166.117188 C 238.511719 165.152344 253.535156 157.289062 253.535156 157.289062 C 253.535156 157.289062 251.5625 153.871094 251.070312 152.925781 C 249.648438 153.59375 236.722656 160.28125 234.160156 161.578125 Z M 234.160156 161.578125 " fill-opacity="1" fill-rule="nonzero"/><path fill="#dc7927" d="M 254.390625 156.90625 C 253.933594 156.019531 252.984375 156.464844 252.507812 156.691406 C 252.292969 156.796875 237.917969 164.253906 237.5625 164.441406 C 237.3125 164.570312 235.21875 165.378906 235.703125 166.320312 C 236.21875 167.324219 237.019531 166.933594 238.039062 166.433594 C 241.371094 164.804688 251.351562 159.59375 252.839844 158.785156 C 253.230469 158.574219 254.945312 157.976562 254.390625 156.90625 Z M 254.390625 156.90625 " fill-opacity="1" fill-rule="nonzero"/><path fill="#cc7337" d="M 238.925781 159.898438 C 238.925781 159.898438 239.996094 162.039062 240.261719 162.515625 C 240.988281 162.195312 246.609375 159.269531 247.894531 158.605469 C 247.910156 158.597656 248.050781 158.53125 248.050781 158.527344 C 247.824219 158.027344 246.722656 155.90625 246.722656 155.90625 Z M 238.925781 159.898438 " fill-opacity="1" fill-rule="nonzero"/><path fill="#dc7927" d="M 243.355469 155.027344 C 243.503906 155.007812 243.652344 154.996094 243.804688 154.988281 C 240.617188 148.617188 234.199219 135.730469 233.113281 133.714844 C 232.242188 134.824219 229.671875 134.21875 228.308594 134.34375 C 228.980469 135.464844 237.164062 151.664062 239.914062 156.976562 C 240.773438 155.925781 242.003906 155.21875 243.355469 155.027344 Z M 243.355469 155.027344 " fill-opacity="1" fill-rule="nonzero"/><path fill="#dc7927" d="M 241.242188 154.46875 C 237.238281 156.585938 234.273438 160.730469 234.25 161.730469 L 251.363281 152.960938 C 251.363281 152.960938 247.558594 151.121094 241.242188 154.46875 Z M 241.242188 154.46875 " fill-opacity="1" fill-rule="nonzero"/><path fill="#e59337" d="M 226.421875 91.558594 C 216.800781 96.269531 207.117188 100.867188 197.570312 105.730469 C 200.832031 111.492188 206.636719 121.578125 209.152344 124.964844 C 211.816406 128.550781 223.628906 146.269531 233.789062 140.601562 C 243.972656 134.921875 236.398438 116.824219 234.902344 111.71875 C 233.714844 107.675781 229.292969 97.609375 226.421875 91.558594 Z M 226.421875 91.558594 " fill-opacity="1" fill-rule="nonzero"/><path fill="#cc7337" d="M 240.351562 117.273438 C 240.535156 115.820312 240.773438 114.5625 241.414062 113.164062 C 244.039062 107.417969 248.90625 101.675781 244.832031 95.445312 C 239.132812 86.726562 230.390625 93.410156 229.660156 95.023438 C 230.109375 95.660156 231.167969 98.296875 231.628906 98.925781 C 231.816406 98.378906 236.800781 92.363281 240.527344 98.042969 C 242.484375 101.03125 239.007812 105.683594 237.640625 108.277344 C 236.328125 110.765625 236.136719 114.65625 237.832031 117.667969 C 238.117188 118.183594 238.964844 119.171875 239.722656 119.097656 C 241.128906 118.972656 240.265625 117.972656 240.351562 117.273438 Z M 240.351562 117.273438 " fill-opacity="1" fill-rule="nonzero"/><path fill="#cc7337" d="M 210.992188 130.988281 C 209.546875 127.855469 206.28125 125.730469 203.503906 125.34375 C 200.601562 124.9375 194.796875 125.042969 193.527344 121.703125 C 191.105469 115.359375 198.894531 114.824219 199.441406 114.992188 C 199.207031 114.25 197.6875 111.84375 197.4375 111.105469 C 195.703125 110.757812 185.179688 113.957031 188.90625 123.683594 C 191.574219 130.636719 199.0625 130.039062 205.253906 131.265625 C 206.757812 131.5625 207.917969 132.105469 209.199219 132.808594 C 209.816406 133.144531 210.117188 134.433594 211.046875 133.363281 C 211.546875 132.789062 211.242188 131.523438 210.992188 130.988281 Z M 210.992188 130.988281 " fill-opacity="1" fill-rule="nonzero"/><path fill="#c25c4d" d="M 143.945312 110.371094 C 143.855469 110.074219 143.394531 110.101562 143.394531 110.101562 C 143.394531 110.101562 141.742188 111.507812 140.921875 112.082031 C 140.394531 112.449219 141.238281 113.28125 141.5625 113.492188 C 142.054688 113.035156 142.589844 112.605469 142.972656 112.070312 C 143.429688 111.429688 144.175781 111.125 143.945312 110.371094 Z M 143.945312 110.371094 " fill-opacity="1" fill-rule="nonzero"/><path fill="#c25c4d" d="M 140.535156 112.363281 C 138.671875 114.382812 139.015625 115.167969 139.097656 115.320312 C 139.265625 115.296875 140.753906 115.503906 140.914062 115.417969 C 141.429688 115.144531 141.851562 113.644531 141.824219 113.097656 C 141.765625 111.78125 141.105469 111.75 140.535156 112.363281 Z M 140.535156 112.363281 " fill-opacity="1" fill-rule="nonzero"/><path fill="#c25c4d" d="M 141.238281 115.113281 C 140.210938 113.816406 138.65625 114.71875 138.535156 116.191406 C 138.339844 118.597656 142.644531 116.886719 141.238281 115.113281 Z M 141.238281 115.113281 " fill-opacity="1" fill-rule="nonzero"/><path fill="#c25c4d" d="M 149.414062 113.859375 C 149.394531 113.804688 149.003906 113.386719 148.90625 113.574219 C 149.101562 113.195312 150.105469 112.808594 149.910156 112.101562 C 149.828125 111.800781 149.492188 111.542969 149.492188 111.542969 C 149.492188 111.542969 147.488281 112.332031 147.355469 112.351562 C 148.277344 111.367188 148.21875 110.867188 148.0625 110.617188 C 147.894531 110.339844 143.011719 112.539062 142.609375 112.882812 C 142.398438 113.070312 142.171875 113.46875 142.007812 113.6875 C 141.996094 113.707031 141.980469 113.726562 141.96875 113.746094 C 141.953125 113.777344 141.941406 113.804688 141.917969 113.832031 C 141.605469 114.34375 140.890625 115.359375 141.074219 116.027344 C 141.324219 116.941406 142.765625 116.589844 143.496094 116.914062 C 144.476562 117.34375 145.460938 117.789062 146.40625 118.285156 C 146.910156 117.160156 147.25 116.347656 147.25 116.347656 C 147.25 116.347656 149.664062 114.546875 149.414062 113.859375 Z M 149.414062 113.859375 " fill-opacity="1" fill-rule="nonzero"/><path fill="#a34c44" d="M 147.351562 112.210938 C 145.558594 113.226562 144.53125 113.632812 144.523438 113.640625 L 144.472656 113.660156 L 144.433594 113.710938 C 144.421875 113.730469 143.226562 115.53125 142.691406 116.253906 L 142.917969 116.429688 C 143.40625 115.769531 144.441406 114.21875 144.640625 113.917969 C 144.875 113.824219 145.847656 113.273438 147.449219 112.359375 Z M 147.351562 112.210938 " fill-opacity="1" fill-rule="nonzero"/><path fill="#a34c44" d="M 148.855469 113.429688 C 147.058594 114.449219 146.035156 114.855469 146.023438 114.859375 L 145.972656 114.878906 L 145.9375 114.929688 C 145.929688 114.945312 144.730469 116.75 144.195312 117.472656 L 144.425781 117.644531 C 144.914062 116.984375 145.945312 115.433594 146.140625 115.136719 C 146.378906 115.039062 147.300781 114.480469 148.910156 113.566406 Z M 148.855469 113.429688 " fill-opacity="1" fill-rule="nonzero"/><path fill="#a34c44" d="M 146.015625 111.355469 C 144.136719 112.1875 143.082031 112.488281 143.070312 112.488281 L 143.015625 112.507812 L 142.976562 112.554688 C 142.960938 112.570312 141.59375 114.25 140.992188 114.914062 L 141.199219 115.113281 C 141.753906 114.503906 142.929688 113.0625 143.160156 112.785156 C 143.402344 112.710938 144.417969 112.261719 146.105469 111.515625 Z M 146.015625 111.355469 " fill-opacity="1" fill-rule="nonzero"/><path fill="#c25c4d" d="M 146.367188 118.503906 C 146.28125 116.710938 144.621094 116.023438 143.0625 115.855469 C 140.429688 115.570312 138.632812 114.699219 137.753906 117.335938 C 136.886719 119.929688 135.558594 124.375 138.507812 126.210938 C 141.125 127.839844 144.460938 124.285156 145.511719 122.3125 C 145.976562 121.433594 146.417969 119.488281 146.367188 118.503906 Z M 146.367188 118.503906 " fill-opacity="1" fill-rule="nonzero"/><path fill="#a34c44" d="M 143.90625 119.105469 C 142.671875 118.714844 141.4375 118.292969 140.273438 117.695312 C 139.996094 117.550781 139.769531 117.898438 140.050781 118.039062 C 141.257812 118.660156 142.523438 119.101562 143.800781 119.507812 C 144.097656 119.601562 144.203125 119.195312 143.90625 119.105469 Z M 143.90625 119.105469 " fill-opacity="1" fill-rule="nonzero"/><path fill="#a34c44" d="M 144.441406 120.917969 C 143.550781 121.023438 142.671875 121.296875 141.859375 121.699219 C 141.066406 122.089844 140.25 122.714844 140.027344 123.617188 C 139.976562 123.828125 140.296875 123.917969 140.351562 123.703125 C 140.550781 122.878906 141.300781 122.359375 142.011719 121.992188 C 142.757812 121.609375 143.605469 121.355469 144.425781 121.253906 C 144.636719 121.230469 144.65625 120.894531 144.441406 120.917969 Z M 144.441406 120.917969 " fill-opacity="1" fill-rule="nonzero"/><path fill="#c25c4d" d="M 148.035156 119.300781 C 147.359375 119.359375 146.71875 119.589844 146.042969 119.683594 C 145.996094 119.703125 145.953125 119.726562 145.910156 119.75 C 145.703125 119.832031 145.5 119.898438 145.289062 119.949219 C 144.472656 121.039062 143.824219 121.835938 142.851562 122.753906 C 142.09375 123.46875 139.902344 125.960938 142.324219 125.589844 C 142.46875 125.566406 143.257812 125.019531 144.304688 124.296875 C 146.371094 122.863281 149.417969 120.746094 150.382812 120.652344 C 150.394531 120.636719 150.40625 120.625 150.417969 120.613281 C 150.464844 120.566406 150.503906 120.519531 150.546875 120.472656 C 150.101562 119.625 148.914062 119.234375 148.035156 119.300781 Z M 148.035156 119.300781 " fill-opacity="1" fill-rule="nonzero"/><path fill="#c25c4c" d="M 242.242188 148.429688 C 242.296875 148.480469 242.621094 148.152344 242.644531 148.097656 C 242.925781 147.40625 241.714844 146.636719 241.160156 146.566406 C 240.246094 146.449219 239.664062 147.082031 238.996094 147.566406 C 238.757812 147.734375 236.429688 149.285156 236.597656 149.597656 C 236.722656 149.828125 237.066406 150.101562 238.207031 149.835938 C 238.132812 149.925781 236.671875 151.101562 236.671875 151.101562 C 236.671875 151.101562 236.71875 151.472656 236.910156 151.667969 C 237.359375 152.132812 238.082031 151.539062 238.449219 151.5625 C 238.269531 151.554688 238.414062 152.039062 238.445312 152.078125 C 238.828125 152.542969 240.171875 151.949219 240.597656 151.792969 C 241.050781 151.628906 241.148438 151.546875 241.578125 151.707031 C 241.953125 151.847656 242.226562 152.179688 242.625 151.925781 C 242.972656 151.703125 242.933594 151.246094 242.800781 150.921875 C 242.59375 150.421875 242.28125 150.363281 241.863281 150.101562 C 242.367188 150.101562 243.097656 150.3125 243.167969 149.628906 C 243.222656 149.058594 242.597656 148.757812 242.242188 148.429688 Z M 242.242188 148.429688 " fill-opacity="1" fill-rule="nonzero"/><path fill="#a24e45" d="M 240.488281 148.222656 L 240.4375 148.226562 L 240.398438 148.253906 C 240.390625 148.261719 239.644531 148.863281 238.101562 149.773438 L 238.171875 149.917969 C 239.550781 149.101562 240.386719 148.609375 240.554688 148.472656 C 240.65625 148.46875 240.878906 148.457031 241.164062 148.4375 C 241.152344 148.355469 241.144531 148.269531 241.132812 148.183594 C 240.765625 148.207031 240.5 148.222656 240.488281 148.222656 Z M 240.488281 148.222656 " fill-opacity="1" fill-rule="nonzero"/><path fill="#a24e45" d="M 241.386719 149.875 C 241.023438 149.898438 240.765625 149.910156 240.757812 149.910156 L 240.703125 149.914062 L 240.664062 149.945312 C 240.65625 149.949219 239.910156 150.550781 238.371094 151.460938 L 238.453125 151.566406 C 239.832031 150.75 240.652344 150.296875 240.824219 150.164062 C 240.921875 150.15625 241.148438 150.144531 241.433594 150.128906 C 241.421875 150.0625 241.410156 149.996094 241.394531 149.929688 C 241.390625 149.910156 241.386719 149.890625 241.386719 149.875 Z M 241.386719 149.875 " fill-opacity="1" fill-rule="nonzero"/><path fill="#a24e45" d="M 239.972656 146.597656 L 239.925781 146.605469 L 239.886719 146.640625 C 239.878906 146.644531 239.199219 147.316406 237.757812 148.375 L 237.839844 148.511719 C 239.128906 147.566406 239.90625 146.992188 240.066406 146.839844 C 240.171875 146.824219 240.421875 146.78125 240.730469 146.734375 C 240.726562 146.648438 240.722656 146.5625 240.714844 146.476562 C 240.296875 146.546875 239.980469 146.597656 239.972656 146.597656 Z M 239.972656 146.597656 " fill-opacity="1" fill-rule="nonzero"/><path fill="#b6544a" d="M 240.5 145.242188 C 239.75 144.976562 238.449219 145.203125 237.632812 145.152344 C 237.632812 145.152344 237.296875 145.386719 237.410156 145.648438 C 237.660156 146.238281 239.320312 146.574219 239.921875 146.570312 C 240.261719 146.570312 240.691406 146.269531 240.851562 145.945312 C 240.984375 145.679688 240.933594 145.394531 240.5 145.242188 Z M 240.5 145.242188 " fill-opacity="1" fill-rule="nonzero"/><path fill="#c25c4c" d="M 234.132812 145.035156 C 233.816406 145.089844 233.25 145.894531 233.101562 146.171875 C 232.84375 146.65625 232.152344 147.585938 232.398438 148.164062 C 232.652344 148.757812 234.128906 148.710938 234.625 148.402344 C 234.914062 148.222656 235.074219 147.5 235.0625 146.769531 C 235.050781 145.847656 234.769531 144.914062 234.132812 145.035156 Z M 234.132812 145.035156 " fill-opacity="1" fill-rule="nonzero"/><path fill="#c25c4c" d="M 233.179688 147.230469 C 232.0625 147.472656 231.683594 148.375 231.542969 149.273438 C 231.496094 149.574219 231.476562 149.878906 231.460938 150.15625 C 231.425781 150.789062 231.128906 153.171875 232.679688 152.34375 C 233.15625 152.085938 233.414062 151.578125 233.773438 151.222656 C 234.199219 150.800781 234.683594 150.40625 234.980469 149.898438 C 235.59375 148.855469 234.734375 146.890625 233.179688 147.230469 Z M 233.179688 147.230469 " fill-opacity="1" fill-rule="nonzero"/><path fill="#c25c4c" d="M 236.652344 144.675781 C 236.640625 144.675781 236.625 144.667969 236.613281 144.667969 C 236.410156 144.621094 235.785156 144.859375 235.542969 144.882812 C 234.738281 144.960938 233.296875 144.550781 233.4375 145.6875 C 233.53125 146.429688 234.226562 146.8125 234.964844 146.785156 C 235.917969 146.75 236.863281 145.628906 236.796875 144.714844 C 236.75 144.699219 236.699219 144.6875 236.652344 144.675781 Z M 236.652344 144.675781 " fill-opacity="1" fill-rule="nonzero"/><path fill="#a24e45" d="M 232.414062 152.964844 C 232.007812 152.394531 231.828125 151.722656 231.644531 151.054688 C 231.601562 150.898438 231.367188 150.964844 231.40625 151.117188 C 231.59375 151.804688 231.785156 152.5 232.203125 153.089844 C 232.292969 153.214844 232.503906 153.09375 232.414062 152.964844 Z M 232.414062 152.964844 " fill-opacity="1" fill-rule="nonzero"/><path fill="#a24e45" d="M 234.417969 155.789062 C 233.882812 155.464844 233.496094 155.003906 233.316406 154.402344 C 233.273438 154.25 233.035156 154.316406 233.078125 154.464844 C 233.277344 155.128906 233.703125 155.644531 234.296875 156 C 234.429688 156.082031 234.550781 155.867188 234.417969 155.789062 Z M 234.417969 155.789062 " fill-opacity="1" fill-rule="nonzero"/><path fill="#a34c44" d="M 139.660156 120.734375 C 139.617188 119.929688 139.535156 119.050781 138.921875 118.460938 C 138.769531 118.320312 138.570312 118.570312 138.71875 118.710938 C 139.261719 119.230469 139.304688 120.066406 139.34375 120.773438 C 139.355469 120.976562 139.671875 120.941406 139.660156 120.734375 Z M 139.660156 120.734375 " fill-opacity="1" fill-rule="nonzero"/><path fill="#a34c44" d="M 139.363281 125.089844 C 138.554688 125 137.78125 124.714844 137.089844 124.289062 C 136.914062 124.183594 136.726562 124.445312 136.902344 124.550781 C 137.644531 125.003906 138.46875 125.3125 139.335938 125.410156 C 139.539062 125.429688 139.570312 125.113281 139.363281 125.089844 Z M 139.363281 125.089844 " fill-opacity="1" fill-rule="nonzero"/><path fill="#a34c44" d="M 140.996094 124.007812 C 140.761719 124.25 140.34375 124.347656 140.09375 124.066406 C 139.992188 123.953125 139.792969 124.09375 139.898438 124.210938 C 140.257812 124.617188 140.832031 124.527344 141.183594 124.164062 C 141.292969 124.050781 141.105469 123.894531 140.996094 124.007812 Z M 140.996094 124.007812 " fill-opacity="1" fill-rule="nonzero"/><path fill="#e6eaed" d="M 227.015625 102.769531 C 225.996094 100.8125 224.902344 98.894531 223.699219 97.046875 C 223.273438 96.390625 222.171875 96.929688 222.601562 97.59375 C 223.804688 99.441406 224.902344 101.363281 225.917969 103.320312 C 226.285156 104.015625 227.378906 103.46875 227.015625 102.769531 Z M 227.015625 102.769531 " fill-opacity="1" fill-rule="nonzero"/><path fill="#e6eaed" d="M 236.523438 127.78125 C 235.4375 120.660156 231.914062 114.308594 229.277344 107.691406 C 228.984375 106.960938 227.890625 107.511719 228.183594 108.242188 C 230.785156 114.761719 234.253906 121.011719 235.328125 128.03125 C 235.445312 128.808594 236.644531 128.558594 236.523438 127.78125 Z M 236.523438 127.78125 " fill-opacity="1" fill-rule="nonzero"/><path fill="#e6eaed" d="M 193.089844 113.074219 C 191.25 114.386719 189.882812 115.976562 189.320312 118.195312 C 189.167969 118.804688 190.09375 119.125 190.25 118.515625 C 190.769531 116.441406 192.023438 115.027344 193.734375 113.808594 C 194.25 113.441406 193.597656 112.710938 193.089844 113.074219 Z M 193.089844 113.074219 " fill-opacity="1" fill-rule="nonzero"/><path fill="#e6eaed" d="M 195.253906 127.054688 C 194.113281 126.59375 193.117188 126.070312 192.277344 125.152344 C 191.851562 124.6875 191.117188 125.332031 191.542969 125.800781 C 192.496094 126.84375 193.640625 127.457031 194.933594 127.980469 C 195.519531 128.21875 195.835938 127.289062 195.253906 127.054688 Z M 195.253906 127.054688 " fill-opacity="1" fill-rule="nonzero"/><path fill="#e6eaed" d="M 237.804688 92.613281 C 235.738281 92.507812 233.820312 92.890625 232.203125 94.238281 C 231.714844 94.640625 232.363281 95.375 232.847656 94.972656 C 234.273438 93.792969 235.9375 93.496094 237.742188 93.589844 C 238.375 93.625 238.4375 92.644531 237.804688 92.613281 Z M 237.804688 92.613281 " fill-opacity="1" fill-rule="nonzero"/><path fill="#e6eaed" d="M 243.527344 96.160156 C 243.242188 95.597656 242.367188 96.035156 242.648438 96.601562 C 244.105469 99.480469 243.332031 102.484375 242.40625 105.398438 C 242.21875 106 243.140625 106.320312 243.335938 105.71875 C 244.339844 102.542969 245.101562 99.285156 243.527344 96.160156 Z M 243.527344 96.160156 " fill-opacity="1" fill-rule="nonzero"/></svg>