<svg xmlns="http://www.w3.org/2000/svg" xmlns:xlink="http://www.w3.org/1999/xlink" width="500" zoomAndPan="magnify" viewBox="0 0 375 374.999991" height="500" preserveAspectRatio="xMidYMid meet" version="1.0"><defs><clipPath id="17e7595809"><path d="M 109.652344 106.363281 L 259.636719 106.363281 L 259.636719 256.347656 L 109.652344 256.347656 Z M 109.652344 106.363281 " clip-rule="nonzero"/></clipPath><clipPath id="d0042b08c1"><path d="M 184.644531 106.363281 C 143.226562 106.363281 109.652344 139.9375 109.652344 181.355469 C 109.652344 222.773438 143.226562 256.347656 184.644531 256.347656 C 226.058594 256.347656 259.636719 222.773438 259.636719 181.355469 C 259.636719 139.9375 226.058594 106.363281 184.644531 106.363281 Z M 184.644531 106.363281 " clip-rule="nonzero"/></clipPath><clipPath id="022697514c"><path d="M 192.445312 233.757812 L 202.34375 233.757812 L 202.34375 238.414062 L 192.445312 238.414062 Z M 192.445312 233.757812 " clip-rule="nonzero"/></clipPath><clipPath id="bda22a408f"><path d="M 229.210938 204.136719 L 240.671875 204.136719 L 240.671875 209.421875 L 229.210938 209.421875 Z M 229.210938 204.136719 " clip-rule="nonzero"/></clipPath><clipPath id="1ea092a4ff"><path d="M 229.398438 205.035156 L 240.671875 205.035156 L 240.671875 212.0625 L 229.398438 212.0625 Z M 229.398438 205.035156 " clip-rule="nonzero"/></clipPath></defs><g clip-path="url(#17e7595809)"><g clip-path="url(#d0042b08c1)"><path fill="#fc8760" d="M 109.652344 106.363281 L 259.636719 106.363281 L 259.636719 256.347656 L 109.652344 256.347656 Z M 109.652344 106.363281 " fill-opacity="1" fill-rule="nonzero"/></g></g><g clip-path="url(#022697514c)"><path fill="#85d6e3" d="M 197.457031 233.765625 C 201.105469 233.730469 203.292969 235.828125 201.914062 237.429688 C 200.535156 239.03125 194.296875 238.308594 193.164062 237.84375 C 192.027344 237.378906 191.621094 233.816406 197.457031 233.765625 " fill-opacity="1" fill-rule="nonzero"/></g><path fill="#b5e6e8" d="M 200.78125 236.089844 C 200.636719 236.753906 196.621094 235.675781 197.402344 234.902344 C 198.1875 234.128906 201.023438 234.953125 200.78125 236.089844 " fill-opacity="1" fill-rule="nonzero"/><path fill="#85d6e3" d="M 229.765625 231.195312 C 228.847656 232.738281 223.160156 232.582031 221.125 231.195312 C 219.09375 229.8125 222.398438 226.824219 225.347656 226.933594 C 229.394531 227.085938 230.527344 229.917969 229.765625 231.195312 " fill-opacity="1" fill-rule="nonzero"/><path fill="#b5e6e8" d="M 229.011719 229.40625 C 228.867188 230.070312 224.851562 228.992188 225.636719 228.214844 C 226.417969 227.441406 229.253906 228.273438 229.011719 229.40625 " fill-opacity="1" fill-rule="nonzero"/><path fill="#85d6e3" d="M 161.089844 201.886719 C 164.273438 201.859375 166.183594 203.582031 164.980469 204.894531 C 163.78125 206.207031 158.335938 205.613281 157.347656 205.234375 C 156.355469 204.851562 156 201.929688 161.089844 201.886719 " fill-opacity="1" fill-rule="nonzero"/><path fill="#b5e6e8" d="M 163.992188 203.792969 C 163.867188 204.339844 160.359375 203.453125 161.042969 202.820312 C 161.730469 202.183594 164.203125 202.863281 163.992188 203.792969 " fill-opacity="1" fill-rule="nonzero"/><path fill="#85d6e3" d="M 146.230469 222.71875 C 148.351562 222.699219 149.625 223.847656 148.824219 224.722656 C 148.023438 225.601562 144.390625 225.207031 143.730469 224.949219 C 143.070312 224.695312 142.835938 222.746094 146.230469 222.71875 " fill-opacity="1" fill-rule="nonzero"/><path fill="#b5e6e8" d="M 148.164062 223.988281 C 148.082031 224.355469 145.742188 223.765625 146.195312 223.339844 C 146.65625 222.914062 148.304688 223.371094 148.164062 223.988281 " fill-opacity="1" fill-rule="nonzero"/><path fill="#85d6e3" d="M 201.054688 201.941406 C 203.160156 202.167969 204.214844 203.554688 203.265625 204.40625 C 202.3125 205.265625 198.789062 204.414062 198.179688 204.066406 C 197.570312 203.714844 197.6875 201.578125 201.054688 201.941406 " fill-opacity="1" fill-rule="nonzero"/><path fill="#b5e6e8" d="M 202.742188 203.539062 C 202.59375 203.921875 200.382812 203.015625 200.914062 202.609375 C 201.441406 202.203125 202.992188 202.886719 202.742188 203.539062 " fill-opacity="1" fill-rule="nonzero"/><path fill="#85d6e3" d="M 192.09375 205.746094 C 179.515625 204.574219 172.863281 202.941406 172.671875 205.335938 C 172.480469 207.734375 163.417969 208.101562 156.652344 209.105469 C 148.039062 210.382812 145.980469 214.699219 148.835938 217.738281 C 151.699219 220.773438 157.792969 219.824219 159.320312 222.777344 C 160.84375 225.730469 156.84375 225.570312 160.460938 228.609375 C 164.082031 231.648438 177.230469 231.007812 184.089844 228.609375 C 190.949219 226.210938 210.359375 232.886719 216.101562 226.691406 C 222.773438 219.496094 205.25 218.128906 207.527344 215.019531 C 210.574219 210.863281 203.113281 206.777344 192.09375 205.746094 " fill-opacity="1" fill-rule="nonzero"/><path fill="#b5e6e8" d="M 204.667969 211.558594 C 205.230469 213.53125 203.296875 214.066406 202.445312 213.617188 C 201.105469 212.910156 202.285156 212.394531 202.214844 211.558594 C 202.015625 209.3125 189.066406 207.046875 190.6875 207.046875 C 197.515625 207.050781 204.199219 209.929688 204.667969 211.558594 " fill-opacity="1" fill-rule="nonzero"/><path fill="#2a89c7" d="M 181.734375 184.714844 C 184.125 184.714844 186.414062 184.632812 188.550781 184.476562 C 188.433594 186.222656 188.007812 192.164062 187.4375 197.621094 C 186.757812 204.109375 185.816406 211.121094 185.867188 211.695312 C 185.917969 212.273438 187.019531 211.90625 188.691406 211.695312 C 190.363281 211.484375 191.847656 211.21875 192.246094 210.859375 C 192.820312 210.335938 194.234375 204.140625 195.277344 197.9375 C 196.136719 192.851562 197.097656 185.625 197.417969 183.183594 C 198.011719 183.035156 198.570312 182.878906 199.089844 182.710938 C 199.96875 182.429688 200.6875 182.148438 201.261719 181.847656 C 199.585938 193.144531 196.703125 210.234375 195.800781 211.433594 C 194.914062 212.621094 188.273438 214.628906 181.398438 214.628906 C 174.46875 214.628906 167.804688 212.519531 166.992188 211.433594 C 166.089844 210.234375 163.195312 193.070312 161.519531 181.777344 C 162.363281 182.234375 163.527344 182.648438 165.019531 183.035156 C 169.089844 184.085938 175.097656 184.714844 181.734375 184.714844 " fill-opacity="1" fill-rule="nonzero"/><path fill="#30a2d6" d="M 192.246094 210.859375 C 191.847656 211.21875 190.363281 211.484375 188.691406 211.695312 C 187.019531 211.90625 185.917969 212.273438 185.867188 211.695312 C 185.816406 211.121094 186.757812 204.109375 187.4375 197.621094 C 188.007812 192.164062 188.433594 186.222656 188.550781 184.476562 C 191.976562 184.226562 195.003906 183.789062 197.417969 183.183594 C 197.097656 185.625 196.136719 192.851562 195.277344 197.9375 C 194.234375 204.140625 192.820312 210.335938 192.246094 210.859375 " fill-opacity="1" fill-rule="nonzero"/><path fill="#2683b3" d="M 202.027344 176.503906 C 201.824219 178.019531 201.5625 179.847656 201.261719 181.847656 C 200.6875 182.148438 199.96875 182.429688 199.089844 182.710938 C 198.570312 182.878906 198.011719 183.035156 197.417969 183.183594 C 195.003906 183.789062 191.976562 184.226562 188.550781 184.476562 C 186.414062 184.632812 184.125 184.714844 181.734375 184.714844 C 175.097656 184.714844 169.089844 184.085938 165.019531 183.035156 C 163.527344 182.648438 162.363281 182.234375 161.519531 181.777344 C 161.226562 179.800781 160.96875 178.003906 160.765625 176.503906 L 202.027344 176.503906 " fill-opacity="1" fill-rule="nonzero"/><path fill="#2a89c7" d="M 159.828125 175.960938 C 159.988281 177.269531 161.667969 178.273438 164.996094 179.136719 C 169.046875 180.1875 175.03125 180.816406 181.636719 180.816406 C 188.761719 180.816406 195.007812 180.089844 198.914062 178.816406 C 201.609375 177.9375 202.78125 177.113281 202.992188 175.675781 C 203.136719 174.667969 203.1875 172.609375 203.1875 172.609375 L 159.59375 172.609375 C 159.59375 172.609375 159.695312 174.847656 159.828125 175.960938 " fill-opacity="1" fill-rule="nonzero"/><path fill="#30a2d6" d="M 159.59375 172.609375 C 159.59375 169.347656 169.351562 166.699219 181.394531 166.699219 C 193.429688 166.699219 203.1875 169.347656 203.1875 172.609375 C 203.1875 175.871094 193.671875 177.949219 181.632812 177.949219 C 169.59375 177.949219 159.59375 175.871094 159.59375 172.609375 " fill-opacity="1" fill-rule="nonzero"/><path fill="#23799b" d="M 162.132812 172.351562 C 162.132812 170.1875 170.753906 168.429688 181.394531 168.429688 C 192.027344 168.429688 200.65625 170.1875 200.65625 172.351562 C 200.65625 174.519531 192.027344 176.277344 181.394531 176.277344 C 170.753906 176.277344 162.132812 174.519531 162.132812 172.351562 " fill-opacity="1" fill-rule="nonzero"/><path fill="#4f9cb4" d="M 192.683594 177.601562 C 192.902344 176.472656 193.964844 175.726562 195.054688 175.941406 C 196.148438 176.152344 196.855469 177.234375 196.636719 178.363281 C 196.421875 179.492188 195.359375 180.238281 194.269531 180.027344 C 193.175781 179.816406 192.464844 178.730469 192.683594 177.601562 " fill-opacity="1" fill-rule="nonzero"/><path fill="#3b7594" d="M 192.644531 178.226562 C 192.644531 177.144531 193.519531 176.273438 194.601562 176.273438 C 195.679688 176.273438 196.554688 177.144531 196.554688 178.226562 C 196.554688 179.308594 195.679688 180.183594 194.601562 180.183594 C 193.519531 180.183594 192.644531 179.308594 192.644531 178.226562 " fill-opacity="1" fill-rule="nonzero"/><path fill="#7d7e7f" d="M 166.523438 190.839844 C 166.644531 190.839844 166.765625 190.839844 166.886719 190.835938 C 170.066406 190.777344 174.011719 189.96875 178.609375 188.425781 C 188.222656 185.203125 194.757812 179.558594 195.035156 179.320312 C 195.492188 178.917969 195.539062 178.226562 195.140625 177.765625 C 194.742188 177.3125 194.050781 177.265625 193.589844 177.660156 C 193.527344 177.71875 187.089844 183.265625 177.910156 186.34375 C 166.527344 190.160156 162.6875 188.3125 161.570312 187.339844 C 160.519531 186.429688 160.890625 184.40625 161.648438 182.628906 C 161.648438 182.628906 161.554688 181.984375 161.457031 181.347656 C 161.355469 180.679688 161.128906 179.089844 161.128906 179.089844 C 160.414062 180.070312 159.511719 181.691406 159.035156 183.464844 C 158.214844 186.542969 159.175781 188.171875 160.128906 189 C 161.539062 190.222656 163.691406 190.839844 166.523438 190.839844 " fill-opacity="1" fill-rule="nonzero"/><path fill="#d1f0f4" d="M 187.253906 154.824219 C 183.597656 153.289062 180.886719 156.792969 180.886719 156.792969 C 180.886719 156.792969 177.796875 153.867188 173.84375 155.644531 C 170.996094 156.925781 171.066406 159.433594 171.066406 159.433594 C 171.066406 159.433594 168.433594 159.089844 166.664062 160.792969 C 165.039062 162.351562 165.511719 164.042969 165.511719 164.042969 C 165.511719 164.042969 163.519531 164.289062 162.132812 165.808594 C 160.964844 167.085938 160.933594 168.460938 160.972656 169.757812 C 161.007812 171.023438 162 172.894531 162.882812 173.441406 C 164.71875 174.582031 169.066406 176.4375 181.394531 176.277344 C 195.921875 176.085938 199.265625 173.984375 200.078125 173.304688 C 200.890625 172.628906 201.285156 169.773438 200.59375 168.175781 C 199.375 165.375 197.480469 166.023438 197.210938 165.40625 C 196.9375 164.789062 197.480469 161.605469 195.242188 159.640625 C 193.820312 158.382812 192.253906 158.59375 191.238281 158.800781 C 190.664062 158.921875 190.261719 159.039062 190.164062 158.894531 C 189.894531 158.488281 189.824219 155.910156 187.253906 154.824219 " fill-opacity="1" fill-rule="nonzero"/><path fill="#f5fcfc" d="M 176.46875 169.042969 C 176.429688 169.042969 176.394531 169.042969 176.359375 169.039062 C 175.171875 168.992188 174.253906 167.871094 174.316406 166.539062 C 174.367188 165.253906 175.390625 164.472656 176.535156 164.472656 C 176.570312 164.472656 176.605469 164.472656 176.644531 164.476562 C 177.828125 164.527344 178.765625 165.660156 178.710938 166.992188 C 178.65625 168.28125 177.613281 169.042969 176.46875 169.042969 " fill-opacity="1" fill-rule="nonzero"/><path fill="#ffffff" d="M 178.453125 166.707031 C 178.386719 165.730469 177.640625 165.140625 177.464844 165.199219 C 177.308594 165.25 177.710938 165.570312 177.835938 166.710938 C 177.9375 167.652344 177.53125 168.3125 177.652344 168.371094 C 177.855469 168.464844 178.53125 167.875 178.453125 166.707031 " fill-opacity="1" fill-rule="nonzero"/><path fill="#eaf8f9" d="M 183.058594 151.164062 C 182.988281 151.164062 182.917969 151.160156 182.839844 151.15625 C 181.800781 151.054688 181.261719 150.007812 181.332031 149.277344 C 181.390625 148.621094 181.914062 147.835938 183.007812 147.835938 C 183.054688 147.835938 183.105469 147.839844 183.152344 147.839844 C 184.199219 147.90625 184.769531 148.804688 184.683594 149.71875 C 184.601562 150.570312 183.980469 151.164062 183.058594 151.164062 " fill-opacity="1" fill-rule="nonzero"/><path fill="#ffffff" d="M 184.441406 149.511719 C 184.429688 148.785156 183.898438 148.320312 183.765625 148.355469 C 183.648438 148.390625 183.933594 148.644531 183.980469 149.496094 C 184.023438 150.191406 183.699219 150.667969 183.785156 150.714844 C 183.929688 150.792969 184.453125 150.382812 184.441406 149.511719 " fill-opacity="1" fill-rule="nonzero"/><path fill="#eaf8f9" d="M 191.296875 156.894531 C 190.574219 156.894531 189.9375 156.347656 189.820312 155.582031 C 189.6875 154.742188 190.238281 153.957031 191.046875 153.832031 C 191.117188 153.824219 191.191406 153.816406 191.261719 153.816406 C 191.984375 153.816406 192.625 154.367188 192.742188 155.132812 C 192.871094 155.972656 192.320312 156.753906 191.515625 156.878906 C 191.441406 156.890625 191.367188 156.894531 191.296875 156.894531 " fill-opacity="1" fill-rule="nonzero"/><path fill="#ffffff" d="M 192.515625 155.339844 C 192.511719 154.617188 191.992188 154.148438 191.855469 154.183594 C 191.742188 154.214844 192.023438 154.46875 192.0625 155.316406 C 192.09375 156.011719 191.765625 156.476562 191.851562 156.527344 C 191.992188 156.609375 192.519531 156.207031 192.515625 155.339844 " fill-opacity="1" fill-rule="nonzero"/><path fill="#f4fbfc" d="M 192.8125 168.460938 C 192.125 168.460938 191.472656 168 191.226562 167.277344 C 190.921875 166.386719 191.359375 165.425781 192.207031 165.140625 C 192.371094 165.082031 192.539062 165.058594 192.703125 165.058594 C 193.390625 165.058594 194.042969 165.515625 194.289062 166.234375 C 194.59375 167.132812 194.15625 168.089844 193.308594 168.378906 C 193.144531 168.433594 192.980469 168.460938 192.8125 168.460938 " fill-opacity="1" fill-rule="nonzero"/><path fill="#ffffff" d="M 194.171875 166.601562 C 194.042969 165.898438 193.453125 165.53125 193.332031 165.589844 C 193.222656 165.636719 193.539062 165.835938 193.722656 166.65625 C 193.875 167.328125 193.636719 167.839844 193.726562 167.875 C 193.882812 167.929688 194.328125 167.445312 194.171875 166.601562 " fill-opacity="1" fill-rule="nonzero"/><path fill="#f4fbfc" d="M 184.691406 161.316406 C 184.265625 161.316406 183.855469 161.070312 183.671875 160.652344 C 183.425781 160.089844 183.679688 159.4375 184.242188 159.191406 C 184.390625 159.125 184.539062 159.097656 184.6875 159.097656 C 185.117188 159.097656 185.523438 159.34375 185.703125 159.757812 C 185.949219 160.320312 185.695312 160.976562 185.132812 161.222656 C 184.992188 161.285156 184.835938 161.316406 184.691406 161.316406 " fill-opacity="1" fill-rule="nonzero"/><path fill="#ffffff" d="M 185.585938 159.972656 C 185.453125 159.484375 185.015625 159.261719 184.933594 159.308594 C 184.855469 159.351562 185.097656 159.472656 185.273438 160.039062 C 185.421875 160.503906 185.285156 160.878906 185.351562 160.898438 C 185.464844 160.925781 185.746094 160.558594 185.585938 159.972656 " fill-opacity="1" fill-rule="nonzero"/><path fill="#eaf8f9" d="M 170.921875 153.449219 C 170.308594 153.449219 169.742188 153.058594 169.546875 152.445312 C 169.300781 151.683594 169.722656 150.871094 170.484375 150.628906 C 170.632812 150.582031 170.785156 150.558594 170.929688 150.558594 C 171.542969 150.558594 172.113281 150.949219 172.308594 151.5625 C 172.550781 152.324219 172.128906 153.136719 171.367188 153.382812 C 171.21875 153.429688 171.070312 153.449219 170.921875 153.449219 " fill-opacity="1" fill-rule="nonzero"/><path fill="#ffffff" d="M 172.113281 151.773438 C 172.015625 151.085938 171.402344 150.734375 171.265625 150.789062 C 171.144531 150.84375 171.480469 151.035156 171.632812 151.835938 C 171.757812 152.496094 171.472656 153.003906 171.570312 153.035156 C 171.734375 153.082031 172.234375 152.601562 172.113281 151.773438 " fill-opacity="1" fill-rule="nonzero"/><path fill="#eaf8f9" d="M 162.050781 162.960938 C 161.589844 162.960938 161.164062 162.667969 161.015625 162.210938 C 160.832031 161.636719 161.152344 161.027344 161.722656 160.84375 C 161.832031 160.808594 161.945312 160.792969 162.054688 160.792969 C 162.515625 160.792969 162.941406 161.085938 163.089844 161.546875 C 163.273438 162.117188 162.953125 162.726562 162.378906 162.910156 C 162.269531 162.945312 162.160156 162.960938 162.050781 162.960938 " fill-opacity="1" fill-rule="nonzero"/><path fill="#ffffff" d="M 162.941406 161.707031 C 162.867188 161.1875 162.40625 160.921875 162.304688 160.96875 C 162.214844 161.003906 162.464844 161.148438 162.582031 161.75 C 162.675781 162.246094 162.460938 162.628906 162.535156 162.648438 C 162.65625 162.6875 163.035156 162.328125 162.941406 161.707031 " fill-opacity="1" fill-rule="nonzero"/><path fill="#f4fbfc" d="M 177.375 174.417969 C 176.878906 174.417969 176.425781 174.078125 176.300781 173.574219 C 176.152344 172.980469 176.511719 172.378906 177.109375 172.230469 C 177.199219 172.207031 177.285156 172.195312 177.375 172.195312 C 177.871094 172.195312 178.328125 172.535156 178.449219 173.039062 C 178.597656 173.632812 178.238281 174.234375 177.640625 174.382812 C 177.550781 174.40625 177.464844 174.417969 177.375 174.417969 " fill-opacity="1" fill-rule="nonzero"/><path fill="#ffffff" d="M 178.296875 173.230469 C 178.25 172.726562 177.859375 172.429688 177.765625 172.464844 C 177.6875 172.492188 177.902344 172.65625 177.980469 173.242188 C 178.046875 173.726562 177.847656 174.074219 177.910156 174.101562 C 178.015625 174.148438 178.355469 173.832031 178.296875 173.230469 " fill-opacity="1" fill-rule="nonzero"/><path fill="#f4fbfc" d="M 167.242188 170.152344 C 166.722656 170.152344 166.261719 169.785156 166.15625 169.253906 C 166.039062 168.652344 166.433594 168.070312 167.03125 167.953125 C 167.105469 167.9375 167.175781 167.933594 167.246094 167.933594 C 167.765625 167.933594 168.230469 168.300781 168.332031 168.828125 C 168.449219 169.429688 168.058594 170.011719 167.457031 170.128906 C 167.382812 170.144531 167.3125 170.152344 167.242188 170.152344 " fill-opacity="1" fill-rule="nonzero"/><path fill="#ffffff" d="M 168.171875 169.011719 C 168.148438 168.507812 167.769531 168.191406 167.679688 168.21875 C 167.597656 168.246094 167.804688 168.417969 167.851562 169.007812 C 167.894531 169.496094 167.679688 169.832031 167.738281 169.859375 C 167.839844 169.914062 168.199219 169.617188 168.171875 169.011719 " fill-opacity="1" fill-rule="nonzero"/><path fill="#f4fbfc" d="M 175.75 161.316406 C 175.261719 161.316406 174.816406 160.996094 174.679688 160.503906 C 174.519531 159.910156 174.863281 159.300781 175.457031 159.140625 C 175.554688 159.113281 175.652344 159.101562 175.75 159.101562 C 176.238281 159.101562 176.683594 159.421875 176.820312 159.917969 C 176.980469 160.507812 176.632812 161.117188 176.042969 161.277344 C 175.945312 161.304688 175.84375 161.316406 175.75 161.316406 " fill-opacity="1" fill-rule="nonzero"/><path fill="#ffffff" d="M 176.671875 160.109375 C 176.613281 159.609375 176.210938 159.324219 176.121094 159.359375 C 176.039062 159.390625 176.257812 159.546875 176.351562 160.128906 C 176.429688 160.613281 176.242188 160.964844 176.304688 160.992188 C 176.410156 161.035156 176.742188 160.714844 176.671875 160.109375 " fill-opacity="1" fill-rule="nonzero"/><path fill="#f4fbfc" d="M 185.964844 172.574219 C 185.90625 172.574219 185.847656 172.570312 185.789062 172.566406 C 184.742188 172.484375 184.1875 171.445312 184.242188 170.714844 C 184.292969 170.050781 184.8125 169.242188 185.9375 169.242188 C 185.972656 169.242188 186.007812 169.246094 186.042969 169.246094 C 187.089844 169.292969 187.675781 170.179688 187.601562 171.097656 C 187.539062 171.960938 186.910156 172.574219 185.964844 172.574219 " fill-opacity="1" fill-rule="nonzero"/><path fill="#ffffff" d="M 187.355469 170.894531 C 187.332031 170.167969 186.792969 169.714844 186.660156 169.75 C 186.546875 169.785156 186.835938 170.035156 186.898438 170.882812 C 186.949219 171.582031 186.632812 172.0625 186.722656 172.105469 C 186.867188 172.183594 187.382812 171.765625 187.355469 170.894531 " fill-opacity="1" fill-rule="nonzero"/><path fill="#f4fbfc" d="M 170.015625 163.546875 C 169.082031 163.546875 168.417969 162.710938 168.332031 162.03125 C 168.246094 161.351562 168.617188 160.417969 169.800781 160.230469 C 169.894531 160.214844 169.988281 160.207031 170.082031 160.207031 C 170.96875 160.207031 171.597656 160.90625 171.699219 161.730469 C 171.816406 162.644531 171.253906 163.402344 170.214844 163.53125 C 170.148438 163.542969 170.082031 163.546875 170.015625 163.546875 " fill-opacity="1" fill-rule="nonzero"/><path fill="#ffffff" d="M 171.417969 161.582031 C 171.25 160.875 170.628906 160.539062 170.507812 160.601562 C 170.402344 160.660156 170.734375 160.84375 170.96875 161.664062 C 171.15625 162.339844 170.945312 162.871094 171.039062 162.898438 C 171.199219 162.945312 171.621094 162.429688 171.417969 161.582031 " fill-opacity="1" fill-rule="nonzero"/><path fill="#fbce25" d="M 203.496094 225.472656 C 202.648438 225.320312 203.621094 222.882812 203.496094 221.808594 C 203.371094 220.738281 202.875 219.664062 203.28125 218.273438 C 203.683594 216.886719 203.941406 215.621094 203.808594 214.929688 C 203.683594 214.234375 204.988281 214.359375 204.863281 215.433594 C 204.738281 216.507812 204.863281 217.832031 204.488281 218.84375 C 204.117188 219.851562 204.941406 221.429688 204.871094 222.628906 C 204.800781 223.828125 204.023438 225.5625 203.496094 225.472656 " fill-opacity="1" fill-rule="nonzero"/><path fill="#fbce25" d="M 234.910156 216.785156 C 234.203125 217.023438 233.8125 216.378906 232.820312 215.8125 C 231.824219 215.242188 230.6875 214.800781 230.066406 213.414062 C 229.445312 212.023438 228.78125 211.691406 227.105469 211.101562 C 225.429688 210.511719 225.242188 208.996094 225.242188 208.996094 L 225.800781 208.472656 C 225.800781 208.472656 226.238281 209.4375 227.417969 209.941406 C 228.597656 210.445312 229.777344 210.699219 230.769531 212.152344 C 231.761719 213.601562 231.824219 214.359375 233.5625 214.800781 C 235.300781 215.242188 235.527344 216.578125 234.910156 216.785156 " fill-opacity="1" fill-rule="nonzero"/><path fill="#fbce25" d="M 223.378906 222.1875 C 222.65625 222.371094 222.449219 220.671875 222.015625 219.21875 C 221.578125 217.769531 220.027344 217.074219 219.53125 215.6875 C 219.035156 214.296875 218.0625 211.691406 217.625 211.164062 C 217.191406 210.636719 218.910156 210.445312 218.910156 210.445312 C 218.910156 210.445312 219.726562 212.152344 220.375 213.855469 C 221.019531 215.558594 221.207031 216.066406 222.449219 217.328125 C 223.691406 218.589844 224.371094 221.9375 223.378906 222.1875 " fill-opacity="1" fill-rule="nonzero"/><path fill="#fbce25" d="M 222.808594 222.371094 C 222.019531 223.011719 221.648438 221.476562 221.339844 219.707031 C 221.027344 217.941406 220.222656 216.992188 219.351562 216.046875 C 218.480469 215.101562 217.238281 213.269531 216.867188 211.628906 C 216.496094 209.984375 217.816406 210.679688 217.816406 210.679688 C 217.816406 210.679688 218.078125 213.058594 219.664062 214.519531 C 221.246094 215.980469 221.894531 217.210938 222.394531 218.476562 C 222.890625 219.738281 223.429688 221.867188 222.808594 222.371094 " fill-opacity="1" fill-rule="nonzero"/><path fill="#fbce25" d="M 237.847656 214.011719 C 237.558594 214.410156 236.410156 214.253906 235.167969 212.992188 C 233.925781 211.730469 233.441406 210.761719 231.761719 210.066406 C 230.085938 209.375 227.851562 209.121094 226.609375 207.859375 C 225.367188 206.59375 227.292969 206.914062 227.292969 206.914062 C 227.292969 206.914062 228.351562 207.667969 229.777344 208.113281 C 231.203125 208.554688 233.191406 209.121094 234.433594 210.445312 C 235.675781 211.773438 235.316406 211.976562 236.683594 212.445312 C 238.050781 212.914062 238.066406 213.714844 237.847656 214.011719 " fill-opacity="1" fill-rule="nonzero"/><path fill="#fbce25" d="M 238.59375 209.542969 C 238.375 210.066406 237.410156 209.941406 236.894531 209.542969 C 236.378906 209.140625 235.613281 208.027344 234.453125 207.457031 C 233.292969 206.890625 230.085938 207.035156 228.800781 206.300781 C 227.519531 205.566406 228.53125 205 228.53125 205 C 228.53125 205 229.59375 205.371094 231.863281 205.5 C 233.4375 205.59375 234.886719 206.15625 235.984375 207.015625 C 237.082031 207.878906 238.945312 208.699219 238.59375 209.542969 " fill-opacity="1" fill-rule="nonzero"/><path fill="#fbce25" d="M 210.625 225.511719 C 209.582031 225.613281 210.167969 223.679688 210.296875 222.417969 C 210.429688 221.15625 209.644531 220.105469 208.890625 219.386719 C 208.136719 218.671875 207.484375 216.484375 207.875 214.84375 C 208.269531 213.203125 209.46875 214.03125 209.46875 214.03125 C 209.46875 214.03125 208.914062 217.898438 209.664062 218.546875 C 210.421875 219.191406 211.082031 219.640625 211.183594 221.363281 C 211.28125 223.089844 211.703125 225.40625 210.625 225.511719 " fill-opacity="1" fill-rule="nonzero"/><path fill="#fbce25" d="M 215.195312 225.113281 C 214.492188 225.519531 213.871094 224.523438 213.746094 223.136719 C 213.625 221.746094 212.710938 219.976562 212.796875 218.96875 C 212.878906 217.957031 212.382812 215.351562 211.636719 214.296875 C 210.890625 213.246094 212.796875 212.992188 212.796875 212.992188 C 212.796875 212.992188 213.832031 215.191406 214.121094 216.785156 C 214.410156 218.378906 213.996094 218.894531 214.492188 220.007812 C 214.988281 221.117188 216.160156 224.550781 215.195312 225.113281 " fill-opacity="1" fill-rule="nonzero"/><path fill="#fbce25" d="M 205.476562 225.519531 C 204.363281 225.621094 204.566406 223.472656 205.1875 221.914062 C 205.808594 220.355469 205.507812 219.355469 205.078125 218.027344 C 204.648438 216.695312 205.109375 214.496094 205.109375 214.496094 L 206.261719 214.496094 C 206.261719 214.496094 205.890625 216.148438 206.261719 217.242188 C 206.636719 218.335938 207.214844 219.769531 206.59375 221.660156 C 205.972656 223.558594 206.550781 225.417969 205.476562 225.519531 " fill-opacity="1" fill-rule="nonzero"/><path fill="#fbce25" d="M 229.382812 220.007812 C 228.570312 220.414062 227.722656 219.367188 227.566406 217.394531 C 227.40625 215.421875 226.164062 214.640625 225.429688 213.96875 C 223.679688 212.367188 223.054688 210.066406 223.054688 210.066406 L 224.085938 209.378906 C 224.085938 209.378906 224.910156 211.835938 225.960938 212.644531 C 227.011719 213.449219 227.960938 214.292969 228.394531 215.582031 C 228.832031 216.871094 230.253906 219.574219 229.382812 220.007812 " fill-opacity="1" fill-rule="nonzero"/><path fill="#fbce25" d="M 198.230469 223.472656 C 197.269531 223.40625 198.316406 220.957031 199.183594 220.007812 C 200.054688 219.054688 200.714844 217.96875 201.089844 216.785156 C 201.460938 215.601562 202.414062 213.835938 202.414062 213.835938 L 203.285156 214.296875 C 203.285156 214.296875 202.207031 216.570312 201.835938 217.621094 C 201.460938 218.675781 201.164062 220.105469 200.402344 221.15625 C 199.640625 222.210938 198.851562 223.515625 198.230469 223.472656 " fill-opacity="1" fill-rule="nonzero"/><path fill="#fbce25" d="M 197.847656 216.683594 C 197.238281 217.75 197.695312 218.558594 197.238281 219.511719 C 196.785156 220.46875 195.914062 221.882812 196.578125 222.394531 C 197.238281 222.90625 197.445312 221.519531 198.066406 220.929688 C 198.6875 220.339844 198.5625 219.539062 198.730469 218.617188 C 198.894531 217.691406 199.628906 216.914062 200.402344 216.480469 C 201.171875 216.046875 202 213.945312 202 213.945312 L 201.253906 212.992188 C 201.253906 212.992188 200.300781 214.578125 199.554688 215.332031 C 198.8125 216.089844 198.25 215.980469 197.847656 216.683594 " fill-opacity="1" fill-rule="nonzero"/><path fill="#fbce25" d="M 195.046875 220.355469 C 194.242188 219.921875 195.253906 218.574219 196.039062 218.027344 C 196.824219 217.476562 197.089844 215.726562 197.847656 215.265625 C 198.605469 214.800781 200.566406 212.632812 200.566406 212.632812 L 201.421875 213.667969 C 201.421875 213.667969 200.121094 215.265625 198.851562 216.117188 C 197.585938 216.972656 197.777344 218.085938 196.992188 218.925781 C 196.207031 219.769531 195.667969 220.695312 195.046875 220.355469 " fill-opacity="1" fill-rule="nonzero"/><path fill="#fbce25" d="M 199.972656 223.894531 C 199.238281 224.042969 199.585938 222.671875 200.402344 221.746094 C 201.214844 220.820312 201.132812 219.054688 201.421875 217.75 C 201.710938 216.441406 202.765625 214.71875 202.765625 214.71875 L 203.480469 215.144531 C 203.480469 215.144531 202.539062 217.039062 202.457031 218.027344 C 202.371094 219.011719 202.332031 220.0625 202 221.367188 C 201.667969 222.671875 200.800781 223.722656 199.972656 223.894531 " fill-opacity="1" fill-rule="nonzero"/><path fill="#fbce25" d="M 207.78125 225.304688 C 207.039062 225.386719 206.953125 224.3125 206.910156 223.136719 C 206.871094 221.957031 207.449219 220.902344 207.160156 219.851562 C 206.871094 218.800781 206 217.707031 206 216.527344 C 206 215.351562 206.292969 214.496094 206.292969 214.496094 L 207.492188 214.71875 C 207.492188 214.71875 206.996094 216.191406 207.574219 217.578125 C 208.152344 218.96875 208.402344 219.683594 208.484375 221.242188 C 208.566406 222.796875 208.734375 225.207031 207.78125 225.304688 " fill-opacity="1" fill-rule="nonzero"/><path fill="#fbce25" d="M 211.96875 225.621094 C 211.226562 225.707031 211.140625 224.542969 211.097656 223.265625 C 211.058594 221.988281 211.636719 220.847656 211.347656 219.707031 C 211.058594 218.566406 210.1875 217.382812 210.1875 216.105469 C 210.1875 214.824219 210.476562 213.902344 210.476562 213.902344 L 211.679688 214.140625 C 211.679688 214.140625 211.179688 215.738281 211.761719 217.246094 C 212.339844 218.75 212.589844 219.527344 212.671875 221.210938 C 212.753906 222.902344 212.921875 225.511719 211.96875 225.621094 " fill-opacity="1" fill-rule="nonzero"/><path fill="#fbce25" d="M 217.953125 224.394531 C 217.328125 224.933594 216.414062 223.050781 216.3125 222.144531 C 216.214844 221.242188 216.203125 219.886719 215.445312 218.652344 C 214.6875 217.417969 213.941406 217.265625 213.566406 216.117188 C 213.191406 214.972656 212.695312 213.835938 212.695312 213.835938 L 214.226562 212.367188 C 214.226562 212.367188 214.308594 215.496094 214.972656 216.117188 C 215.632812 216.738281 216.917969 218.359375 217.289062 219.90625 C 217.664062 221.453125 219.03125 223.472656 217.953125 224.394531 " fill-opacity="1" fill-rule="nonzero"/><path fill="#fbce25" d="M 220.257812 223.390625 C 219.390625 223.738281 219.152344 222.128906 218.816406 220.65625 C 218.480469 219.183594 217.15625 218.257812 216.492188 216.996094 C 215.832031 215.730469 214.503906 214.125 213.71875 213.183594 C 212.933594 212.238281 215.382812 212.027344 215.382812 212.027344 C 215.382812 212.027344 215.730469 213.292969 216.800781 215.144531 C 217.871094 216.996094 219.199219 218.269531 219.917969 219.777344 C 220.632812 221.289062 221.210938 223.011719 220.257812 223.390625 " fill-opacity="1" fill-rule="nonzero"/><path fill="#fbce25" d="M 226.875 221.199219 C 226.179688 221.445312 225.429688 219.894531 225.554688 218.652344 C 225.675781 217.414062 224.714844 215.855469 223.96875 215.054688 C 223.222656 214.257812 222.277344 213.535156 221.746094 212.359375 C 221.214844 211.183594 221.164062 210.257812 221.164062 210.257812 L 222.40625 209.890625 C 222.40625 209.890625 222.574219 211.898438 223.855469 212.992188 C 225.140625 214.085938 226.664062 215.8125 226.730469 217.199219 C 226.792969 218.589844 227.828125 220.863281 226.875 221.199219 " fill-opacity="1" fill-rule="nonzero"/><path fill="#fbce25" d="M 232.222656 218.167969 C 231.679688 218.953125 230.4375 217.679688 229.777344 216.324219 C 229.113281 214.972656 228.9375 213.566406 227.789062 212.992188 C 226.640625 212.417969 224.351562 210.8125 224.023438 209.375 C 223.691406 207.941406 225.015625 208.152344 225.015625 208.152344 C 225.015625 208.152344 225.105469 210.199219 226.730469 210.941406 C 228.355469 211.683594 229.542969 212.699219 230.445312 214.929688 C 231.347656 217.160156 232.898438 217.199219 232.222656 218.167969 " fill-opacity="1" fill-rule="nonzero"/><path fill="#fbce25" d="M 238.636719 211.605469 C 238.640625 212.78125 237.0625 212.402344 236.066406 211.433594 C 235.074219 210.46875 233.84375 208.984375 232.878906 208.910156 C 231.914062 208.839844 229.277344 208.070312 228.535156 207.144531 C 227.789062 206.214844 229.238281 205.847656 229.238281 205.847656 C 229.238281 205.847656 230.5625 207.363281 231.761719 207.445312 C 232.960938 207.523438 234.179688 208.0625 235.53125 209.375 C 236.945312 210.753906 238.632812 210.753906 238.636719 211.605469 " fill-opacity="1" fill-rule="nonzero"/><path fill="#fbce25" d="M 236.316406 215.179688 C 235.917969 215.957031 233.335938 214.550781 232.753906 213.414062 C 232.175781 212.277344 231.527344 211.21875 230.023438 210.804688 C 228.519531 210.386719 226.421875 209.796875 225.84375 207.898438 C 225.261719 206.007812 226.546875 207.445312 226.546875 207.445312 C 226.546875 207.445312 228.027344 209.246094 230.308594 209.710938 C 232.589844 210.175781 232.878906 211.980469 234.121094 212.992188 C 235.363281 214.003906 236.773438 214.296875 236.316406 215.179688 " fill-opacity="1" fill-rule="nonzero"/><path fill="#fbce25" d="M 225.230469 221.617188 C 224.59375 221.964844 223.855469 219.9375 223.609375 218.652344 C 223.359375 217.371094 222.492188 216.800781 221.746094 215.675781 C 221 214.550781 219.632812 211.101562 219.632812 211.101562 L 220.902344 210.445312 C 220.902344 210.445312 221.246094 212.953125 222.574219 214.71875 C 223.898438 216.484375 224.230469 216.621094 224.644531 218.027344 C 225.054688 219.433594 225.9375 221.242188 225.230469 221.617188 " fill-opacity="1" fill-rule="nonzero"/><path fill="#fbce25" d="M 210.03125 214.207031 C 210.03125 214.207031 211.105469 216.027344 211.066406 217.371094 C 211.023438 218.714844 209.914062 220.308594 210.03125 221.832031 C 210.148438 223.351562 209.957031 225.203125 209.375 225.3125 C 208.25 225.519531 208.484375 222.476562 208.871094 221.242188 C 209.261719 220.003906 209.871094 218.230469 209.890625 217.023438 C 209.90625 215.8125 208.9375 214.257812 208.9375 214.257812 L 210.03125 214.207031 " fill-opacity="1" fill-rule="nonzero"/><path fill="#fbce25" d="M 201.421875 224.734375 C 200.820312 224.46875 201.835938 222.378906 201.792969 221.074219 C 201.753906 219.769531 201.625 217.234375 202 216.324219 C 202.375 215.414062 203.285156 213.835938 203.285156 213.835938 L 204.109375 214.011719 C 204.109375 214.011719 203.105469 215.710938 203.070312 217.738281 C 203.035156 219.769531 203.117188 221.28125 202.765625 222.378906 C 202.414062 223.472656 202.371094 225.152344 201.421875 224.734375 " fill-opacity="1" fill-rule="nonzero"/><path fill="#f9ed34" d="M 202.339844 226.128906 C 201.417969 225.96875 202.476562 223.347656 202.339844 222.195312 C 202.207031 221.042969 201.664062 219.890625 202.105469 218.398438 C 202.546875 216.910156 202.824219 215.554688 202.683594 214.808594 C 202.546875 214.0625 203.96875 214.199219 203.832031 215.351562 C 203.699219 216.503906 203.832031 217.925781 203.425781 219.011719 C 203.019531 220.09375 203.917969 221.789062 203.839844 223.078125 C 203.761719 224.367188 202.914062 226.226562 202.339844 226.128906 " fill-opacity="1" fill-rule="nonzero"/><path fill="#f9ed34" d="M 236.605469 216.804688 C 235.839844 217.054688 235.410156 216.367188 234.328125 215.757812 C 233.242188 215.148438 232 214.671875 231.324219 213.183594 C 230.644531 211.691406 229.925781 211.335938 228.09375 210.699219 C 226.265625 210.0625 226.0625 208.4375 226.0625 208.4375 L 226.671875 207.878906 C 226.671875 207.878906 227.148438 208.910156 228.433594 209.453125 C 229.71875 209.996094 231.007812 210.269531 232.089844 211.828125 C 233.175781 213.382812 233.242188 214.199219 235.136719 214.671875 C 237.035156 215.148438 237.28125 216.578125 236.605469 216.804688 " fill-opacity="1" fill-rule="nonzero"/><path fill="#f9ed34" d="M 224.03125 222.601562 C 223.242188 222.800781 223.015625 220.976562 222.539062 219.417969 C 222.066406 217.859375 220.371094 217.113281 219.832031 215.621094 C 219.289062 214.132812 218.679688 211.265625 218.207031 210.699219 C 217.730469 210.132812 219.152344 209.996094 219.152344 209.996094 C 219.152344 209.996094 220.046875 211.828125 220.753906 213.65625 C 221.457031 215.484375 221.660156 216.027344 223.015625 217.382812 C 224.371094 218.738281 225.117188 222.332031 224.03125 222.601562 " fill-opacity="1" fill-rule="nonzero"/><path fill="#f9ed34" d="M 219.402344 224.441406 C 218.539062 225.132812 218.136719 223.484375 217.800781 221.585938 C 217.460938 219.6875 216.578125 218.671875 215.632812 217.65625 C 214.683594 216.636719 213.328125 214.671875 212.921875 212.910156 C 212.515625 211.148438 213.957031 211.894531 213.957031 211.894531 C 213.957031 211.894531 214.242188 214.445312 215.96875 216.015625 C 217.699219 217.582031 218.410156 218.90625 218.949219 220.261719 C 219.492188 221.617188 220.082031 223.902344 219.402344 224.441406 " fill-opacity="1" fill-rule="nonzero"/><path fill="#f9ed34" d="M 239.8125 213.824219 C 239.496094 214.25 238.242188 214.085938 236.886719 212.730469 C 235.53125 211.375 235.003906 210.332031 233.175781 209.589844 C 231.347656 208.84375 228.910156 208.574219 227.550781 207.21875 C 226.195312 205.859375 228.296875 206.199219 228.296875 206.199219 C 228.296875 206.199219 229.453125 207.011719 231.007812 207.488281 C 232.566406 207.964844 234.734375 208.574219 236.085938 209.996094 C 237.441406 211.421875 237.050781 211.640625 238.539062 212.140625 C 240.03125 212.644531 240.050781 213.503906 239.8125 213.824219 " fill-opacity="1" fill-rule="nonzero"/><g clip-path="url(#bda22a408f)"><path fill="#f9ed34" d="M 240.625 209.023438 C 240.386719 209.585938 239.335938 209.453125 238.773438 209.023438 C 238.207031 208.597656 237.375 207.398438 236.109375 206.789062 C 234.84375 206.179688 231.34375 206.335938 229.945312 205.546875 C 228.546875 204.757812 229.652344 204.144531 229.652344 204.144531 C 229.652344 204.144531 230.8125 204.546875 233.285156 204.6875 C 235 204.785156 236.582031 205.386719 237.777344 206.3125 C 238.976562 207.238281 241.007812 208.121094 240.625 209.023438 " fill-opacity="1" fill-rule="nonzero"/></g><path fill="#f9ed34" d="M 210.5625 226.171875 C 209.261719 226.28125 209.992188 224.207031 210.15625 222.851562 C 210.320312 221.496094 209.339844 220.367188 208.402344 219.597656 C 207.460938 218.828125 206.648438 216.480469 207.136719 214.71875 C 207.625 212.957031 208.035156 214.34375 208.035156 214.34375 C 208.035156 214.34375 208.035156 217.4375 208.972656 218.132812 C 209.910156 218.828125 211.136719 219.867188 211.257812 221.71875 C 211.378906 223.574219 211.910156 226.0625 210.5625 226.171875 " fill-opacity="1" fill-rule="nonzero"/><path fill="#f9ed34" d="M 214.207031 225.742188 C 213.441406 226.179688 212.765625 225.109375 212.628906 223.617188 C 212.496094 222.128906 211.5 220.230469 211.589844 219.144531 C 211.679688 218.0625 211.140625 215.261719 210.328125 214.132812 C 209.511719 213 211.589844 212.730469 211.589844 212.730469 C 211.589844 212.730469 212.71875 215.09375 213.035156 216.804688 C 213.351562 218.511719 212.898438 219.066406 213.441406 220.261719 C 213.984375 221.449219 215.261719 225.140625 214.207031 225.742188 " fill-opacity="1" fill-rule="nonzero"/><path fill="#f9ed34" d="M 204.5 226.175781 C 203.285156 226.289062 203.507812 223.980469 204.183594 222.308594 C 204.863281 220.636719 204.535156 219.5625 204.066406 218.132812 C 203.597656 216.707031 204.101562 214.347656 204.101562 214.347656 L 205.359375 214.347656 C 205.359375 214.347656 204.953125 216.117188 205.359375 217.292969 C 205.765625 218.46875 206.398438 220.003906 205.71875 222.039062 C 205.042969 224.070312 205.675781 226.070312 204.5 226.175781 " fill-opacity="1" fill-rule="nonzero"/><path fill="#f9ed34" d="M 230.582031 220.261719 C 229.695312 220.699219 228.765625 219.574219 228.597656 217.453125 C 228.425781 215.335938 227.128906 214.429688 226.265625 213.777344 C 225.402344 213.128906 223.679688 209.589844 223.679688 209.589844 L 224.800781 208.847656 C 224.800781 208.847656 225.699219 211.488281 226.847656 212.355469 C 227.992188 213.21875 229.027344 214.125 229.5 215.507812 C 229.976562 216.890625 231.527344 219.796875 230.582031 220.261719 " fill-opacity="1" fill-rule="nonzero"/><path fill="#f9ed34" d="M 196.601562 223.980469 C 195.546875 223.910156 196.691406 221.28125 197.636719 220.261719 C 198.585938 219.238281 199.308594 218.074219 199.714844 216.804688 C 200.121094 215.53125 201.160156 213.632812 201.160156 213.632812 L 202.109375 214.132812 C 202.109375 214.132812 200.933594 216.570312 200.527344 217.699219 C 200.121094 218.832031 199.792969 220.367188 198.964844 221.496094 C 198.132812 222.625 197.277344 224.027344 196.601562 223.980469 " fill-opacity="1" fill-rule="nonzero"/><path fill="#f9ed34" d="M 196.179688 216.695312 C 195.515625 217.835938 196.011719 218.707031 195.515625 219.730469 C 195.019531 220.757812 194.070312 222.273438 194.792969 222.824219 C 195.515625 223.375 195.742188 221.886719 196.417969 221.253906 C 197.097656 220.621094 196.960938 219.761719 197.140625 218.765625 C 197.324219 217.773438 198.121094 216.941406 198.964844 216.472656 C 199.804688 216.011719 200.707031 213.75 200.707031 213.75 L 199.894531 212.730469 C 199.894531 212.730469 198.859375 214.429688 198.042969 215.242188 C 197.230469 216.054688 196.621094 215.9375 196.179688 216.695312 " fill-opacity="1" fill-rule="nonzero"/><path fill="#f9ed34" d="M 193.121094 220.636719 C 192.246094 220.171875 193.347656 218.722656 194.207031 218.132812 C 195.066406 217.546875 195.355469 215.667969 196.179688 215.167969 C 197.003906 214.671875 199.140625 212.339844 199.140625 212.339844 L 200.074219 213.453125 C 200.074219 213.453125 198.660156 215.167969 197.277344 216.085938 C 195.890625 217.003906 196.101562 218.199219 195.242188 219.101562 C 194.386719 220.003906 193.800781 221 193.121094 220.636719 " fill-opacity="1" fill-rule="nonzero"/><path fill="#f9ed34" d="M 198.496094 224.429688 C 197.699219 224.589844 198.078125 223.121094 198.964844 222.128906 C 199.851562 221.132812 199.761719 219.238281 200.074219 217.835938 C 200.390625 216.433594 201.546875 214.582031 201.546875 214.582031 L 202.320312 215.035156 C 202.320312 215.035156 201.296875 217.074219 201.203125 218.132812 C 201.117188 219.191406 201.066406 220.320312 200.707031 221.722656 C 200.347656 223.121094 199.398438 224.253906 198.496094 224.429688 " fill-opacity="1" fill-rule="nonzero"/><path fill="#f9ed34" d="M 207.015625 225.949219 C 206.207031 226.035156 206.113281 224.886719 206.066406 223.617188 C 206.019531 222.355469 206.652344 221.222656 206.339844 220.09375 C 206.019531 218.964844 205.074219 217.792969 205.074219 216.527344 C 205.074219 215.261719 205.390625 214.347656 205.390625 214.347656 L 206.699219 214.582031 C 206.699219 214.582031 206.15625 216.164062 206.789062 217.65625 C 207.421875 219.144531 207.691406 219.914062 207.78125 221.585938 C 207.875 223.257812 208.050781 225.84375 207.015625 225.949219 " fill-opacity="1" fill-rule="nonzero"/><path fill="#f9ed34" d="M 216.691406 224.976562 C 216.011719 225.550781 215.011719 223.527344 214.90625 222.554688 C 214.796875 221.585938 214.78125 220.132812 213.957031 218.808594 C 213.128906 217.484375 212.320312 217.316406 211.910156 216.085938 C 211.5 214.855469 210.960938 213.632812 210.960938 213.632812 L 211.910156 213.183594 C 211.910156 213.183594 212.71875 215.421875 213.441406 216.085938 C 214.164062 216.75 215.5625 218.488281 215.96875 220.148438 C 216.378906 221.8125 217.867188 223.980469 216.691406 224.976562 " fill-opacity="1" fill-rule="nonzero"/><path fill="#f9ed34" d="M 221.707031 223.390625 C 220.753906 223.765625 220.496094 222.039062 220.128906 220.457031 C 219.761719 218.875 218.359375 217.859375 217.59375 216.527344 C 216.570312 214.734375 216.152344 213.351562 215.292969 212.339844 C 214.433594 211.328125 217.132812 211.421875 217.132812 211.421875 C 217.132812 211.421875 217.246094 212.863281 218.414062 214.855469 C 219.582031 216.839844 220.546875 217.890625 221.328125 219.511719 C 222.113281 221.132812 222.742188 222.984375 221.707031 223.390625 " fill-opacity="1" fill-rule="nonzero"/><path fill="#f9ed34" d="M 227.84375 221.542969 C 227.082031 221.804688 226.265625 220.140625 226.402344 218.808594 C 226.535156 217.472656 225.484375 215.800781 224.671875 214.941406 C 223.859375 214.085938 222.828125 213.316406 222.25 212.054688 C 221.671875 210.789062 221.613281 209.792969 221.613281 209.792969 L 222.96875 209.398438 C 222.96875 209.398438 223.148438 211.554688 224.546875 212.730469 C 225.949219 213.902344 227.613281 215.757812 227.6875 217.246094 C 227.757812 218.738281 228.886719 221.179688 227.84375 221.542969 " fill-opacity="1" fill-rule="nonzero"/><path fill="#f9ed34" d="M 233.675781 218.285156 C 233.085938 219.128906 231.734375 217.761719 231.007812 216.308594 C 230.285156 214.855469 230.089844 213.34375 228.839844 212.730469 C 227.589844 212.117188 225.09375 210.390625 224.730469 208.847656 C 224.371094 207.308594 225.8125 207.535156 225.8125 207.535156 C 225.8125 207.535156 225.914062 209.730469 227.6875 210.527344 C 229.457031 211.328125 230.75 212.414062 231.738281 214.808594 C 232.722656 217.203125 234.414062 217.246094 233.675781 218.285156 " fill-opacity="1" fill-rule="nonzero"/><g clip-path="url(#1ea092a4ff)"><path fill="#f9ed34" d="M 240.671875 211.238281 C 240.679688 212.503906 238.953125 212.097656 237.871094 211.058594 C 236.785156 210.019531 235.445312 208.425781 234.390625 208.347656 C 233.339844 208.269531 230.464844 207.445312 229.652344 206.449219 C 228.839844 205.453125 230.421875 205.058594 230.421875 205.058594 C 230.421875 205.058594 231.863281 206.6875 233.175781 206.769531 C 234.484375 206.855469 235.808594 207.4375 237.28125 208.847656 C 238.828125 210.328125 240.667969 210.328125 240.671875 211.238281 " fill-opacity="1" fill-rule="nonzero"/></g><path fill="#f9ed34" d="M 238.140625 215.078125 C 237.707031 215.910156 234.890625 214.402344 234.257812 213.183594 C 233.625 211.960938 232.917969 210.828125 231.277344 210.382812 C 229.640625 209.933594 227.347656 209.292969 226.71875 207.261719 C 226.085938 205.230469 227.484375 206.769531 227.484375 206.769531 C 227.484375 206.769531 229.097656 208.710938 231.589844 209.207031 C 234.078125 209.703125 234.394531 211.644531 235.75 212.730469 C 237.105469 213.8125 238.640625 214.132812 238.140625 215.078125 " fill-opacity="1" fill-rule="nonzero"/><path fill="#f9ed34" d="M 226.050781 221.992188 C 225.351562 222.363281 224.546875 220.1875 224.277344 218.808594 C 224.007812 217.429688 223.0625 216.820312 222.25 215.609375 C 221.433594 214.402344 219.945312 210.699219 219.945312 210.699219 L 221.328125 209.996094 C 221.328125 209.996094 221.707031 212.683594 223.148438 214.582031 C 224.597656 216.480469 224.957031 216.625 225.40625 218.132812 C 225.859375 219.644531 226.816406 221.585938 226.050781 221.992188 " fill-opacity="1" fill-rule="nonzero"/><path fill="#f9ed34" d="M 209.46875 214.03125 C 209.46875 214.03125 210.640625 215.988281 210.597656 217.429688 C 210.550781 218.875 209.339844 220.585938 209.46875 222.21875 C 209.597656 223.851562 209.386719 225.839844 208.753906 225.957031 C 207.527344 226.179688 207.78125 222.914062 208.207031 221.585938 C 208.628906 220.257812 209.296875 218.355469 209.316406 217.054688 C 209.335938 215.757812 208.277344 214.085938 208.277344 214.085938 L 209.46875 214.03125 " fill-opacity="1" fill-rule="nonzero"/><path fill="#f9ed34" d="M 200.074219 225.335938 C 199.421875 225.050781 200.527344 222.808594 200.484375 221.40625 C 200.4375 220.003906 200.300781 217.285156 200.707031 216.308594 C 201.117188 215.328125 202.109375 213.632812 202.109375 213.632812 L 203.011719 213.824219 C 203.011719 213.824219 201.917969 215.644531 201.878906 217.824219 C 201.835938 220.003906 201.929688 221.632812 201.546875 222.808594 C 201.160156 223.980469 201.117188 225.789062 200.074219 225.335938 " fill-opacity="1" fill-rule="nonzero"/><path fill="#2a89c7" d="M 218.546875 211.960938 C 209.605469 215.21875 204.183594 216.367188 202.628906 216.027344 C 201.070312 215.6875 198.835938 213.722656 198.972656 211.960938 C 199.105469 210.199219 205.449219 207.175781 212.609375 204.992188 C 219.761719 202.8125 224.300781 201.320312 226.46875 201.660156 C 228.636719 201.996094 231.488281 204.308594 230.941406 205.589844 C 230.328125 207.011719 227.28125 208.777344 218.546875 211.960938 " fill-opacity="1" fill-rule="nonzero"/><path fill="#39bfec" d="M 216.535156 209.015625 C 213.195312 210.226562 211.171875 210.832031 210.597656 210.675781 C 210.027344 210.523438 208.992188 209.4375 209.0625 208.730469 C 209.132812 208.023438 211.445312 207.023438 214.304688 206.101562 C 216.925781 205.257812 218.273438 204.890625 219.117188 205.128906 C 219.898438 205.347656 220.941406 206.25 220.722656 206.757812 C 220.480469 207.324219 219.804688 207.828125 216.535156 209.015625 " fill-opacity="1" fill-rule="nonzero"/><path fill="#7d7e7f" d="M 214.0625 208.144531 L 215.894531 207.515625 C 216.074219 207.453125 216.175781 207.25 216.109375 207.066406 L 190.972656 133.894531 C 190.90625 133.710938 190.703125 133.613281 190.523438 133.675781 L 188.691406 134.304688 C 188.507812 134.367188 188.410156 134.570312 188.472656 134.753906 L 213.613281 207.925781 C 213.675781 208.109375 213.878906 208.207031 214.0625 208.144531 " fill-opacity="1" fill-rule="nonzero"/><path fill="#39bfec" d="M 210.929688 200.832031 C 211.296875 201.050781 211.902344 200.851562 212.507812 200.644531 C 213.128906 200.433594 213.753906 200.214844 213.914062 199.808594 C 214.046875 199.460938 213.855469 198.824219 213.632812 198.195312 C 213.421875 197.601562 213.191406 197.011719 212.886719 196.828125 C 212.519531 196.605469 211.902344 196.816406 211.289062 197.027344 C 210.675781 197.234375 210.0625 197.449219 209.90625 197.855469 C 209.777344 198.183594 209.953125 198.769531 210.152344 199.371094 C 210.363281 200.003906 210.609375 200.640625 210.929688 200.832031 " fill-opacity="1" fill-rule="nonzero"/><path fill="#2a89c7" d="M 188.417969 136.332031 L 192.191406 135.03125 C 192.484375 134.929688 192.644531 134.605469 192.542969 134.3125 L 187.511719 119.667969 C 187.410156 119.375 187.085938 119.21875 186.792969 119.320312 L 183.019531 120.617188 C 182.726562 120.71875 182.566406 121.042969 182.667969 121.335938 L 187.699219 135.980469 C 187.800781 136.273438 188.121094 136.429688 188.417969 136.332031 " fill-opacity="1" fill-rule="nonzero"/></svg>