<svg xmlns="http://www.w3.org/2000/svg" xmlns:xlink="http://www.w3.org/1999/xlink" width="500" zoomAndPan="magnify" viewBox="0 0 375 374.999991" height="500" preserveAspectRatio="xMidYMid meet" version="1.0"><defs><g/></defs><g fill="#7284c8" fill-opacity="1"><g transform="translate(157.806176, 200.495552)"><g><path d="M 30.03125 -48.109375 L 30.03125 -36.5625 L 21.234375 -36.5625 L 21.234375 0 L 9.28125 0 L 9.28125 -36.5625 L 0.484375 -36.5625 L 0.484375 -48.109375 Z M 30.03125 -48.109375 "/></g></g></g><g fill="#7284c8" fill-opacity="1"><g transform="translate(183.574596, 200.495552)"><g><path d="M 18.703125 -12.171875 L 14.5 -18.765625 L 23.5 -24.671875 C 22.726562 -25.128906 22 -25.4375 21.3125 -25.59375 C 20.625 -25.757812 19.9375 -25.84375 19.25 -25.84375 C 18.195312 -25.84375 17.242188 -25.601562 16.390625 -25.125 C 15.546875 -24.644531 14.8125 -24.003906 14.1875 -23.203125 C 13.570312 -22.398438 13.09375 -21.484375 12.75 -20.453125 C 12.40625 -19.421875 12.234375 -18.351562 12.234375 -17.25 C 12.234375 -16.0625 12.4375 -14.960938 12.84375 -13.953125 C 13.257812 -12.941406 13.8125 -12.046875 14.5 -11.265625 C 15.1875 -10.492188 15.976562 -9.890625 16.875 -9.453125 C 17.769531 -9.015625 18.695312 -8.796875 19.65625 -8.796875 C 21.582031 -8.796875 23.460938 -9.492188 25.296875 -10.890625 C 27.128906 -12.285156 28.523438 -14.085938 29.484375 -16.296875 L 37.390625 -12.234375 C 36.566406 -10.265625 35.515625 -8.476562 34.234375 -6.875 C 32.953125 -5.269531 31.507812 -3.894531 29.90625 -2.75 C 28.300781 -1.601562 26.566406 -0.71875 24.703125 -0.09375 C 22.847656 0.519531 20.914062 0.828125 18.90625 0.828125 C 16.5625 0.828125 14.347656 0.359375 12.265625 -0.578125 C 10.179688 -1.523438 8.347656 -2.8125 6.765625 -4.4375 C 5.191406 -6.0625 3.945312 -7.925781 3.03125 -10.03125 C 2.113281 -12.144531 1.65625 -14.367188 1.65625 -16.703125 C 1.65625 -19.035156 2.113281 -21.253906 3.03125 -23.359375 C 3.945312 -25.472656 5.191406 -27.332031 6.765625 -28.9375 C 8.347656 -30.539062 10.179688 -31.820312 12.265625 -32.78125 C 14.347656 -33.75 16.5625 -34.234375 18.90625 -34.234375 C 22.75 -34.234375 25.988281 -33.269531 28.625 -31.34375 C 31.257812 -29.414062 33.472656 -26.828125 35.265625 -23.578125 Z M 18.703125 -12.171875 "/></g></g></g><g fill="#7284c8" fill-opacity="1"><g transform="translate(217.039509, 200.495552)"><g><path d="M 39.171875 0 L 28.1875 0 L 28.1875 -15.671875 C 28.1875 -18.421875 27.539062 -20.523438 26.25 -21.984375 C 24.96875 -23.453125 23.023438 -24.1875 20.421875 -24.1875 C 19.410156 -24.1875 18.445312 -23.992188 17.53125 -23.609375 C 16.613281 -23.222656 15.8125 -22.707031 15.125 -22.0625 C 14.4375 -21.414062 13.882812 -20.644531 13.46875 -19.75 C 13.0625 -18.863281 12.859375 -17.914062 12.859375 -16.90625 C 12.859375 -14.570312 13.554688 -12.703125 14.953125 -11.296875 C 16.347656 -9.898438 18.097656 -9.203125 20.203125 -9.203125 C 21.210938 -9.203125 22.148438 -9.296875 23.015625 -9.484375 C 23.890625 -9.671875 24.695312 -9.898438 25.4375 -10.171875 L 25.4375 -1.09375 C 24.375 -0.363281 23.25 0.132812 22.0625 0.40625 C 20.875 0.6875 19.523438 0.828125 18.015625 0.828125 C 15.953125 0.828125 13.945312 0.40625 12 -0.4375 C 10.050781 -1.289062 8.332031 -2.484375 6.84375 -4.015625 C 5.351562 -5.554688 4.148438 -7.390625 3.234375 -9.515625 C 2.316406 -11.648438 1.859375 -14.023438 1.859375 -16.640625 C 1.859375 -19.109375 2.316406 -21.40625 3.234375 -23.53125 C 4.148438 -25.664062 5.410156 -27.523438 7.015625 -29.109375 C 8.617188 -30.691406 10.539062 -31.941406 12.78125 -32.859375 C 15.03125 -33.773438 17.503906 -34.234375 20.203125 -34.234375 C 23.085938 -34.234375 25.695312 -33.832031 28.03125 -33.03125 C 30.375 -32.226562 32.367188 -31.113281 34.015625 -29.6875 C 35.671875 -28.269531 36.941406 -26.585938 37.828125 -24.640625 C 38.722656 -22.691406 39.171875 -20.570312 39.171875 -18.28125 Z M 39.171875 0 "/></g></g></g><g fill="#7284c8" fill-opacity="1"><g transform="translate(254.28396, 200.495552)"><g><path d="M 26.734375 -29.5625 C 27.929688 -30.882812 29.375 -31.992188 31.0625 -32.890625 C 32.757812 -33.785156 34.476562 -34.234375 36.21875 -34.234375 C 38.1875 -34.234375 40.03125 -33.898438 41.75 -33.234375 C 43.46875 -32.566406 44.957031 -31.660156 46.21875 -30.515625 C 47.476562 -29.367188 48.460938 -28.050781 49.171875 -26.5625 C 49.890625 -25.070312 50.25 -23.476562 50.25 -21.78125 L 50.25 0 L 39.25 0 L 39.25 -19.9375 C 39.25 -20.894531 38.992188 -21.75 38.484375 -22.5 C 37.984375 -23.257812 37.066406 -23.640625 35.734375 -23.640625 C 34.410156 -23.640625 33.492188 -23.257812 32.984375 -22.5 C 32.484375 -21.75 32.234375 -20.894531 32.234375 -19.9375 L 32.234375 0 L 21.234375 0 L 21.234375 -19.9375 C 21.234375 -20.894531 20.984375 -21.75 20.484375 -22.5 C 19.984375 -23.257812 19.066406 -23.640625 17.734375 -23.640625 C 16.398438 -23.640625 15.484375 -23.257812 14.984375 -22.5 C 14.484375 -21.75 14.234375 -20.894531 14.234375 -19.9375 L 14.234375 0 L 3.234375 0 L 3.234375 -21.78125 C 3.234375 -23.476562 3.585938 -25.070312 4.296875 -26.5625 C 5.003906 -28.050781 5.976562 -29.367188 7.21875 -30.515625 C 8.457031 -31.660156 9.9375 -32.566406 11.65625 -33.234375 C 13.375 -33.898438 15.238281 -34.234375 17.25 -34.234375 C 18.988281 -34.234375 20.707031 -33.785156 22.40625 -32.890625 C 24.101562 -31.992188 25.546875 -30.882812 26.734375 -29.5625 Z M 26.734375 -29.5625 "/></g></g></g><g fill="#7284c8" fill-opacity="1"><g transform="translate(16.67165, 200.477948)"><g><path d="M 31.765625 -48.140625 L 31.765625 -36.578125 L 26.609375 -36.578125 C 23.078125 -36.578125 20.222656 -35.507812 18.046875 -33.375 C 15.867188 -31.25 14.78125 -28.144531 14.78125 -24.0625 C 14.78125 -19.988281 15.878906 -16.882812 18.078125 -14.75 C 20.285156 -12.613281 23.109375 -11.546875 26.546875 -11.546875 L 31.765625 -11.546875 L 31.765625 0 L 24.28125 0 C 21.15625 0 18.25 -0.628906 15.5625 -1.890625 C 12.882812 -3.148438 10.5625 -4.867188 8.59375 -7.046875 C 6.625 -9.222656 5.078125 -11.765625 3.953125 -14.671875 C 2.828125 -17.585938 2.265625 -20.71875 2.265625 -24.0625 C 2.265625 -27.363281 2.828125 -30.484375 3.953125 -33.421875 C 5.078125 -36.359375 6.625 -38.914062 8.59375 -41.09375 C 10.5625 -43.269531 12.882812 -44.988281 15.5625 -46.25 C 18.25 -47.507812 21.15625 -48.140625 24.28125 -48.140625 Z M 31.765625 -48.140625 "/></g></g></g><g fill="#7284c8" fill-opacity="1"><g transform="translate(46.307252, 200.477948)"><g><path d="M 15.0625 -48.140625 L 15.0625 0 L 4.0625 0 L 4.0625 -48.140625 Z M 15.0625 -48.140625 "/></g></g></g><g fill="#7284c8" fill-opacity="1"><g transform="translate(60.678036, 200.477948)"><g><path d="M 18.703125 -12.171875 L 14.515625 -18.765625 L 23.515625 -24.6875 C 22.734375 -25.144531 22 -25.453125 21.3125 -25.609375 C 20.625 -25.773438 19.9375 -25.859375 19.25 -25.859375 C 18.195312 -25.859375 17.242188 -25.613281 16.390625 -25.125 C 15.546875 -24.644531 14.8125 -24.003906 14.1875 -23.203125 C 13.570312 -22.398438 13.09375 -21.484375 12.75 -20.453125 C 12.40625 -19.421875 12.234375 -18.359375 12.234375 -17.265625 C 12.234375 -16.066406 12.441406 -14.960938 12.859375 -13.953125 C 13.273438 -12.953125 13.828125 -12.0625 14.515625 -11.28125 C 15.203125 -10.5 15.988281 -9.890625 16.875 -9.453125 C 17.769531 -9.015625 18.703125 -8.796875 19.671875 -8.796875 C 21.597656 -8.796875 23.476562 -9.492188 25.3125 -10.890625 C 27.144531 -12.296875 28.539062 -14.097656 29.5 -16.296875 L 37.40625 -12.234375 C 36.582031 -10.265625 35.523438 -8.476562 34.234375 -6.875 C 32.953125 -5.269531 31.507812 -3.894531 29.90625 -2.75 C 28.300781 -1.601562 26.570312 -0.71875 24.71875 -0.09375 C 22.863281 0.519531 20.925781 0.828125 18.90625 0.828125 C 16.570312 0.828125 14.359375 0.359375 12.265625 -0.578125 C 10.179688 -1.523438 8.347656 -2.8125 6.765625 -4.4375 C 5.191406 -6.0625 3.945312 -7.925781 3.03125 -10.03125 C 2.113281 -12.144531 1.65625 -14.367188 1.65625 -16.703125 C 1.65625 -19.046875 2.113281 -21.269531 3.03125 -23.375 C 3.945312 -25.488281 5.191406 -27.347656 6.765625 -28.953125 C 8.347656 -30.554688 10.179688 -31.835938 12.265625 -32.796875 C 14.359375 -33.765625 16.570312 -34.25 18.90625 -34.25 C 22.757812 -34.25 26.003906 -33.285156 28.640625 -31.359375 C 31.273438 -29.429688 33.488281 -26.84375 35.28125 -23.59375 Z M 18.703125 -12.171875 "/></g></g></g><g fill="#7284c8" fill-opacity="1"><g transform="translate(94.164221, 200.477948)"><g><path d="M 39.203125 0 L 28.1875 0 L 28.1875 -15.671875 C 28.1875 -18.421875 27.546875 -20.53125 26.265625 -22 C 24.984375 -23.46875 23.035156 -24.203125 20.421875 -24.203125 C 19.410156 -24.203125 18.445312 -24.003906 17.53125 -23.609375 C 16.613281 -23.222656 15.8125 -22.707031 15.125 -22.0625 C 14.4375 -21.425781 13.882812 -20.660156 13.46875 -19.765625 C 13.0625 -18.867188 12.859375 -17.921875 12.859375 -16.921875 C 12.859375 -14.578125 13.554688 -12.707031 14.953125 -11.3125 C 16.347656 -9.914062 18.101562 -9.21875 20.21875 -9.21875 C 21.226562 -9.21875 22.164062 -9.304688 23.03125 -9.484375 C 23.90625 -9.671875 24.707031 -9.898438 25.4375 -10.171875 L 25.4375 -1.09375 C 24.382812 -0.363281 23.257812 0.132812 22.0625 0.40625 C 20.875 0.6875 19.523438 0.828125 18.015625 0.828125 C 15.953125 0.828125 13.945312 0.40625 12 -0.4375 C 10.050781 -1.289062 8.332031 -2.484375 6.84375 -4.015625 C 5.351562 -5.554688 4.148438 -7.390625 3.234375 -9.515625 C 2.316406 -11.648438 1.859375 -14.023438 1.859375 -16.640625 C 1.859375 -19.117188 2.316406 -21.421875 3.234375 -23.546875 C 4.148438 -25.679688 5.410156 -27.539062 7.015625 -29.125 C 8.617188 -30.707031 10.539062 -31.957031 12.78125 -32.875 C 15.03125 -33.789062 17.507812 -34.25 20.21875 -34.25 C 23.101562 -34.25 25.710938 -33.847656 28.046875 -33.046875 C 30.390625 -32.242188 32.382812 -31.128906 34.03125 -29.703125 C 35.6875 -28.285156 36.960938 -26.601562 37.859375 -24.65625 C 38.753906 -22.707031 39.203125 -20.585938 39.203125 -18.296875 Z M 39.203125 0 "/></g></g></g><g fill="#7284c8" fill-opacity="1"><g transform="translate(131.432227, 200.477948)"><g><path d="M 31.5625 0 L 20.96875 0 L 20.96875 -19.328125 C 20.96875 -20.609375 20.644531 -21.671875 20 -22.515625 C 19.363281 -23.367188 18.425781 -23.796875 17.1875 -23.796875 C 15.945312 -23.796875 15.003906 -23.367188 14.359375 -22.515625 C 13.722656 -21.671875 13.40625 -20.609375 13.40625 -19.328125 L 13.40625 0 L 2.8125 0 L 2.8125 -19.390625 C 2.8125 -21.546875 3.132812 -23.53125 3.78125 -25.34375 C 4.425781 -27.15625 5.363281 -28.722656 6.59375 -30.046875 C 7.832031 -31.378906 9.332031 -32.410156 11.09375 -33.140625 C 12.863281 -33.878906 14.894531 -34.25 17.1875 -34.25 C 19.476562 -34.25 21.519531 -33.867188 23.3125 -33.109375 C 25.101562 -32.347656 26.601562 -31.316406 27.8125 -30.015625 C 29.03125 -28.710938 29.957031 -27.144531 30.59375 -25.3125 C 31.238281 -23.476562 31.5625 -21.503906 31.5625 -19.390625 Z M 31.5625 0 "/></g></g></g></svg>