<svg xmlns="http://www.w3.org/2000/svg" xmlns:xlink="http://www.w3.org/1999/xlink" width="500" zoomAndPan="magnify" viewBox="0 0 375 374.999991" height="500" preserveAspectRatio="xMidYMid meet" version="1.0"><defs><clipPath id="15e810c797"><path d="M 218 192 L 316 192 L 316 315.308594 L 218 315.308594 Z M 218 192 " clip-rule="nonzero"/></clipPath><clipPath id="8598e88a2f"><path d="M 237.363281 225.171875 L 310 225.171875 L 310 315.308594 L 237.363281 315.308594 Z M 237.363281 225.171875 " clip-rule="nonzero"/></clipPath><clipPath id="8d128249b2"><path d="M 228 208 L 297 208 L 297 315.308594 L 228 315.308594 Z M 228 208 " clip-rule="nonzero"/></clipPath><clipPath id="b52f479fda"><path d="M 220 213 L 275.960938 213 L 275.960938 315.308594 L 220 315.308594 Z M 220 213 " clip-rule="nonzero"/></clipPath><clipPath id="6c79441446"><path d="M 114 185 L 296 185 L 296 315.308594 L 114 315.308594 Z M 114 185 " clip-rule="nonzero"/></clipPath><clipPath id="9789b98e4d"><path d="M 126 193 L 186 193 L 186 315.308594 L 126 315.308594 Z M 126 193 " clip-rule="nonzero"/></clipPath><clipPath id="7935a20394"><path d="M 172.695312 185.125 C 172.695312 185.125 146.105469 182.847656 114.5625 212.839844 C 114.5625 212.839844 136.265625 243.835938 137.019531 260.464844 C 137.78125 277.101562 131.472656 301.039062 135.503906 316.667969 C 139.542969 332.289062 138.027344 372.609375 136.519531 390.75 C 135.003906 408.898438 131.566406 424.519531 143.628906 428.554688 C 155.691406 432.589844 193.066406 439.644531 228.625 438.128906 C 264.183594 436.617188 284.960938 438.128906 291.484375 428.554688 C 298 418.980469 295.054688 401.839844 291.484375 380.675781 C 287.90625 359.507812 252.574219 225.03125 241.472656 204.527344 C 241.472656 204.527344 236.933594 195.199219 229.871094 191.925781 C 229.871094 191.925781 201.304688 203.265625 172.695312 185.125 " clip-rule="nonzero"/></clipPath><clipPath id="61ab2b6ab7"><path d="M 149 185 L 206 185 L 206 315.308594 L 149 315.308594 Z M 149 185 " clip-rule="nonzero"/></clipPath><clipPath id="52cafa14f6"><path d="M 172.695312 185.125 C 172.695312 185.125 146.105469 182.847656 114.5625 212.839844 C 114.5625 212.839844 136.265625 243.835938 137.019531 260.464844 C 137.78125 277.101562 131.472656 301.039062 135.503906 316.667969 C 139.542969 332.289062 138.027344 372.609375 136.519531 390.75 C 135.003906 408.898438 131.566406 424.519531 143.628906 428.554688 C 155.691406 432.589844 193.066406 439.644531 228.625 438.128906 C 264.183594 436.617188 284.960938 438.128906 291.484375 428.554688 C 298 418.980469 295.054688 401.839844 291.484375 380.675781 C 287.90625 359.507812 252.574219 225.03125 241.472656 204.527344 C 241.472656 204.527344 236.933594 195.199219 229.871094 191.925781 C 229.871094 191.925781 201.304688 203.265625 172.695312 185.125 " clip-rule="nonzero"/></clipPath><clipPath id="db700a3e97"><path d="M 183 193 L 225 193 L 225 315.308594 L 183 315.308594 Z M 183 193 " clip-rule="nonzero"/></clipPath><clipPath id="c1f4eb319a"><path d="M 172.695312 185.125 C 172.695312 185.125 146.105469 182.847656 114.5625 212.839844 C 114.5625 212.839844 136.265625 243.835938 137.019531 260.464844 C 137.78125 277.101562 131.472656 301.039062 135.503906 316.667969 C 139.542969 332.289062 138.027344 372.609375 136.519531 390.75 C 135.003906 408.898438 131.566406 424.519531 143.628906 428.554688 C 155.691406 432.589844 193.066406 439.644531 228.625 438.128906 C 264.183594 436.617188 284.960938 438.128906 291.484375 428.554688 C 298 418.980469 295.054688 401.839844 291.484375 380.675781 C 287.90625 359.507812 252.574219 225.03125 241.472656 204.527344 C 241.472656 204.527344 236.933594 195.199219 229.871094 191.925781 C 229.871094 191.925781 201.304688 203.265625 172.695312 185.125 " clip-rule="nonzero"/></clipPath><clipPath id="c0defbb254"><path d="M 200 192 L 245 192 L 245 315.308594 L 200 315.308594 Z M 200 192 " clip-rule="nonzero"/></clipPath><clipPath id="89f3577280"><path d="M 172.695312 185.125 C 172.695312 185.125 146.105469 182.847656 114.5625 212.839844 C 114.5625 212.839844 136.265625 243.835938 137.019531 260.464844 C 137.78125 277.101562 131.472656 301.039062 135.503906 316.667969 C 139.542969 332.289062 138.027344 372.609375 136.519531 390.75 C 135.003906 408.898438 131.566406 424.519531 143.628906 428.554688 C 155.691406 432.589844 193.066406 439.644531 228.625 438.128906 C 264.183594 436.617188 284.960938 438.128906 291.484375 428.554688 C 298 418.980469 295.054688 401.839844 291.484375 380.675781 C 287.90625 359.507812 252.574219 225.03125 241.472656 204.527344 C 241.472656 204.527344 236.933594 195.199219 229.871094 191.925781 C 229.871094 191.925781 201.304688 203.265625 172.695312 185.125 " clip-rule="nonzero"/></clipPath><clipPath id="1be77242fb"><path d="M 212 188 L 261 188 L 261 315.308594 L 212 315.308594 Z M 212 188 " clip-rule="nonzero"/></clipPath><clipPath id="5ac4c05ad8"><path d="M 172.695312 185.125 C 172.695312 185.125 146.105469 182.847656 114.5625 212.839844 C 114.5625 212.839844 136.265625 243.835938 137.019531 260.464844 C 137.78125 277.101562 131.472656 301.039062 135.503906 316.667969 C 139.542969 332.289062 138.027344 372.609375 136.519531 390.75 C 135.003906 408.898438 131.566406 424.519531 143.628906 428.554688 C 155.691406 432.589844 193.066406 439.644531 228.625 438.128906 C 264.183594 436.617188 284.960938 438.128906 291.484375 428.554688 C 298 418.980469 295.054688 401.839844 291.484375 380.675781 C 287.90625 359.507812 252.574219 225.03125 241.472656 204.527344 C 241.472656 204.527344 236.933594 195.199219 229.871094 191.925781 C 229.871094 191.925781 201.304688 203.265625 172.695312 185.125 " clip-rule="nonzero"/></clipPath><clipPath id="95587653a0"><path d="M 228 188 L 284 188 L 284 315.308594 L 228 315.308594 Z M 228 188 " clip-rule="nonzero"/></clipPath><clipPath id="ab78364d4f"><path d="M 172.695312 185.125 C 172.695312 185.125 146.105469 182.847656 114.5625 212.839844 C 114.5625 212.839844 136.265625 243.835938 137.019531 260.464844 C 137.78125 277.101562 131.472656 301.039062 135.503906 316.667969 C 139.542969 332.289062 138.027344 372.609375 136.519531 390.75 C 135.003906 408.898438 131.566406 424.519531 143.628906 428.554688 C 155.691406 432.589844 193.066406 439.644531 228.625 438.128906 C 264.183594 436.617188 284.960938 438.128906 291.484375 428.554688 C 298 418.980469 295.054688 401.839844 291.484375 380.675781 C 287.90625 359.507812 252.574219 225.03125 241.472656 204.527344 C 241.472656 204.527344 236.933594 195.199219 229.871094 191.925781 C 229.871094 191.925781 201.304688 203.265625 172.695312 185.125 " clip-rule="nonzero"/></clipPath><clipPath id="4d13d7d250"><path d="M 117 202 L 162.199219 202 L 162.199219 315.308594 L 117 315.308594 Z M 117 202 " clip-rule="nonzero"/></clipPath><clipPath id="9ee60ec4de"><path d="M 172.695312 185.125 C 172.695312 185.125 146.105469 182.847656 114.5625 212.839844 C 114.5625 212.839844 136.265625 243.835938 137.019531 260.464844 C 137.78125 277.101562 131.472656 301.039062 135.503906 316.667969 C 139.542969 332.289062 138.027344 372.609375 136.519531 390.75 C 135.003906 408.898438 131.566406 424.519531 143.628906 428.554688 C 155.691406 432.589844 193.066406 439.644531 228.625 438.128906 C 264.183594 436.617188 284.960938 438.128906 291.484375 428.554688 C 298 418.980469 295.054688 401.839844 291.484375 380.675781 C 287.90625 359.507812 252.574219 225.03125 241.472656 204.527344 C 241.472656 204.527344 236.933594 195.199219 229.871094 191.925781 C 229.871094 191.925781 201.304688 203.265625 172.695312 185.125 " clip-rule="nonzero"/></clipPath><clipPath id="4e04055e19"><path d="M 61 212 L 149 212 L 149 315.308594 L 61 315.308594 Z M 61 212 " clip-rule="nonzero"/></clipPath><clipPath id="826fadc7b3"><path d="M 61 214 L 127.664062 214 L 127.664062 315.308594 L 61 315.308594 Z M 61 214 " clip-rule="nonzero"/></clipPath><clipPath id="8d1295784b"><path d="M 114.5625 212.839844 C 114.5625 212.839844 142.398438 218.386719 148.121094 231.15625 C 153.839844 243.925781 107.753906 334.644531 84.875 337.328125 C 61.996094 340.015625 49.554688 308.101562 78.3125 261.402344 C 99.4375 227.105469 114.5625 212.839844 114.5625 212.839844 " clip-rule="nonzero"/></clipPath><clipPath id="c02f07397d"><path d="M 72 221.113281 L 140 221.113281 L 140 315.308594 L 72 315.308594 Z M 72 221.113281 " clip-rule="nonzero"/></clipPath><clipPath id="eb7e10c86a"><path d="M 114.5625 212.839844 C 114.5625 212.839844 142.398438 218.386719 148.121094 231.15625 C 153.839844 243.925781 107.753906 334.644531 84.875 337.328125 C 61.996094 340.015625 49.554688 308.101562 78.3125 261.402344 C 99.4375 227.105469 114.5625 212.839844 114.5625 212.839844 " clip-rule="nonzero"/></clipPath><clipPath id="9b81c6b5b6"><path d="M 88 233.289062 L 149 233.289062 L 149 315.308594 L 88 315.308594 Z M 88 233.289062 " clip-rule="nonzero"/></clipPath><clipPath id="88054ddafd"><path d="M 114.5625 212.839844 C 114.5625 212.839844 142.398438 218.386719 148.121094 231.15625 C 153.839844 243.925781 107.753906 334.644531 84.875 337.328125 C 61.996094 340.015625 49.554688 308.101562 78.3125 261.402344 C 99.4375 227.105469 114.5625 212.839844 114.5625 212.839844 " clip-rule="nonzero"/></clipPath><clipPath id="e60c02a4c7"><path d="M 60 252 L 172 252 L 172 315.308594 L 60 315.308594 Z M 60 252 " clip-rule="nonzero"/></clipPath><clipPath id="95ab8e0aed"><path d="M 60 259 L 162 259 L 162 314.449219 L 60 314.449219 Z M 60 259 " clip-rule="nonzero"/></clipPath><clipPath id="47c11c1472"><path d="M 162.585938 267.441406 C 173.355469 285.582031 172.679688 292.3125 169.648438 295.664062 C 166.625 299.023438 114.078125 342.261719 78.453125 337.125 C 54.257812 333.636719 56.617188 290.964844 72.429688 281.214844 C 88.238281 271.476562 136.652344 246.515625 148.613281 253.792969 C 160.570312 261.058594 162.585938 267.441406 162.585938 267.441406 " clip-rule="nonzero"/></clipPath><clipPath id="6afc76f1bd"><path d="M 60 263 L 166 263 L 166 315.308594 L 60 315.308594 Z M 60 263 " clip-rule="nonzero"/></clipPath><clipPath id="70ce9fd122"><path d="M 162.585938 267.441406 C 173.355469 285.582031 172.679688 292.3125 169.648438 295.664062 C 166.625 299.023438 114.078125 342.261719 78.453125 337.125 C 54.257812 333.636719 56.617188 290.964844 72.429688 281.214844 C 88.238281 271.476562 136.652344 246.515625 148.613281 253.792969 C 160.570312 261.058594 162.585938 267.441406 162.585938 267.441406 " clip-rule="nonzero"/></clipPath><clipPath id="d202414121"><path d="M 62.65625 269 L 172 269 L 172 315.308594 L 62.65625 315.308594 Z M 62.65625 269 " clip-rule="nonzero"/></clipPath><clipPath id="5b423120e9"><path d="M 162.585938 267.441406 C 173.355469 285.582031 172.679688 292.3125 169.648438 295.664062 C 166.625 299.023438 114.078125 342.261719 78.453125 337.125 C 54.257812 333.636719 56.617188 290.964844 72.429688 281.214844 C 88.238281 271.476562 136.652344 246.515625 148.613281 253.792969 C 160.570312 261.058594 162.585938 267.441406 162.585938 267.441406 " clip-rule="nonzero"/></clipPath><clipPath id="7b7bba6589"><path d="M 247.519531 264 L 316 264 L 316 315.308594 L 247.519531 315.308594 Z M 247.519531 264 " clip-rule="nonzero"/></clipPath><clipPath id="847e30bc59"><path d="M 254 263.722656 L 316 263.722656 L 316 315.308594 L 254 315.308594 Z M 254 263.722656 " clip-rule="nonzero"/></clipPath><clipPath id="7e99c1b71c"><path d="M 271.367188 263.929688 C 277.761719 262.34375 314.15625 280.257812 315.417969 295.015625 C 316.671875 309.78125 316.75 325.394531 302.703125 332.652344 C 285.546875 341.53125 249.355469 305.308594 249.042969 294.65625 C 248.863281 288.308594 258.304688 267.1875 271.367188 263.929688 " clip-rule="nonzero"/></clipPath><clipPath id="d493df6ff6"><path d="M 250 272 L 316 272 L 316 315.308594 L 250 315.308594 Z M 250 272 " clip-rule="nonzero"/></clipPath><clipPath id="4a8d5380ae"><path d="M 271.367188 263.929688 C 277.761719 262.34375 314.15625 280.257812 315.417969 295.015625 C 316.671875 309.78125 316.75 325.394531 302.703125 332.652344 C 285.546875 341.53125 249.355469 305.308594 249.042969 294.65625 C 248.863281 288.308594 258.304688 267.1875 271.367188 263.929688 " clip-rule="nonzero"/></clipPath><clipPath id="19f98c6b3f"><path d="M 249.550781 273 L 310 273 L 310 315.308594 L 249.550781 315.308594 Z M 249.550781 273 " clip-rule="nonzero"/></clipPath><clipPath id="0b913406c3"><path d="M 271.367188 263.929688 C 277.761719 262.34375 314.15625 280.257812 315.417969 295.015625 C 316.671875 309.78125 316.75 325.394531 302.703125 332.652344 C 285.546875 341.53125 249.355469 305.308594 249.042969 294.65625 C 248.863281 288.308594 258.304688 267.1875 271.367188 263.929688 " clip-rule="nonzero"/></clipPath></defs><g clip-path="url(#15e810c797)"><path fill="#fcd381" d="M 234.585938 192.84375 C 270.074219 197.804688 313.972656 264.753906 315.320312 298.019531 C 316.671875 331.28125 302.933594 338.066406 280.867188 328.960938 C 258.804688 319.855469 213.722656 237.535156 218.777344 221.40625 C 223.816406 205.277344 221.347656 190.996094 234.585938 192.84375 " fill-opacity="1" fill-rule="nonzero"/></g><g clip-path="url(#8598e88a2f)"><path fill="#f3c876" d="M 309.0625 315.320312 L 307.941406 315.320312 C 275.152344 244.433594 247.847656 229.921875 240.257812 227.398438 C 239.386719 227.105469 238.742188 226.980469 238.449219 226.941406 C 238.285156 226.621094 238.117188 226.304688 237.949219 225.996094 L 238.109375 225.933594 L 238.300781 225.910156 C 238.671875 225.917969 239.386719 226.050781 240.578125 226.441406 C 241.757812 226.828125 243.355469 227.488281 245.339844 228.550781 C 249.296875 230.671875 254.773438 234.414062 261.390625 240.914062 C 273.960938 253.238281 290.664062 275.453125 309.0625 315.320312 " fill-opacity="1" fill-rule="nonzero"/></g><g clip-path="url(#8d128249b2)"><path fill="#fad283" d="M 296.332031 315.320312 L 294.984375 315.320312 C 280.40625 298.667969 266.113281 276.910156 254.503906 257.429688 C 238.917969 231.285156 228.171875 209.25 228.164062 209.242188 C 228.046875 208.988281 228.148438 208.6875 228.402344 208.558594 C 228.476562 208.527344 228.546875 208.511719 228.625 208.511719 C 228.816406 208.511719 229 208.617188 229.085938 208.796875 C 229.085938 208.796875 229.753906 210.167969 231 212.640625 C 232.253906 215.105469 234.078125 218.671875 236.386719 223.054688 C 236.886719 224 237.410156 224.980469 237.949219 225.996094 C 238.117188 226.304688 238.285156 226.621094 238.449219 226.941406 C 242.886719 235.222656 248.6875 245.691406 255.375 256.90625 C 267.121094 276.617188 281.636719 298.667969 296.332031 315.320312 " fill-opacity="1" fill-rule="nonzero"/></g><path fill="#fce9c2" d="M 220.460938 215.035156 C 218.816406 211.328125 217.921875 209.21875 217.914062 209.21875 C 217.800781 208.957031 217.929688 208.664062 218.183594 208.550781 C 218.246094 208.519531 218.316406 208.511719 218.382812 208.511719 C 218.578125 208.511719 218.769531 208.625 218.847656 208.820312 C 218.847656 208.820312 219.4375 210.199219 220.539062 212.699219 C 220.628906 212.902344 220.722656 213.125 220.824219 213.347656 C 220.707031 213.902344 220.585938 214.464844 220.460938 215.035156 " fill-opacity="1" fill-rule="nonzero"/><g clip-path="url(#b52f479fda)"><path fill="#fad283" d="M 275.390625 315.320312 L 274.152344 315.320312 C 262.21875 297.972656 250.597656 276.96875 241.046875 258.238281 C 231.578125 239.675781 224.140625 223.339844 220.460938 215.035156 C 220.585938 214.464844 220.707031 213.902344 220.824219 213.347656 C 221.90625 215.804688 223.414062 219.171875 225.269531 223.238281 C 229.339844 232.132812 235.117188 244.375 241.949219 257.777344 C 251.589844 276.691406 263.359375 297.929688 275.390625 315.320312 " fill-opacity="1" fill-rule="nonzero"/></g><path fill="#f3c876" d="M 309.855469 313.648438 C 309.609375 313.648438 309.394531 313.464844 309.355469 313.21875 C 299.492188 252.285156 257.375 219.789062 244.71875 209.003906 C 242.902344 207.449219 241.703125 206.378906 241.1875 205.589844 C 241.0625 205.375 240.957031 205.160156 240.949219 204.882812 L 241.003906 204.589844 C 241.085938 204.390625 241.273438 204.265625 241.472656 204.265625 C 241.539062 204.265625 241.601562 204.28125 241.664062 204.304688 C 241.902344 204.398438 242.027344 204.652344 241.972656 204.890625 L 241.972656 204.898438 L 242.054688 205.050781 C 242.132812 205.183594 242.273438 205.367188 242.472656 205.578125 C 242.871094 206.015625 243.472656 206.578125 244.25 207.261719 C 245.8125 208.640625 248.074219 210.492188 250.835938 212.839844 C 256.34375 217.53125 263.820312 224.207031 271.660156 233.019531 C 287.339844 250.652344 304.503906 276.871094 310.355469 313.054688 C 310.402344 313.332031 310.210938 313.59375 309.933594 313.640625 C 309.910156 313.640625 309.878906 313.648438 309.855469 313.648438 " fill-opacity="1" fill-rule="nonzero"/><path fill="#f0603a" d="M 198.914062 96.917969 C 198.914062 96.917969 205.984375 82.976562 200.851562 74.574219 C 195.734375 66.191406 180.25 59.628906 164.101562 70.882812 C 147.953125 82.136719 151.316406 94.066406 151.824219 102.464844 C 152.324219 110.859375 150.144531 116.40625 127.097656 118.429688 C 104.054688 120.441406 95.976562 142.949219 104.730469 161.941406 C 113.472656 180.921875 133.660156 182.269531 142.738281 179.410156 C 151.824219 176.546875 156.03125 164.628906 149.300781 154.546875 C 142.574219 144.464844 152 140.011719 159.054688 140.761719 C 170.785156 142.023438 172.679688 121.449219 166.960938 111.367188 C 161.246094 101.285156 164.777344 87.34375 175.878906 85.828125 C 186.980469 84.316406 191.519531 91.378906 190.84375 100.445312 L 198.914062 96.917969 " fill-opacity="1" fill-rule="nonzero"/><path fill="#f36b44" d="M 228.625 144.402344 C 228.625 144.402344 242.65625 138.917969 241.472656 122.789062 C 240.300781 106.667969 211.539062 78.941406 188.496094 99.605469 C 188.496094 99.605469 174.703125 100.609375 172.847656 117.582031 C 171 134.550781 185.835938 163.320312 228.625 144.402344 " fill-opacity="1" fill-rule="nonzero"/><path fill="#ee965a" d="M 188.996094 147.484375 L 184.457031 193.859375 C 184.457031 193.859375 191.851562 199.230469 202.453125 199.738281 C 213.046875 200.238281 217.253906 197.652344 217.253906 197.652344 L 217.253906 158.238281 L 188.996094 147.484375 " fill-opacity="1" fill-rule="nonzero"/><path fill="#ffbd72" d="M 228.523438 140.429688 C 228.523438 140.429688 230.277344 165.941406 219.015625 169.636719 C 208.253906 173.15625 196.234375 167.980469 188.496094 152.867188 C 188.496094 152.867188 184.925781 153.847656 181.203125 150.125 C 177.21875 146.144531 176.554688 138.078125 180.25 135.390625 C 183.949219 132.703125 188.496094 137.402344 188.496094 137.402344 C 188.496094 137.402344 202.722656 124.640625 203.175781 117.582031 C 203.175781 117.582031 221.96875 136.230469 228.523438 140.429688 " fill-opacity="1" fill-rule="nonzero"/><g clip-path="url(#6c79441446)"><path fill="#ffdf99" d="M 172.695312 185.125 C 172.695312 185.125 146.105469 182.847656 114.5625 212.839844 C 114.5625 212.839844 136.265625 243.835938 137.019531 260.464844 C 137.78125 277.101562 131.472656 301.039062 135.503906 316.667969 C 139.542969 332.289062 138.027344 372.609375 136.519531 390.75 C 135.003906 408.898438 131.566406 424.519531 143.628906 428.554688 C 155.691406 432.589844 193.066406 439.644531 228.625 438.128906 C 264.183594 436.617188 284.960938 438.128906 291.484375 428.554688 C 298 418.980469 295.054688 401.839844 291.484375 380.675781 C 287.90625 359.507812 262.421875 227.542969 251.3125 207.046875 C 251.3125 207.046875 240.71875 192.675781 229.871094 191.925781 C 229.871094 191.925781 201.304688 203.265625 172.695312 185.125 " fill-opacity="1" fill-rule="nonzero"/></g><g clip-path="url(#9789b98e4d)"><g clip-path="url(#7935a20394)"><path fill="#f9d285" d="M 127.425781 194.675781 L 127.488281 194.660156 C 127.796875 194.5625 129.28125 194.152344 131.597656 194.152344 C 135.257812 194.160156 140.96875 195.164062 147.460938 200.046875 C 153.945312 204.9375 161.199219 213.726562 167.839844 229.332031 C 181.28125 260.894531 184.757812 308.117188 184.75 350.828125 C 184.75 387.578125 182.195312 420.996094 181.257812 438.3125 C 181.242188 438.589844 181.457031 438.828125 181.742188 438.84375 C 182.019531 438.859375 182.257812 438.644531 182.273438 438.367188 C 183.203125 421.066406 185.765625 387.617188 185.765625 350.828125 C 185.765625 308.050781 182.320312 260.765625 168.777344 228.9375 C 162.078125 213.21875 154.730469 204.265625 148.074219 199.238281 C 141.40625 194.214844 135.4375 193.136719 131.597656 193.136719 C 128.8125 193.136719 127.136719 193.699219 127.097656 193.714844 C 126.835938 193.800781 126.695312 194.085938 126.78125 194.355469 C 126.867188 194.617188 127.164062 194.761719 127.425781 194.675781 " fill-opacity="1" fill-rule="nonzero"/></g></g><g clip-path="url(#61ab2b6ab7)"><g clip-path="url(#52cafa14f6)"><path fill="#f9d285" d="M 150.613281 186.28125 L 150.675781 186.265625 C 150.816406 186.234375 151.222656 186.160156 151.851562 186.160156 C 153.96875 186.167969 158.625 186.96875 164.476562 193.144531 C 170.324219 199.3125 177.332031 210.875 183.972656 232.3125 C 197.828125 277.007812 204.90625 379.820312 204.898438 432.691406 C 204.898438 440.476562 204.746094 447.171875 204.445312 452.453125 C 204.421875 452.730469 204.644531 452.96875 204.921875 452.984375 C 205.199219 453 205.4375 452.785156 205.460938 452.507812 C 205.765625 447.203125 205.914062 440.492188 205.914062 432.691406 C 205.914062 379.71875 198.859375 276.96875 184.941406 232.011719 C 178.265625 210.476562 171.21875 198.78125 165.214844 192.445312 C 159.222656 186.105469 154.238281 185.140625 151.851562 185.148438 C 150.914062 185.148438 150.375 185.289062 150.34375 185.304688 C 150.070312 185.378906 149.914062 185.65625 149.984375 185.925781 C 150.0625 186.195312 150.34375 186.351562 150.613281 186.28125 " fill-opacity="1" fill-rule="nonzero"/></g></g><g clip-path="url(#db700a3e97)"><g clip-path="url(#c1f4eb319a)"><path fill="#f9d285" d="M 184.058594 194.175781 L 184.179688 194.339844 C 185.496094 196.179688 196.867188 213.554688 206.492188 275.246094 C 216.332031 338.28125 223.476562 399.175781 223.476562 438.097656 C 223.476562 439.835938 223.460938 441.523438 223.4375 443.164062 C 223.429688 443.449219 223.652344 443.679688 223.9375 443.679688 C 224.214844 443.6875 224.445312 443.464844 224.453125 443.1875 C 224.476562 441.53125 224.492188 439.835938 224.492188 438.097656 C 224.492188 399.054688 217.332031 338.15625 207.492188 275.089844 C 197.210938 209.1875 184.941406 193.660156 184.855469 193.539062 C 184.679688 193.328125 184.363281 193.289062 184.140625 193.460938 C 183.917969 193.636719 183.886719 193.953125 184.058594 194.175781 " fill-opacity="1" fill-rule="nonzero"/></g></g><g clip-path="url(#c0defbb254)"><g clip-path="url(#89f3577280)"><path fill="#f9d285" d="M 200.390625 192.722656 C 200.390625 192.722656 200.734375 193.476562 201.335938 194.9375 C 205.597656 205.144531 223.085938 249.71875 229.933594 308.15625 C 233.855469 341.578125 237.242188 375.351562 239.65625 400.761719 C 240.863281 413.464844 241.824219 424.078125 242.480469 431.519531 C 243.140625 438.953125 243.496094 443.203125 243.496094 443.21875 C 243.519531 443.496094 243.765625 443.703125 244.042969 443.679688 C 244.324219 443.652344 244.527344 443.410156 244.503906 443.132812 C 244.503906 443.132812 238.785156 374.914062 230.949219 308.035156 C 223.101562 241.09375 201.335938 192.335938 201.320312 192.304688 C 201.199219 192.050781 200.90625 191.941406 200.644531 192.050781 C 200.390625 192.160156 200.28125 192.460938 200.390625 192.722656 " fill-opacity="1" fill-rule="nonzero"/></g></g><g clip-path="url(#1be77242fb)"><g clip-path="url(#5ac4c05ad8)"><path fill="#f9d285" d="M 212.9375 189.371094 C 212.9375 189.371094 213.238281 189.964844 213.785156 191.148438 C 217.652344 199.398438 233.609375 236.070312 241.046875 293.039062 C 245.296875 325.632812 249.835938 362.421875 253.304688 391.066406 C 255.042969 405.386719 256.519531 417.671875 257.550781 426.375 C 258.066406 430.734375 258.480469 434.191406 258.757812 436.5625 C 259.042969 438.929688 259.195312 440.207031 259.195312 440.207031 C 259.226562 440.484375 259.480469 440.691406 259.757812 440.652344 C 260.035156 440.617188 260.234375 440.363281 260.203125 440.085938 C 260.203125 440.085938 250.558594 358.105469 242.054688 292.914062 C 233.53125 227.652344 213.859375 188.953125 213.84375 188.914062 C 213.714844 188.667969 213.40625 188.5625 213.160156 188.691406 C 212.90625 188.816406 212.808594 189.125 212.9375 189.371094 " fill-opacity="1" fill-rule="nonzero"/></g></g><g clip-path="url(#95587653a0)"><g clip-path="url(#ab78364d4f)"><path fill="#f9d285" d="M 228.179688 189.386719 C 228.179688 189.386719 228.417969 189.824219 228.871094 190.742188 C 232.023438 197.148438 245.363281 226.542969 255.949219 285.003906 C 262.003906 318.433594 268.644531 358 273.777344 389.203125 C 276.34375 404.800781 278.53125 418.316406 280.070312 427.929688 C 280.851562 432.734375 281.460938 436.570312 281.882812 439.199219 C 282.292969 441.824219 282.523438 443.25 282.523438 443.25 C 282.570312 443.527344 282.824219 443.71875 283.101562 443.679688 C 283.382812 443.628906 283.570312 443.367188 283.523438 443.089844 C 283.523438 443.089844 269.058594 351.699219 256.949219 284.828125 C 244.832031 217.914062 229.101562 188.953125 229.070312 188.902344 C 228.933594 188.660156 228.625 188.5625 228.378906 188.699219 C 228.140625 188.832031 228.046875 189.140625 228.179688 189.386719 " fill-opacity="1" fill-rule="nonzero"/></g></g><g clip-path="url(#4d13d7d250)"><g clip-path="url(#9ee60ec4de)"><path fill="#f9d285" d="M 117.773438 203.765625 C 117.773438 203.765625 117.925781 203.789062 118.242188 203.84375 C 120.589844 204.28125 131.328125 206.648438 141.429688 214.84375 C 151.53125 223.054688 161.046875 237.046875 161.0625 260.933594 C 161.0625 263.421875 160.953125 266.03125 160.738281 268.742188 C 157.144531 313.324219 156.5625 375.128906 156.5625 410.5 C 156.5625 427.453125 156.699219 438.34375 156.699219 438.34375 C 156.699219 438.628906 156.929688 438.851562 157.214844 438.84375 C 157.492188 438.84375 157.714844 438.613281 157.714844 438.335938 C 157.714844 438.328125 157.683594 435.609375 157.652344 430.773438 C 157.609375 425.933594 157.578125 418.972656 157.578125 410.5 C 157.578125 375.136719 158.160156 313.347656 161.746094 268.828125 C 161.96875 266.085938 162.078125 263.453125 162.078125 260.933594 C 162.085938 235.152344 151.046875 220.542969 140.011719 212.46875 C 128.972656 204.382812 117.964844 202.773438 117.917969 202.765625 C 117.640625 202.71875 117.386719 202.910156 117.339844 203.1875 C 117.296875 203.464844 117.488281 203.726562 117.773438 203.765625 " fill-opacity="1" fill-rule="nonzero"/></g></g><path fill="#fffefd" d="M 200.851562 178.316406 C 191.320312 175.597656 187.480469 168.996094 184.457031 168.996094 C 181.425781 168.996094 175.0625 172.773438 172.695312 185.125 C 172.695312 185.125 182.433594 200.492188 199.089844 201.5 C 215.738281 202.511719 227.601562 194.953125 229.871094 191.925781 C 232.140625 188.894531 227.09375 176.046875 224.316406 175.542969 C 221.546875 175.042969 218.515625 183.355469 200.851562 178.316406 " fill-opacity="1" fill-rule="nonzero"/><g clip-path="url(#4e04055e19)"><path fill="#f1ca6c" d="M 114.5625 212.839844 C 114.5625 212.839844 142.398438 218.386719 148.121094 231.15625 C 153.839844 243.925781 107.753906 334.644531 84.875 337.328125 C 61.996094 340.015625 49.554688 308.101562 78.3125 261.402344 C 99.4375 227.105469 114.5625 212.839844 114.5625 212.839844 " fill-opacity="1" fill-rule="nonzero"/><path fill="#ffdf99" d="M 114.5625 212.839844 C 114.5625 212.839844 142.398438 218.386719 148.121094 231.15625 C 153.839844 243.925781 107.753906 334.644531 84.875 337.328125 C 61.996094 340.015625 49.554688 308.101562 78.3125 261.402344 C 99.4375 227.105469 114.5625 212.839844 114.5625 212.839844 " fill-opacity="1" fill-rule="nonzero"/></g><g clip-path="url(#826fadc7b3)"><g clip-path="url(#8d1295784b)"><path fill="#f9d285" d="M 126.535156 215.035156 C 126.535156 215.042969 113.085938 231.007812 98.246094 251.644531 C 83.398438 272.292969 67.152344 297.574219 61.542969 316.351562 C 61.464844 316.621094 61.613281 316.90625 61.882812 316.976562 C 62.15625 317.0625 62.441406 316.914062 62.519531 316.644531 C 68.042969 298.113281 84.246094 272.832031 99.0625 252.238281 C 106.472656 241.933594 113.535156 232.796875 118.75 226.234375 C 121.351562 222.953125 123.496094 220.3125 124.988281 218.5 C 126.480469 216.683594 127.3125 215.691406 127.3125 215.683594 C 127.496094 215.472656 127.472656 215.15625 127.257812 214.972656 C 127.042969 214.789062 126.71875 214.820312 126.535156 215.035156 " fill-opacity="1" fill-rule="nonzero"/></g></g><g clip-path="url(#c02f07397d)"><g clip-path="url(#eb7e10c86a)"><path fill="#f9d285" d="M 138.90625 221.882812 C 138.90625 221.882812 138.46875 222.898438 137.628906 224.777344 C 131.734375 237.917969 106.015625 293.160156 72.757812 334.914062 C 72.582031 335.132812 72.621094 335.453125 72.835938 335.625 C 73.058594 335.800781 73.375 335.769531 73.550781 335.546875 C 111.679688 287.675781 139.828125 222.304688 139.84375 222.28125 C 139.953125 222.027344 139.835938 221.726562 139.574219 221.613281 C 139.320312 221.503906 139.019531 221.621094 138.90625 221.882812 " fill-opacity="1" fill-rule="nonzero"/></g></g><g clip-path="url(#9b81c6b5b6)"><g clip-path="url(#88054ddafd)"><path fill="#f9d285" d="M 149.683594 233.960938 C 149.683594 233.960938 149.191406 234.992188 148.269531 236.894531 C 141.820312 250.171875 114.410156 305.554688 88.839844 341.070312 C 88.675781 341.292969 88.722656 341.609375 88.953125 341.777344 C 89.183594 341.933594 89.5 341.886719 89.660156 341.65625 C 118.972656 300.941406 150.589844 234.40625 150.597656 234.390625 C 150.722656 234.136719 150.613281 233.835938 150.359375 233.714844 C 150.105469 233.597656 149.800781 233.707031 149.683594 233.960938 " fill-opacity="1" fill-rule="nonzero"/></g></g><path fill="#ffbd72" d="M 162.585938 255.347656 C 162.585938 255.347656 171.753906 244.28125 177.816406 241.230469 C 183.878906 238.1875 199.464844 225.109375 202.722656 229.136719 C 205.984375 233.167969 190.511719 245.265625 190.511719 245.265625 C 190.511719 245.265625 197.90625 256.359375 195.558594 262.066406 C 193.203125 267.773438 181.578125 269.492188 174.695312 268.445312 C 167.824219 267.410156 162.585938 255.347656 162.585938 255.347656 " fill-opacity="1" fill-rule="nonzero"/><path fill="#f4ca63" d="M 152 256.011719 C 152 256.011719 161.246094 246.945312 164.945312 247.277344 C 168.640625 247.617188 187.148438 269.792969 184.457031 273.828125 C 181.757812 277.855469 168.363281 283.238281 168.363281 283.238281 L 151.121094 255.402344 " fill-opacity="1" fill-rule="nonzero"/><path fill="#fffefd" d="M 152 256.011719 C 152 256.011719 161.246094 246.945312 164.945312 247.277344 C 168.640625 247.617188 187.148438 269.792969 184.457031 273.828125 C 181.757812 277.855469 168.363281 283.238281 168.363281 283.238281 L 151.121094 255.402344 " fill-opacity="1" fill-rule="nonzero"/><g clip-path="url(#e60c02a4c7)"><path fill="#ffdf99" d="M 162.585938 267.441406 C 173.355469 285.582031 172.679688 292.3125 169.648438 295.664062 C 166.625 299.023438 114.078125 342.261719 78.453125 337.125 C 54.257812 333.636719 56.617188 290.964844 72.429688 281.214844 C 88.238281 271.476562 136.652344 246.515625 148.613281 253.792969 C 160.570312 261.058594 162.585938 267.441406 162.585938 267.441406 " fill-opacity="1" fill-rule="nonzero"/><path fill="#ffdf99" d="M 162.585938 267.441406 C 173.355469 285.582031 172.679688 292.3125 169.648438 295.664062 C 166.625 299.023438 114.078125 342.261719 78.453125 337.125 C 54.257812 333.636719 56.617188 290.964844 72.429688 281.214844 C 88.238281 271.476562 136.652344 246.515625 148.613281 253.792969 C 160.570312 261.058594 162.585938 267.441406 162.585938 267.441406 " fill-opacity="1" fill-rule="nonzero"/></g><g clip-path="url(#95ab8e0aed)"><g clip-path="url(#47c11c1472)"><path fill="#f9d285" d="M 160.53125 259.546875 C 160.460938 259.546875 140.835938 260.902344 110.503906 280.113281 C 95.40625 289.6875 79.859375 297.996094 68.089844 303.914062 C 62.203125 306.871094 57.265625 309.234375 53.796875 310.851562 C 50.332031 312.46875 48.339844 313.347656 48.339844 313.347656 C 48.078125 313.457031 47.964844 313.757812 48.078125 314.011719 C 48.1875 314.273438 48.488281 314.386719 48.742188 314.273438 C 48.757812 314.265625 80.761719 300.167969 111.054688 280.96875 C 126.136719 271.410156 138.542969 266.308594 147.167969 263.597656 C 151.484375 262.234375 154.847656 261.480469 157.136719 261.058594 C 158.277344 260.847656 159.152344 260.71875 159.730469 260.648438 C 160.316406 260.578125 160.601562 260.5625 160.601562 260.5625 C 160.878906 260.539062 161.09375 260.300781 161.078125 260.015625 C 161.054688 259.738281 160.816406 259.53125 160.53125 259.546875 " fill-opacity="1" fill-rule="nonzero"/></g></g><g clip-path="url(#6afc76f1bd)"><g clip-path="url(#70ce9fd122)"><path fill="#f9d285" d="M 164.625 263.351562 C 164.625 263.351562 163.960938 263.882812 162.761719 264.832031 C 158.554688 268.144531 147.835938 276.523438 136.496094 284.6875 C 125.164062 292.851562 113.164062 300.808594 106.570312 303.257812 C 91.183594 308.964844 52.71875 325.441406 52.71875 325.441406 C 52.457031 325.550781 52.339844 325.84375 52.449219 326.105469 C 52.558594 326.359375 52.863281 326.488281 53.117188 326.375 C 53.125 326.367188 55.519531 325.347656 59.367188 323.714844 C 70.90625 318.808594 95.429688 308.472656 106.917969 304.207031 C 114.726562 301.300781 129.25 291.304688 141.898438 282.007812 C 154.539062 272.71875 165.261719 264.144531 165.261719 264.144531 C 165.484375 263.96875 165.515625 263.644531 165.339844 263.429688 C 165.164062 263.207031 164.847656 263.175781 164.625 263.351562 " fill-opacity="1" fill-rule="nonzero"/></g></g><g clip-path="url(#d202414121)"><g clip-path="url(#5b423120e9)"><path fill="#f9d285" d="M 171.09375 269.667969 L 171.039062 269.84375 C 170.433594 271.738281 164.261719 288.476562 128.703125 307.648438 C 109.71875 317.886719 93.347656 324.59375 81.714844 328.746094 C 75.90625 330.824219 71.28125 332.257812 68.105469 333.175781 C 66.519531 333.628906 65.296875 333.960938 64.480469 334.175781 C 63.652344 334.390625 63.234375 334.484375 63.234375 334.484375 C 62.957031 334.546875 62.789062 334.816406 62.851562 335.09375 C 62.917969 335.363281 63.1875 335.539062 63.464844 335.476562 C 63.496094 335.46875 91.117188 329.070312 129.1875 308.542969 C 167.300781 288 172.046875 270.0625 172.078125 269.921875 C 172.148438 269.644531 171.980469 269.375 171.710938 269.304688 C 171.441406 269.230469 171.164062 269.390625 171.09375 269.667969 " fill-opacity="1" fill-rule="nonzero"/></g></g><path fill="#90b4f3" d="M 261.4375 210.707031 L 232.871094 200.347656 C 231.824219 199.96875 230.664062 200.507812 230.285156 201.554688 L 210.320312 256.503906 C 209.9375 257.558594 210.476562 258.714844 211.523438 259.09375 L 240.101562 269.445312 C 241.148438 269.828125 242.308594 269.289062 242.679688 268.242188 L 262.652344 213.285156 C 263.035156 212.238281 262.496094 211.089844 261.4375 210.707031 " fill-opacity="1" fill-rule="nonzero"/><path fill="#90b4f3" d="M 265.242188 212.078125 L 236.664062 201.71875 C 235.617188 201.339844 234.457031 201.878906 234.085938 202.925781 L 214.113281 257.882812 C 213.730469 258.9375 214.269531 260.085938 215.324219 260.464844 L 243.894531 270.824219 C 244.941406 271.207031 246.101562 270.660156 246.480469 269.613281 L 266.445312 214.664062 C 266.828125 213.609375 266.289062 212.460938 265.242188 212.078125 " fill-opacity="1" fill-rule="nonzero"/><path fill="#ffffff" d="M 240.085938 208.488281 C 239.625 209.75 238.242188 210.398438 236.980469 209.9375 C 235.726562 209.488281 235.078125 208.101562 235.53125 206.839844 C 235.988281 205.589844 237.378906 204.9375 238.632812 205.398438 C 239.894531 205.847656 240.539062 207.238281 240.085938 208.488281 " fill-opacity="1" fill-rule="nonzero"/><path fill="#ffffff" d="M 244.894531 210.234375 C 244.59375 211.074219 243.664062 211.507812 242.824219 211.199219 C 241.988281 210.90625 241.554688 209.972656 241.863281 209.140625 C 242.164062 208.296875 243.09375 207.871094 243.925781 208.171875 C 244.765625 208.472656 245.195312 209.398438 244.894531 210.234375 " fill-opacity="1" fill-rule="nonzero"/><path fill="#ffbd72" d="M 254.113281 255.796875 C 254.113281 255.796875 258.136719 247.453125 255.273438 245.097656 C 252.417969 242.742188 244.78125 253.933594 242.480469 254.671875 C 240.179688 255.410156 224.839844 252.855469 222.984375 254.332031 C 221.117188 255.8125 216.308594 264.792969 218.382812 267.125 C 220.460938 269.453125 233.410156 278.863281 240.972656 279.203125 C 240.972656 279.203125 250.828125 271.847656 253.050781 267.542969 C 255.273438 263.238281 256.304688 259.453125 256.304688 259.453125 L 254.113281 255.796875 " fill-opacity="1" fill-rule="nonzero"/><path fill="#fffefd" d="M 270.238281 266.09375 C 270.238281 266.09375 255.8125 255.234375 254.113281 255.796875 C 252.417969 256.351562 237.21875 274.421875 238.449219 281.714844 C 238.933594 284.585938 250.726562 290.957031 250.726562 290.957031 C 250.726562 290.957031 267.25 280.796875 270.238281 266.09375 " fill-opacity="1" fill-rule="nonzero"/><g clip-path="url(#7b7bba6589)"><path fill="#ffdf99" d="M 270.027344 264.601562 C 276.421875 263.011719 314.15625 280.257812 315.417969 295.015625 C 316.671875 309.78125 316.75 325.394531 302.703125 332.652344 C 285.546875 341.53125 248.003906 305.984375 247.703125 295.332031 C 247.519531 288.984375 256.957031 267.851562 270.027344 264.601562 " fill-opacity="1" fill-rule="nonzero"/></g><g clip-path="url(#847e30bc59)"><g clip-path="url(#7e99c1b71c)"><path fill="#f9d285" d="M 254.6875 262.335938 C 254.695312 262.335938 255.851562 262.988281 257.890625 264.136719 C 264.019531 267.574219 278.089844 275.484375 292.53125 283.679688 C 303.371094 289.824219 309.148438 297.988281 312.234375 305.300781 C 315.3125 312.625 315.695312 319.101562 315.695312 321.820312 C 315.695312 322.261719 315.6875 322.605469 315.679688 322.832031 C 315.664062 323.0625 315.65625 323.175781 315.65625 323.175781 C 315.632812 323.453125 315.84375 323.699219 316.125 323.722656 C 316.402344 323.746094 316.648438 323.539062 316.671875 323.253906 C 316.671875 323.246094 316.710938 322.730469 316.710938 321.820312 C 316.710938 319.003906 316.320312 312.402344 313.171875 304.914062 C 310.019531 297.425781 304.085938 289.054688 293.03125 282.792969 C 273.769531 271.871094 255.1875 261.457031 255.1875 261.457031 C 254.941406 261.3125 254.628906 261.402344 254.496094 261.648438 C 254.351562 261.894531 254.441406 262.203125 254.6875 262.335938 " fill-opacity="1" fill-rule="nonzero"/></g></g><g clip-path="url(#d493df6ff6)"><g clip-path="url(#4a8d5380ae)"><path fill="#f9d285" d="M 251.140625 273.289062 C 251.140625 273.289062 251.441406 273.410156 252.027344 273.648438 C 256.121094 275.351562 273.628906 283.101562 290.339844 297.890625 C 299.894531 306.347656 306.179688 314.25 310.078125 320.035156 C 312.027344 322.929688 313.378906 325.289062 314.234375 326.921875 C 314.671875 327.746094 314.972656 328.382812 315.179688 328.808594 C 315.378906 329.238281 315.464844 329.460938 315.464844 329.460938 C 315.574219 329.714844 315.871094 329.839844 316.132812 329.738281 C 316.386719 329.625 316.511719 329.332031 316.410156 329.070312 C 316.386719 329.015625 310.257812 314.164062 291.015625 297.128906 C 271.761719 280.097656 251.535156 272.355469 251.503906 272.339844 C 251.234375 272.242188 250.941406 272.371094 250.84375 272.632812 C 250.742188 272.894531 250.878906 273.1875 251.140625 273.289062 " fill-opacity="1" fill-rule="nonzero"/></g></g><g clip-path="url(#19f98c6b3f)"><g clip-path="url(#0b913406c3)"><path fill="#f9d285" d="M 249.804688 273.734375 C 249.796875 273.765625 249.765625 273.957031 249.765625 274.3125 C 249.78125 277.070312 251.710938 289.355469 282.816406 311.03125 C 293.753906 318.648438 308.402344 323.933594 308.417969 323.945312 C 308.679688 324.039062 308.972656 323.902344 309.070312 323.640625 C 309.164062 323.378906 309.027344 323.085938 308.765625 322.992188 C 308.757812 322.992188 307.863281 322.660156 306.324219 322.050781 C 301.71875 320.21875 291.476562 315.828125 283.398438 310.199219 C 252.394531 288.601562 250.773438 276.546875 250.78125 274.3125 L 250.796875 273.996094 L 250.804688 273.925781 L 250.804688 273.914062 C 250.863281 273.636719 250.679688 273.378906 250.402344 273.328125 C 250.125 273.273438 249.863281 273.457031 249.804688 273.734375 " fill-opacity="1" fill-rule="nonzero"/></g></g><path fill="#ffffff" d="M 146.4375 254.839844 C 142.460938 254.839844 130.457031 256.605469 116.527344 260.570312 C 102.617188 264.53125 86.84375 270.667969 75.476562 279.472656 C 75.265625 279.644531 75.214844 279.964844 75.390625 280.183594 C 75.566406 280.40625 75.882812 280.445312 76.105469 280.273438 C 87.285156 271.601562 102.96875 265.476562 116.804688 261.542969 C 130.636719 257.605469 142.675781 255.84375 146.4375 255.851562 C 146.722656 255.851562 146.945312 255.625 146.945312 255.347656 C 146.945312 255.0625 146.722656 254.839844 146.4375 254.839844 " fill-opacity="1" fill-rule="nonzero"/><path fill="#ffffff" d="M 122.171875 214.1875 L 122.433594 214.21875 C 123.789062 214.402344 130.097656 215.519531 136.636719 220.703125 C 143.175781 225.894531 149.976562 235.136719 152.324219 251.722656 C 152.367188 252 152.628906 252.191406 152.90625 252.152344 C 153.183594 252.113281 153.375 251.859375 153.332031 251.582031 C 150.800781 233.652344 143.058594 224.007812 135.929688 218.894531 C 128.796875 213.78125 122.320312 213.179688 122.265625 213.171875 C 121.988281 213.148438 121.734375 213.355469 121.710938 213.632812 C 121.6875 213.917969 121.894531 214.15625 122.171875 214.1875 " fill-opacity="1" fill-rule="nonzero"/><path fill="#ffffff" d="M 159.292969 304.375 C 159.300781 304.359375 162.085938 300.738281 164.917969 295.878906 C 167.753906 291.011719 170.648438 284.941406 170.832031 279.890625 C 170.839844 279.613281 170.625 279.375 170.347656 279.367188 C 170.0625 279.351562 169.832031 279.574219 169.816406 279.851562 C 169.664062 284.550781 166.847656 290.574219 164.039062 295.371094 C 162.640625 297.765625 161.253906 299.863281 160.214844 301.363281 C 159.691406 302.117188 159.253906 302.710938 158.960938 303.121094 C 158.652344 303.535156 158.484375 303.757812 158.484375 303.757812 C 158.316406 303.976562 158.355469 304.296875 158.578125 304.46875 C 158.800781 304.636719 159.117188 304.597656 159.292969 304.375 " fill-opacity="1" fill-rule="nonzero"/><path fill="#ffffff" d="M 247.535156 286.242188 C 247.535156 286.257812 247.957031 289.316406 248.980469 292.984375 C 250.003906 296.65625 251.589844 300.925781 254.074219 303.414062 C 254.265625 303.613281 254.589844 303.613281 254.789062 303.414062 C 254.988281 303.21875 254.988281 302.902344 254.789062 302.703125 C 252.558594 300.484375 250.949219 296.3125 249.957031 292.714844 C 249.457031 290.917969 249.101562 289.261719 248.871094 288.054688 C 248.648438 286.851562 248.542969 286.105469 248.542969 286.105469 C 248.503906 285.828125 248.242188 285.628906 247.972656 285.667969 C 247.695312 285.710938 247.496094 285.964844 247.535156 286.242188 " fill-opacity="1" fill-rule="nonzero"/><path fill="#ffffff" d="M 268.898438 265.261719 L 268.992188 265.261719 C 270.507812 265.253906 290.847656 265.570312 305.871094 281.230469 C 306.0625 281.4375 306.386719 281.4375 306.585938 281.246094 C 306.789062 281.050781 306.800781 280.730469 306.609375 280.527344 C 291.238281 264.546875 270.628906 264.246094 268.992188 264.246094 L 268.882812 264.246094 C 268.605469 264.246094 268.382812 264.476562 268.390625 264.761719 C 268.390625 265.039062 268.621094 265.261719 268.898438 265.261719 " fill-opacity="1" fill-rule="nonzero"/></svg>