<svg xmlns="http://www.w3.org/2000/svg" xmlns:xlink="http://www.w3.org/1999/xlink" width="500" zoomAndPan="magnify" viewBox="0 0 375 374.999991" height="500" preserveAspectRatio="xMidYMid meet" version="1.0"><defs><clipPath id="e103917f0d"><path d="M 176.617188 264.203125 L 193.058594 264.203125 L 193.058594 271.9375 L 176.617188 271.9375 Z M 176.617188 264.203125 " clip-rule="nonzero"/></clipPath><clipPath id="cb2fde6a8c"><path d="M 237.6875 215 L 256.726562 215 L 256.726562 223.777344 L 237.6875 223.777344 Z M 237.6875 215 " clip-rule="nonzero"/></clipPath><clipPath id="c2604438dc"><path d="M 238 216.488281 L 256.726562 216.488281 L 256.726562 228.164062 L 238 228.164062 Z M 238 216.488281 " clip-rule="nonzero"/></clipPath></defs><g clip-path="url(#e103917f0d)"><path fill="#85d6e3" d="M 184.945312 264.214844 C 191 264.160156 194.636719 267.644531 192.347656 270.304688 C 190.058594 272.960938 179.691406 271.761719 177.808594 270.988281 C 175.921875 270.21875 175.25 264.300781 184.945312 264.214844 " fill-opacity="1" fill-rule="nonzero"/></g><path fill="#b5e6e8" d="M 190.464844 268.078125 C 190.226562 269.179688 183.550781 267.386719 184.851562 266.101562 C 186.15625 264.816406 190.867188 266.191406 190.464844 268.078125 " fill-opacity="1" fill-rule="nonzero"/><path fill="#85d6e3" d="M 238.609375 259.949219 C 237.085938 262.507812 227.636719 262.25 224.257812 259.949219 C 220.882812 257.648438 226.371094 252.683594 231.273438 252.867188 C 237.992188 253.121094 239.875 257.824219 238.609375 259.949219 " fill-opacity="1" fill-rule="nonzero"/><path fill="#b5e6e8" d="M 237.359375 256.972656 C 237.121094 258.078125 230.445312 256.285156 231.75 254.996094 C 233.050781 253.710938 237.761719 255.089844 237.359375 256.972656 " fill-opacity="1" fill-rule="nonzero"/><path fill="#85d6e3" d="M 124.535156 211.261719 C 129.820312 211.214844 132.992188 214.074219 130.996094 216.257812 C 129 218.4375 119.957031 217.453125 118.3125 216.820312 C 116.667969 216.1875 116.078125 211.332031 124.535156 211.261719 " fill-opacity="1" fill-rule="nonzero"/><path fill="#b5e6e8" d="M 129.351562 214.429688 C 129.144531 215.335938 123.320312 213.863281 124.457031 212.808594 C 125.59375 211.753906 129.703125 212.882812 129.351562 214.429688 " fill-opacity="1" fill-rule="nonzero"/><path fill="#85d6e3" d="M 99.847656 245.863281 C 103.371094 245.835938 105.488281 247.742188 104.15625 249.195312 C 102.824219 250.652344 96.792969 249.996094 95.695312 249.570312 C 94.597656 249.148438 94.207031 245.910156 99.847656 245.863281 " fill-opacity="1" fill-rule="nonzero"/><path fill="#b5e6e8" d="M 103.058594 247.976562 C 102.921875 248.582031 99.035156 247.601562 99.792969 246.898438 C 100.554688 246.191406 103.292969 246.949219 103.058594 247.976562 " fill-opacity="1" fill-rule="nonzero"/><path fill="#85d6e3" d="M 190.917969 211.351562 C 194.414062 211.726562 196.167969 214.03125 194.589844 215.449219 C 193.007812 216.871094 187.152344 215.460938 186.140625 214.878906 C 185.132812 214.296875 185.324219 210.75 190.917969 211.351562 " fill-opacity="1" fill-rule="nonzero"/><path fill="#b5e6e8" d="M 193.722656 214.007812 C 193.476562 214.644531 189.804688 213.136719 190.683594 212.460938 C 191.558594 211.789062 194.136719 212.921875 193.722656 214.007812 " fill-opacity="1" fill-rule="nonzero"/><path fill="#85d6e3" d="M 176.035156 217.671875 C 155.140625 215.722656 144.085938 213.011719 143.769531 216.992188 C 143.453125 220.976562 128.398438 221.582031 117.160156 223.25 C 102.855469 225.375 99.433594 232.546875 104.179688 237.59375 C 108.929688 242.636719 119.058594 241.054688 121.589844 245.964844 C 124.121094 250.871094 117.476562 250.605469 123.488281 255.652344 C 129.503906 260.699219 151.34375 259.636719 162.738281 255.652344 C 174.132812 251.667969 206.375 262.757812 215.914062 252.464844 C 226.996094 240.515625 197.886719 238.242188 201.671875 233.078125 C 206.734375 226.171875 194.335938 219.382812 176.035156 217.671875 " fill-opacity="1" fill-rule="nonzero"/><path fill="#b5e6e8" d="M 196.917969 227.324219 C 197.855469 230.605469 194.644531 231.496094 193.230469 230.75 C 191 229.570312 192.964844 228.714844 192.84375 227.324219 C 192.515625 223.59375 171.003906 219.832031 173.695312 219.832031 C 185.042969 219.839844 196.144531 224.621094 196.917969 227.324219 " fill-opacity="1" fill-rule="nonzero"/><path fill="#2a89c7" d="M 158.828125 182.734375 C 162.796875 182.734375 166.597656 182.597656 170.148438 182.339844 C 169.953125 185.238281 169.246094 195.109375 168.296875 204.175781 C 167.167969 214.953125 165.605469 226.601562 165.691406 227.554688 C 165.777344 228.511719 167.601562 227.902344 170.382812 227.554688 C 173.160156 227.207031 175.625 226.765625 176.289062 226.164062 C 177.242188 225.296875 179.589844 215.003906 181.324219 204.699219 C 182.75 196.25 184.347656 184.246094 184.878906 180.195312 C 185.867188 179.949219 186.792969 179.6875 187.652344 179.410156 C 189.117188 178.9375 190.308594 178.472656 191.265625 177.976562 C 188.476562 196.738281 183.6875 225.128906 182.191406 227.121094 C 180.71875 229.089844 169.6875 232.425781 158.265625 232.425781 C 146.757812 232.425781 135.6875 228.925781 134.335938 227.121094 C 132.839844 225.125 128.03125 196.613281 125.246094 177.855469 C 126.648438 178.613281 128.578125 179.300781 131.0625 179.945312 C 137.820312 181.691406 147.800781 182.734375 158.828125 182.734375 " fill-opacity="1" fill-rule="nonzero"/><path fill="#30a2d6" d="M 176.289062 226.164062 C 175.625 226.765625 173.160156 227.207031 170.382812 227.554688 C 167.601562 227.902344 165.777344 228.511719 165.691406 227.554688 C 165.605469 226.601562 167.167969 214.953125 168.296875 204.175781 C 169.246094 195.109375 169.953125 185.238281 170.148438 182.339844 C 175.835938 181.925781 180.867188 181.195312 184.878906 180.195312 C 184.347656 184.246094 182.75 196.25 181.324219 204.699219 C 179.589844 215.003906 177.242188 225.296875 176.289062 226.164062 " fill-opacity="1" fill-rule="nonzero"/><path fill="#2683b3" d="M 192.535156 169.097656 C 192.195312 171.617188 191.761719 174.648438 191.265625 177.976562 C 190.308594 178.472656 189.117188 178.9375 187.652344 179.410156 C 186.792969 179.6875 185.867188 179.949219 184.878906 180.195312 C 180.867188 181.195312 175.835938 181.925781 170.148438 182.339844 C 166.597656 182.597656 162.796875 182.734375 158.828125 182.734375 C 147.800781 182.734375 137.820312 181.691406 131.0625 179.945312 C 128.578125 179.300781 126.648438 178.613281 125.246094 177.855469 C 124.757812 174.574219 124.332031 171.589844 123.996094 169.097656 L 192.535156 169.097656 " fill-opacity="1" fill-rule="nonzero"/><path fill="#2a89c7" d="M 122.4375 168.195312 C 122.699219 170.371094 125.492188 172.035156 131.023438 173.472656 C 137.75 175.21875 147.6875 176.261719 158.664062 176.261719 C 170.5 176.261719 180.871094 175.050781 187.363281 172.9375 C 191.839844 171.480469 193.789062 170.109375 194.136719 167.71875 C 194.378906 166.046875 194.464844 162.625 194.464844 162.625 L 122.046875 162.625 C 122.046875 162.625 122.214844 166.34375 122.4375 168.195312 " fill-opacity="1" fill-rule="nonzero"/><path fill="#30a2d6" d="M 122.046875 162.625 C 122.046875 157.207031 138.257812 152.8125 158.257812 152.8125 C 178.253906 152.8125 194.464844 157.207031 194.464844 162.625 C 194.464844 168.042969 178.65625 171.5 158.65625 171.5 C 138.65625 171.5 122.046875 168.042969 122.046875 162.625 " fill-opacity="1" fill-rule="nonzero"/><path fill="#23799b" d="M 126.261719 162.199219 C 126.261719 158.601562 140.585938 155.683594 158.257812 155.683594 C 175.925781 155.683594 190.253906 158.601562 190.253906 162.199219 C 190.253906 165.800781 175.925781 168.71875 158.257812 168.71875 C 140.585938 168.71875 126.261719 165.800781 126.261719 162.199219 " fill-opacity="1" fill-rule="nonzero"/><path fill="#4f9cb4" d="M 177.015625 170.921875 C 177.375 169.046875 179.140625 167.808594 180.953125 168.160156 C 182.765625 168.511719 183.945312 170.3125 183.582031 172.1875 C 183.222656 174.0625 181.457031 175.296875 179.644531 174.949219 C 177.832031 174.597656 176.652344 172.792969 177.015625 170.921875 " fill-opacity="1" fill-rule="nonzero"/><path fill="#3b7594" d="M 176.949219 171.960938 C 176.949219 170.164062 178.402344 168.710938 180.199219 168.710938 C 181.992188 168.710938 183.445312 170.164062 183.445312 171.960938 C 183.445312 173.753906 181.992188 175.210938 180.199219 175.210938 C 178.402344 175.210938 176.949219 173.753906 176.949219 171.960938 " fill-opacity="1" fill-rule="nonzero"/><path fill="#7d7e7f" d="M 133.558594 192.910156 C 133.757812 192.910156 133.960938 192.910156 134.164062 192.90625 C 139.445312 192.808594 145.996094 191.460938 153.632812 188.902344 C 169.601562 183.546875 180.460938 174.167969 180.917969 173.773438 C 181.675781 173.109375 181.753906 171.957031 181.09375 171.195312 C 180.429688 170.4375 179.28125 170.359375 178.519531 171.019531 C 178.414062 171.113281 167.722656 180.328125 152.472656 185.441406 C 133.5625 191.78125 127.1875 188.710938 125.328125 187.09375 C 123.585938 185.585938 124.199219 182.222656 125.457031 179.273438 C 125.457031 179.273438 125.304688 178.199219 125.140625 177.144531 C 124.972656 176.03125 124.59375 173.394531 124.59375 173.394531 C 123.40625 175.023438 121.910156 177.714844 121.121094 180.660156 C 119.753906 185.773438 121.355469 188.480469 122.9375 189.855469 C 125.277344 191.882812 128.851562 192.910156 133.558594 192.910156 " fill-opacity="1" fill-rule="nonzero"/><path fill="#d1f0f4" d="M 167.992188 133.085938 C 161.921875 130.53125 157.414062 136.351562 157.414062 136.351562 C 157.414062 136.351562 152.285156 131.492188 145.714844 134.449219 C 140.988281 136.578125 141.101562 140.742188 141.101562 140.742188 C 141.101562 140.742188 136.730469 140.171875 133.789062 142.996094 C 131.089844 145.585938 131.875 148.398438 131.875 148.398438 C 131.875 148.398438 128.566406 148.804688 126.261719 151.332031 C 124.324219 153.453125 124.273438 155.734375 124.335938 157.890625 C 124.398438 159.996094 126.042969 163.101562 127.511719 164.011719 C 130.5625 165.902344 137.78125 168.988281 158.257812 168.71875 C 182.394531 168.402344 187.945312 164.910156 189.296875 163.785156 C 190.648438 162.660156 191.304688 157.914062 190.15625 155.265625 C 188.128906 150.609375 184.980469 151.6875 184.53125 150.664062 C 184.082031 149.636719 184.980469 144.347656 181.265625 141.082031 C 178.898438 138.996094 176.296875 139.34375 174.609375 139.691406 C 173.65625 139.890625 172.992188 140.085938 172.828125 139.84375 C 172.378906 139.167969 172.265625 134.890625 167.992188 133.085938 " fill-opacity="1" fill-rule="nonzero"/><path fill="#f5fcfc" d="M 150.078125 156.703125 C 150.015625 156.703125 149.957031 156.703125 149.894531 156.699219 C 147.925781 156.617188 146.402344 154.757812 146.5 152.546875 C 146.589844 150.40625 148.289062 149.113281 150.1875 149.113281 C 150.246094 149.113281 150.304688 149.113281 150.367188 149.117188 C 152.335938 149.199219 153.894531 151.085938 153.800781 153.296875 C 153.710938 155.4375 151.980469 156.703125 150.078125 156.703125 " fill-opacity="1" fill-rule="nonzero"/><path fill="#ffffff" d="M 153.375 152.820312 C 153.265625 151.199219 152.027344 150.21875 151.730469 150.316406 C 151.472656 150.402344 152.144531 150.9375 152.347656 152.832031 C 152.515625 154.390625 151.84375 155.488281 152.042969 155.585938 C 152.378906 155.746094 153.503906 154.765625 153.375 152.820312 " fill-opacity="1" fill-rule="nonzero"/><path fill="#eaf8f9" d="M 161.023438 127.003906 C 160.90625 127.003906 160.789062 127 160.664062 126.988281 C 158.9375 126.824219 158.042969 125.082031 158.15625 123.871094 C 158.253906 122.78125 159.125 121.476562 160.941406 121.476562 C 161.019531 121.476562 161.101562 121.480469 161.183594 121.484375 C 162.917969 121.589844 163.867188 123.085938 163.722656 124.605469 C 163.589844 126.019531 162.554688 127.003906 161.023438 127.003906 " fill-opacity="1" fill-rule="nonzero"/><path fill="#ffffff" d="M 163.320312 124.257812 C 163.300781 123.054688 162.421875 122.28125 162.199219 122.339844 C 162.003906 122.394531 162.480469 122.816406 162.558594 124.230469 C 162.625 125.390625 162.085938 126.179688 162.230469 126.257812 C 162.46875 126.390625 163.34375 125.707031 163.320312 124.257812 " fill-opacity="1" fill-rule="nonzero"/><path fill="#eaf8f9" d="M 174.707031 136.523438 C 173.507812 136.523438 172.449219 135.613281 172.253906 134.339844 C 172.039062 132.945312 172.953125 131.644531 174.292969 131.4375 C 174.414062 131.421875 174.535156 131.410156 174.652344 131.410156 C 175.851562 131.410156 176.914062 132.324219 177.109375 133.59375 C 177.324219 134.992188 176.410156 136.289062 175.070312 136.496094 C 174.949219 136.515625 174.828125 136.523438 174.707031 136.523438 " fill-opacity="1" fill-rule="nonzero"/><path fill="#ffffff" d="M 176.734375 133.9375 C 176.730469 132.742188 175.863281 131.960938 175.640625 132.019531 C 175.449219 132.070312 175.917969 132.496094 175.980469 133.902344 C 176.03125 135.054688 175.488281 135.832031 175.628906 135.914062 C 175.867188 136.046875 176.742188 135.378906 176.734375 133.9375 " fill-opacity="1" fill-rule="nonzero"/><path fill="#f4fbfc" d="M 177.226562 155.734375 C 176.085938 155.734375 175 154.972656 174.59375 153.773438 C 174.089844 152.289062 174.816406 150.695312 176.222656 150.21875 C 176.492188 150.125 176.773438 150.082031 177.046875 150.082031 C 178.1875 150.082031 179.273438 150.84375 179.679688 152.039062 C 180.183594 153.527344 179.457031 155.117188 178.050781 155.597656 C 177.78125 155.691406 177.503906 155.734375 177.226562 155.734375 " fill-opacity="1" fill-rule="nonzero"/><path fill="#ffffff" d="M 179.484375 152.644531 C 179.273438 151.476562 178.292969 150.867188 178.089844 150.964844 C 177.90625 151.046875 178.4375 151.378906 178.742188 152.738281 C 178.992188 153.855469 178.597656 154.707031 178.746094 154.761719 C 179.003906 154.851562 179.742188 154.046875 179.484375 152.644531 " fill-opacity="1" fill-rule="nonzero"/><path fill="#f4fbfc" d="M 163.734375 143.867188 C 163.027344 143.867188 162.351562 143.457031 162.046875 142.765625 C 161.636719 141.832031 162.058594 140.746094 162.992188 140.335938 C 163.234375 140.230469 163.484375 140.179688 163.730469 140.179688 C 164.441406 140.179688 165.117188 140.59375 165.417969 141.28125 C 165.828125 142.214844 165.40625 143.300781 164.472656 143.710938 C 164.234375 143.816406 163.980469 143.867188 163.734375 143.867188 " fill-opacity="1" fill-rule="nonzero"/><path fill="#ffffff" d="M 165.222656 141.636719 C 165.003906 140.828125 164.273438 140.457031 164.136719 140.535156 C 164.011719 140.605469 164.410156 140.808594 164.707031 141.746094 C 164.949219 142.519531 164.722656 143.144531 164.832031 143.175781 C 165.019531 143.222656 165.488281 142.609375 165.222656 141.636719 " fill-opacity="1" fill-rule="nonzero"/><path fill="#eaf8f9" d="M 140.863281 130.800781 C 139.847656 130.800781 138.902344 130.152344 138.578125 129.132812 C 138.171875 127.867188 138.875 126.515625 140.140625 126.113281 C 140.386719 126.035156 140.636719 125.996094 140.878906 125.996094 C 141.898438 125.996094 142.84375 126.648438 143.167969 127.664062 C 143.570312 128.929688 142.871094 130.28125 141.601562 130.6875 C 141.355469 130.765625 141.109375 130.800781 140.863281 130.800781 " fill-opacity="1" fill-rule="nonzero"/><path fill="#ffffff" d="M 142.84375 128.019531 C 142.679688 126.875 141.660156 126.289062 141.433594 126.382812 C 141.234375 126.46875 141.789062 126.789062 142.042969 128.121094 C 142.25 129.214844 141.78125 130.058594 141.941406 130.109375 C 142.210938 130.191406 143.046875 129.394531 142.84375 128.019531 " fill-opacity="1" fill-rule="nonzero"/><path fill="#eaf8f9" d="M 126.125 146.601562 C 125.359375 146.601562 124.652344 146.113281 124.40625 145.351562 C 124.105469 144.402344 124.632812 143.386719 125.582031 143.085938 C 125.765625 143.027344 125.953125 142.996094 126.136719 142.996094 C 126.898438 142.996094 127.609375 143.484375 127.851562 144.25 C 128.15625 145.199219 127.628906 146.210938 126.675781 146.515625 C 126.492188 146.574219 126.308594 146.601562 126.125 146.601562 " fill-opacity="1" fill-rule="nonzero"/><path fill="#ffffff" d="M 127.609375 144.515625 C 127.484375 143.65625 126.71875 143.214844 126.550781 143.289062 C 126.402344 143.351562 126.816406 143.589844 127.007812 144.589844 C 127.164062 145.414062 126.8125 146.046875 126.933594 146.082031 C 127.136719 146.144531 127.761719 145.546875 127.609375 144.515625 " fill-opacity="1" fill-rule="nonzero"/><path fill="#f4fbfc" d="M 151.582031 165.628906 C 150.757812 165.628906 150.003906 165.066406 149.796875 164.230469 C 149.550781 163.242188 150.152344 162.242188 151.140625 161.996094 C 151.289062 161.960938 151.4375 161.941406 151.585938 161.941406 C 152.410156 161.941406 153.164062 162.503906 153.371094 163.34375 C 153.617188 164.328125 153.015625 165.328125 152.027344 165.574219 C 151.878906 165.609375 151.730469 165.628906 151.582031 165.628906 " fill-opacity="1" fill-rule="nonzero"/><path fill="#ffffff" d="M 153.117188 163.65625 C 153.039062 162.820312 152.386719 162.332031 152.234375 162.386719 C 152.101562 162.433594 152.457031 162.703125 152.589844 163.679688 C 152.699219 164.484375 152.367188 165.058594 152.472656 165.105469 C 152.648438 165.183594 153.214844 164.660156 153.117188 163.65625 " fill-opacity="1" fill-rule="nonzero"/><path fill="#f4fbfc" d="M 134.753906 158.542969 C 133.890625 158.542969 133.121094 157.933594 132.949219 157.054688 C 132.753906 156.054688 133.40625 155.085938 134.402344 154.890625 C 134.523438 154.867188 134.640625 154.859375 134.757812 154.859375 C 135.621094 154.859375 136.390625 155.46875 136.5625 156.347656 C 136.757812 157.347656 136.105469 158.3125 135.109375 158.507812 C 134.988281 158.53125 134.871094 158.542969 134.753906 158.542969 " fill-opacity="1" fill-rule="nonzero"/><path fill="#ffffff" d="M 136.296875 156.648438 C 136.257812 155.8125 135.628906 155.289062 135.476562 155.335938 C 135.339844 155.378906 135.683594 155.664062 135.765625 156.644531 C 135.835938 157.453125 135.476562 158.011719 135.578125 158.0625 C 135.746094 158.152344 136.339844 157.660156 136.296875 156.648438 " fill-opacity="1" fill-rule="nonzero"/><path fill="#f4fbfc" d="M 148.882812 143.871094 C 148.074219 143.871094 147.332031 143.335938 147.105469 142.515625 C 146.839844 141.535156 147.414062 140.519531 148.398438 140.253906 C 148.558594 140.207031 148.722656 140.1875 148.882812 140.1875 C 149.695312 140.1875 150.433594 140.722656 150.660156 141.542969 C 150.929688 142.523438 150.351562 143.539062 149.371094 143.804688 C 149.207031 143.851562 149.042969 143.871094 148.882812 143.871094 " fill-opacity="1" fill-rule="nonzero"/><path fill="#ffffff" d="M 150.414062 141.863281 C 150.316406 141.03125 149.648438 140.558594 149.5 140.617188 C 149.367188 140.667969 149.730469 140.925781 149.886719 141.898438 C 150.015625 142.699219 149.699219 143.285156 149.804688 143.328125 C 149.980469 143.402344 150.535156 142.867188 150.414062 141.863281 " fill-opacity="1" fill-rule="nonzero"/><path fill="#f4fbfc" d="M 165.851562 162.566406 C 165.753906 162.566406 165.65625 162.5625 165.558594 162.554688 C 163.824219 162.417969 162.902344 160.691406 162.992188 159.480469 C 163.074219 158.375 163.941406 157.035156 165.804688 157.035156 C 165.863281 157.035156 165.921875 157.039062 165.980469 157.039062 C 167.71875 157.117188 168.691406 158.59375 168.574219 160.117188 C 168.464844 161.550781 167.421875 162.566406 165.851562 162.566406 " fill-opacity="1" fill-rule="nonzero"/><path fill="#ffffff" d="M 168.164062 159.777344 C 168.125 158.574219 167.230469 157.816406 167.007812 157.878906 C 166.816406 157.9375 167.300781 158.351562 167.402344 159.761719 C 167.488281 160.921875 166.964844 161.71875 167.109375 161.792969 C 167.351562 161.921875 168.210938 161.226562 168.164062 159.777344 " fill-opacity="1" fill-rule="nonzero"/><path fill="#f4fbfc" d="M 139.359375 147.574219 C 137.808594 147.574219 136.707031 146.183594 136.5625 145.054688 C 136.417969 143.925781 137.035156 142.378906 139 142.066406 C 139.160156 142.039062 139.316406 142.027344 139.46875 142.027344 C 140.941406 142.027344 141.984375 143.1875 142.15625 144.558594 C 142.347656 146.074219 141.414062 147.335938 139.691406 147.550781 C 139.578125 147.566406 139.46875 147.574219 139.359375 147.574219 " fill-opacity="1" fill-rule="nonzero"/><path fill="#ffffff" d="M 141.6875 144.308594 C 141.40625 143.136719 140.378906 142.574219 140.175781 142.679688 C 140 142.777344 140.554688 143.085938 140.941406 144.445312 C 141.253906 145.566406 140.902344 146.453125 141.058594 146.496094 C 141.324219 146.574219 142.023438 145.71875 141.6875 144.308594 " fill-opacity="1" fill-rule="nonzero"/><path fill="#fbce25" d="M 194.976562 250.4375 C 193.566406 250.1875 195.183594 246.136719 194.976562 244.355469 C 194.769531 242.574219 193.945312 240.789062 194.617188 238.484375 C 195.285156 236.175781 195.710938 234.078125 195.496094 232.925781 C 195.285156 231.773438 197.453125 231.980469 197.246094 233.765625 C 197.039062 235.546875 197.246094 237.75 196.625 239.425781 C 196.007812 241.105469 197.375 243.726562 197.257812 245.71875 C 197.140625 247.710938 195.847656 250.589844 194.976562 250.4375 " fill-opacity="1" fill-rule="nonzero"/><path fill="#fbce25" d="M 247.15625 236.011719 C 245.984375 236.402344 245.332031 235.335938 243.683594 234.394531 C 242.03125 233.449219 240.140625 232.714844 239.109375 230.410156 C 238.078125 228.101562 236.976562 227.550781 234.191406 226.566406 C 231.410156 225.585938 231.097656 223.070312 231.097656 223.070312 L 232.027344 222.203125 C 232.027344 222.203125 232.75 223.800781 234.710938 224.640625 C 236.667969 225.480469 238.628906 225.898438 240.277344 228.3125 C 241.929688 230.722656 242.03125 231.980469 244.917969 232.714844 C 247.808594 233.449219 248.183594 235.667969 247.15625 236.011719 " fill-opacity="1" fill-rule="nonzero"/><path fill="#fbce25" d="M 228.003906 244.984375 C 226.804688 245.289062 226.457031 242.46875 225.734375 240.054688 C 225.011719 237.644531 222.433594 236.492188 221.609375 234.183594 C 220.785156 231.875 219.167969 227.546875 218.445312 226.671875 C 217.722656 225.792969 220.578125 225.480469 220.578125 225.480469 C 220.578125 225.480469 221.9375 228.3125 223.011719 231.140625 C 224.085938 233.972656 224.394531 234.8125 226.457031 236.910156 C 228.519531 239.007812 229.652344 244.566406 228.003906 244.984375 " fill-opacity="1" fill-rule="nonzero"/><path fill="#fbce25" d="M 227.054688 245.285156 C 225.742188 246.351562 225.128906 243.800781 224.613281 240.863281 C 224.097656 237.929688 222.757812 236.355469 221.3125 234.78125 C 219.867188 233.210938 217.804688 230.167969 217.183594 227.441406 C 216.566406 224.714844 218.761719 225.867188 218.761719 225.867188 C 218.761719 225.867188 219.195312 229.816406 221.828125 232.246094 C 224.460938 234.671875 225.539062 236.71875 226.367188 238.816406 C 227.191406 240.914062 228.085938 244.449219 227.054688 245.285156 " fill-opacity="1" fill-rule="nonzero"/><path fill="#fbce25" d="M 252.035156 231.402344 C 251.554688 232.0625 249.648438 231.804688 247.585938 229.710938 C 245.519531 227.613281 244.714844 226.003906 241.929688 224.851562 C 239.144531 223.699219 235.429688 223.277344 233.367188 221.179688 C 231.304688 219.082031 234.503906 219.609375 234.503906 219.609375 C 234.503906 219.609375 236.261719 220.867188 238.628906 221.601562 C 241 222.335938 244.300781 223.277344 246.363281 225.480469 C 248.425781 227.683594 247.832031 228.023438 250.101562 228.800781 C 252.371094 229.578125 252.398438 230.90625 252.035156 231.402344 " fill-opacity="1" fill-rule="nonzero"/><path fill="#fbce25" d="M 253.273438 223.976562 C 252.910156 224.847656 251.3125 224.640625 250.453125 223.976562 C 249.59375 223.3125 248.324219 221.460938 246.398438 220.515625 C 244.472656 219.574219 239.140625 219.816406 237.011719 218.59375 C 234.878906 217.371094 236.5625 216.429688 236.5625 216.429688 C 236.5625 216.429688 238.328125 217.050781 242.097656 217.265625 C 244.710938 217.417969 247.121094 218.351562 248.941406 219.78125 C 250.761719 221.214844 253.859375 222.578125 253.273438 223.976562 " fill-opacity="1" fill-rule="nonzero"/><path fill="#fbce25" d="M 206.816406 250.507812 C 205.082031 250.675781 206.054688 247.464844 206.273438 245.367188 C 206.492188 243.269531 205.1875 241.523438 203.9375 240.332031 C 202.683594 239.144531 201.597656 235.511719 202.25 232.785156 C 202.902344 230.058594 204.894531 231.4375 204.894531 231.4375 C 204.894531 231.4375 203.972656 237.855469 205.222656 238.933594 C 206.476562 240.007812 207.578125 240.753906 207.742188 243.617188 C 207.90625 246.484375 208.609375 250.332031 206.816406 250.507812 " fill-opacity="1" fill-rule="nonzero"/><path fill="#fbce25" d="M 214.410156 249.84375 C 213.238281 250.519531 212.207031 248.863281 212 246.558594 C 211.796875 244.25 210.28125 241.3125 210.421875 239.636719 C 210.558594 237.957031 209.734375 233.625 208.496094 231.878906 C 207.257812 230.128906 210.421875 229.710938 210.421875 229.710938 C 210.421875 229.710938 212.140625 233.363281 212.621094 236.011719 C 213.101562 238.65625 212.414062 239.515625 213.238281 241.359375 C 214.066406 243.203125 216.011719 248.910156 214.410156 249.84375 " fill-opacity="1" fill-rule="nonzero"/><path fill="#fbce25" d="M 198.265625 250.515625 C 196.414062 250.6875 196.753906 247.117188 197.785156 244.53125 C 198.816406 241.941406 198.316406 240.277344 197.601562 238.070312 C 196.890625 235.859375 197.65625 232.207031 197.65625 232.207031 L 199.570312 232.207031 C 199.570312 232.207031 198.953125 234.953125 199.570312 236.769531 C 200.191406 238.585938 201.152344 240.964844 200.121094 244.109375 C 199.089844 247.257812 200.050781 250.347656 198.265625 250.515625 " fill-opacity="1" fill-rule="nonzero"/><path fill="#fbce25" d="M 237.976562 241.363281 C 236.628906 242.039062 235.21875 240.300781 234.957031 237.019531 C 234.691406 233.742188 232.628906 232.449219 231.410156 231.332031 C 228.5 228.671875 227.464844 224.847656 227.464844 224.847656 L 229.175781 223.707031 C 229.175781 223.707031 230.542969 227.789062 232.289062 229.128906 C 234.035156 230.464844 235.613281 231.867188 236.335938 234.007812 C 237.058594 236.152344 239.421875 240.644531 237.976562 241.363281 " fill-opacity="1" fill-rule="nonzero"/><path fill="#fbce25" d="M 186.230469 247.117188 C 184.628906 247.007812 186.371094 242.941406 187.8125 241.359375 C 189.257812 239.777344 190.355469 237.976562 190.976562 236.011719 C 191.59375 234.042969 193.175781 231.109375 193.175781 231.109375 L 194.621094 231.878906 C 194.621094 231.878906 192.832031 235.652344 192.214844 237.398438 C 191.59375 239.148438 191.097656 241.523438 189.832031 243.269531 C 188.570312 245.019531 187.261719 247.1875 186.230469 247.117188 " fill-opacity="1" fill-rule="nonzero"/><path fill="#fbce25" d="M 185.59375 235.84375 C 184.582031 237.613281 185.335938 238.953125 184.582031 240.539062 C 183.824219 242.125 182.378906 244.476562 183.480469 245.328125 C 184.582031 246.179688 184.925781 243.875 185.957031 242.894531 C 186.988281 241.914062 186.78125 240.585938 187.058594 239.050781 C 187.332031 237.511719 188.550781 236.222656 189.832031 235.503906 C 191.113281 234.785156 192.488281 231.289062 192.488281 231.289062 L 191.25 229.710938 C 191.25 229.710938 189.667969 232.339844 188.429688 233.597656 C 187.195312 234.855469 186.261719 234.671875 185.59375 235.84375 " fill-opacity="1" fill-rule="nonzero"/><path fill="#fbce25" d="M 180.9375 241.941406 C 179.605469 241.222656 181.28125 238.980469 182.585938 238.070312 C 183.894531 237.160156 184.332031 234.253906 185.59375 233.484375 C 186.851562 232.714844 190.105469 229.109375 190.105469 229.109375 L 191.527344 230.828125 C 191.527344 230.828125 189.371094 233.484375 187.261719 234.902344 C 185.15625 236.320312 185.476562 238.167969 184.167969 239.566406 C 182.863281 240.964844 181.96875 242.503906 180.9375 241.941406 " fill-opacity="1" fill-rule="nonzero"/><path fill="#fbce25" d="M 189.121094 247.816406 C 187.902344 248.0625 188.480469 245.789062 189.832031 244.25 C 191.183594 242.710938 191.046875 239.777344 191.527344 237.609375 C 192.007812 235.441406 193.761719 232.574219 193.761719 232.574219 L 194.945312 233.28125 C 194.945312 233.28125 193.382812 236.433594 193.246094 238.070312 C 193.105469 239.707031 193.039062 241.453125 192.488281 243.621094 C 191.9375 245.789062 190.496094 247.535156 189.121094 247.816406 " fill-opacity="1" fill-rule="nonzero"/><path fill="#fbce25" d="M 202.09375 250.164062 C 200.859375 250.296875 200.71875 248.515625 200.648438 246.558594 C 200.578125 244.597656 201.542969 242.851562 201.0625 241.101562 C 200.578125 239.355469 199.136719 237.542969 199.136719 235.582031 C 199.136719 233.625 199.617188 232.207031 199.617188 232.207031 L 201.609375 232.574219 C 201.609375 232.574219 200.785156 235.023438 201.75 237.328125 C 202.710938 239.636719 203.125 240.824219 203.261719 243.410156 C 203.398438 245.996094 203.675781 250 202.09375 250.164062 " fill-opacity="1" fill-rule="nonzero"/><path fill="#fbce25" d="M 209.046875 250.6875 C 207.816406 250.828125 207.671875 248.898438 207.601562 246.773438 C 207.535156 244.652344 208.496094 242.757812 208.015625 240.863281 C 207.535156 238.96875 206.089844 237.003906 206.089844 234.878906 C 206.089844 232.753906 206.570312 231.21875 206.570312 231.21875 L 208.566406 231.617188 C 208.566406 231.617188 207.738281 234.273438 208.703125 236.773438 C 209.664062 239.273438 210.078125 240.5625 210.214844 243.363281 C 210.351562 246.167969 210.628906 250.507812 209.046875 250.6875 " fill-opacity="1" fill-rule="nonzero"/><path fill="#fbce25" d="M 218.988281 248.652344 C 217.953125 249.542969 216.433594 246.414062 216.265625 244.910156 C 216.101562 243.410156 216.082031 241.164062 214.820312 239.113281 C 213.5625 237.0625 212.328125 236.808594 211.703125 234.902344 C 211.082031 232.996094 210.253906 231.109375 210.253906 231.109375 L 212.800781 228.671875 C 212.800781 228.671875 212.9375 233.871094 214.039062 234.902344 C 215.136719 235.929688 217.269531 238.621094 217.886719 241.191406 C 218.507812 243.761719 220.777344 247.117188 218.988281 248.652344 " fill-opacity="1" fill-rule="nonzero"/><path fill="#fbce25" d="M 222.820312 246.980469 C 221.375 247.558594 220.984375 244.886719 220.421875 242.4375 C 219.863281 239.992188 217.664062 238.457031 216.5625 236.359375 C 215.464844 234.257812 213.261719 231.589844 211.953125 230.023438 C 210.648438 228.457031 214.71875 228.105469 214.71875 228.105469 C 214.71875 228.105469 215.296875 230.207031 217.074219 233.285156 C 218.855469 236.359375 221.058594 238.472656 222.25 240.980469 C 223.441406 243.488281 224.402344 246.351562 222.820312 246.980469 " fill-opacity="1" fill-rule="nonzero"/><path fill="#fbce25" d="M 233.8125 243.339844 C 232.652344 243.75 231.40625 241.175781 231.613281 239.113281 C 231.820312 237.050781 230.21875 234.464844 228.980469 233.132812 C 227.742188 231.808594 226.171875 230.613281 225.292969 228.660156 C 224.410156 226.707031 224.324219 225.167969 224.324219 225.167969 L 226.386719 224.554688 C 226.386719 224.554688 226.664062 227.890625 228.792969 229.710938 C 230.925781 231.527344 233.460938 234.394531 233.570312 236.699219 C 233.675781 239.007812 235.394531 242.78125 233.8125 243.339844 " fill-opacity="1" fill-rule="nonzero"/><path fill="#fbce25" d="M 242.695312 238.308594 C 241.789062 239.609375 239.730469 237.492188 238.628906 235.242188 C 237.527344 232.996094 237.234375 230.660156 235.328125 229.710938 C 233.421875 228.757812 229.621094 226.089844 229.070312 223.703125 C 228.519531 221.320312 230.71875 221.667969 230.71875 221.667969 C 230.71875 221.667969 230.871094 225.066406 233.570312 226.300781 C 236.269531 227.535156 238.238281 229.21875 239.738281 232.925781 C 241.242188 236.628906 243.8125 236.699219 242.695312 238.308594 " fill-opacity="1" fill-rule="nonzero"/><path fill="#fbce25" d="M 253.347656 227.402344 C 253.355469 229.359375 250.730469 228.730469 249.078125 227.121094 C 247.429688 225.515625 245.386719 223.050781 243.785156 222.929688 C 242.179688 222.808594 237.800781 221.53125 236.566406 219.992188 C 235.328125 218.453125 237.734375 217.839844 237.734375 217.839844 C 237.734375 217.839844 239.933594 220.359375 241.925781 220.492188 C 243.921875 220.621094 245.945312 221.519531 248.1875 223.703125 C 250.535156 225.992188 253.339844 225.992188 253.347656 227.402344 " fill-opacity="1" fill-rule="nonzero"/><path fill="#fbce25" d="M 249.492188 233.34375 C 248.828125 234.632812 244.539062 232.296875 243.578125 230.410156 C 242.617188 228.523438 241.535156 226.765625 239.039062 226.074219 C 236.542969 225.382812 233.058594 224.398438 232.097656 221.25 C 231.132812 218.105469 233.265625 220.492188 233.265625 220.492188 C 233.265625 220.492188 235.722656 223.488281 239.511719 224.257812 C 243.304688 225.027344 243.785156 228.03125 245.847656 229.710938 C 247.910156 231.386719 250.25 231.875 249.492188 233.34375 " fill-opacity="1" fill-rule="nonzero"/><path fill="#fbce25" d="M 231.078125 244.039062 C 230.019531 244.613281 228.792969 241.246094 228.382812 239.113281 C 227.96875 236.980469 226.53125 236.035156 225.289062 234.167969 C 224.050781 232.296875 221.78125 226.570312 221.78125 226.570312 L 223.890625 225.480469 C 223.890625 225.480469 224.460938 229.640625 226.664062 232.574219 C 228.863281 235.511719 229.414062 235.734375 230.101562 238.070312 C 230.789062 240.40625 232.25 243.410156 231.078125 244.039062 " fill-opacity="1" fill-rule="nonzero"/><path fill="#fbce25" d="M 205.828125 231.726562 C 205.828125 231.726562 207.617188 234.75 207.546875 236.980469 C 207.480469 239.214844 205.632812 241.859375 205.828125 244.390625 C 206.027344 246.917969 205.707031 249.992188 204.742188 250.171875 C 202.871094 250.519531 203.257812 245.464844 203.902344 243.410156 C 204.550781 241.355469 205.566406 238.410156 205.59375 236.402344 C 205.621094 234.394531 204.011719 231.808594 204.011719 231.808594 L 205.828125 231.726562 " fill-opacity="1" fill-rule="nonzero"/><path fill="#fbce25" d="M 191.527344 249.214844 C 190.527344 248.773438 192.214844 245.300781 192.144531 243.132812 C 192.078125 240.964844 191.867188 236.757812 192.488281 235.242188 C 193.109375 233.730469 194.621094 231.109375 194.621094 231.109375 L 195.996094 231.402344 C 195.996094 231.402344 194.328125 234.222656 194.269531 237.59375 C 194.207031 240.964844 194.347656 243.480469 193.761719 245.300781 C 193.175781 247.117188 193.105469 249.910156 191.527344 249.214844 " fill-opacity="1" fill-rule="nonzero"/><path fill="#f9ed34" d="M 193.054688 251.527344 C 191.519531 251.261719 193.28125 246.910156 193.054688 244.996094 C 192.832031 243.082031 191.933594 241.167969 192.664062 238.691406 C 193.394531 236.214844 193.859375 233.964844 193.625 232.726562 C 193.394531 231.488281 195.757812 231.710938 195.53125 233.625 C 195.308594 235.539062 195.53125 237.90625 194.855469 239.707031 C 194.183594 241.507812 195.675781 244.320312 195.546875 246.460938 C 195.417969 248.601562 194.007812 251.691406 193.054688 251.527344 " fill-opacity="1" fill-rule="nonzero"/><path fill="#f9ed34" d="M 249.972656 236.039062 C 248.699219 236.457031 247.988281 235.316406 246.1875 234.300781 C 244.386719 233.289062 242.324219 232.5 241.199219 230.023438 C 240.074219 227.546875 238.875 226.957031 235.835938 225.898438 C 232.796875 224.84375 232.460938 222.144531 232.460938 222.144531 L 233.472656 221.214844 C 233.472656 221.214844 234.261719 222.929688 236.398438 223.832031 C 238.535156 224.730469 240.671875 225.183594 242.472656 227.773438 C 244.273438 230.359375 244.386719 231.710938 247.535156 232.5 C 250.6875 233.289062 251.097656 235.667969 249.972656 236.039062 " fill-opacity="1" fill-rule="nonzero"/><path fill="#f9ed34" d="M 229.085938 245.671875 C 227.773438 246 227.398438 242.96875 226.609375 240.382812 C 225.824219 237.792969 223.007812 236.554688 222.109375 234.078125 C 221.210938 231.601562 220.195312 226.84375 219.410156 225.898438 C 218.621094 224.957031 220.984375 224.730469 220.984375 224.730469 C 220.984375 224.730469 222.46875 227.773438 223.640625 230.8125 C 224.808594 233.851562 225.148438 234.75 227.398438 237.003906 C 229.648438 239.253906 230.886719 245.222656 229.085938 245.671875 " fill-opacity="1" fill-rule="nonzero"/><path fill="#f9ed34" d="M 221.398438 248.730469 C 219.964844 249.878906 219.296875 247.136719 218.734375 243.984375 C 218.171875 240.832031 216.707031 239.140625 215.132812 237.453125 C 213.558594 235.765625 211.308594 232.5 210.632812 229.574219 C 209.957031 226.644531 212.351562 227.882812 212.351562 227.882812 C 212.351562 227.882812 212.824219 232.125 215.695312 234.730469 C 218.570312 237.335938 219.746094 239.535156 220.644531 241.785156 C 221.546875 244.039062 222.523438 247.832031 221.398438 248.730469 " fill-opacity="1" fill-rule="nonzero"/><path fill="#f9ed34" d="M 255.300781 231.089844 C 254.773438 231.800781 252.691406 231.523438 250.441406 229.273438 C 248.191406 227.019531 247.3125 225.292969 244.273438 224.054688 C 241.238281 222.816406 237.1875 222.367188 234.933594 220.117188 C 232.683594 217.863281 236.171875 218.425781 236.171875 218.425781 C 236.171875 218.425781 238.089844 219.777344 240.675781 220.566406 C 243.261719 221.355469 246.863281 222.367188 249.113281 224.730469 C 251.363281 227.097656 250.714844 227.464844 253.1875 228.296875 C 255.664062 229.132812 255.695312 230.558594 255.300781 231.089844 " fill-opacity="1" fill-rule="nonzero"/><g clip-path="url(#cb2fde6a8c)"><path fill="#f9ed34" d="M 256.648438 223.117188 C 256.253906 224.050781 254.511719 223.832031 253.574219 223.117188 C 252.636719 222.40625 251.25 220.417969 249.148438 219.402344 C 247.046875 218.390625 241.234375 218.652344 238.910156 217.339844 C 236.585938 216.027344 238.421875 215.011719 238.421875 215.011719 C 238.421875 215.011719 240.347656 215.679688 244.460938 215.914062 C 247.308594 216.074219 249.9375 217.074219 251.921875 218.613281 C 253.910156 220.152344 257.289062 221.617188 256.648438 223.117188 " fill-opacity="1" fill-rule="nonzero"/></g><path fill="#f9ed34" d="M 206.714844 251.601562 C 204.550781 251.78125 205.765625 248.335938 206.035156 246.085938 C 206.308594 243.832031 204.679688 241.957031 203.125 240.679688 C 201.5625 239.402344 200.210938 235.5 201.023438 232.574219 C 201.835938 229.648438 202.511719 231.953125 202.511719 231.953125 C 202.511719 231.953125 202.511719 237.089844 204.070312 238.246094 C 205.628906 239.402344 207.664062 241.128906 207.867188 244.207031 C 208.070312 247.285156 208.949219 251.417969 206.714844 251.601562 " fill-opacity="1" fill-rule="nonzero"/><path fill="#f9ed34" d="M 212.769531 250.890625 C 211.496094 251.617188 210.371094 249.839844 210.144531 247.359375 C 209.921875 244.882812 208.269531 241.730469 208.421875 239.929688 C 208.570312 238.128906 207.671875 233.476562 206.320312 231.601562 C 204.96875 229.722656 208.421875 229.273438 208.421875 229.273438 C 208.421875 229.273438 210.296875 233.199219 210.820312 236.039062 C 211.347656 238.878906 210.59375 239.800781 211.496094 241.78125 C 212.394531 243.757812 214.519531 249.890625 212.769531 250.890625 " fill-opacity="1" fill-rule="nonzero"/><path fill="#f9ed34" d="M 196.644531 251.609375 C 194.625 251.796875 194.996094 247.960938 196.117188 245.183594 C 197.242188 242.40625 196.699219 240.621094 195.921875 238.25 C 195.144531 235.878906 195.980469 231.957031 195.980469 231.957031 L 198.070312 231.957031 C 198.070312 231.957031 197.394531 234.902344 198.070312 236.855469 C 198.746094 238.804688 199.792969 241.355469 198.667969 244.734375 C 197.542969 248.113281 198.59375 251.433594 196.644531 251.609375 " fill-opacity="1" fill-rule="nonzero"/><path fill="#f9ed34" d="M 239.964844 241.785156 C 238.496094 242.511719 236.953125 240.640625 236.667969 237.121094 C 236.382812 233.601562 234.230469 232.09375 232.796875 231.015625 C 231.363281 229.9375 228.5 224.054688 228.5 224.054688 L 230.363281 222.824219 C 230.363281 222.824219 231.855469 227.210938 233.761719 228.648438 C 235.664062 230.082031 237.382812 231.589844 238.171875 233.890625 C 238.960938 236.1875 241.539062 241.011719 239.964844 241.785156 " fill-opacity="1" fill-rule="nonzero"/><path fill="#f9ed34" d="M 183.519531 247.960938 C 181.769531 247.84375 183.667969 243.480469 185.242188 241.78125 C 186.816406 240.082031 188.019531 238.152344 188.691406 236.039062 C 189.367188 233.925781 191.09375 230.773438 191.09375 230.773438 L 192.667969 231.601562 C 192.667969 231.601562 190.71875 235.652344 190.042969 237.527344 C 189.367188 239.40625 188.824219 241.957031 187.445312 243.832031 C 186.066406 245.710938 184.644531 248.039062 183.519531 247.960938 " fill-opacity="1" fill-rule="nonzero"/><path fill="#f9ed34" d="M 182.820312 235.859375 C 181.71875 237.757812 182.542969 239.199219 181.71875 240.902344 C 180.890625 242.605469 179.316406 245.128906 180.515625 246.042969 C 181.71875 246.957031 182.09375 244.480469 183.21875 243.429688 C 184.34375 242.378906 184.117188 240.953125 184.417969 239.300781 C 184.71875 237.648438 186.046875 236.265625 187.445312 235.492188 C 188.84375 234.722656 190.34375 230.96875 190.34375 230.96875 L 188.992188 229.273438 C 188.992188 229.273438 187.269531 232.097656 185.917969 233.449219 C 184.566406 234.796875 183.554688 234.601562 182.820312 235.859375 " fill-opacity="1" fill-rule="nonzero"/><path fill="#f9ed34" d="M 177.742188 242.40625 C 176.289062 241.632812 178.117188 239.226562 179.542969 238.25 C 180.96875 237.273438 181.449219 234.152344 182.820312 233.324219 C 184.191406 232.5 187.742188 228.625 187.742188 228.625 L 189.292969 230.472656 C 189.292969 230.472656 186.941406 233.324219 184.644531 234.847656 C 182.34375 236.371094 182.691406 238.355469 181.265625 239.855469 C 179.84375 241.355469 178.867188 243.007812 177.742188 242.40625 " fill-opacity="1" fill-rule="nonzero"/><path fill="#f9ed34" d="M 186.667969 248.710938 C 185.34375 248.976562 185.972656 246.535156 187.445312 244.882812 C 188.917969 243.234375 188.769531 240.082031 189.292969 237.753906 C 189.816406 235.425781 191.734375 232.351562 191.734375 232.351562 L 193.023438 233.105469 C 193.023438 233.105469 191.320312 236.492188 191.167969 238.25 C 191.019531 240.003906 190.941406 241.882812 190.34375 244.210938 C 189.742188 246.535156 188.167969 248.414062 186.667969 248.710938 " fill-opacity="1" fill-rule="nonzero"/><path fill="#f9ed34" d="M 200.820312 251.234375 C 199.476562 251.375 199.320312 249.464844 199.246094 247.359375 C 199.167969 245.261719 200.21875 243.382812 199.695312 241.507812 C 199.167969 239.628906 197.59375 237.683594 197.59375 235.578125 C 197.59375 233.476562 198.121094 231.957031 198.121094 231.957031 L 200.292969 232.351562 C 200.292969 232.351562 199.394531 234.976562 200.445312 237.453125 C 201.496094 239.929688 201.945312 241.207031 202.09375 243.984375 C 202.246094 246.761719 202.542969 251.058594 200.820312 251.234375 " fill-opacity="1" fill-rule="nonzero"/><path fill="#f9ed34" d="M 216.894531 249.613281 C 215.765625 250.570312 214.105469 247.207031 213.925781 245.59375 C 213.746094 243.984375 213.722656 241.570312 212.351562 239.367188 C 210.976562 237.167969 209.632812 236.894531 208.949219 234.847656 C 208.269531 232.800781 207.371094 230.773438 207.371094 230.773438 L 208.949219 230.023438 C 208.949219 230.023438 210.296875 233.742188 211.496094 234.847656 C 212.695312 235.953125 215.019531 238.839844 215.695312 241.597656 C 216.371094 244.359375 218.847656 247.960938 216.894531 249.613281 " fill-opacity="1" fill-rule="nonzero"/><path fill="#f9ed34" d="M 225.222656 246.984375 C 223.644531 247.601562 223.214844 244.734375 222.605469 242.105469 C 221.996094 239.480469 219.664062 237.796875 218.394531 235.578125 C 216.695312 232.605469 215.996094 230.304688 214.570312 228.625 C 213.144531 226.945312 217.628906 227.097656 217.628906 227.097656 C 217.628906 227.097656 217.816406 229.496094 219.757812 232.800781 C 221.695312 236.101562 223.300781 237.847656 224.597656 240.539062 C 225.898438 243.234375 226.945312 246.308594 225.222656 246.984375 " fill-opacity="1" fill-rule="nonzero"/><path fill="#f9ed34" d="M 235.421875 243.910156 C 234.15625 244.347656 232.796875 241.582031 233.023438 239.367188 C 233.246094 237.152344 231.5 234.375 230.148438 232.949219 C 228.800781 231.523438 227.085938 230.246094 226.125 228.148438 C 225.164062 226.050781 225.070312 224.394531 225.070312 224.394531 L 227.320312 223.738281 C 227.320312 223.738281 227.621094 227.320312 229.945312 229.273438 C 232.273438 231.222656 235.039062 234.300781 235.15625 236.777344 C 235.273438 239.253906 237.148438 243.308594 235.421875 243.910156 " fill-opacity="1" fill-rule="nonzero"/><path fill="#f9ed34" d="M 245.109375 238.503906 C 244.125 239.902344 241.878906 237.628906 240.675781 235.214844 C 239.472656 232.800781 239.152344 230.292969 237.074219 229.273438 C 234.996094 228.253906 230.847656 225.386719 230.246094 222.824219 C 229.648438 220.265625 232.046875 220.640625 232.046875 220.640625 C 232.046875 220.640625 232.214844 224.289062 235.15625 225.613281 C 238.097656 226.941406 240.246094 228.746094 241.886719 232.726562 C 243.523438 236.703125 246.332031 236.777344 245.109375 238.503906 " fill-opacity="1" fill-rule="nonzero"/><g clip-path="url(#c2604438dc)"><path fill="#f9ed34" d="M 256.726562 226.796875 C 256.738281 228.898438 253.875 228.222656 252.074219 226.496094 C 250.273438 224.769531 248.046875 222.121094 246.296875 221.992188 C 244.550781 221.863281 239.773438 220.492188 238.421875 218.839844 C 237.074219 217.1875 239.699219 216.527344 239.699219 216.527344 C 239.699219 216.527344 242.097656 219.234375 244.273438 219.375 C 246.449219 219.515625 248.652344 220.480469 251.097656 222.824219 C 253.664062 225.285156 256.71875 225.28125 256.726562 226.796875 " fill-opacity="1" fill-rule="nonzero"/></g><path fill="#f9ed34" d="M 252.523438 233.175781 C 251.800781 234.558594 247.125 232.050781 246.074219 230.023438 C 245.023438 227.996094 243.847656 226.113281 241.125 225.371094 C 238.402344 224.625 234.597656 223.566406 233.546875 220.191406 C 232.496094 216.8125 234.824219 219.375 234.824219 219.375 C 234.824219 219.375 237.503906 222.59375 241.640625 223.417969 C 245.773438 224.242188 246.300781 227.472656 248.550781 229.273438 C 250.800781 231.074219 253.351562 231.601562 252.523438 233.175781 " fill-opacity="1" fill-rule="nonzero"/><path fill="#f9ed34" d="M 232.441406 244.660156 C 231.28125 245.273438 229.945312 241.660156 229.496094 239.367188 C 229.046875 237.078125 227.476562 236.066406 226.125 234.058594 C 224.769531 232.050781 222.296875 225.898438 222.296875 225.898438 L 224.597656 224.730469 C 224.597656 224.730469 225.222656 229.199219 227.621094 232.351562 C 230.023438 235.503906 230.621094 235.742188 231.371094 238.25 C 232.121094 240.757812 233.714844 243.984375 232.441406 244.660156 " fill-opacity="1" fill-rule="nonzero"/><path fill="#f9ed34" d="M 204.894531 231.4375 C 204.894531 231.4375 206.84375 234.683594 206.769531 237.082031 C 206.695312 239.480469 204.679688 242.320312 204.894531 245.035156 C 205.109375 247.75 204.761719 251.050781 203.710938 251.242188 C 201.667969 251.617188 202.089844 246.1875 202.796875 243.984375 C 203.5 241.777344 204.609375 238.617188 204.640625 236.457031 C 204.671875 234.300781 202.914062 231.527344 202.914062 231.527344 L 204.894531 231.4375 " fill-opacity="1" fill-rule="nonzero"/><path fill="#f9ed34" d="M 189.292969 250.214844 C 188.207031 249.742188 190.042969 246.011719 189.96875 243.683594 C 189.894531 241.355469 189.664062 236.839844 190.34375 235.214844 C 191.023438 233.585938 192.667969 230.773438 192.667969 230.773438 L 194.167969 231.089844 C 194.167969 231.089844 192.351562 234.117188 192.285156 237.738281 C 192.21875 241.355469 192.371094 244.058594 191.734375 246.011719 C 191.09375 247.960938 191.019531 250.964844 189.292969 250.214844 " fill-opacity="1" fill-rule="nonzero"/><path fill="#2a89c7" d="M 219.972656 227.996094 C 205.125 233.410156 196.117188 235.316406 193.53125 234.75 C 190.945312 234.1875 187.230469 230.921875 187.457031 227.996094 C 187.679688 225.070312 198.21875 220.046875 210.109375 216.421875 C 221.996094 212.796875 229.535156 210.320312 233.136719 210.882812 C 236.734375 211.445312 241.472656 215.28125 240.5625 217.414062 C 239.546875 219.777344 234.484375 222.707031 219.972656 227.996094 " fill-opacity="1" fill-rule="nonzero"/><path fill="#39bfec" d="M 216.636719 223.101562 C 211.085938 225.117188 207.722656 226.117188 206.773438 225.859375 C 205.824219 225.605469 204.101562 223.804688 204.21875 222.628906 C 204.339844 221.453125 208.175781 219.792969 212.929688 218.265625 C 217.285156 216.863281 219.523438 216.25 220.925781 216.644531 C 222.222656 217.011719 223.953125 218.507812 223.589844 219.355469 C 223.1875 220.292969 222.0625 221.132812 216.636719 223.101562 " fill-opacity="1" fill-rule="nonzero"/><path fill="#7d7e7f" d="M 212.527344 221.65625 L 215.566406 220.613281 C 215.871094 220.507812 216.035156 220.171875 215.929688 219.863281 L 174.167969 98.316406 C 174.0625 98.011719 173.726562 97.847656 173.421875 97.953125 L 170.382812 98.996094 C 170.078125 99.101562 169.914062 99.4375 170.019531 99.746094 L 211.78125 221.292969 C 211.886719 221.597656 212.222656 221.761719 212.527344 221.65625 " fill-opacity="1" fill-rule="nonzero"/><path fill="#39bfec" d="M 207.324219 209.511719 C 207.933594 209.875 208.9375 209.539062 209.945312 209.195312 C 210.976562 208.847656 212.015625 208.484375 212.277344 207.808594 C 212.5 207.230469 212.183594 206.171875 211.8125 205.128906 C 211.464844 204.140625 211.082031 203.160156 210.574219 202.859375 C 209.960938 202.488281 208.9375 202.835938 207.917969 203.1875 C 206.898438 203.535156 205.882812 203.890625 205.625 204.5625 C 205.410156 205.109375 205.699219 206.085938 206.03125 207.082031 C 206.378906 208.132812 206.792969 209.191406 207.324219 209.511719 " fill-opacity="1" fill-rule="nonzero"/><path fill="#2a89c7" d="M 169.925781 102.363281 L 176.195312 100.207031 C 176.683594 100.039062 176.945312 99.5 176.777344 99.011719 L 168.421875 74.6875 C 168.253906 74.199219 167.714844 73.9375 167.226562 74.105469 L 160.960938 76.261719 C 160.472656 76.429688 160.207031 76.96875 160.375 77.453125 L 168.734375 101.78125 C 168.902344 102.269531 169.4375 102.53125 169.925781 102.363281 " fill-opacity="1" fill-rule="nonzero"/></svg>