<svg xmlns="http://www.w3.org/2000/svg" xmlns:xlink="http://www.w3.org/1999/xlink" width="500" zoomAndPan="magnify" viewBox="0 0 375 374.999991" height="500" preserveAspectRatio="xMidYMid meet" version="1.0"><defs><clipPath id="ffe6ff26b0"><path d="M 37.5 56 L 337 56 L 337 328.128906 L 37.5 328.128906 Z M 37.5 56 " clip-rule="nonzero"/></clipPath><clipPath id="1e8de05320"><path d="M 37.5 70 L 284 70 L 284 328.128906 L 37.5 328.128906 Z M 37.5 70 " clip-rule="nonzero"/></clipPath></defs><g clip-path="url(#ffe6ff26b0)"><path fill="#3a4a92" d="M 331.351562 60.484375 C 327.765625 57.1875 322.289062 55.859375 315.078125 56.539062 L 183.652344 56.539062 C 179.347656 56.539062 175.722656 58.054688 172.871094 61.050781 C 168.632812 65.507812 166.878906 72.5 166.152344 77.585938 C 165.859375 79.648438 165.707031 81.570312 165.628906 83.171875 C 160.851562 90.777344 159.835938 100.550781 163.78125 109.367188 C 164.3125 110.546875 164.917969 111.667969 165.585938 112.738281 L 165.585938 127.765625 L 161.8125 134.167969 C 159.429688 134.777344 155.75 136.503906 152.957031 137.917969 L 152.921875 137.933594 L 152.886719 137.953125 C 152.851562 137.96875 152.828125 137.996094 152.800781 138.023438 C 152.03125 137.179688 151.429688 136.75 151.128906 136.90625 L 151.105469 136.867188 L 125.6875 151.777344 L 109.726562 123.734375 C 108.101562 121.328125 105.554688 119.941406 102.886719 119.699219 L 102.878906 119.648438 L 98.183594 118.980469 L 98.792969 113.152344 C 99.773438 113.273438 100.667969 113.210938 101.40625 112.964844 C 104.21875 112.042969 104.140625 106.464844 104.09375 105.304688 C 104.375 105.03125 104.820312 104.5 104.816406 103.867188 C 104.816406 103.5 104.652344 103.167969 104.34375 102.921875 C 103.859375 102.527344 103.410156 101.578125 103.25 101.175781 C 103.035156 98.222656 102.582031 95.820312 101.910156 94.039062 C 101.863281 93.917969 101.757812 93.832031 101.636719 93.792969 C 101.640625 93 100.914062 91.449219 100.714844 91.085938 C 100.171875 90.109375 99.378906 89.265625 98.472656 88.617188 C 96.164062 86.960938 93.164062 86.3125 90.371094 86.808594 C 90.363281 86.808594 90.355469 86.8125 90.347656 86.8125 C 89.886719 85.640625 89.058594 84.601562 88.046875 83.835938 C 86.488281 82.660156 84.449219 82.042969 82.511719 82.40625 C 79.90625 82.894531 77.632812 85.09375 77.609375 87.84375 C 77.59375 89.550781 78.425781 91.144531 79.378906 92.558594 C 79.925781 93.371094 80.550781 94.164062 81.390625 94.664062 C 80.679688 96.125 80.132812 97.660156 79.859375 99.15625 C 79.078125 103.449219 81.140625 110.035156 85.886719 111.304688 C 85.886719 111.320312 85.875 111.332031 85.875 111.351562 L 85.09375 118.488281 C 80.632812 118.953125 76.246094 120.070312 72.085938 121.84375 C 72.078125 121.847656 72.066406 121.851562 72.054688 121.855469 C 71.019531 122.296875 70.21875 123.117188 69.761719 124.113281 C 69.761719 124.113281 67.570312 127.464844 59.011719 154.671875 C 58.738281 155.542969 58.578125 156.363281 58.507812 157.136719 L 58.394531 157.148438 L 52.753906 194.894531 C 52.742188 194.921875 52.722656 194.949219 52.722656 194.976562 C 52.71875 194.992188 52.734375 195.007812 52.734375 195.023438 L 52.722656 195.113281 L 52.761719 195.117188 C 52.875 195.34375 53.292969 195.578125 53.933594 195.800781 C 53.921875 195.828125 53.90625 195.859375 53.902344 195.890625 L 53.148438 204.886719 C 53.144531 204.902344 53.144531 204.914062 53.144531 204.929688 C 53.140625 204.992188 53.152344 205.054688 53.171875 205.109375 C 54.445312 210.296875 55.40625 213.050781 56.027344 213.296875 C 56.316406 213.414062 56.601562 213.445312 56.859375 213.390625 C 57.058594 213.800781 57.273438 214.03125 57.523438 214.113281 C 58.109375 214.3125 58.652344 214.28125 59.058594 214.03125 C 59.074219 214.023438 59.085938 214.011719 59.101562 214.003906 C 59.304688 214.425781 59.519531 214.65625 59.773438 214.742188 C 60.054688 214.835938 60.296875 214.875 60.511719 214.875 C 60.960938 214.875 61.261719 214.707031 61.421875 214.582031 C 61.738281 214.335938 61.910156 213.960938 61.882812 213.582031 C 61.878906 213.535156 61.863281 213.34375 61.84375 213.046875 C 62.046875 213.6875 62.222656 213.894531 62.441406 213.96875 C 63.316406 214.261719 63.851562 213.992188 64.09375 213.808594 C 64.410156 213.5625 64.582031 213.1875 64.550781 212.804688 C 64.523438 212.449219 64.292969 208.257812 64.152344 205.753906 L 64.4375 202.21875 C 64.4375 202.226562 64.441406 202.234375 64.441406 202.238281 C 64.765625 203.351562 65.519531 204.648438 66.40625 204.859375 C 66.753906 204.945312 67.082031 204.847656 67.328125 204.585938 C 67.546875 204.351562 67.878906 204 66.382812 197.84375 L 66.191406 197.0625 C 66.210938 197.0625 66.234375 197.0625 66.253906 197.058594 C 66.574219 197.046875 66.863281 197.023438 67.148438 196.996094 C 67.148438 197.007812 67.152344 197.019531 67.152344 197.027344 C 67.230469 197.445312 67.316406 197.867188 67.414062 198.289062 C 68.707031 203.796875 69.207031 206.566406 69.449219 207.898438 C 69.519531 208.308594 69.570312 208.589844 69.613281 208.777344 L 66.28125 239.082031 L 43.816406 294.425781 C 43.726562 294.679688 43.527344 295.285156 46.554688 296.863281 C 46.550781 296.863281 46.550781 296.863281 46.550781 296.863281 L 46.347656 297.328125 L 45.078125 299.210938 L 45.035156 299.195312 C 44.800781 299.105469 44.53125 299.199219 44.398438 299.414062 L 37.695312 310.492188 C 37.617188 310.617188 37.597656 310.765625 37.636719 310.90625 C 37.675781 311.046875 37.769531 311.164062 37.894531 311.234375 L 67.042969 326.9375 C 67.121094 326.980469 67.207031 327 67.289062 327 C 67.441406 327 67.589844 326.9375 67.691406 326.816406 C 67.722656 326.777344 68.4375 325.941406 68.976562 325.183594 C 69.183594 324.898438 69.375 324.59375 69.539062 324.285156 C 70.628906 322.277344 70.457031 320.417969 69.042969 318.910156 C 67.363281 317.113281 66.144531 315.949219 65.167969 315.015625 C 63.03125 312.976562 62.230469 312.210938 60.582031 308.570312 C 59.695312 306.621094 59.441406 305.035156 59.441406 305.019531 C 59.433594 304.988281 59.414062 304.964844 59.402344 304.933594 C 59.390625 304.765625 59.375 304.601562 59.378906 304.425781 C 59.378906 304.332031 59.394531 304.097656 59.488281 303.5625 L 59.539062 303.273438 C 59.578125 303.066406 59.621094 302.839844 59.667969 302.605469 C 59.695312 302.515625 59.851562 302.183594 60.019531 301.835938 C 60.011719 301.832031 60 301.832031 59.988281 301.828125 C 64.421875 302.929688 64.78125 302.304688 64.90625 301.96875 L 89.777344 250.820312 C 90.601562 249.664062 91.230469 248.367188 91.628906 247.019531 L 91.660156 246.957031 C 91.679688 246.914062 91.691406 246.871094 91.691406 246.828125 C 91.84375 246.308594 91.949219 245.863281 92.023438 245.429688 L 93.988281 233.316406 L 96.183594 241.546875 C 96.21875 241.644531 96.261719 241.738281 96.300781 241.832031 L 96.351562 241.941406 L 102.605469 309.140625 C 102.621094 309.320312 102.769531 309.457031 102.949219 309.457031 L 106.015625 309.457031 L 106.15625 311.160156 L 106.210938 312.070312 C 106.160156 312.140625 106.121094 312.222656 106.117188 312.316406 L 105.324219 327.488281 C 105.316406 327.632812 105.367188 327.773438 105.46875 327.878906 C 105.566406 327.984375 105.707031 328.042969 105.851562 328.042969 L 138.425781 328.042969 C 138.675781 328.042969 138.890625 327.871094 138.945312 327.625 C 138.953125 327.582031 139.183594 326.503906 139.304688 325.585938 C 139.351562 325.230469 139.375 324.875 139.375 324.523438 C 139.386719 322.242188 138.359375 320.683594 136.402344 320.023438 C 134.070312 319.234375 132.449219 318.785156 131.144531 318.421875 C 128.300781 317.632812 127.234375 317.335938 124.058594 314.90625 C 122.355469 313.605469 121.382812 312.328125 121.375 312.316406 C 121.355469 312.285156 121.324219 312.273438 121.296875 312.25 C 121.210938 312.109375 121.117188 311.972656 121.039062 311.820312 C 120.996094 311.738281 120.898438 311.523438 120.726562 311.003906 C 120.636719 310.734375 120.539062 310.417969 120.433594 310.070312 C 120.394531 309.945312 120.347656 309.734375 120.296875 309.457031 L 125.144531 309.457031 C 125.238281 309.457031 125.328125 309.417969 125.394531 309.347656 C 125.457031 309.28125 125.492188 309.1875 125.488281 309.09375 L 123.761719 269.539062 L 123.765625 269.652344 C 126.523438 272 130.378906 273.933594 135.78125 274.746094 C 141.429688 275.601562 156.785156 276.03125 181.429688 276.03125 C 211.054688 276.03125 247.179688 275.308594 268.199219 274.859375 L 273.140625 274.859375 C 274.414062 274.859375 275.632812 274.792969 276.800781 274.671875 L 277.078125 274.667969 C 277.136719 274.664062 277.1875 274.648438 277.238281 274.625 C 289.324219 273.234375 295.8125 265.753906 299.210938 259.257812 C 301.578125 254.730469 302.71875 249.65625 302.71875 244.542969 L 302.71875 87.59375 C 302.71875 84.894531 302.804688 82.394531 302.984375 80.085938 L 336.210938 80.085938 C 336.441406 80.085938 336.625 79.898438 336.625 79.667969 C 336.625 79.308594 336.628906 78.917969 336.632812 78.496094 C 336.6875 73.625 336.773438 65.46875 331.351562 60.484375 Z M 45.476562 299.363281 L 45.253906 299.277344 Z M 165.585938 249.171875 C 165.585938 251.527344 164.917969 253.742188 163.796875 255.8125 L 123.164062 255.8125 L 122.246094 234.839844 C 122.242188 234.738281 122.195312 234.644531 122.113281 234.582031 C 122.089844 234.5625 122.0625 234.546875 122.03125 234.535156 C 121.914062 233.839844 121.746094 233.160156 121.53125 232.527344 L 109.5 183.660156 C 110.160156 183.730469 110.746094 183.800781 111.230469 183.878906 C 112.113281 184.015625 112.867188 183.25 112.730469 182.371094 L 109.597656 162.421875 C 109.613281 162.421875 109.628906 162.421875 109.644531 162.417969 C 109.675781 162.40625 109.699219 162.390625 109.726562 162.375 L 113.679688 169.648438 C 116.304688 173.765625 121.53125 175.003906 125.640625 172.949219 L 125.746094 172.878906 C 126.289062 172.597656 126.808594 172.257812 127.300781 171.859375 C 127.953125 171.429688 128.609375 171 129.261719 170.570312 C 130.929688 169.476562 132.601562 168.378906 134.269531 167.285156 C 136.519531 165.808594 138.765625 164.335938 141.015625 162.859375 C 143.40625 161.289062 145.796875 159.722656 148.191406 158.152344 C 150.289062 156.773438 152.386719 155.398438 154.488281 154.019531 C 154.246094 154.179688 154.003906 154.335938 153.761719 154.496094 C 154.144531 154.972656 154.617188 155.390625 155.171875 155.71875 C 157.65625 157.179688 160.851562 156.351562 162.3125 153.871094 L 165.585938 148.3125 Z M 165.585938 249.171875 " fill-opacity="1" fill-rule="nonzero"/></g><path fill="#ffffff" d="M 336.210938 79.667969 L 302.609375 79.667969 C 302.40625 82.078125 302.304688 84.714844 302.304688 87.59375 L 302.304688 244.492188 C 302.304688 250.222656 300.867188 255.894531 297.929688 260.8125 C 294.367188 266.777344 288.046875 273.03125 277.027344 274.234375 C 277.042969 274.242188 277.058594 274.246094 277.070312 274.253906 C 276.996094 274.253906 276.914062 274.253906 276.839844 274.257812 C 275.660156 274.378906 274.429688 274.445312 273.140625 274.445312 C 271.734375 274.445312 270.074219 274.445312 268.1875 274.445312 C 247.335938 274.890625 211.023438 275.617188 181.433594 275.617188 L 181.421875 275.617188 C 156.820312 275.617188 141.488281 275.1875 135.84375 274.335938 C 130.09375 273.472656 126.125 271.328125 123.382812 268.765625 L 125.144531 309.109375 L 119.8125 309.109375 C 119.894531 309.582031 119.96875 309.96875 120.039062 310.191406 C 120.144531 310.542969 120.242188 310.863281 120.335938 311.136719 C 120.46875 311.539062 120.585938 311.84375 120.671875 312.011719 C 120.960938 312.574219 121.316406 313.101562 121.753906 313.550781 C 124.140625 315.984375 106.644531 312.347656 106.644531 312.347656 L 106.644531 312.320312 L 106.621094 311.722656 L 106.570312 311.128906 L 106.402344 309.109375 L 102.949219 309.109375 L 96.691406 241.851562 C 96.628906 241.710938 96.5625 241.570312 96.507812 241.425781 L 93.90625 231.664062 L 92.722656 238.96875 L 92.722656 238.972656 L 91.683594 245.375 C 91.597656 245.863281 91.476562 246.335938 91.339844 246.800781 L 91.351562 246.804688 L 91.320312 246.867188 C 90.910156 248.234375 90.292969 249.496094 89.496094 250.621094 L 64.582031 301.847656 C 64.578125 301.851562 64.582031 301.855469 64.582031 301.855469 C 64.417969 302.308594 62.660156 302.132812 60.074219 301.492188 C 59.976562 301.46875 59.867188 301.4375 59.765625 301.410156 C 59.507812 301.9375 59.289062 302.390625 59.265625 302.515625 C 59.214844 302.757812 59.171875 302.988281 59.132812 303.199219 C 59.113281 303.300781 59.097656 303.394531 59.078125 303.488281 C 59.007812 303.902344 58.964844 304.230469 58.960938 304.417969 C 58.949219 305.050781 59.019531 305.679688 59.191406 306.285156 C 59.953125 308.894531 50.574219 304.953125 47.082031 302.109375 C 46.195312 301.386719 45.035156 300.015625 45.035156 300.015625 L 45.050781 299.988281 L 46.714844 297.527344 L 46.953125 296.980469 L 47.0625 296.730469 C 45.136719 295.757812 44 294.941406 44.144531 294.542969 L 66.621094 239.167969 L 69.964844 208.757812 C 69.789062 208.035156 69.480469 205.5625 67.753906 198.214844 C 67.65625 197.796875 67.570312 197.382812 67.496094 196.96875 C 67.390625 196.40625 67.316406 195.847656 67.25 195.292969 C 67.234375 195.167969 67.222656 195.039062 67.207031 194.914062 C 67.097656 193.808594 67.054688 192.722656 67.078125 191.667969 C 67.078125 191.558594 67.082031 191.453125 67.085938 191.347656 C 67.121094 190.273438 67.210938 189.226562 67.359375 188.214844 C 67.367188 188.144531 67.378906 188.074219 67.390625 188.003906 C 67.546875 186.960938 67.75 185.957031 67.996094 184.992188 C 68.003906 184.96875 68.007812 184.941406 68.015625 184.914062 C 68.140625 184.425781 68.273438 183.949219 68.417969 183.480469 C 73.007812 183.117188 80.070312 182.886719 87.996094 182.886719 C 96.882812 182.886719 104.683594 183.179688 109.136719 183.621094 L 121.195312 232.605469 C 121.449219 233.363281 121.625 234.125 121.738281 234.886719 L 121.902344 234.855469 L 122.835938 256.226562 L 164.066406 256.226562 C 165.277344 254.042969 166.003906 251.683594 166.003906 249.171875 C 166.003906 240.117188 166.003906 187.996094 166.003906 145.359375 L 159.132812 148.632812 L 159.011719 148.691406 C 158.921875 148.414062 158.808594 148.117188 158.683594 147.804688 C 158.164062 146.492188 157.375 144.882812 156.398438 143.191406 C 155.410156 141.476562 154.394531 139.96875 153.511719 138.855469 C 153.359375 138.667969 153.214844 138.492188 153.070312 138.324219 C 153.097656 138.3125 153.121094 138.300781 153.148438 138.289062 C 156.042969 136.824219 160.246094 134.84375 162.539062 134.433594 C 162.539062 134.433594 164.035156 134.476562 166.003906 134.613281 C 166.003906 108.125 166.003906 87.59375 166.003906 87.59375 C 166.003906 87.59375 164.476562 56.953125 183.652344 56.953125 C 200.09375 56.953125 289.839844 56.953125 315.101562 56.953125 C 317.585938 56.71875 319.761719 56.742188 321.695312 56.953125 C 321.714844 56.953125 321.722656 56.953125 321.722656 56.953125 C 321.714844 56.953125 321.707031 56.953125 321.699219 56.953125 C 337.347656 58.671875 336.210938 73.605469 336.210938 79.667969 Z M 96.078125 122.503906 L 97.574219 120.800781 L 98.425781 112.679688 C 99.492188 112.863281 100.476562 112.835938 101.277344 112.570312 C 104.082031 111.652344 103.667969 105.128906 103.667969 105.128906 C 104.21875 104.667969 104.769531 103.800781 104.082031 103.242188 C 103.375 102.671875 102.839844 101.269531 102.839844 101.269531 C 102.597656 97.882812 102.074219 95.652344 101.519531 94.1875 C 101.515625 94.191406 98.070312 97.550781 94.160156 99.207031 C 93.453125 98.574219 92.53125 98.152344 91.339844 98.3125 C 90.546875 98.421875 90.015625 98.8125 89.71875 99.375 C 89.710938 99.386719 89.707031 99.398438 89.699219 99.410156 C 89.511719 99.785156 89.429688 100.230469 89.449219 100.726562 C 89.449219 100.765625 89.449219 100.800781 89.453125 100.839844 C 89.460938 100.945312 89.46875 101.050781 89.488281 101.15625 C 89.492188 101.207031 89.503906 101.257812 89.515625 101.308594 C 89.542969 101.472656 89.585938 101.644531 89.636719 101.816406 C 89.660156 101.898438 89.683594 101.980469 89.710938 102.0625 C 89.738281 102.144531 89.773438 102.226562 89.804688 102.308594 C 89.839844 102.402344 89.878906 102.496094 89.921875 102.589844 C 89.957031 102.667969 89.992188 102.746094 90.03125 102.824219 C 90.085938 102.933594 90.144531 103.042969 90.207031 103.15625 C 90.242188 103.21875 90.277344 103.285156 90.316406 103.347656 C 90.417969 103.519531 90.53125 103.691406 90.648438 103.863281 C 90.675781 103.902344 90.710938 103.941406 90.738281 103.984375 C 90.839844 104.121094 90.945312 104.257812 91.058594 104.398438 C 91.105469 104.453125 91.15625 104.511719 91.203125 104.570312 C 91.3125 104.695312 91.425781 104.816406 91.542969 104.9375 C 91.589844 104.992188 91.640625 105.042969 91.691406 105.097656 C 91.863281 105.265625 92.035156 105.433594 92.226562 105.597656 C 92.0625 106.464844 91.804688 107.3125 91.429688 108.117188 C 90.472656 110.179688 89.089844 111.839844 86.566406 111.460938 C 86.46875 111.449219 86.382812 111.417969 86.285156 111.398438 L 85.273438 120.675781 L 87.394531 121.132812 Z M 53.558594 204.960938 L 53.566406 204.960938 C 53.675781 205.421875 55.453125 212.625 56.179688 212.914062 C 56.566406 213.066406 56.875 213.007812 57.078125 212.847656 C 57.261719 213.328125 57.457031 213.65625 57.65625 213.722656 C 58.601562 214.042969 59.144531 213.601562 59.207031 213.128906 C 59.425781 213.796875 59.660156 214.265625 59.90625 214.351562 C 60.945312 214.703125 61.507812 214.132812 61.46875 213.613281 C 61.449219 213.386719 61.113281 208.4375 61.007812 206.53125 C 61.351562 208.367188 62.058594 213.402344 62.574219 213.574219 C 63.613281 213.929688 64.175781 213.359375 64.136719 212.839844 C 64.109375 212.476562 63.875 208.207031 63.738281 205.722656 L 64.082031 201.460938 C 64.386719 201.394531 64.671875 201.542969 64.84375 202.125 C 65.304688 203.71875 66.421875 204.945312 67.027344 204.304688 C 67.347656 203.960938 66.675781 200.820312 65.976562 197.945312 C 65.90625 197.652344 65.835938 197.367188 65.765625 197.082031 C 65.730469 197.085938 65.699219 197.085938 65.664062 197.085938 C 64.371094 197.125 62.875 197.097656 61.277344 196.992188 C 59.261719 196.855469 57.414062 196.617188 55.957031 196.324219 C 55.328125 196.203125 54.78125 196.066406 54.316406 195.929688 L 53.5625 204.9375 L 53.558594 204.9375 C 53.558594 204.9375 53.558594 204.945312 53.5625 204.945312 Z M 53.558594 204.960938 " fill-opacity="1" fill-rule="nonzero"/><path fill="#7284c8" d="M 190.425781 92.285156 L 193.757812 94.941406 L 186.316406 104.273438 L 180.363281 98.320312 L 183.378906 95.304688 L 185.957031 97.882812 Z M 185.957031 139.46875 L 183.378906 136.890625 L 180.363281 139.90625 L 186.316406 145.859375 L 193.757812 136.53125 L 190.425781 133.871094 Z M 185.957031 169.605469 L 183.378906 167.027344 L 180.363281 170.042969 L 186.316406 175.996094 L 193.757812 166.667969 L 190.425781 164.007812 Z M 185.957031 200.871094 L 183.378906 198.292969 L 180.363281 201.308594 L 186.316406 207.261719 L 193.757812 197.933594 L 190.425781 195.273438 Z M 185.957031 234.3125 L 183.378906 231.734375 L 180.363281 234.75 L 186.316406 240.703125 L 193.757812 231.375 L 190.425781 228.714844 Z M 255.9375 94.542969 L 286.132812 94.542969 C 286.9375 94.542969 287.585938 93.894531 287.585938 93.089844 C 287.585938 92.285156 286.9375 91.636719 286.132812 91.636719 L 255.9375 91.636719 C 255.136719 91.636719 254.484375 92.285156 254.484375 93.089844 C 254.484375 93.894531 255.136719 94.542969 255.9375 94.542969 Z M 205.558594 162.75 L 247.574219 162.75 C 248.375 162.75 249.027344 162.101562 249.027344 161.296875 C 249.027344 160.492188 248.375 159.839844 247.574219 159.839844 L 205.558594 159.839844 C 204.753906 159.839844 204.101562 160.492188 204.101562 161.296875 C 204.101562 162.101562 204.753906 162.75 205.558594 162.75 Z M 286.132812 160.023438 L 255.9375 160.023438 C 255.136719 160.023438 254.484375 160.671875 254.484375 161.476562 C 254.484375 162.28125 255.136719 162.933594 255.9375 162.933594 L 286.132812 162.933594 C 286.9375 162.933594 287.585938 162.28125 287.585938 161.476562 C 287.585938 160.671875 286.9375 160.023438 286.132812 160.023438 Z M 205.558594 171.664062 L 274.308594 171.664062 C 275.113281 171.664062 275.765625 171.011719 275.765625 170.207031 C 275.765625 169.402344 275.113281 168.753906 274.308594 168.753906 L 205.558594 168.753906 C 204.753906 168.753906 204.101562 169.402344 204.101562 170.207031 C 204.101562 171.011719 204.753906 171.664062 205.558594 171.664062 Z M 205.558594 179.300781 L 235.570312 179.300781 C 236.371094 179.300781 237.023438 178.652344 237.023438 177.847656 C 237.023438 177.042969 236.371094 176.394531 235.570312 176.394531 L 205.558594 176.394531 C 204.753906 176.394531 204.101562 177.042969 204.101562 177.847656 C 204.101562 178.652344 204.753906 179.300781 205.558594 179.300781 Z M 205.558594 228.300781 L 247.574219 228.300781 C 248.375 228.300781 249.027344 227.652344 249.027344 226.847656 C 249.027344 226.042969 248.375 225.394531 247.574219 225.394531 L 205.558594 225.394531 C 204.753906 225.394531 204.101562 226.042969 204.101562 226.847656 C 204.101562 227.652344 204.753906 228.300781 205.558594 228.300781 Z M 286.132812 225.574219 L 255.9375 225.574219 C 255.136719 225.574219 254.484375 226.226562 254.484375 227.027344 C 254.484375 227.832031 255.136719 228.484375 255.9375 228.484375 L 286.132812 228.484375 C 286.9375 228.484375 287.585938 227.832031 287.585938 227.027344 C 287.585938 226.226562 286.9375 225.574219 286.132812 225.574219 Z M 274.308594 234.304688 L 205.558594 234.304688 C 204.753906 234.304688 204.101562 234.957031 204.101562 235.757812 C 204.101562 236.5625 204.753906 237.214844 205.558594 237.214844 L 274.308594 237.214844 C 275.113281 237.214844 275.765625 236.5625 275.765625 235.757812 C 275.765625 234.957031 275.113281 234.304688 274.308594 234.304688 Z M 235.570312 241.945312 L 205.558594 241.945312 C 204.753906 241.945312 204.101562 242.59375 204.101562 243.398438 C 204.101562 244.203125 204.753906 244.855469 205.558594 244.855469 L 235.570312 244.855469 C 236.371094 244.855469 237.023438 244.203125 237.023438 243.398438 C 237.023438 242.59375 236.375 241.945312 235.570312 241.945312 Z M 205.558594 94.363281 L 209.070312 94.363281 C 208.890625 93.386719 208.636719 92.414062 208.308594 91.453125 L 205.558594 91.453125 C 204.753906 91.453125 204.101562 92.105469 204.101562 92.90625 C 204.101562 93.710938 204.753906 94.363281 205.558594 94.363281 Z M 247.574219 94.363281 C 248.375 94.363281 249.027344 93.710938 249.027344 92.910156 C 249.027344 92.105469 248.375 91.453125 247.574219 91.453125 L 216.230469 91.453125 C 216.46875 92.421875 216.648438 93.390625 216.777344 94.363281 Z M 205.558594 103.273438 L 208.695312 103.273438 C 208.953125 102.324219 209.140625 101.351562 209.257812 100.363281 L 205.558594 100.363281 C 204.753906 100.363281 204.101562 101.015625 204.101562 101.820312 C 204.101562 102.625 204.753906 103.273438 205.558594 103.273438 Z M 216.914062 100.367188 C 216.828125 101.34375 216.691406 102.316406 216.503906 103.277344 L 274.3125 103.277344 C 275.113281 103.277344 275.765625 102.625 275.765625 101.820312 C 275.765625 101.015625 275.113281 100.367188 274.3125 100.367188 Z M 204.875 110.738281 C 205.574219 109.875 206.199219 108.960938 206.742188 108.003906 L 205.558594 108.003906 C 204.753906 108.003906 204.101562 108.65625 204.101562 109.460938 C 204.101562 110.015625 204.417969 110.492188 204.875 110.738281 Z M 237.023438 109.460938 C 237.023438 108.65625 236.375 108.003906 235.570312 108.003906 L 215.152344 108.003906 C 214.769531 109 214.320312 109.96875 213.828125 110.914062 L 235.570312 110.914062 C 236.375 110.914062 237.023438 110.261719 237.023438 109.460938 Z M 122.246094 234.839844 L 125.488281 309.097656 C 125.492188 309.191406 125.460938 309.28125 125.394531 309.351562 C 125.328125 309.417969 125.238281 309.457031 125.144531 309.457031 L 102.949219 309.457031 C 102.769531 309.457031 102.621094 309.320312 102.605469 309.140625 L 96.351562 241.941406 L 96.304688 241.832031 C 96.261719 241.738281 96.21875 241.644531 96.183594 241.550781 L 93.988281 233.320312 L 92.023438 245.429688 C 91.949219 245.863281 91.84375 246.308594 91.691406 246.828125 C 91.691406 246.871094 91.679688 246.917969 91.660156 246.957031 L 91.628906 247.023438 C 91.230469 248.367188 90.601562 249.664062 89.777344 250.820312 L 64.90625 301.96875 C 64.785156 302.308594 64.425781 302.933594 59.988281 301.832031 C 58.152344 301.378906 55.996094 300.714844 53.75 299.910156 C 51.949219 299.265625 50.199219 298.566406 48.6875 297.890625 C 43.425781 295.527344 43.710938 294.726562 43.816406 294.429688 L 66.28125 239.085938 L 69.613281 208.78125 C 69.570312 208.59375 69.523438 208.3125 69.449219 207.902344 C 69.207031 206.570312 68.710938 203.800781 67.414062 198.292969 C 67.316406 197.871094 67.230469 197.453125 67.152344 197.035156 C 67.058594 196.515625 66.980469 195.976562 66.90625 195.335938 L 66.863281 194.949219 C 66.75 193.859375 66.707031 192.753906 66.730469 191.660156 L 66.738281 191.339844 C 66.773438 190.28125 66.863281 189.214844 67.015625 188.167969 L 67.046875 187.953125 C 67.199219 186.9375 67.40625 185.914062 67.660156 184.910156 C 67.660156 184.910156 67.679688 184.832031 67.679688 184.832031 C 67.808594 184.335938 67.941406 183.851562 68.085938 183.382812 C 68.125 183.246094 68.246094 183.148438 68.390625 183.136719 C 73.1875 182.757812 80.335938 182.542969 88 182.542969 C 96.605469 182.542969 104.519531 182.816406 109.171875 183.277344 C 109.316406 183.292969 109.4375 183.398438 109.472656 183.539062 L 121.53125 232.527344 C 121.746094 233.160156 121.914062 233.839844 122.035156 234.535156 C 122.0625 234.546875 122.089844 234.5625 122.113281 234.582031 C 122.195312 234.644531 122.242188 234.738281 122.246094 234.839844 Z M 124.78125 308.765625 L 121.566406 235.191406 C 121.558594 235.183594 121.546875 235.179688 121.539062 235.171875 C 121.460938 235.117188 121.410156 235.03125 121.394531 234.9375 C 121.28125 234.179688 121.105469 233.433594 120.863281 232.71875 L 108.855469 183.945312 C 104.195312 183.5 96.433594 183.234375 87.996094 183.234375 C 80.476562 183.234375 73.457031 183.445312 68.679688 183.8125 C 68.5625 184.199219 68.453125 184.597656 68.347656 185.003906 L 67.992188 184.996094 L 68.328125 185.082031 C 68.082031 186.0625 67.878906 187.0625 67.730469 188.058594 L 67.699219 188.265625 C 67.554688 189.289062 67.460938 190.328125 67.429688 191.359375 L 67.421875 191.675781 C 67.398438 192.742188 67.441406 193.820312 67.550781 194.878906 L 67.59375 195.253906 C 67.664062 195.878906 67.742188 196.40625 67.832031 196.910156 C 67.910156 197.316406 67.992188 197.722656 68.089844 198.136719 C 69.386719 203.660156 69.886719 206.445312 70.128906 207.78125 C 70.207031 208.21875 70.257812 208.503906 70.300781 208.679688 C 70.308594 208.71875 70.3125 208.757812 70.308594 208.800781 L 66.964844 239.210938 C 66.960938 239.242188 66.953125 239.273438 66.941406 239.304688 L 44.484375 294.621094 C 44.59375 294.859375 45.554688 295.722656 48.96875 297.257812 C 50.464844 297.925781 52.199219 298.617188 53.984375 299.257812 C 56.207031 300.050781 58.339844 300.707031 60.15625 301.15625 C 62.925781 301.84375 64.035156 301.820312 64.265625 301.703125 C 64.265625 301.699219 64.265625 301.699219 64.265625 301.699219 L 89.179688 250.46875 C 89.992188 249.324219 90.589844 248.09375 90.984375 246.769531 L 90.996094 246.742188 C 91 246.730469 91.003906 246.71875 91.007812 246.703125 C 91.160156 246.179688 91.265625 245.738281 91.339844 245.316406 L 93.554688 231.652344 C 93.152344 226.382812 89.855469 214.140625 85.644531 209.804688 C 81.191406 205.21875 82.15625 198.9375 82.199219 198.671875 C 82.230469 198.484375 82.40625 198.351562 82.597656 198.386719 C 82.785156 198.417969 82.914062 198.597656 82.882812 198.785156 C 82.875 198.847656 81.9375 204.988281 86.144531 209.320312 C 90.464844 213.769531 93.839844 226.25 94.246094 231.605469 L 96.839844 241.335938 C 96.863281 241.386719 96.898438 241.464844 96.933594 241.546875 L 97.011719 241.71875 C 97.023438 241.75 97.03125 241.785156 97.035156 241.820312 L 103.265625 308.761719 L 124.78125 308.761719 Z M 161.8125 134.171875 C 162.042969 134.113281 162.261719 134.058594 162.464844 134.023438 C 162.53125 134.011719 162.597656 134.015625 162.664062 134.035156 C 163.933594 134.054688 169.859375 134.253906 173.320312 135.179688 L 179.796875 124.183594 C 176.515625 123.007812 173.460938 121.222656 170.808594 118.894531 Z M 159.195312 149.066406 C 159.179688 149.074219 159.167969 149.070312 159.152344 149.074219 C 159.34375 149.570312 159.511719 149.980469 159.476562 150.601562 C 159.472656 150.652344 159.46875 150.703125 159.441406 150.746094 C 159.421875 150.777344 159.390625 150.796875 159.359375 150.820312 C 159.105469 150.988281 158.851562 151.152344 158.597656 151.320312 C 157.226562 152.21875 155.855469 153.121094 154.488281 154.019531 C 154.246094 154.175781 154.003906 154.335938 153.761719 154.492188 C 154.144531 154.96875 154.617188 155.390625 155.171875 155.71875 C 157.65625 157.179688 160.851562 156.351562 162.3125 153.871094 L 167.105469 145.730469 C 166.832031 145.730469 166.539062 145.726562 166.214844 145.71875 Z M 159.195312 149.066406 " fill-opacity="1" fill-rule="nonzero"/><g clip-path="url(#1e8de05320)"><path fill="#d03e25" d="M 139.375 324.527344 C 139.375 324.875 139.351562 325.230469 139.304688 325.585938 C 139.183594 326.507812 138.953125 327.582031 138.945312 327.628906 C 138.890625 327.871094 138.675781 328.042969 138.425781 328.042969 L 105.851562 328.042969 C 105.707031 328.042969 105.566406 327.984375 105.46875 327.878906 C 105.367188 327.777344 105.316406 327.632812 105.324219 327.488281 L 106.117188 312.320312 C 106.132812 312.035156 106.394531 311.820312 106.65625 311.820312 L 120.964844 312.105469 C 121.125 312.109375 121.277344 312.1875 121.375 312.316406 C 121.386719 312.328125 122.355469 313.605469 124.058594 314.90625 C 127.234375 317.335938 128.300781 317.632812 131.148438 318.421875 C 132.449219 318.785156 134.070312 319.234375 136.402344 320.023438 C 138.359375 320.6875 139.386719 322.242188 139.375 324.527344 Z M 199.605469 98.484375 C 199.605469 105.402344 193.980469 111.03125 187.0625 111.03125 C 180.144531 111.03125 174.515625 105.402344 174.515625 98.484375 C 174.515625 91.566406 180.144531 85.941406 187.0625 85.941406 C 193.980469 85.941406 199.605469 91.566406 199.605469 98.484375 Z M 198.773438 98.484375 C 198.773438 92.027344 193.519531 86.773438 187.0625 86.773438 C 180.601562 86.773438 175.347656 92.027344 175.347656 98.484375 C 175.347656 104.945312 180.601562 110.199219 187.0625 110.199219 C 193.519531 110.199219 198.773438 104.945312 198.773438 98.484375 Z M 199.605469 170.207031 C 199.605469 177.125 193.980469 182.753906 187.0625 182.753906 C 180.144531 182.753906 174.515625 177.125 174.515625 170.207031 C 174.515625 163.289062 180.144531 157.664062 187.0625 157.664062 C 193.980469 157.664062 199.605469 163.289062 199.605469 170.207031 Z M 198.773438 170.207031 C 198.773438 163.75 193.519531 158.496094 187.0625 158.496094 C 180.601562 158.496094 175.347656 163.75 175.347656 170.207031 C 175.347656 176.667969 180.601562 181.921875 187.0625 181.921875 C 193.519531 181.921875 198.773438 176.667969 198.773438 170.207031 Z M 199.605469 201.472656 C 199.605469 208.390625 193.980469 214.019531 187.0625 214.019531 C 180.144531 214.019531 174.515625 208.390625 174.515625 201.472656 C 174.515625 194.554688 180.144531 188.929688 187.0625 188.929688 C 193.980469 188.929688 199.605469 194.554688 199.605469 201.472656 Z M 198.773438 201.472656 C 198.773438 195.015625 193.519531 189.761719 187.0625 189.761719 C 180.601562 189.761719 175.347656 195.015625 175.347656 201.472656 C 175.347656 207.933594 180.601562 213.1875 187.0625 213.1875 C 193.519531 213.1875 198.773438 207.933594 198.773438 201.472656 Z M 199.605469 234.914062 C 199.605469 241.832031 193.980469 247.460938 187.0625 247.460938 C 180.144531 247.460938 174.515625 241.832031 174.515625 234.914062 C 174.515625 227.996094 180.144531 222.371094 187.0625 222.371094 C 193.980469 222.371094 199.605469 227.996094 199.605469 234.914062 Z M 198.773438 234.914062 C 198.773438 228.457031 193.519531 223.199219 187.0625 223.199219 C 180.601562 223.199219 175.347656 228.457031 175.347656 234.914062 C 175.347656 241.375 180.601562 246.628906 187.0625 246.628906 C 193.519531 246.628906 198.773438 241.375 198.773438 234.914062 Z M 203.738281 126.011719 C 203.738281 126.816406 204.390625 127.464844 205.195312 127.464844 L 256.121094 127.464844 C 256.925781 127.464844 257.574219 126.816406 257.574219 126.011719 C 257.574219 125.207031 256.925781 124.554688 256.121094 124.554688 L 205.195312 124.554688 C 204.390625 124.554688 203.738281 125.207031 203.738281 126.011719 Z M 205.011719 137.652344 L 223.929688 137.652344 C 224.734375 137.652344 225.382812 137 225.382812 136.195312 C 225.382812 135.390625 224.734375 134.742188 223.929688 134.742188 L 205.011719 134.742188 C 204.207031 134.742188 203.558594 135.390625 203.558594 136.195312 C 203.558594 137 204.207031 137.652344 205.011719 137.652344 Z M 231.023438 136.195312 C 231.023438 137 231.671875 137.652344 232.476562 137.652344 L 282.3125 137.652344 C 283.117188 137.652344 283.765625 137 283.765625 136.195312 C 283.765625 135.390625 283.117188 134.742188 282.3125 134.742188 L 232.476562 134.742188 C 231.671875 134.742188 231.023438 135.390625 231.023438 136.195312 Z M 266.851562 145.472656 C 266.851562 144.667969 266.203125 144.015625 265.398438 144.015625 L 204.832031 144.015625 C 204.027344 144.015625 203.375 144.667969 203.375 145.472656 C 203.375 146.277344 204.027344 146.925781 204.832031 146.925781 L 265.398438 146.925781 C 266.203125 146.925781 266.851562 146.277344 266.851562 145.472656 Z M 257.578125 191.289062 C 257.578125 190.484375 256.925781 189.832031 256.121094 189.832031 L 205.195312 189.832031 C 204.390625 189.832031 203.738281 190.484375 203.738281 191.289062 C 203.738281 192.09375 204.390625 192.742188 205.195312 192.742188 L 256.121094 192.742188 C 256.925781 192.742188 257.578125 192.09375 257.578125 191.289062 Z M 205.011719 200.019531 C 204.207031 200.019531 203.558594 200.667969 203.558594 201.472656 C 203.558594 202.277344 204.207031 202.929688 205.011719 202.929688 L 223.929688 202.929688 C 224.734375 202.929688 225.382812 202.277344 225.382812 201.472656 C 225.382812 200.667969 224.734375 200.019531 223.929688 200.019531 Z M 282.3125 200.019531 L 232.476562 200.019531 C 231.671875 200.019531 231.023438 200.667969 231.023438 201.472656 C 231.023438 202.277344 231.671875 202.929688 232.476562 202.929688 L 282.3125 202.929688 C 283.117188 202.929688 283.765625 202.277344 283.765625 201.472656 C 283.769531 200.667969 283.117188 200.019531 282.3125 200.019531 Z M 265.398438 209.292969 L 204.832031 209.292969 C 204.027344 209.292969 203.375 209.945312 203.375 210.75 C 203.375 211.554688 204.027344 212.203125 204.832031 212.203125 L 265.398438 212.203125 C 266.203125 212.203125 266.851562 211.554688 266.851562 210.75 C 266.851562 209.945312 266.203125 209.292969 265.398438 209.292969 Z M 200.554688 123.394531 C 186.527344 129.675781 170.0625 123.394531 163.78125 109.367188 C 157.503906 95.335938 163.785156 78.871094 177.8125 72.59375 C 191.84375 66.3125 208.304688 72.59375 214.585938 86.621094 C 220.867188 100.652344 214.585938 117.113281 200.554688 123.394531 Z M 207.632812 89.734375 C 203.074219 79.546875 191.113281 74.984375 180.925781 79.542969 C 170.734375 84.105469 166.171875 96.0625 170.734375 106.253906 C 175.296875 116.441406 187.253906 121.003906 197.445312 116.445312 C 207.632812 111.882812 212.195312 99.925781 207.632812 89.734375 Z M 158.683594 147.804688 C 158.164062 146.492188 157.375 144.882812 156.398438 143.191406 C 155.410156 141.476562 154.394531 139.96875 153.511719 138.859375 C 153.359375 138.667969 153.214844 138.492188 153.070312 138.328125 C 152.175781 137.285156 151.464844 136.734375 151.132812 136.90625 L 151.109375 136.867188 L 125.691406 151.78125 L 109.726562 123.738281 C 108.101562 121.328125 105.554688 119.945312 102.886719 119.699219 L 102.878906 119.652344 L 96.265625 118.707031 C 88.070312 117.535156 79.703125 118.597656 72.089844 121.84375 C 72.078125 121.851562 72.066406 121.855469 72.054688 121.859375 C 71.019531 122.300781 70.21875 123.117188 69.761719 124.113281 C 69.761719 124.113281 67.570312 127.46875 59.011719 154.675781 C 58.738281 155.546875 58.578125 156.363281 58.511719 157.140625 L 58.394531 157.152344 L 52.753906 194.898438 C 52.742188 194.925781 52.722656 194.949219 52.722656 194.976562 C 52.722656 194.996094 52.734375 195.011719 52.734375 195.027344 L 52.722656 195.117188 L 52.761719 195.121094 C 52.96875 195.535156 54.164062 195.96875 55.957031 196.324219 C 57.414062 196.617188 59.261719 196.855469 61.28125 196.992188 C 62.875 197.097656 64.371094 197.125 65.664062 197.085938 C 65.867188 197.082031 66.0625 197.074219 66.253906 197.0625 C 66.574219 197.046875 66.863281 197.027344 67.148438 197 C 67.054688 196.492188 66.976562 195.960938 66.90625 195.332031 L 66.863281 194.949219 C 66.75 193.859375 66.707031 192.753906 66.726562 191.660156 L 66.738281 191.335938 C 66.769531 190.28125 66.863281 189.214844 67.015625 188.164062 L 67.046875 187.953125 C 67.199219 186.933594 67.40625 185.910156 67.660156 184.910156 C 67.660156 184.910156 67.679688 184.828125 67.679688 184.828125 C 67.804688 184.335938 67.941406 183.851562 68.085938 183.382812 C 68.125 183.246094 68.246094 183.148438 68.386719 183.136719 C 73.1875 182.757812 80.335938 182.539062 87.996094 182.539062 C 96.605469 182.539062 104.519531 182.8125 109.167969 183.273438 C 109.316406 183.289062 109.4375 183.394531 109.472656 183.539062 L 109.5 183.660156 C 110.160156 183.726562 110.746094 183.800781 111.230469 183.875 C 112.113281 184.015625 112.867188 183.25 112.730469 182.367188 L 109.53125 162.015625 L 113.679688 169.644531 C 116.308594 173.761719 121.53125 175 125.640625 172.945312 L 125.75 172.875 C 126.289062 172.59375 126.808594 172.257812 127.300781 171.855469 C 127.957031 171.429688 128.609375 171 129.261719 170.570312 C 130.933594 169.472656 132.601562 168.378906 134.269531 167.285156 C 136.519531 165.808594 138.765625 164.332031 141.015625 162.855469 C 143.40625 161.289062 145.800781 159.71875 148.191406 158.148438 C 150.289062 156.773438 152.390625 155.394531 154.488281 154.015625 C 155.859375 153.117188 157.226562 152.21875 158.597656 151.320312 C 158.851562 151.152344 159.105469 150.988281 159.359375 150.816406 C 159.390625 150.796875 159.421875 150.777344 159.441406 150.746094 C 159.46875 150.703125 159.472656 150.652344 159.476562 150.601562 C 159.519531 149.828125 159.25 149.390625 159.011719 148.691406 C 158.921875 148.417969 158.808594 148.117188 158.683594 147.804688 Z M 67.996094 184.996094 Z M 175.046875 137.203125 C 175.089844 137.074219 175.082031 136.945312 175.015625 136.847656 C 175.003906 136.832031 174.980469 136.816406 174.964844 136.796875 C 174.898438 137.035156 174.832031 137.273438 174.78125 137.515625 C 174.902344 137.433594 175 137.332031 175.046875 137.203125 Z M 187.0625 127.527344 C 181.589844 127.527344 176.941406 131.050781 175.226562 135.945312 C 175.433594 136.082031 175.601562 136.226562 175.707031 136.382812 C 175.769531 136.480469 175.816406 136.585938 175.847656 136.695312 C 177.300781 131.878906 181.777344 128.359375 187.0625 128.359375 C 193.519531 128.359375 198.773438 133.613281 198.773438 140.070312 C 198.773438 146.53125 193.519531 151.785156 187.0625 151.785156 C 180.601562 151.785156 175.347656 146.53125 175.347656 140.070312 C 175.347656 139.34375 175.421875 138.632812 175.550781 137.941406 C 175.367188 138.15625 175.125 138.324219 174.835938 138.417969 C 174.773438 138.4375 174.699219 138.453125 174.628906 138.472656 C 174.5625 139 174.515625 139.527344 174.515625 140.070312 C 174.515625 146.988281 180.144531 152.617188 187.0625 152.617188 C 193.980469 152.617188 199.605469 146.988281 199.605469 140.070312 C 199.605469 133.152344 193.980469 127.527344 187.0625 127.527344 Z M 65.167969 315.015625 C 63.03125 312.976562 62.230469 312.210938 60.582031 308.570312 C 59.695312 306.621094 59.441406 305.035156 59.441406 305.019531 C 59.410156 304.832031 59.28125 304.671875 59.105469 304.605469 L 45.035156 299.191406 C 44.800781 299.105469 44.53125 299.199219 44.398438 299.414062 L 37.695312 310.492188 C 37.617188 310.617188 37.597656 310.765625 37.636719 310.90625 C 37.675781 311.046875 37.769531 311.164062 37.894531 311.234375 L 67.042969 326.9375 C 67.121094 326.980469 67.207031 327 67.289062 327 C 67.441406 327 67.589844 326.9375 67.691406 326.816406 C 67.722656 326.777344 68.4375 325.941406 68.976562 325.183594 C 69.183594 324.898438 69.375 324.59375 69.539062 324.285156 C 70.628906 322.277344 70.457031 320.417969 69.042969 318.910156 C 67.363281 317.113281 66.144531 315.949219 65.167969 315.015625 Z M 65.167969 315.015625 " fill-opacity="1" fill-rule="nonzero"/></g><path fill="#3a4a92" d="M 331.351562 60.484375 C 327.765625 57.1875 322.289062 55.859375 315.078125 56.539062 L 183.652344 56.539062 C 179.347656 56.539062 175.722656 58.054688 172.871094 61.050781 C 168.632812 65.507812 166.878906 72.5 166.152344 77.585938 C 165.859375 79.648438 165.707031 81.570312 165.628906 83.171875 C 165.921875 82.703125 166.234375 82.25 166.554688 81.796875 C 166.980469 75.894531 168.476562 66.875 173.476562 61.625 C 176.160156 58.800781 179.585938 57.367188 183.652344 57.367188 L 315.136719 57.367188 C 305.8125 60.046875 301.886719 69.359375 301.886719 87.59375 L 301.890625 244.226562 C 301.890625 250.398438 300.230469 256.503906 296.839844 261.664062 C 293.21875 267.183594 287.105469 272.648438 277.027344 273.785156 C 270.597656 271.179688 262.917969 266.027344 262.351562 256.203125 C 262.335938 255.980469 262.15625 255.8125 261.933594 255.8125 L 164.71875 255.8125 C 165.835938 253.621094 166.417969 251.398438 166.417969 249.171875 L 166.417969 146.898438 L 165.585938 148.3125 L 165.585938 249.171875 C 165.585938 251.527344 164.917969 253.742188 163.796875 255.8125 L 123.160156 255.8125 L 123.199219 256.640625 L 261.546875 256.640625 C 262.125 264.136719 266.804688 270.0625 275.136719 273.878906 L 274.167969 273.898438 C 254.667969 274.320312 214.09375 275.203125 181.421875 275.203125 C 156.828125 275.203125 141.515625 274.773438 135.90625 273.925781 C 130.289062 273.082031 126.40625 270.984375 123.714844 268.484375 L 123.765625 269.652344 C 126.527344 272 130.382812 273.9375 135.78125 274.75 C 141.433594 275.601562 156.789062 276.035156 181.433594 276.035156 C 211.054688 276.035156 247.179688 275.308594 268.199219 274.859375 L 273.140625 274.859375 C 274.414062 274.859375 275.632812 274.792969 276.804688 274.675781 L 277.078125 274.667969 C 277.136719 274.667969 277.191406 274.652344 277.238281 274.628906 C 289.324219 273.234375 295.8125 265.757812 299.210938 259.261719 C 301.582031 254.730469 302.71875 249.65625 302.71875 244.542969 L 302.71875 87.59375 C 302.71875 84.894531 302.804688 82.394531 302.984375 80.085938 L 336.210938 80.085938 C 336.441406 80.085938 336.625 79.898438 336.625 79.667969 C 336.625 79.308594 336.628906 78.917969 336.632812 78.496094 C 336.6875 73.625 336.773438 65.46875 331.351562 60.484375 Z M 335.804688 78.488281 C 335.800781 78.753906 335.796875 79.011719 335.796875 79.253906 L 303.058594 79.253906 C 304.4375 63.859375 310.113281 57.390625 321.664062 57.371094 C 325.480469 57.792969 328.542969 59.03125 330.789062 61.097656 C 335.9375 65.832031 335.855469 73.753906 335.804688 78.488281 Z M 101.40625 112.964844 C 100.667969 113.210938 99.773438 113.273438 98.792969 113.152344 L 98.183594 118.980469 L 97.359375 118.863281 L 98.011719 112.636719 C 98.023438 112.519531 98.085938 112.417969 98.175781 112.347656 C 98.269531 112.277344 98.382812 112.25 98.496094 112.269531 C 99.511719 112.445312 100.425781 112.414062 101.148438 112.175781 C 103.199219 111.503906 103.363281 106.878906 103.253906 105.15625 C 103.246094 105.023438 103.300781 104.894531 103.402344 104.808594 C 103.746094 104.519531 103.988281 104.136719 103.984375 103.875 C 103.984375 103.792969 103.964844 103.6875 103.820312 103.566406 C 103.03125 102.929688 102.476562 101.476562 102.453125 101.414062 C 102.4375 101.378906 102.429688 101.339844 102.425781 101.296875 C 102.378906 100.628906 102.316406 99.992188 102.246094 99.382812 C 101.097656 98.734375 100.164062 99.308594 100.125 99.335938 C 99.964844 99.4375 99.75 99.394531 99.644531 99.234375 C 99.539062 99.074219 99.582031 98.863281 99.742188 98.757812 C 99.789062 98.722656 100.820312 98.058594 102.136719 98.558594 C 101.9375 97.164062 101.671875 95.949219 101.335938 94.921875 C 100.25 95.902344 97.433594 98.269531 94.320312 99.589844 C 94.171875 99.652344 94 99.625 93.878906 99.515625 C 93.144531 98.859375 92.335938 98.597656 91.394531 98.726562 C 90.777344 98.808594 90.335938 99.09375 90.082031 99.570312 C 89.914062 99.90625 89.84375 100.28125 89.863281 100.710938 L 89.867188 100.8125 C 89.871094 100.902344 89.882812 101 89.898438 101.09375 L 89.910156 101.179688 C 89.949219 101.382812 89.988281 101.539062 90.035156 101.699219 C 90.066406 101.816406 90.082031 101.871094 90.101562 101.925781 C 90.121094 101.984375 90.144531 102.042969 90.171875 102.105469 C 90.226562 102.242188 90.257812 102.332031 90.300781 102.417969 C 90.332031 102.492188 90.367188 102.566406 90.40625 102.640625 C 90.457031 102.742188 90.511719 102.847656 90.570312 102.953125 L 90.671875 103.132812 C 90.769531 103.296875 90.875 103.460938 90.988281 103.625 L 91.03125 103.683594 C 91.167969 103.871094 91.269531 104 91.378906 104.132812 L 91.507812 104.28125 C 91.621094 104.414062 91.726562 104.535156 91.839844 104.648438 L 91.984375 104.800781 C 92.144531 104.960938 92.316406 105.125 92.496094 105.28125 C 92.609375 105.378906 92.660156 105.527344 92.632812 105.671875 C 92.453125 106.609375 92.175781 107.492188 91.804688 108.289062 C 91.003906 110.019531 89.597656 112.253906 86.648438 111.890625 L 85.9375 118.410156 C 85.65625 118.433594 85.371094 118.460938 85.089844 118.488281 L 85.871094 111.351562 C 85.871094 111.332031 85.882812 111.320312 85.886719 111.304688 C 81.136719 110.035156 79.074219 103.449219 79.859375 99.15625 C 80.132812 97.660156 80.675781 96.125 81.386719 94.664062 C 80.546875 94.164062 79.921875 93.371094 79.375 92.558594 C 78.421875 91.144531 77.589844 89.550781 77.605469 87.84375 C 77.628906 85.09375 79.902344 82.894531 82.511719 82.40625 C 84.445312 82.042969 86.488281 82.660156 88.042969 83.835938 C 89.054688 84.601562 89.882812 85.640625 90.34375 86.8125 C 90.351562 86.8125 90.359375 86.8125 90.367188 86.808594 C 93.160156 86.3125 96.160156 86.960938 98.472656 88.617188 C 99.378906 89.265625 100.167969 90.109375 100.710938 91.085938 C 100.910156 91.449219 101.636719 93 101.632812 93.792969 C 101.757812 93.832031 101.859375 93.917969 101.90625 94.039062 C 102.578125 95.820312 103.03125 98.222656 103.25 101.175781 C 103.410156 101.574219 103.855469 102.527344 104.339844 102.921875 C 104.648438 103.167969 104.8125 103.5 104.816406 103.867188 C 104.820312 104.5 104.371094 105.035156 104.089844 105.304688 C 104.140625 106.464844 104.21875 112.046875 101.40625 112.964844 Z M 153.183594 139.117188 C 154.082031 140.246094 155.097656 141.769531 156.039062 143.398438 C 156.964844 145.003906 157.769531 146.625 158.296875 147.957031 C 158.417969 148.265625 158.527344 148.554688 158.617188 148.824219 C 158.65625 148.9375 158.742188 149.03125 158.851562 149.074219 C 158.902344 149.097656 158.957031 149.109375 159.011719 149.109375 C 159.074219 149.109375 159.136719 149.09375 159.191406 149.066406 L 166.214844 145.71875 C 167.589844 145.75 168.492188 145.714844 168.972656 145.613281 C 170.597656 145.265625 170.996094 144.527344 171.085938 144.117188 C 171.179688 143.691406 171.042969 143.253906 170.703125 142.867188 C 171.449219 142.566406 171.851562 142.03125 171.988281 141.546875 C 172.101562 141.128906 172.039062 140.707031 171.800781 140.339844 C 172.3125 139.960938 172.5625 139.347656 172.558594 138.753906 C 173.550781 138.703125 174.296875 138.589844 174.835938 138.417969 C 175.316406 138.265625 175.679688 137.921875 175.832031 137.476562 C 175.964844 137.097656 175.917969 136.699219 175.707031 136.386719 C 174.378906 134.410156 164.363281 134.058594 162.664062 134.039062 C 162.597656 134.015625 162.53125 134.015625 162.464844 134.023438 C 160.148438 134.4375 156.019531 136.371094 152.957031 137.917969 L 153.136719 138.269531 L 153.132812 138.273438 L 152.886719 137.953125 C 152.773438 138.011719 152.691406 138.117188 152.664062 138.242188 C 152.636719 138.371094 152.671875 138.5 152.753906 138.597656 C 152.894531 138.757812 153.035156 138.933594 153.183594 139.117188 Z M 162.570312 134.851562 C 166.964844 134.976562 174.191406 135.625 175.015625 136.847656 C 175.082031 136.945312 175.089844 137.074219 175.046875 137.203125 C 174.976562 137.398438 174.808594 137.554688 174.582031 137.625 C 174.046875 137.796875 173.203125 137.902344 172.078125 137.941406 C 172.042969 137.941406 172.007812 137.957031 171.972656 137.96875 C 171.125 137.753906 167.886719 137 165.550781 137.324219 C 165.363281 137.351562 165.230469 137.523438 165.257812 137.714844 C 165.28125 137.902344 165.457031 138.035156 165.648438 138.007812 C 167.761719 137.71875 170.789062 138.394531 171.714844 138.617188 C 171.769531 139.101562 171.539062 139.65625 171.003906 139.824219 C 170.972656 139.832031 170.953125 139.859375 170.929688 139.878906 C 170.058594 139.804688 167.242188 139.609375 164.691406 139.902344 C 164.5 139.921875 164.363281 140.09375 164.382812 140.285156 C 164.40625 140.460938 164.554688 140.59375 164.726562 140.59375 C 164.742188 140.59375 164.753906 140.59375 164.769531 140.589844 C 167.269531 140.304688 170.113281 140.503906 170.910156 140.570312 C 170.910156 140.574219 170.914062 140.574219 170.914062 140.578125 C 171.167969 140.769531 171.265625 141.035156 171.183594 141.324219 C 171.082031 141.691406 170.636719 142.160156 169.714844 142.261719 C 169.660156 142.269531 169.609375 142.289062 169.5625 142.3125 C 168.851562 142.261719 166.605469 142.128906 165.070312 142.332031 C 164.878906 142.355469 164.746094 142.53125 164.773438 142.722656 C 164.792969 142.894531 164.945312 143.023438 165.113281 143.023438 C 165.128906 143.023438 165.144531 143.023438 165.160156 143.019531 C 166.617188 142.828125 168.828125 142.957031 169.515625 143.003906 C 169.539062 143.023438 169.558594 143.039062 169.582031 143.050781 C 169.695312 143.105469 169.785156 143.15625 169.847656 143.207031 C 170.167969 143.449219 170.324219 143.714844 170.273438 143.9375 C 170.210938 144.214844 169.792969 144.585938 168.800781 144.800781 C 168.507812 144.863281 167.808594 144.925781 166.136719 144.886719 C 166.070312 144.886719 166.007812 144.898438 165.949219 144.925781 L 159.25 148.117188 C 159.191406 147.96875 159.132812 147.8125 159.070312 147.652344 C 158.527344 146.28125 157.703125 144.625 156.757812 142.984375 C 155.796875 141.320312 154.757812 139.761719 153.835938 138.597656 C 153.796875 138.554688 153.761719 138.507812 153.726562 138.464844 C 157.757812 136.441406 160.886719 135.164062 162.570312 134.851562 Z M 66.167969 196.984375 C 66.121094 196.792969 65.859375 196.660156 65.652344 196.671875 C 64.339844 196.710938 62.835938 196.679688 61.308594 196.574219 C 59.363281 196.445312 57.539062 196.21875 56.039062 195.917969 C 55.433594 195.796875 54.894531 195.667969 54.4375 195.53125 C 54.316406 195.492188 54.1875 195.515625 54.082031 195.582031 C 53.980469 195.65625 53.914062 195.769531 53.902344 195.894531 L 53.148438 204.890625 C 53.144531 204.902344 53.144531 204.917969 53.144531 204.929688 C 53.140625 204.996094 53.152344 205.054688 53.171875 205.113281 C 54.445312 210.296875 55.40625 213.054688 56.027344 213.300781 C 56.316406 213.417969 56.601562 213.445312 56.859375 213.394531 C 57.058594 213.804688 57.269531 214.03125 57.523438 214.117188 C 58.109375 214.316406 58.652344 214.285156 59.058594 214.035156 C 59.074219 214.023438 59.085938 214.015625 59.101562 214.003906 C 59.304688 214.429688 59.519531 214.660156 59.773438 214.746094 C 60.050781 214.839844 60.296875 214.878906 60.511719 214.878906 C 60.957031 214.878906 61.257812 214.710938 61.421875 214.582031 C 61.738281 214.339844 61.910156 213.964844 61.878906 213.582031 C 61.878906 213.539062 61.863281 213.347656 61.84375 213.050781 C 62.046875 213.691406 62.222656 213.894531 62.441406 213.96875 C 63.316406 214.265625 63.851562 213.996094 64.09375 213.808594 C 64.410156 213.5625 64.578125 213.191406 64.550781 212.808594 C 64.523438 212.453125 64.292969 208.257812 64.152344 205.753906 L 64.4375 202.222656 C 64.4375 202.226562 64.441406 202.234375 64.441406 202.242188 C 64.765625 203.355469 65.515625 204.652344 66.40625 204.863281 C 66.753906 204.949219 67.082031 204.851562 67.328125 204.585938 C 67.546875 204.355469 67.878906 204 66.382812 197.847656 Z M 66.683594 204.050781 C 66.660156 204.066406 66.636719 204.066406 66.597656 204.054688 C 66.253906 203.972656 65.589844 203.214844 65.242188 202.011719 C 64.9375 200.96875 64.269531 200.992188 63.992188 201.054688 C 63.8125 201.09375 63.679688 201.242188 63.667969 201.425781 L 63.324219 205.742188 C 63.410156 207.3125 63.691406 212.457031 63.722656 212.871094 C 63.730469 212.972656 63.679688 213.078125 63.582031 213.152344 C 63.410156 213.285156 63.125 213.304688 62.789062 213.207031 C 62.464844 212.660156 61.941406 209.539062 61.683594 208.015625 C 61.582031 207.398438 61.492188 206.851562 61.417969 206.453125 C 61.375 206.238281 61.171875 206.089844 60.957031 206.117188 C 60.738281 206.144531 60.578125 206.335938 60.59375 206.554688 C 60.695312 208.445312 61.035156 213.394531 61.054688 213.644531 C 61.0625 213.746094 61.007812 213.851562 60.914062 213.925781 C 60.730469 214.070312 60.410156 214.082031 60.0625 213.964844 C 60.054688 213.960938 59.875 213.832031 59.605469 213 C 59.589844 212.953125 59.566406 212.910156 59.535156 212.875 C 59.445312 211.757812 59.03125 206.617188 58.96875 205.480469 C 58.957031 205.289062 58.785156 205.128906 58.605469 205.152344 C 58.414062 205.164062 58.265625 205.328125 58.277344 205.519531 C 58.339844 206.664062 58.753906 211.8125 58.84375 212.929688 C 58.820312 212.972656 58.804688 213.023438 58.796875 213.074219 C 58.78125 213.175781 58.71875 213.265625 58.621094 213.328125 C 58.429688 213.445312 58.132812 213.445312 57.8125 213.339844 C 57.804688 213.335938 57.675781 213.242188 57.46875 212.699219 C 57.453125 212.65625 57.421875 212.621094 57.390625 212.585938 C 57.253906 211.644531 56.695312 207.660156 56.582031 205.480469 C 56.574219 205.289062 56.398438 205.125 56.21875 205.152344 C 56.027344 205.164062 55.878906 205.324219 55.890625 205.515625 C 56 207.644531 56.527344 211.441406 56.6875 212.566406 C 56.59375 212.589844 56.492188 212.589844 56.386719 212.554688 C 55.957031 212.167969 54.832031 208.375 53.980469 204.914062 L 54.691406 196.460938 C 55.050781 196.558594 55.449219 196.648438 55.875 196.734375 C 57.414062 197.039062 59.269531 197.273438 61.253906 197.40625 C 62.71875 197.503906 64.164062 197.539062 65.441406 197.507812 L 65.574219 198.042969 C 66.726562 202.785156 66.71875 203.832031 66.683594 204.050781 Z M 74.953125 137.761719 C 74.921875 137.886719 72.035156 150.460938 70.886719 154.847656 C 69.75 159.191406 68.78125 175.441406 68.773438 175.605469 C 68.757812 175.828125 68.574219 175.996094 68.355469 175.996094 C 68.347656 175.996094 68.339844 175.996094 68.332031 175.996094 C 68.101562 175.984375 67.929688 175.785156 67.941406 175.558594 C 67.980469 174.886719 68.925781 159.058594 70.082031 154.636719 C 71.226562 150.261719 74.109375 137.699219 74.140625 137.574219 C 74.191406 137.351562 74.414062 137.210938 74.636719 137.261719 C 74.863281 137.3125 75.003906 137.535156 74.953125 137.761719 Z M 109.933594 161.902344 C 109.996094 162.121094 109.867188 162.351562 109.644531 162.414062 C 109.609375 162.425781 109.570312 162.433594 109.53125 162.433594 C 109.351562 162.433594 109.183594 162.3125 109.132812 162.128906 L 104.003906 144.128906 C 103.9375 143.910156 104.066406 143.679688 104.289062 143.617188 C 104.511719 143.554688 104.738281 143.683594 104.804688 143.902344 Z M 100.910156 101.859375 C 100.636719 101.820312 100.621094 101.476562 100.648438 101.238281 C 100.667969 101.058594 100.730469 100.886719 100.851562 100.753906 C 100.972656 100.621094 101.148438 100.535156 101.320312 100.828125 C 101.519531 101.167969 101.335938 101.921875 100.910156 101.859375 Z M 102.4375 107.46875 C 102.628906 107.449219 102.800781 107.582031 102.820312 107.773438 C 102.84375 107.960938 102.707031 108.132812 102.515625 108.15625 C 102.386719 108.171875 102.257812 108.179688 102.136719 108.179688 C 100.273438 108.179688 99.210938 106.597656 99.160156 106.527344 C 99.054688 106.367188 99.101562 106.152344 99.257812 106.046875 C 99.417969 105.941406 99.632812 105.984375 99.738281 106.144531 C 99.78125 106.207031 100.761719 107.65625 102.4375 107.46875 Z M 166.417969 126.351562 L 165.585938 127.765625 L 165.585938 112.738281 C 165.855469 113.167969 166.128906 113.585938 166.417969 113.996094 Z M 121.039062 311.820312 C 121.117188 311.976562 121.210938 312.109375 121.296875 312.25 C 121.203125 312.167969 121.089844 312.109375 120.964844 312.105469 L 120.246094 312.089844 C 120.160156 311.902344 120.058594 311.628906 119.941406 311.269531 C 119.847656 310.992188 119.746094 310.667969 119.636719 310.3125 C 119.582031 310.132812 119.523438 309.855469 119.449219 309.457031 L 120.296875 309.457031 C 120.347656 309.738281 120.394531 309.945312 120.433594 310.074219 C 120.539062 310.421875 120.636719 310.734375 120.726562 311.007812 C 120.898438 311.527344 120.996094 311.742188 121.039062 311.820312 Z M 106.847656 309.457031 L 107.035156 311.828125 L 106.65625 311.820312 C 106.480469 311.820312 106.3125 311.921875 106.210938 312.070312 L 106.15625 311.164062 L 106.015625 309.457031 Z M 46.550781 296.859375 C 46.78125 296.980469 47.027344 297.105469 47.296875 297.234375 L 47.097656 297.695312 C 47.085938 297.71875 47.074219 297.742188 47.058594 297.761719 L 45.875 299.515625 L 45.078125 299.210938 L 46.347656 297.328125 Z M 59.988281 301.828125 C 60 301.832031 60.007812 301.832031 60.019531 301.835938 C 59.851562 302.183594 59.695312 302.515625 59.667969 302.605469 C 59.621094 302.839844 59.578125 303.066406 59.539062 303.273438 L 59.488281 303.5625 C 59.394531 304.097656 59.378906 304.332031 59.378906 304.425781 C 59.375 304.601562 59.390625 304.765625 59.402344 304.933594 C 59.351562 304.789062 59.25 304.660156 59.101562 304.605469 L 58.546875 304.390625 C 58.550781 304.183594 58.59375 303.859375 58.667969 303.417969 L 58.722656 303.121094 C 58.761719 302.914062 58.804688 302.679688 58.855469 302.433594 C 58.878906 302.304688 58.980469 302.078125 59.203125 301.621094 C 59.464844 301.691406 59.738281 301.765625 59.988281 301.828125 Z M 59.988281 301.828125 " fill-opacity="1" fill-rule="nonzero"/></svg>