<svg xmlns="http://www.w3.org/2000/svg" xmlns:xlink="http://www.w3.org/1999/xlink" width="500" zoomAndPan="magnify" viewBox="0 0 375 374.999991" height="500" preserveAspectRatio="xMidYMid meet" version="1.0"><defs><clipPath id="f0f3defb07"><path d="M 0 177 L 184 177 L 184 375 L 0 375 Z M 0 177 " clip-rule="nonzero"/></clipPath><clipPath id="eee545b80a"><path d="M 140.429688 156.671875 L 204.019531 220.257812 L 27.234375 397.042969 L -36.355469 333.457031 Z M 140.429688 156.671875 " clip-rule="nonzero"/></clipPath><clipPath id="cfb077c6f3"><path d="M 159.414062 180.105469 C 164.003906 182.007812 168.605469 184.84375 172.242188 188.480469 C 175.878906 192.121094 178.625 196.375 180.503906 200.945312 C 180.53125 201.054688 180.601562 201.125 180.628906 201.234375 C 187.367188 218.722656 182.097656 241.835938 163.867188 260.410156 L 27.234375 397.042969 L -36.355469 333.457031 L 100.175781 196.925781 C 118.9375 178.507812 141.914062 173.101562 159.414062 180.105469 Z M 159.414062 180.105469 " clip-rule="nonzero"/></clipPath><clipPath id="f85f6ae5fe"><path d="M 0 137 L 75 137 L 75 299 L 0 299 Z M 0 137 " clip-rule="nonzero"/></clipPath><clipPath id="a0ee9bbcb3"><path d="M 41.144531 121.652344 L 90.691406 171.199219 L -36.367188 298.257812 L -85.914062 248.710938 Z M 41.144531 121.652344 " clip-rule="nonzero"/></clipPath><clipPath id="0675952888"><path d="M 55.9375 139.914062 C 59.515625 141.398438 63.097656 143.605469 65.929688 146.441406 C 68.765625 149.273438 70.90625 152.589844 72.371094 156.152344 C 72.390625 156.238281 72.445312 156.289062 72.464844 156.378906 C 77.71875 170.003906 73.613281 188.011719 59.644531 202.25 L -36.367188 298.257812 L -85.914062 248.710938 L 10.023438 152.773438 C 24.398438 138.667969 42.300781 134.457031 55.9375 139.914062 Z M 55.9375 139.914062 " clip-rule="nonzero"/></clipPath><clipPath id="0e81a6ad35"><path d="M 0 290 L 159 290 L 159 375 L 0 375 Z M 0 290 " clip-rule="nonzero"/></clipPath><clipPath id="735fe25534"><path d="M 115.765625 270 L 179.351562 333.585938 L 16.285156 496.652344 L -47.300781 433.0625 Z M 115.765625 270 " clip-rule="nonzero"/></clipPath><clipPath id="054c21228e"><path d="M 134.746094 293.429688 C 139.339844 295.335938 143.9375 298.171875 147.574219 301.808594 C 151.210938 305.445312 153.957031 309.703125 155.839844 314.273438 C 155.867188 314.382812 155.933594 314.449219 155.960938 314.5625 C 162.699219 332.050781 157.433594 355.160156 139.503906 373.433594 L 16.285156 496.652344 L -47.300781 433.0625 L 75.824219 309.9375 C 94.273438 291.832031 117.246094 286.429688 134.746094 293.429688 Z M 134.746094 293.429688 " clip-rule="nonzero"/></clipPath></defs><g clip-path="url(#f0f3defb07)"><g clip-path="url(#eee545b80a)"><g clip-path="url(#cfb077c6f3)"><path fill="#83b943" d="M 140.429688 156.671875 L 204.019531 220.257812 L 27.234375 397.042969 L -36.355469 333.457031 Z M 140.429688 156.671875 " fill-opacity="1" fill-rule="nonzero"/></g></g></g><g clip-path="url(#f85f6ae5fe)"><g clip-path="url(#a0ee9bbcb3)"><g clip-path="url(#0675952888)"><path fill="#83b943" d="M 41.144531 121.652344 L 90.691406 171.199219 L -36.367188 298.257812 L -85.914062 248.710938 Z M 41.144531 121.652344 " fill-opacity="1" fill-rule="nonzero"/></g></g></g><g clip-path="url(#0e81a6ad35)"><g clip-path="url(#735fe25534)"><g clip-path="url(#054c21228e)"><path fill="#1e2546" d="M 115.765625 270 L 179.351562 333.585938 L 16.285156 496.652344 L -47.300781 433.0625 Z M 115.765625 270 " fill-opacity="1" fill-rule="nonzero"/></g></g></g></svg>