<svg xmlns="http://www.w3.org/2000/svg" xmlns:xlink="http://www.w3.org/1999/xlink" width="500" zoomAndPan="magnify" viewBox="0 0 375 374.999991" height="500" preserveAspectRatio="xMidYMid meet" version="1.0"><defs><clipPath id="c5b189160a"><path d="M 234 0 L 375 0 L 375 138 L 234 138 Z M 234 0 " clip-rule="nonzero"/></clipPath><clipPath id="e8c37e1bde"><path d="M 265.289062 151.695312 L 219.949219 106.355469 L 377.253906 -50.953125 L 422.59375 -5.609375 Z M 265.289062 151.695312 " clip-rule="nonzero"/></clipPath><clipPath id="c9d069a22c"><path d="M 251.753906 134.988281 C 248.480469 133.628906 245.199219 131.605469 242.605469 129.011719 C 240.011719 126.417969 238.054688 123.382812 236.714844 120.125 C 236.695312 120.046875 236.644531 119.996094 236.625 119.917969 C 231.820312 107.449219 235.578125 90.96875 249.273438 77.027344 L 377.253906 -50.953125 L 422.59375 -5.609375 L 294.710938 122.277344 C 280.613281 136.125 264.230469 139.980469 251.753906 134.988281 Z M 251.753906 134.988281 " clip-rule="nonzero"/></clipPath><clipPath id="94659d489d"><path d="M 312 2 L 375 2 L 375 166 L 312 166 Z M 312 2 " clip-rule="nonzero"/></clipPath><clipPath id="daace159d8"><path d="M 336.089844 176.667969 L 300.757812 141.335938 L 439.355469 2.742188 L 474.683594 38.070312 Z M 336.089844 176.667969 " clip-rule="nonzero"/></clipPath><clipPath id="7bbb1e1ec3"><path d="M 325.542969 163.648438 C 322.992188 162.589844 320.4375 161.015625 318.414062 158.992188 C 316.394531 156.972656 314.867188 154.605469 313.824219 152.070312 C 313.808594 152.007812 313.769531 151.96875 313.753906 151.90625 C 310.011719 142.191406 312.9375 129.351562 323.964844 118.132812 L 439.355469 2.742188 L 474.683594 38.070312 L 359.378906 153.375 C 348.03125 164.535156 335.265625 167.539062 325.542969 163.648438 Z M 325.542969 163.648438 " clip-rule="nonzero"/></clipPath><clipPath id="d2c43266b3"><path d="M 234 0 L 373 0 L 373 37 L 234 37 Z M 234 0 " clip-rule="nonzero"/></clipPath><clipPath id="3bb97130df"><path d="M 265.289062 50.738281 L 219.945312 5.394531 L 327.027344 -101.6875 L 372.371094 -56.34375 Z M 265.289062 50.738281 " clip-rule="nonzero"/></clipPath><clipPath id="7468e6c1c2"><path d="M 251.753906 34.027344 C 248.476562 32.667969 245.199219 30.648438 242.605469 28.054688 C 240.011719 25.460938 238.054688 22.425781 236.710938 19.167969 C 236.695312 19.089844 236.644531 19.039062 236.625 18.960938 C 231.820312 6.492188 235.578125 -9.988281 248.15625 -22.8125 L 327.027344 -101.6875 L 372.371094 -56.34375 L 293.558594 22.46875 C 280.613281 35.167969 264.230469 39.023438 251.753906 34.027344 Z M 251.753906 34.027344 " clip-rule="nonzero"/></clipPath><clipPath id="b23c35041c"><path d="M 200.3125 40.203125 L 230.796875 40.203125 L 230.796875 70.6875 L 200.3125 70.6875 Z M 200.3125 40.203125 " clip-rule="nonzero"/></clipPath><clipPath id="bd56a7c840"><path d="M 215.554688 40.203125 C 207.136719 40.203125 200.3125 47.027344 200.3125 55.445312 C 200.3125 63.863281 207.136719 70.6875 215.554688 70.6875 C 223.972656 70.6875 230.796875 63.863281 230.796875 55.445312 C 230.796875 47.027344 223.972656 40.203125 215.554688 40.203125 Z M 215.554688 40.203125 " clip-rule="nonzero"/></clipPath></defs><g clip-path="url(#c5b189160a)"><g clip-path="url(#e8c37e1bde)"><g clip-path="url(#c9d069a22c)"><path fill="#1e2546" d="M 265.289062 151.695312 L 219.949219 106.355469 L 377.253906 -50.953125 L 422.59375 -5.609375 Z M 265.289062 151.695312 " fill-opacity="1" fill-rule="nonzero"/></g></g></g><g clip-path="url(#94659d489d)"><g clip-path="url(#daace159d8)"><g clip-path="url(#7bbb1e1ec3)"><path fill="#83b943" d="M 336.089844 176.667969 L 300.757812 141.335938 L 439.355469 2.742188 L 474.683594 38.070312 Z M 336.089844 176.667969 " fill-opacity="1" fill-rule="nonzero"/></g></g></g><g clip-path="url(#d2c43266b3)"><g clip-path="url(#3bb97130df)"><g clip-path="url(#7468e6c1c2)"><path fill="#83b943" d="M 265.289062 50.738281 L 219.945312 5.394531 L 327.027344 -101.6875 L 372.371094 -56.34375 Z M 265.289062 50.738281 " fill-opacity="1" fill-rule="nonzero"/></g></g></g><g clip-path="url(#b23c35041c)"><g clip-path="url(#bd56a7c840)"><path fill="#83b943" d="M 200.3125 40.203125 L 230.796875 40.203125 L 230.796875 70.6875 L 200.3125 70.6875 Z M 200.3125 40.203125 " fill-opacity="1" fill-rule="nonzero"/></g></g></svg>