<svg xmlns="http://www.w3.org/2000/svg" xmlns:xlink="http://www.w3.org/1999/xlink" width="500" zoomAndPan="magnify" viewBox="0 0 375 374.999991" height="500" preserveAspectRatio="xMidYMid meet" version="1.0"><defs><clipPath id="7c15bce2bb"><path d="M 267.75 67.523438 L 344.25 67.523438 L 344.25 140.882812 L 267.75 140.882812 Z M 267.75 67.523438 " clip-rule="nonzero"/></clipPath></defs><path fill="#faeee8" d="M 226.625 294.839844 C 226.625 294.839844 286.738281 271.644531 280.023438 198.5 C 271.664062 107.457031 84.75 99.777344 100.460938 229.183594 C 106.375 277.917969 152.285156 294.1875 152.285156 294.1875 L 226.625 294.839844 " fill-opacity="1" fill-rule="nonzero"/><path fill="#a95d50" d="M 323.835938 139.730469 C 324.121094 137.085938 318.722656 138.539062 318.722656 138.539062 C 318.722656 138.539062 319.316406 136.765625 316.480469 137.128906 C 315.039062 137.3125 311.167969 138.9375 307.714844 140.484375 C 308.367188 138.902344 308.261719 137.410156 306.367188 137.371094 C 303.449219 137.316406 291.628906 147.589844 291.628906 147.589844 C 291.628906 147.589844 291.632812 147.585938 291.636719 147.585938 C 290.101562 148.699219 289.320312 149.824219 288.625 150.84375 C 285.226562 155.808594 283.183594 160.859375 283.183594 160.859375 C 288.183594 166.597656 303.800781 164.105469 303.800781 164.105469 C 303.800781 164.105469 305.796875 157.664062 308.222656 154.835938 C 310.652344 152.007812 319.832031 145.964844 323.847656 143.285156 C 326.480469 141.527344 325.824219 139.820312 323.835938 139.730469 " fill-opacity="1" fill-rule="nonzero"/><path fill="#3f2524" d="M 306.386719 143.628906 C 310.464844 141.835938 314.621094 140.226562 318.84375 138.800781 C 319.15625 138.695312 319.019531 138.199219 318.707031 138.304688 C 314.445312 139.746094 310.246094 141.375 306.125 143.1875 C 305.824219 143.320312 306.085938 143.761719 306.386719 143.628906 " fill-opacity="1" fill-rule="nonzero"/><g clip-path="url(#7c15bce2bb)"><path fill="#708edf" d="M 275.195312 126.089844 C 283.035156 135.976562 296.167969 141.675781 308.855469 140.613281 C 313.800781 140.195312 318.667969 138.953125 323.195312 136.929688 C 352.046875 124.039062 351.894531 78.113281 318.777344 68.914062 C 292.015625 61.480469 261.570312 84.964844 269.039062 113.832031 C 270.214844 118.382812 272.359375 122.511719 275.195312 126.089844 " fill-opacity="1" fill-rule="nonzero"/></g><path fill="#a95d50" d="M 302.96875 146.96875 C 303.546875 145.898438 306.070312 143.28125 307.714844 140.484375 C 308.367188 138.902344 308.261719 137.410156 306.367188 137.371094 C 304.3125 137.332031 297.832031 142.425781 294.183594 145.433594 C 296.984375 146.480469 299.976562 147.339844 302.96875 146.96875 " fill-opacity="1" fill-rule="nonzero"/><path fill="#3f2524" d="M 310.78125 145.074219 C 315.125 143.394531 319.472656 141.714844 323.816406 140.035156 C 324.121094 139.914062 323.988281 139.417969 323.679688 139.539062 C 319.335938 141.21875 314.988281 142.902344 310.644531 144.582031 C 310.339844 144.699219 310.472656 145.195312 310.78125 145.074219 " fill-opacity="1" fill-rule="nonzero"/><path fill="#3f2524" d="M 300.195312 150.238281 C 300.96875 149.902344 301.707031 149.484375 302.335938 148.917969 C 302.90625 148.394531 303.484375 147.695312 303.761719 146.964844 C 303.910156 146.578125 303.945312 146.15625 304.054688 145.757812 C 304.152344 145.390625 304.335938 145.148438 304.59375 144.878906 C 305.152344 144.296875 305.753906 143.757812 306.300781 143.167969 C 306.9375 142.476562 307.539062 141.71875 307.847656 140.824219 C 307.957031 140.511719 307.457031 140.375 307.351562 140.6875 C 306.824219 142.214844 305.425781 143.296875 304.332031 144.414062 C 304.125 144.621094 303.902344 144.832031 303.761719 145.085938 C 303.570312 145.425781 303.507812 145.824219 303.433594 146.199219 C 303.265625 147.003906 302.820312 147.6875 302.25 148.28125 C 301.601562 148.957031 300.789062 149.425781 299.933594 149.796875 C 299.632812 149.929688 299.894531 150.371094 300.195312 150.238281 " fill-opacity="1" fill-rule="nonzero"/><path fill="#3f2524" d="M 306.324219 143.65625 C 308.617188 144.191406 310.785156 145.128906 312.75 146.425781 C 313.027344 146.609375 313.285156 146.164062 313.007812 145.980469 C 311.011719 144.664062 308.792969 143.707031 306.460938 143.160156 C 306.140625 143.082031 306.003906 143.578125 306.324219 143.65625 " fill-opacity="1" fill-rule="nonzero"/><path fill="#3f2524" d="M 165.488281 126.0625 C 164.257812 128.097656 164.585938 133.304688 163.996094 135.484375 C 159.472656 142.320312 155.683594 147.195312 155.554688 155.4375 C 155.488281 159.667969 156.894531 164.074219 154.050781 167.675781 C 151.566406 170.816406 148.382812 173.105469 146.535156 176.75 C 144.945312 179.890625 149.953125 182.074219 151.535156 178.949219 C 152.363281 177.316406 153.582031 175.984375 154.867188 174.699219 C 155.53125 175.492188 156.597656 175.921875 157.84375 175.425781 C 162.179688 173.710938 166.859375 171.261719 169.941406 167.664062 C 172.761719 164.367188 173.171875 159.960938 172.214844 155.867188 C 171.085938 151.046875 168.117188 146.828125 167.453125 141.886719 C 167.121094 139.429688 167.269531 137.011719 167.820312 134.683594 C 168.042969 134.367188 168.265625 134.046875 168.496094 133.730469 C 169.101562 132.921875 169.175781 132.0625 168.925781 131.316406 C 169.367188 130.273438 169.886719 129.253906 170.484375 128.261719 C 172.300781 125.265625 167.28125 123.101562 165.488281 126.0625 " fill-opacity="1" fill-rule="nonzero"/><path fill="#3f2524" d="M 197.035156 142.089844 C 195.40625 140.398438 193.425781 139.339844 192.804688 136.964844 C 192.246094 134.8125 191.414062 132.046875 190.371094 130.015625 C 188.453125 126.277344 185.691406 123.625 181.828125 122.117188 C 180.394531 121.558594 179.480469 123.089844 178.996094 124.152344 C 178.632812 124.582031 178.429688 125.167969 178.492188 125.921875 C 178.96875 131.570312 178.992188 137.191406 178.695312 142.851562 C 178.449219 147.613281 178.253906 152.542969 180.101562 157.042969 C 181.570312 160.621094 184.15625 163.808594 187.816406 165.289062 C 191.574219 166.808594 195.417969 166.0625 199.070312 164.75 C 199.5 167.539062 203.902344 168.492188 204.328125 165.332031 C 205.472656 156.875 203.019531 148.3125 197.035156 142.089844 " fill-opacity="1" fill-rule="nonzero"/><path fill="#ad7976" d="M 191.710938 143.921875 C 195.035156 146.992188 197.605469 150.851562 199.144531 155.101562 C 199.578125 156.300781 199.929688 157.527344 200.199219 158.773438 C 200.269531 159.097656 200.765625 158.960938 200.695312 158.636719 C 199.722656 154.148438 197.660156 149.921875 194.738281 146.375 C 193.917969 145.375 193.023438 144.4375 192.074219 143.558594 C 191.832031 143.335938 191.464844 143.699219 191.710938 143.921875 " fill-opacity="1" fill-rule="nonzero"/><path fill="#ad7976" d="M 186.800781 147.460938 C 189.957031 150.707031 192.304688 154.707031 193.605469 159.039062 C 193.972656 160.257812 194.253906 161.503906 194.457031 162.761719 C 194.507812 163.085938 195.003906 162.949219 194.953125 162.625 C 194.230469 158.097656 192.40625 153.75 189.679688 150.0625 C 188.90625 149.019531 188.070312 148.03125 187.167969 147.097656 C 186.933594 146.863281 186.570312 147.226562 186.800781 147.460938 " fill-opacity="1" fill-rule="nonzero"/><path fill="#693937" d="M 215.273438 233.367188 L 215.480469 240.496094 C 215.480469 240.496094 225.183594 265.375 226.625 294.839844 C 226.625 294.839844 193.742188 307.332031 152.285156 294.1875 C 152.285156 294.1875 152.285156 267.65625 164.539062 245.386719 L 164.503906 240.128906 L 215.273438 233.367188 " fill-opacity="1" fill-rule="nonzero"/><path fill="#361f1f" d="M 179.214844 238.226562 C 179.398438 240.652344 179.5 243.089844 179.59375 245.523438 C 179.609375 245.851562 180.121094 245.851562 180.109375 245.523438 C 180.011719 243.089844 179.910156 240.652344 179.730469 238.226562 C 179.707031 237.898438 179.191406 237.894531 179.214844 238.226562 " fill-opacity="1" fill-rule="nonzero"/><path fill="#361f1f" d="M 181.734375 238.324219 C 181.910156 240.699219 182.011719 243.078125 182.105469 245.460938 C 182.117188 245.789062 182.632812 245.792969 182.617188 245.460938 C 182.523438 243.078125 182.425781 240.699219 182.25 238.324219 C 182.222656 238 181.710938 237.996094 181.734375 238.324219 " fill-opacity="1" fill-rule="nonzero"/><path fill="#361f1f" d="M 206.644531 235.28125 C 206.824219 237.710938 206.925781 240.144531 207.023438 242.578125 C 207.035156 242.90625 207.550781 242.910156 207.535156 242.578125 C 207.441406 240.144531 207.335938 237.710938 207.15625 235.28125 C 207.132812 234.953125 206.617188 234.953125 206.644531 235.28125 " fill-opacity="1" fill-rule="nonzero"/><path fill="#361f1f" d="M 209.160156 234.835938 C 209.335938 237.210938 209.4375 239.589844 209.53125 241.972656 C 209.542969 242.300781 210.058594 242.300781 210.046875 241.972656 C 209.953125 239.589844 209.851562 237.210938 209.675781 234.835938 C 209.652344 234.507812 209.136719 234.507812 209.160156 234.835938 " fill-opacity="1" fill-rule="nonzero"/><path fill="#361f1f" d="M 164.78125 245.65625 C 171.414062 245.933594 178.0625 245.945312 184.691406 245.605469 C 191.378906 245.269531 198.058594 244.578125 204.644531 243.359375 C 208.242188 242.691406 211.8125 241.863281 215.320312 240.828125 C 215.636719 240.730469 215.5 240.238281 215.183594 240.332031 C 208.863281 242.199219 202.355469 243.398438 195.816406 244.171875 C 189.171875 244.953125 182.484375 245.300781 175.796875 245.34375 C 172.125 245.367188 168.453125 245.296875 164.78125 245.144531 C 164.453125 245.132812 164.453125 245.644531 164.78125 245.65625 " fill-opacity="1" fill-rule="nonzero"/><path fill="#361f1f" d="M 155.707031 270.757812 C 159.773438 268.820312 163.480469 266.035156 166.453125 262.65625 C 169.03125 259.722656 171.109375 256.273438 171.796875 252.390625 C 172.191406 250.15625 172.425781 247.851562 172.363281 245.582031 C 172.351562 245.25 171.839844 245.25 171.847656 245.582031 C 171.90625 247.570312 171.722656 249.578125 171.417969 251.542969 C 171.144531 253.308594 170.6875 254.980469 169.917969 256.597656 C 168.09375 260.433594 165.140625 263.699219 161.828125 266.328125 C 159.863281 267.890625 157.714844 269.230469 155.449219 270.3125 C 155.148438 270.453125 155.410156 270.898438 155.707031 270.757812 " fill-opacity="1" fill-rule="nonzero"/><path fill="#361f1f" d="M 194.671875 233.976562 C 194.878906 237.472656 195.089844 240.964844 195.300781 244.457031 C 195.316406 244.785156 195.832031 244.789062 195.8125 244.457031 C 195.605469 240.964844 195.394531 237.472656 195.1875 233.976562 C 195.167969 233.648438 194.652344 233.648438 194.671875 233.976562 " fill-opacity="1" fill-rule="nonzero"/><path fill="#361f1f" d="M 195.308594 244.523438 C 195.871094 247.867188 196.394531 251.214844 196.898438 254.5625 C 197.449219 258.214844 197.972656 261.875 198.476562 265.535156 C 199 269.300781 199.496094 273.066406 199.980469 276.839844 C 200.449219 280.527344 200.90625 284.21875 201.34375 287.914062 C 201.746094 291.328125 202.132812 294.742188 202.5 298.160156 C 202.542969 298.554688 202.585938 298.949219 202.625 299.347656 C 202.660156 299.671875 203.175781 299.675781 203.140625 299.347656 C 202.78125 295.960938 202.402344 292.578125 202.007812 289.195312 C 201.578125 285.523438 201.128906 281.855469 200.664062 278.1875 C 200.1875 274.40625 199.691406 270.628906 199.175781 266.851562 C 198.671875 263.167969 198.148438 259.484375 197.601562 255.804688 C 197.09375 252.386719 196.5625 248.972656 196 245.566406 C 195.933594 245.175781 195.871094 244.78125 195.804688 244.390625 C 195.75 244.0625 195.253906 244.203125 195.308594 244.523438 " fill-opacity="1" fill-rule="nonzero"/><path fill="#361f1f" d="M 199.945312 244.007812 C 200.867188 247.875 201.667969 251.773438 202.347656 255.691406 C 202.691406 257.6875 203.042969 259.695312 203.246094 261.710938 C 203.4375 263.609375 203.425781 265.601562 202.640625 267.378906 C 202.265625 268.238281 201.722656 269.023438 200.996094 269.625 C 200.472656 270.058594 199.933594 270.371094 199.332031 270.6875 C 199.039062 270.839844 199.300781 271.285156 199.59375 271.128906 C 200.105469 270.859375 200.570312 270.59375 201.03125 270.246094 C 201.707031 269.734375 202.265625 269.121094 202.699219 268.390625 C 203.65625 266.773438 203.921875 264.867188 203.855469 263.015625 C 203.777344 260.949219 203.394531 258.882812 203.058594 256.84375 C 202.71875 254.789062 202.34375 252.738281 201.933594 250.695312 C 201.476562 248.410156 200.980469 246.136719 200.441406 243.871094 C 200.367188 243.546875 199.871094 243.683594 199.945312 244.007812 " fill-opacity="1" fill-rule="nonzero"/><path fill="#a95d50" d="M 97.191406 196.152344 C 97.191406 196.152344 97.195312 196.15625 97.195312 196.15625 C 97.195312 196.15625 84.601562 188.226562 81.808594 189.074219 C 80.050781 189.609375 80.269531 190.953125 81.25 192.226562 C 77.65625 191.425781 73.769531 190.667969 72.371094 190.769531 C 69.519531 190.976562 70.453125 192.59375 70.453125 192.59375 C 70.453125 192.59375 64.914062 192.25 65.675781 194.757812 C 65.667969 194.757812 65.652344 194.757812 65.640625 194.761719 C 63.160156 195.152344 63.734375 199.128906 67.472656 200.328125 C 71.835938 201.726562 80.855469 204.585938 82.511719 205.566406 C 83.507812 206.160156 85.675781 212.90625 85.675781 212.90625 C 85.675781 212.90625 97.40625 210.285156 102.027344 203.449219 C 102.027344 203.449219 100.375 197.980469 97.191406 196.152344 " fill-opacity="1" fill-rule="nonzero"/><path fill="#3f2524" d="M 83.710938 194.636719 C 79.3125 193.683594 74.871094 192.929688 70.40625 192.363281 C 70.078125 192.324219 70.082031 192.835938 70.40625 192.878906 C 74.828125 193.433594 79.222656 194.1875 83.574219 195.132812 C 83.898438 195.203125 84.035156 194.707031 83.710938 194.636719 " fill-opacity="1" fill-rule="nonzero"/><path fill="#fcaed6" d="M 103.53125 129.675781 C 91.433594 120.210938 73.625 119.0625 59.894531 125.578125 C 52.03125 129.304688 45.769531 135.777344 42.671875 143.933594 C 37.507812 157.542969 40.800781 174.742188 52.53125 184.226562 C 66.765625 195.734375 88.894531 195.648438 103.683594 185.207031 C 121.398438 172.699219 120.804688 144.902344 105.179688 131.046875 C 104.640625 130.570312 104.09375 130.113281 103.53125 129.675781 " fill-opacity="1" fill-rule="nonzero"/><path fill="#a95d50" d="M 83.9375 194.933594 C 86.589844 194.734375 89.109375 193.957031 91.457031 192.789062 C 87.742188 190.746094 83.328125 188.613281 81.808594 189.074219 C 80.050781 189.609375 80.269531 190.953125 81.25 192.226562 C 82.039062 193.082031 82.972656 194.007812 83.9375 194.933594 " fill-opacity="1" fill-rule="nonzero"/><path fill="#fdbd65" d="M 283.183594 160.859375 C 277.15625 173.359375 272.105469 184.148438 266.214844 197.050781 C 257.628906 188.871094 248.527344 181.257812 239.328125 173.777344 C 229.59375 165.863281 220.058594 157.035156 206.671875 157.457031 C 199.847656 157.671875 193.242188 159.695312 186.804688 161.800781 C 179.933594 164.050781 173.066406 166.320312 166.195312 168.578125 C 160.488281 170.457031 154.488281 172.078125 149.234375 175.070312 C 143.964844 178.070312 140.410156 182.554688 137.488281 187.773438 C 130.167969 200.832031 123.148438 214.578125 116.089844 227.785156 C 111.351562 219.859375 106.664062 211.808594 102.027344 203.449219 C 94.839844 209.097656 93.804688 209.273438 85.675781 212.90625 C 87.382812 218.613281 89.222656 224.167969 89.222656 224.167969 C 89.222656 224.167969 86.996094 229.011719 88.753906 236.339844 C 90.601562 244.03125 93.867188 253.738281 97.160156 261.882812 C 100.035156 268.992188 104.410156 275.148438 112.234375 277.3125 C 115.441406 278.199219 118.875 278.4375 122.097656 277.613281 C 135.636719 274.160156 142.523438 256.84375 147.816406 245.605469 C 150.1875 240.570312 152.402344 234.355469 154.539062 229.222656 C 158.171875 234.371094 160.726562 237.046875 164.503906 240.128906 C 186.257812 241.113281 203.128906 238.089844 215.273438 233.367188 C 219.761719 226.464844 222.855469 219.320312 224.324219 209.421875 C 226.808594 212.074219 229.371094 214.65625 232.035156 217.136719 C 241.933594 226.34375 253.320312 235.773438 266.777344 239.070312 C 272.417969 240.449219 278.730469 240.34375 283.984375 237.65625 C 289.394531 234.882812 292.8125 229.292969 295.066406 223.851562 C 298.011719 216.742188 303.472656 191.117188 304.382812 185.894531 C 305.488281 179.582031 301.738281 174.886719 301.738281 174.886719 C 302.367188 171.984375 302.597656 170.578125 303.800781 164.105469 C 294.792969 163.835938 292.132812 163.484375 283.183594 160.859375 " fill-opacity="1" fill-rule="nonzero"/><path fill="#a95d50" d="M 168.347656 148.917969 L 167.859375 168.4375 C 167.859375 168.4375 181.957031 169.589844 186.804688 161.800781 L 186.804688 151.230469 L 168.347656 148.917969 " fill-opacity="1" fill-rule="nonzero"/><path fill="#a95d50" d="M 161.40625 131.78125 C 162.222656 125.714844 167.050781 121.160156 173.484375 120.554688 C 175.152344 120.398438 176.84375 120.449219 178.496094 120.738281 C 182.996094 121.527344 186.472656 124.417969 188.546875 128.425781 C 190.035156 131.308594 190.457031 133.910156 191.042969 136.050781 C 192.1875 140.226562 192.710938 142.289062 193.445312 146.152344 C 194.28125 150.574219 193.570312 155.089844 187.992188 156.390625 C 182.3125 157.714844 176.503906 155.699219 171.976562 152.242188 C 165.917969 147.613281 160.316406 139.871094 161.40625 131.78125 " fill-opacity="1" fill-rule="nonzero"/><path fill="#3f2524" d="M 183.726562 133.621094 C 184.089844 135.191406 182.277344 134.929688 180.933594 136.269531 C 179.699219 137.5 178.621094 137.945312 178.140625 137.199219 C 177.558594 136.292969 178.296875 134.40625 180.402344 133.179688 C 182.375 132.035156 183.464844 132.476562 183.726562 133.621094 " fill-opacity="1" fill-rule="nonzero"/><path fill="#3f2524" d="M 184.820312 133.046875 C 185.328125 134.574219 186.742188 133.414062 188.585938 133.863281 C 190.28125 134.277344 191.433594 134.101562 191.457031 133.210938 C 191.484375 132.136719 189.871094 130.90625 187.433594 130.949219 C 185.152344 130.988281 184.449219 131.933594 184.820312 133.046875 " fill-opacity="1" fill-rule="nonzero"/><path fill="#3f2524" d="M 180.242188 126.699219 C 180.242188 126.699219 182.140625 133.042969 174.617188 139.230469 L 173.714844 145.246094 C 173.714844 145.246094 178.050781 155.613281 167.675781 161.863281 C 158.539062 167.363281 161.636719 139.027344 161.636719 139.027344 C 161.636719 139.027344 156.167969 122.976562 171.308594 120.46875 C 183.558594 118.4375 190.261719 126.652344 189.480469 130.527344 C 189.480469 130.527344 185.882812 127.476562 180.242188 126.699219 " fill-opacity="1" fill-rule="nonzero"/><path fill="#ad7976" d="M 176.1875 123.402344 C 177.304688 128.226562 175.746094 133.191406 173.605469 137.503906 C 172.972656 138.773438 172.277344 140.015625 171.542969 141.230469 C 171.371094 141.515625 171.816406 141.773438 171.984375 141.492188 C 174.566406 137.210938 176.878906 132.410156 177.066406 127.324219 C 177.117188 125.960938 176.992188 124.597656 176.683594 123.265625 C 176.609375 122.945312 176.113281 123.082031 176.1875 123.402344 " fill-opacity="1" fill-rule="nonzero"/><path fill="#261515" d="M 188.855469 135.941406 C 189.996094 135.371094 190.679688 137.078125 190.804688 137.835938 C 190.890625 138.332031 190.867188 138.976562 190.347656 139.222656 C 189.589844 139.585938 189.027344 138.59375 188.777344 138.035156 C 188.5 137.414062 188.109375 136.3125 188.855469 135.941406 " fill-opacity="1" fill-rule="nonzero"/><path fill="#261515" d="M 182.007812 137.730469 C 183.148438 137.167969 183.828125 138.871094 183.957031 139.628906 C 184.042969 140.125 184.019531 140.769531 183.5 141.015625 C 182.742188 141.378906 182.175781 140.386719 181.929688 139.828125 C 181.652344 139.203125 181.261719 138.101562 182.007812 137.730469 " fill-opacity="1" fill-rule="nonzero"/><path fill="#3f2524" d="M 186.601562 136.984375 C 187.210938 138.722656 188.367188 140.167969 189.320312 141.722656 C 189.492188 142.003906 189.9375 141.746094 189.761719 141.460938 C 188.835938 139.953125 187.6875 138.539062 187.097656 136.847656 C 186.988281 136.539062 186.492188 136.671875 186.601562 136.984375 " fill-opacity="1" fill-rule="nonzero"/><path fill="#3f2524" d="M 187.230469 142.808594 C 187.707031 142.746094 188.171875 142.640625 188.617188 142.464844 C 189.046875 142.296875 189.484375 142.105469 189.761719 141.722656 C 189.84375 141.609375 189.78125 141.4375 189.671875 141.371094 C 189.539062 141.296875 189.402344 141.351562 189.320312 141.460938 C 189.117188 141.742188 188.710938 141.886719 188.402344 142 C 188.023438 142.140625 187.628906 142.242188 187.230469 142.296875 C 187.09375 142.3125 186.972656 142.402344 186.972656 142.550781 C 186.972656 142.675781 187.09375 142.828125 187.230469 142.808594 " fill-opacity="1" fill-rule="nonzero"/><path fill="#a95d50" d="M 179.046875 140.988281 C 180.160156 143.054688 179.382812 145.632812 177.308594 146.746094 C 175.234375 147.855469 172.652344 147.078125 171.539062 145.007812 C 170.429688 142.941406 171.207031 140.363281 173.277344 139.25 C 175.351562 138.140625 177.933594 138.917969 179.046875 140.988281 " fill-opacity="1" fill-rule="nonzero"/><path fill="#3f2524" d="M 174.230469 145.082031 C 173.609375 144.601562 173.175781 143.855469 173.144531 143.066406 C 173.109375 142.128906 173.683594 141.433594 174.5 141.042969 C 174.796875 140.898438 174.535156 140.457031 174.238281 140.597656 C 173.28125 141.054688 172.609375 141.929688 172.628906 143.015625 C 172.648438 143.953125 173.128906 144.875 173.867188 145.445312 C 174.125 145.644531 174.492188 145.28125 174.230469 145.082031 " fill-opacity="1" fill-rule="nonzero"/><path fill="#3f2524" d="M 179.417969 155.207031 C 181.671875 156.34375 184.140625 156.972656 186.660156 157.054688 C 186.992188 157.066406 186.992188 156.554688 186.660156 156.542969 C 184.234375 156.464844 181.847656 155.859375 179.679688 154.765625 C 179.386719 154.617188 179.125 155.058594 179.417969 155.207031 " fill-opacity="1" fill-rule="nonzero"/><path fill="#3f2524" d="M 279.316406 169.578125 C 284.84375 171.792969 290.578125 173.550781 296.464844 174.488281 C 298.105469 174.75 299.753906 174.945312 301.410156 175.070312 C 301.738281 175.09375 301.738281 174.582031 301.410156 174.558594 C 295.511719 174.117188 289.707031 172.730469 284.117188 170.820312 C 282.546875 170.28125 280.992188 169.703125 279.449219 169.085938 C 279.144531 168.960938 279.011719 169.457031 279.316406 169.578125 " fill-opacity="1" fill-rule="nonzero"/><path fill="#3f2524" d="M 260.054688 211.042969 C 261.917969 206.257812 264.0625 201.582031 266.472656 197.046875 C 266.628906 196.753906 266.1875 196.496094 266.03125 196.789062 C 263.597656 201.363281 261.4375 206.082031 259.5625 210.910156 C 259.441406 211.214844 259.9375 211.351562 260.054688 211.042969 " fill-opacity="1" fill-rule="nonzero"/><path fill="#3f2524" d="M 116.199219 227.640625 C 118.1875 231.253906 120.175781 234.863281 122.160156 238.472656 C 122.320312 238.761719 122.765625 238.503906 122.605469 238.210938 C 120.617188 234.601562 118.632812 230.992188 116.644531 227.382812 C 116.484375 227.09375 116.039062 227.351562 116.199219 227.640625 " fill-opacity="1" fill-rule="nonzero"/><path fill="#3f2524" d="M 89.351562 224.390625 C 94.410156 222.210938 99.230469 219.601562 103.597656 216.234375 C 104.855469 215.265625 106.074219 214.25 107.261719 213.203125 C 107.511719 212.980469 107.144531 212.621094 106.898438 212.839844 C 104.851562 214.640625 102.722656 216.339844 100.464844 217.871094 C 98.261719 219.367188 95.949219 220.695312 93.566406 221.882812 C 92.09375 222.613281 90.601562 223.296875 89.089844 223.945312 C 88.789062 224.078125 89.050781 224.519531 89.351562 224.390625 " fill-opacity="1" fill-rule="nonzero"/><path fill="#fdbd65" d="M 166.628906 169.3125 C 166.628906 169.3125 166.523438 162.566406 167.675781 161.863281 C 168.609375 161.292969 184.613281 157.316406 187.304688 157.957031 C 188.453125 158.230469 187.683594 164.5 187.683594 164.5 C 187.683594 164.5 178.808594 173.3125 166.628906 169.3125 " fill-opacity="1" fill-rule="nonzero"/><path fill="#3f2524" d="M 166.628906 168.933594 C 172.835938 168.800781 179 167.207031 184.40625 164.136719 C 185.671875 163.417969 186.886719 162.621094 188.046875 161.746094 C 188.308594 161.550781 188.050781 161.101562 187.789062 161.300781 C 183.273438 164.707031 177.914062 166.925781 172.347656 167.882812 C 170.457031 168.207031 168.542969 168.378906 166.628906 168.421875 C 166.296875 168.429688 166.296875 168.941406 166.628906 168.933594 " fill-opacity="1" fill-rule="nonzero"/><path fill="#3f2524" d="M 184.277344 144.628906 C 184.726562 147.023438 187.570312 147.886719 189.292969 145.109375 L 184.277344 144.628906 " fill-opacity="1" fill-rule="nonzero"/><path fill="#3f2524" d="M 79.628906 196.917969 C 75.035156 196.136719 70.441406 195.355469 65.847656 194.574219 C 65.523438 194.515625 65.386719 195.011719 65.710938 195.066406 C 70.304688 195.847656 74.898438 196.628906 79.492188 197.414062 C 79.816406 197.46875 79.953125 196.972656 79.628906 196.917969 " fill-opacity="1" fill-rule="nonzero"/><path fill="#3f2524" d="M 91.101562 199.882812 C 89.304688 199.519531 87.734375 198.5 86.652344 197.023438 C 86.355469 196.621094 86.089844 196.1875 85.878906 195.734375 C 85.855469 195.683594 85.832031 195.632812 85.8125 195.582031 C 85.84375 195.65625 85.8125 195.574219 85.800781 195.554688 C 85.710938 195.382812 85.570312 195.347656 85.40625 195.265625 C 84.308594 194.703125 83.285156 193.988281 82.375 193.15625 C 82.128906 192.933594 81.765625 193.296875 82.011719 193.519531 C 83.015625 194.4375 84.175781 195.277344 85.421875 195.84375 C 85.382812 195.792969 85.34375 195.742188 85.304688 195.6875 C 85.894531 197.242188 87.164062 198.625 88.574219 199.464844 C 89.3125 199.90625 90.125 200.207031 90.964844 200.375 C 91.289062 200.441406 91.425781 199.945312 91.101562 199.882812 " fill-opacity="1" fill-rule="nonzero"/><path fill="#3f2524" d="M 83.378906 194.691406 C 81.207031 195.691406 79.222656 197.074219 77.53125 198.761719 C 77.296875 198.996094 77.660156 199.359375 77.894531 199.125 C 79.558594 197.464844 81.503906 196.117188 83.636719 195.132812 C 83.9375 194.996094 83.679688 194.554688 83.378906 194.691406 " fill-opacity="1" fill-rule="nonzero"/><path fill="#3f2524" d="M 174.261719 147.117188 C 174.261719 147.117188 182.109375 167.308594 170.09375 175.765625 C 162.882812 180.84375 155.078125 176.675781 150.800781 177.492188 C 148.003906 178.027344 144.230469 184.089844 140.097656 183.605469 C 140.097656 183.605469 139.695312 178.128906 145.429688 173.128906 C 151.164062 168.132812 155.136719 169.453125 155.699219 158.707031 C 156.261719 147.960938 161.347656 154.25 161.441406 154.984375 C 161.535156 155.722656 174.261719 147.117188 174.261719 147.117188 " fill-opacity="1" fill-rule="nonzero"/><path fill="#3f2524" d="M 163.953125 128.289062 C 163.953125 128.289062 152.109375 117.558594 146.132812 125.367188 C 142.464844 130.164062 146.519531 135.199219 151.046875 135.980469 C 154.441406 136.570312 159.039062 134.570312 163.878906 131.503906 C 175.175781 124.34375 163.953125 128.289062 163.953125 128.289062 " fill-opacity="1" fill-rule="nonzero"/><path fill="#3f2524" d="M 154.539062 229.222656 C 152.402344 234.359375 150.1875 240.570312 147.816406 245.601562 C 146.691406 247.984375 145.496094 250.644531 144.183594 253.386719 C 145.15625 243.9375 145.921875 238.796875 146.886719 230.707031 C 147.699219 223.871094 147.898438 213.179688 147.945312 207.472656 C 147.949219 207.058594 148.546875 207.011719 148.621094 207.417969 C 151.449219 222.953125 154.539062 229.222656 154.539062 229.222656 " fill-opacity="1" fill-rule="nonzero"/><path fill="#3f2524" d="M 242.433594 226.171875 C 238.792969 223.292969 235.332031 220.203125 232.039062 217.136719 C 229.378906 214.664062 226.816406 212.085938 224.335938 209.433594 C 224.335938 209.429688 224.332031 209.425781 224.324219 209.417969 C 224.324219 209.417969 224.5 200.863281 223.410156 193.195312 C 223.371094 192.925781 223.738281 192.816406 223.855469 193.0625 C 224.984375 195.460938 227.351562 200.460938 230.03125 205.886719 C 232.117188 210.109375 234.871094 214.988281 242.433594 226.171875 " fill-opacity="1" fill-rule="nonzero"/><path fill="#ad7976" d="M 161.613281 126.628906 C 160.550781 128.726562 160.171875 131.070312 160.328125 133.402344 C 160.351562 133.730469 160.867188 133.730469 160.84375 133.402344 C 160.691406 131.160156 161.035156 128.902344 162.058594 126.890625 C 162.207031 126.597656 161.761719 126.335938 161.613281 126.628906 " fill-opacity="1" fill-rule="nonzero"/><path fill="#ad7976" d="M 146.140625 132.664062 C 149.050781 130.441406 153.257812 130.386719 156.367188 132.234375 C 157.25 132.757812 158.023438 133.433594 158.660156 134.242188 C 158.863281 134.5 159.226562 134.132812 159.023438 133.878906 C 156.652344 130.871094 152.351562 129.726562 148.722656 130.792969 C 147.699219 131.089844 146.730469 131.570312 145.882812 132.21875 C 145.621094 132.417969 145.878906 132.863281 146.140625 132.664062 " fill-opacity="1" fill-rule="nonzero"/><path fill="#ad7976" d="M 145.722656 127.109375 C 149.78125 125.191406 154.894531 126.269531 158.121094 129.292969 C 159.03125 130.144531 159.777344 131.144531 160.324219 132.265625 C 160.46875 132.5625 160.914062 132.300781 160.769531 132.003906 C 158.714844 127.792969 153.855469 125.316406 149.238281 125.671875 C 147.925781 125.773438 146.652344 126.105469 145.464844 126.664062 C 145.164062 126.808594 145.425781 127.25 145.722656 127.109375 " fill-opacity="1" fill-rule="nonzero"/><path fill="#ad7976" d="M 170.117188 121.1875 C 172.121094 121.304688 174.042969 122.082031 175.757812 123.089844 C 177.378906 124.042969 178.878906 125.238281 180.125 126.648438 C 180.34375 126.894531 180.703125 126.53125 180.484375 126.285156 C 179.191406 124.816406 177.617188 123.574219 175.925781 122.59375 C 174.15625 121.5625 172.179688 120.792969 170.117188 120.675781 C 169.785156 120.65625 169.789062 121.167969 170.117188 121.1875 " fill-opacity="1" fill-rule="nonzero"/><path fill="#ad7976" d="M 172.628906 121.546875 C 173.214844 123.328125 173.132812 125.300781 172.792969 127.121094 C 172.429688 129.082031 171.648438 130.863281 170.722656 132.621094 C 169.75 134.472656 168.734375 136.292969 168.0625 138.28125 C 167.414062 140.207031 167.039062 142.222656 166.933594 144.25 C 166.828125 146.277344 167 148.320312 167.445312 150.304688 C 167.898438 152.328125 168.699219 154.222656 169.527344 156.117188 C 170.355469 158.011719 171.191406 159.957031 171.464844 162.023438 C 171.671875 163.601562 171.578125 165.234375 171.324219 166.800781 C 170.777344 170.171875 169.445312 173.566406 167.1875 176.171875 C 166.910156 176.492188 166.613281 176.800781 166.304688 177.097656 C 166.0625 177.328125 166.425781 177.691406 166.667969 177.460938 C 169.183594 175.050781 170.75 171.734375 171.535156 168.375 C 171.90625 166.785156 172.113281 165.140625 172.082031 163.503906 C 172.042969 161.574219 171.554688 159.734375 170.851562 157.941406 C 170.078125 155.988281 169.121094 154.105469 168.46875 152.101562 C 167.820312 150.109375 167.472656 148.019531 167.425781 145.921875 C 167.375 143.824219 167.625 141.726562 168.171875 139.699219 C 168.730469 137.628906 169.644531 135.734375 170.648438 133.855469 C 171.597656 132.082031 172.546875 130.296875 173.050781 128.335938 C 173.519531 126.519531 173.722656 124.582031 173.4375 122.722656 C 173.367188 122.273438 173.265625 121.835938 173.125 121.410156 C 173.019531 121.097656 172.523438 121.230469 172.628906 121.546875 " fill-opacity="1" fill-rule="nonzero"/><path fill="#ad7976" d="M 154.507812 177.527344 C 159.777344 175.917969 164.34375 171.472656 165.128906 165.890625 C 165.554688 162.855469 164.871094 159.816406 163.949219 156.941406 C 163.46875 155.445312 162.859375 153.988281 162.425781 152.480469 C 161.988281 150.960938 161.785156 149.386719 161.769531 147.8125 C 161.734375 144.226562 162.617188 140.695312 163.777344 137.324219 C 163.886719 137.011719 163.390625 136.875 163.28125 137.1875 C 162.28125 140.097656 161.496094 143.113281 161.300781 146.191406 C 161.203125 147.714844 161.261719 149.246094 161.511719 150.75 C 161.765625 152.296875 162.304688 153.738281 162.820312 155.207031 C 163.820312 158.054688 164.765625 161.007812 164.75 164.054688 C 164.734375 166.980469 163.691406 169.78125 161.839844 172.039062 C 159.90625 174.394531 157.285156 176.144531 154.371094 177.03125 C 154.054688 177.128906 154.191406 177.625 154.507812 177.527344 " fill-opacity="1" fill-rule="nonzero"/><path fill="#ad7976" d="M 169.609375 121 C 170.230469 126.230469 168.109375 131.625 164.746094 135.585938 C 163.800781 136.699219 162.738281 137.71875 161.5625 138.59375 C 161.300781 138.789062 161.554688 139.234375 161.820312 139.035156 C 166.128906 135.835938 169.195312 130.765625 170.019531 125.464844 C 170.25 123.988281 170.300781 122.484375 170.125 121 C 170.085938 120.675781 169.570312 120.671875 169.609375 121 " fill-opacity="1" fill-rule="nonzero"/><path fill="#ad7976" d="M 149.585938 177.996094 C 150.449219 177.007812 151.386719 176.085938 152.28125 175.125 C 153.371094 173.960938 154.414062 172.746094 155.328125 171.441406 C 157.445312 168.421875 158.757812 164.886719 158.5 161.164062 C 158.3125 158.46875 157.382812 155.894531 156.09375 153.535156 C 155.9375 153.242188 155.492188 153.503906 155.652344 153.792969 C 156.796875 155.894531 157.667969 158.179688 157.933594 160.570312 C 158.136719 162.441406 157.96875 164.332031 157.421875 166.136719 C 156.457031 169.332031 154.421875 172.042969 152.191406 174.46875 C 151.210938 175.535156 150.175781 176.542969 149.222656 177.632812 C 149.007812 177.882812 149.367188 178.246094 149.585938 177.996094 " fill-opacity="1" fill-rule="nonzero"/><path fill="#ffffff" d="M 174.367188 146.851562 C 173.929688 146.855469 171.171875 152.664062 174.308594 152.664062 C 177.921875 152.664062 175.101562 146.839844 174.367188 146.851562 " fill-opacity="1" fill-rule="nonzero"/><path fill="#ffffff" d="M 80.988281 165.648438 C 81.726562 167.054688 81.390625 169.53125 79.042969 170.667969 C 76.699219 171.804688 74.160156 169.921875 73.953125 168.394531 C 73.75 166.921875 73.765625 164.960938 76.011719 163.859375 C 77.085938 163.417969 79.582031 163.242188 80.988281 165.648438 Z M 86.550781 150.269531 C 86.421875 153.988281 81.695312 158.074219 80.402344 160.8125 C 80.257812 161.117188 79.949219 161.308594 79.613281 161.308594 C 77.410156 161.304688 76.179688 161.285156 75.507812 161.269531 C 75.050781 161.257812 74.683594 160.898438 74.660156 160.445312 C 74.597656 159.234375 74.878906 157.152344 76.378906 155.242188 C 78.40625 152.667969 80.066406 150.746094 79.519531 149.246094 C 78.851562 147.410156 76.378906 149.109375 75.015625 150.472656 C 74.582031 150.902344 73.8125 150.636719 73.429688 150.164062 L 71.445312 147.734375 C 71.058594 147.257812 71.230469 146.679688 71.46875 146.117188 C 72.285156 144.203125 74.507812 141.722656 79.96875 142.265625 C 85.558594 142.828125 86.6875 146.316406 86.550781 150.269531 " fill-opacity="1" fill-rule="nonzero"/><path fill="#ffffff" d="M 309.394531 112.066406 C 310.128906 113.46875 309.796875 115.945312 307.449219 117.082031 C 305.105469 118.21875 302.566406 116.335938 302.355469 114.808594 C 302.15625 113.335938 302.171875 111.378906 304.417969 110.273438 C 305.488281 109.832031 307.984375 109.65625 309.394531 112.066406 Z M 314.957031 96.683594 C 314.828125 100.40625 310.097656 104.488281 308.804688 107.230469 C 308.664062 107.53125 308.355469 107.722656 308.019531 107.722656 C 305.816406 107.722656 304.585938 107.703125 303.914062 107.6875 C 303.457031 107.675781 303.085938 107.316406 303.066406 106.863281 C 303.003906 105.652344 303.285156 103.566406 304.785156 101.660156 C 306.8125 99.082031 308.472656 97.160156 307.925781 95.660156 C 307.257812 93.828125 304.785156 95.527344 303.417969 96.890625 C 302.988281 97.320312 302.21875 97.054688 301.835938 96.582031 L 299.851562 94.148438 C 299.464844 93.675781 299.636719 93.09375 299.875 92.53125 C 300.6875 90.617188 302.910156 88.140625 308.371094 88.683594 C 313.960938 89.242188 315.09375 92.730469 314.957031 96.683594 " fill-opacity="1" fill-rule="nonzero"/></svg>