<?xml version="1.0" encoding="UTF-8"?>
<svg id="Layer_1" data-name="Layer 1" xmlns="http://www.w3.org/2000/svg" viewBox="0 0 500 500">
  <defs>
    <style>
      .cls-1 {
        fill: #623424;
      }

      .cls-1, .cls-2, .cls-3, .cls-4, .cls-5, .cls-6, .cls-7, .cls-8, .cls-9, .cls-10, .cls-11, .cls-12, .cls-13, .cls-14, .cls-15, .cls-16, .cls-17, .cls-18, .cls-19, .cls-20, .cls-21, .cls-22, .cls-23, .cls-24, .cls-25, .cls-26, .cls-27, .cls-28, .cls-29 {
        stroke-width: 0px;
      }

      .cls-2 {
        fill: #3d803f;
      }

      .cls-3 {
        fill: #181818;
      }

      .cls-4 {
        fill: #191919;
      }

      .cls-5 {
        fill: #191b15;
      }

      .cls-6 {
        fill: #0c868a;
      }

      .cls-7 {
        fill: #0b7b81;
      }

      .cls-8 {
        fill: #0a202f;
      }

      .cls-9 {
        fill: #1c1e15;
      }

      .cls-10 {
        fill: #0e4773;
      }

      .cls-11 {
        fill: #141414;
      }

      .cls-12 {
        fill: #430b0d;
      }

      .cls-13 {
        fill: #211514;
      }

      .cls-14 {
        fill: #171d24;
      }

      .cls-15 {
        fill: #161616;
      }

      .cls-16 {
        fill: #d2753d;
      }

      .cls-17 {
        fill: #df312d;
      }

      .cls-18 {
        fill: #d5d546;
      }

      .cls-19 {
        fill: #bebfbd;
      }

      .cls-20 {
        fill: #a7a7a6;
      }

      .cls-21 {
        fill: #b7b7b5;
      }

      .cls-22 {
        fill: #9d9d9b;
      }

      .cls-23 {
        fill: #9e9e9b;
      }

      .cls-24 {
        fill: #333e32;
      }

      .cls-25 {
        fill: #9c9c9a;
      }

      .cls-26 {
        fill: #9c9d9a;
      }

      .cls-27 {
        fill: #a12532;
      }

      .cls-28 {
        fill: #e2e21e;
      }

      .cls-29 {
        fill: #ec6d22;
      }
    </style>
  </defs>
  <path class="cls-21" d="M168.97,210.13c-.18-.4-.36-.79-.54-1.19-.47-1.36-.94-2.73-1.4-4.09-.33-2.84-.66-5.69-.99-8.53.07-1.42.14-2.84.21-4.44,1.41-.36,2.93-1.21,4.32-1.04,10.43,1.26,20.83,2.74,31.25,4.1,3.64.48,7.3.81,10.95,1.21,3.83.03,7.65.05,11.48.08,3.88.31,7.75.73,11.63.79.59,0,1.2-1.64,1.8-2.52,4,.03,8,.06,12.01.09,3.11,1.82,11.88.65,14.8-1.97,3.69-.37,7.37-.75,11.05-1.12,1.62-.29,3.23-.58,4.85-.87l-.12.05c2.86-.05,5.72-.11,8.57-.16,2.9,1.29,5.8,2.58,8.69,3.87-.06.71-.08,1.42-.21,2.12-.15.88-.39,1.75-.59,2.62-2.36.22-4.71.45-7.07.67-12.93,1.19-25.87,2.37-38.8,3.56-1.71-.4-3.43-1.19-5.12-1.13-5.63.19-11.26.69-16.88,1.07-7.05-.45-14.09-.86-21.13-1.37-1.89-.14-3.76-.6-5.64-.85-7.23-.94-14.47-1.86-21.71-2.78-1.41-.49-2.81-.99-4.43-1.55-.78.97-1.63,2.02-2.73,3.38,2.24.73,4.13,1.54,6.1,1.95,18.14,3.82,36.15,8.67,54.48,10.98,14.08,1.77,28.63,1.08,42.85-.03,6.72-.53,13.17-4.6,19.74-7.07.63,29.13-2.32,58-6.04,86.82-.18,1.26-.36,2.53-.54,3.79-.27.97-.54,1.94-.82,2.91-.42.01-.84.02-1.26.03-.56-3.2-1.51-6.38-1.61-9.59-.24-7.86,0-15.74-.19-23.6-.03-1.37-1.22-2.72-1.87-4.07.33-5.55.88-11.09.94-16.64.05-5.12,3.73-10.17.34-16.67-1.6,10.68-3,20.09-4.41,29.49-.2,1.27-.4,2.54-.6,3.81-.04.64-.08,1.27-.12,1.91-3,1.58-2.22,3.63-.72,5.78-.77,10.8-1.54,21.6-2.3,32.4-3.09,2.96-1.8,6.25-.72,9.52-.02.64-.04,1.28-.06,1.92-3.25,3.71-2.15,7.63-.57,11.58-.17,5.03-.34,10.06-.5,15.09h-5.02v-108.47c-1.5,1.39-2.91,2.71-4.66,4.33.07.7.21,2.26.36,3.82-.33,1.8-.66,3.6-.99,5.4l-.19.15c-.5,1.47-1.3,2.9-1.47,4.4-1.99,17.78-4.05,35.55-5.75,53.36-1.35,14.15-2.23,28.34-3.33,42.64h-10.12c-.33-34.2-.56-68.41-1.06-102.61-.12-8.04-1.17-16.07-1.79-24.1-.22,0-.44.01-.66.02-.24.94-.48,1.87-.87,3.38-.38-2.07-.64-3.5-.9-4.93-.33-.01-.65-.02-.98-.03-.4,2.52-.8,5.05-1.19,7.57-.37,1.97-.99,3.93-1.08,5.92-.72,15.7-1.65,31.39-1.91,47.1-.35,21.29-.13,42.59-.23,63.88,0,1.66,1.28,4.67-2.64,3.77-.36-3.92-.63-7.85-1.11-11.76-1.82-14.98-3.2-30.04-5.71-44.91-2.72-16.12-6.49-32.06-9.94-48.05-.23-1.09-1.61-1.92-2.46-2.88-1.01-4.54-2.02-9.07-3.04-13.61-.39.1-.78.2-1.18.31,1.15,14.56,2.29,29.12,3.44,43.68.27.34.54.67.81,1.01.1,2.55.19,5.1.29,7.65-.04.59-.08,1.18-.12,1.77.28.36.56.73.84,1.09.05.95.1,1.91.15,2.86.01.33.02.66.03.99.37,5.59.6,11.2,1.15,16.77,1.42,14.36,2.98,28.71,4.57,43.91-4.35-.91-7.53-1.58-10.71-2.25-1.23-8.25-2.56-16.48-3.66-24.74-1.48-11.08-2.73-22.18-4.17-33.27-1.74-13.42-3.38-26.86-5.46-40.23-1.11-7.13-2.99-14.15-4.73-21.16-.24-.96-1.6-1.77-2.62-2.32-.32-.17-1.82.96-1.76,1.14.36,1.05,1.03,2,1.6,2.98h-.01c-.01.36-.02.73-.03,1.09-.56.55-1.61,1.13-1.58,1.66.09,1.95.53,3.89.83,5.83,0,2.86,0,5.72,0,8.59.24.96.49,1.93.73,2.89,3.15,22.2,6.26,44.41,9.47,66.6,1.18,8.16,2.59,16.29,3.92,24.43.62,3.83-1.07,4.84-4.57,4-5.19-1.24-7.61-4.66-8-9.79,4.08-1.26,3.08-4.67,3-7.52-.08-2.82-.53-5.64-.9-8.44-1.73-12.94-3.43-25.88-5.27-38.81-1.64-11.52-3.34-23.04-5.24-34.53-1.41-8.55-3.19-17.04-4.8-25.55-.09.04-.18.09-.27.13v19.8l-1.52-.92-3.84-24.35Z"/>
  <path class="cls-11" d="M187.81,330.31c.39,5.13,2.81,8.56,8,9.79,3.5.84,5.2-.17,4.57-4-1.33-8.14-2.74-16.27-3.92-24.43-3.21-22.19-6.32-44.4-9.47-66.6-.24-.96-.49-1.93-.73-2.89,0-2.86,0-5.72,0-8.59.3,0,.6-.02.9-.05.36.65.93,1.26,1.04,1.94,3.14,19.72,6.28,39.45,9.3,59.19,2.31,15.13,4.38,30.3,6.8,45.42.16,1,2.32,1.69,3.56,2.52,3.18.67,6.37,1.34,10.71,2.25-1.59-15.2-3.15-29.55-4.57-43.91-.55-5.57-.77-11.18-1.15-16.77-.01-.33-.02-.66-.03-.99-.05-.95-.1-1.91-.15-2.86.02-.31.03-.62.05-.94-.26-.64-.51-1.28-.77-1.92-.1-2.55-.19-5.1-.29-7.65-.27-.34-.54-.67-.81-1.01-1.15-14.56-2.29-29.12-3.44-43.68.39-.1.78-.2,1.18-.31,1.01,4.54,2.02,9.07,3.04,13.61,1.32,8.88,3.11,17.72,3.88,26.65,1.92,22.25,3.38,44.54,5.03,66.82-.08,3.65-.33,7.31-.1,10.94.05.83,1.79,1.55,2.75,2.32.83.04,1.65.09,2.48.13.43.23.85.46,1.28.69,1.3,0,2.61.02,3.91.03,3.92.9,2.63-2.11,2.64-3.77.1-21.29-.11-42.59.23-63.88.26-15.71,1.19-31.4,1.91-47.1.09-1.99.71-3.95,1.08-5.92.57.9,1.63,1.79,1.64,2.69.05,5.29-.14,10.57-.25,15.86-.15,2.6-.3,5.2-.45,7.8-.03,2.24-.06,4.48-.09,6.72-.1,2.58-.2,5.16-.3,7.74-.15.77-.43,1.55-.43,2.32-.08,25.23-.14,50.45-.16,75.68,0,.64.56,1.28.86,1.92,1.25.1,2.49.19,3.74.29.97-.11,1.94-.22,2.91-.34h10.12c1.1-14.3,1.98-28.49,3.33-42.64,1.7-17.81,3.76-35.58,5.75-53.36.17-1.5.96-2.94,1.47-4.4.37,1.61,1.11,3.23,1.03,4.81-.28,5.53-.89,11.04-1.28,16.56-1.14,16.2-2.24,32.4-3.36,48.61-.24,2.23-.48,4.46-.71,6.68-.06,3.82-.13,7.64-.19,11.46-.72,4.18-2.69,8.46.95,12.3,2.22.09,4.44.18,6.67.28-.31.83-.62,1.67-.93,2.5-1.27.07-2.53.14-3.8.21-.24-.03-.48,0-.7.11-1.38.15-2.76.29-4.14.44-.29.08-.59.15-.88.23-.33,0-.66-.02-.98-.03-.29-.07-.58-.14-.88-.2-6.44.1-12.87.21-19.31.31-1.48-.3-2.96-.6-4.45-.9-7.34-.69-14.68-1.38-22.02-2.07-1.04-.22-2.07-.44-3.11-.66-1.88-.29-3.76-.59-5.64-.88-.25-.13-.51-.19-.79-.15-.95-.09-1.89-.18-2.84-.27-.72-.2-1.45-.4-2.17-.6l-.36.09s-.28-.24-.28-.24c-.54-.22-1.09-.45-1.63-.67-2.61-1.81-5.23-3.63-7.84-5.44,0,0-.08-.17-.08-.17-.29-.5-.57-1-.86-1.5-.25-.56-.51-1.13-.76-1.69-.09-.31-.18-.63-.26-.94-.3-.97-.59-1.93-.89-2.9-.25-.23-.29-.48-.11-.77-.22-1.01-.43-2.02-.65-3.03-4-30.1-8.04-60.2-11.98-90.31-1.03-7.85-1.81-15.73-2.54-23.61-.1-1.14-1.29-3.7,1.91-3.08,1.28,8.12,2.56,16.23,3.84,24.35.59,1.3,1.18,2.59,1.77,3.89.33,3.24.56,6.49.99,9.72,1.26,9.43,2.57,18.86,3.93,28.27.85,5.84,1.83,11.67,2.75,17.5.01.25.02.49.03.74.24,1.18.55,2.35.72,3.53,1.62,10.72,3.21,21.45,4.81,32.18Z"/>
  <path class="cls-11" d="M275.35,340.42c.17-5.03.34-10.06.5-15.09.19-3.86.38-7.72.57-11.58.02-.64.04-1.28.06-1.92.24-3.17.48-6.35.72-9.52.77-10.8,1.54-21.6,2.3-32.4.24-1.93.48-3.85.72-5.78.04-.64.08-1.27.12-1.91.2-1.27.4-2.54.6-3.81,1.41-9.4,2.81-18.81,4.41-29.49,3.38,6.5-.29,11.54-.34,16.67-.05,5.55-.6,11.1-.94,16.64-.3,2.86-.6,5.71-.91,8.57-.53,6.37-1.06,12.73-1.59,19.1-.14,1.89-.28,3.78-.42,5.66-.23,2.56-.47,5.11-.7,7.67-.04,1.28-.07,2.56-.11,3.84-.07,1.3-.15,2.61-.22,3.91-.6,9.71-1.2,19.41-1.8,29.12.46.06.91.13,1.37.19,7.25-10.54,7.73-22.82,8.35-35.07l.96-5.76c.27-.97.54-1.94.82-2.91.18-1.26.36-2.53.54-3.79,3.72-28.82,6.67-57.7,6.04-86.82-.01-.34-.03-.68-.04-1.02,1.08-.51,2.15-1.03,3.23-1.54.23.53.46,1.05.68,1.58.32.96.65,1.92.97,2.87-.31.31-.62.62-.94.94,0,1.83.02,3.66.03,5.49-.32.98-.86,1.94-.92,2.93-1.33,24.24-2.3,48.51-4.04,72.72-.8,11.19-3.08,22.26-4.69,33.39-.29,1.55-.58,3.09-.87,4.64,0,0-.02.11-.02.11-.28.97-.56,1.94-.84,2.91,0,0,0-.01,0-.01-.33.97-.65,1.93-.98,2.9-.68,1.56-1.36,3.13-2.03,4.69-.26.39-.51.79-.77,1.18-.15.26-.3.52-.45.78-.21.24-.42.47-.62.71-2.3,1.43-4.6,2.86-6.91,4.3-.41-.09-.82-.19-1.22-.28-.21-1.6-.41-3.21-.62-4.81Z"/>
  <path class="cls-23" d="M275.35,340.42c.21,1.6.41,3.21.62,4.81-.15.27-.28.55-.38.84-1.31.64-2.63,1.28-3.94,1.91-.16-.36-.32-.72-.48-1.09v-.16c-1.07-.13-2.14-.26-3.22-.39-2.22-.09-4.44-.18-6.67-.28-.32-4.1-.64-8.2-.95-12.3.06-3.82.13-7.64.19-11.46,2.9-1.94,2.07-4.29.71-6.68,1.12-16.2,2.21-32.41,3.36-48.61.39-5.52,1.01-11.04,1.28-16.56.08-1.58-.66-3.2-1.03-4.81,0,0,.19-.16.19-.16.33-1.8.66-3.6.99-5.4-.15-1.56-.29-3.12-.36-3.82,1.74-1.62,3.16-2.94,4.66-4.33v108.47h5.02Z"/>
  <path class="cls-13" d="M212.77,196.13c-3.65-.4-7.31-.73-10.96-1.21-10.42-1.36-20.82-2.84-31.25-4.1-1.39-.17-2.91.68-4.32,1.04-.08,1.6-.14,3.02-.21,4.44-.34-2.33-.62-4.68-1.06-6.99-.21-1.12-.53-2.31-1.15-3.24-8.1-12.02-7.64-14.18,4.86-21.13,2.34-1.3,4.8-2.4,7.25-3.5,4.55-2.05,8.78-1.99,12.75,1.59,1.73,1.56,3.97,2.54,5.98,3.78.92,1.3,1.84,2.6,2.77,3.9-3.7-1.66-7.32-3.54-11.13-4.88-2.51-.89-5.38-1.61-7.94-1.28-2.71.35-5.31,1.91-7.86,3.15-11.03,5.37-11.4,7.09-4.42,17.31,1.95,2.85,3.96,3.93,7.01,1.87.48.02.96.03,1.44.05l.1.12c.31.26.62.51.93.77l.07.04c1.03.57,2.07,1.14,3.1,1.71,7.54,1.01,15.08,2.01,22.61,3.02.61.06,1.22.11,1.83.17.35-.38.7-.76,1.05-1.15h1.9s-.02-.01-.02-.01c.39.29.78.58,1.17.87,3.46.53,6.91,1.07,10.37,1.6.25-.48.49-.96.74-1.44-1.31-1.36-2.73-2.64-3.92-4.11-3.22-3.97-6.33-8.01-9.49-12.03,1.07.57,2.15,1.14,3.22,1.7,1.93,2.22,3.92,4.38,5.77,6.67,2.26,2.81,4.39,5.72,6.57,8.59-1.15.66-2.24,1.5-3.47,1.92-1.37.46-2.86.53-4.3.77Z"/>
  <path class="cls-5" d="M264.48,192.61c-2.91,2.62-11.68,3.78-14.79,1.96.29-.14.58-.28.86-.43,1.4-.52,2.81-1.04,4.21-1.56-.03-.34-.07-.68-.1-1.02.06-.3.05-.61-.02-.91.1-.3.11-.61.02-.92l.37.04c.05-.35.1-.69.15-1.04l-.06-4.78c2.09-3.59,2.82-7.12-.42-10.5-.34-.08-.68-.16-1.02-.24-3.39-.24-6.8-.32-10.16-.78-1.43-.2-2.75-1.19-4.12-1.82.08-.34.16-.68.23-1.02,5.94.31,11.88.62,17.82.93.32.97.65,1.94.97,2.91v6.45c8.72-9,17.76-15.42,30.45-14.03-.95-3.31-1.73-5.99-2.5-8.66-2.31-8.16-8.54-9.99-14.49-4.26-.89.86-1.84,1.66-2.76,2.5-.07-.81-.15-1.62-.22-2.43.09-.13.17-.27.28-.38,3.13-3.41,6.38-7.35,11.54-5.69,5.35,1.72,8.04,6.27,9.12,11.73.54,2.73,1.16,5.45,1.74,8.17-.27,1.27-.54,2.54-.81,3.82-12.85-1.72-22.82,3.71-30.82,13.12-1.42,1.67-1.2,5.1-.88,7.61.08.63,3.49.82,5.37,1.22Z"/>
  <path class="cls-10" d="M257.47,170.55c-5.94-.31-11.88-.62-17.82-.93-.27-1.31-.53-2.62-.8-3.92,2.54-1.33,5.07-2.66,7.59-3.98-3.91-5.83-3.26-6.8,5.42-7.64.53-4.17,2.81-6.25,6.6-4.98,2.62.88,4.96,2.98,7.03,4.95.69.66.16,2.6.19,3.96-1.94.71-4.31,2.51-5.76,1.94-5.48-2.13-7.12,3.4-10.75,4.78-.24.09-.03,1.34-.03,1.68,3.42-1.68,6.78-3.34,10.14-4.99.34.42.68.83,1.02,1.25l-2.85,7.88Z"/>
  <path class="cls-9" d="M239.41,170.63c1.37.63,2.69,1.62,4.12,1.82,3.36.46,6.77.54,10.16.78-6.23,0-12.45,0-18.98,0,.74,6.44,1.42,12.37,2.1,18.31.29.98.58,1.97.87,2.95-.6.88-1.22,2.53-1.8,2.52-3.88-.07-7.75-.49-11.63-.79.63-.53,1.26-1.06,1.89-1.6,2.54.05,5.08.11,7.62.16.41.11.82.22,1.23.33-.06-.52-.11-1.04-.17-1.56-1.33-8.88-2.54-17.78-4.14-26.62-.22-1.21-2.49-2.99-3.71-2.91-9.31.58-18.6,1.55-28.47,2.46,1.86,2.3,2.9,3.6,3.94,4.89-.83.12-1.66.24-2.48.36-.18.08-.34.05-.48-.08-.67-.32-1.33-.65-2-.97l-.05.04c-.92-1.3-1.84-2.6-2.77-3.9,7.92-5.24,17.24-5.05,26.08-6.72,1.08-.2,2.21-.18,3.31-.3,7.2-.81,8.7.35,9.69,7.43.19,1.38.59,2.74.95,4.37,1.73-.35,3.23-.66,4.72-.96Z"/>
  <path class="cls-11" d="M315.13,193.32c4.4,10.92,5,22.01,1.17,33.19-.57,1.65-2.02,3.01-3.06,4.5-1.39-1.15-3.15-2.05-4.11-3.49-2.42-3.62-4.48-7.48-6.68-11.25.27-1.3.54-2.6.81-3.9.57,1.03,1.13,2.06,1.7,3.1.13.25.26.49.39.74,0,0-.08-.05-.08-.05.25.4.5.81.75,1.21.94,1.33,1.87,2.66,2.81,3.99.38.56.77,1.12,1.15,1.68.68.52,1.37,1.05,2.38,1.83.24-1.58.4-2.64.55-3.69v-.31c.33-.54.66-1.09.98-1.63.17-.5.34-1,.51-1.5.09-.76.18-1.52.27-2.29.05-.62.1-1.23.15-1.85-.38-2.94-.76-5.89-1.14-8.83.07-.91.15-1.82.22-2.72-.39-1.89-.77-3.78-1.16-5.67,0,0-.05-.04-.05-.04-.22-.29-.44-.58-.66-.87-.09-.65-.18-1.3-.27-1.95h.46s.46-.01.46-.01c.81-.06,1.62-.12,2.44-.18Z"/>
  <path class="cls-14" d="M265.69,158c-.03-1.35.5-3.3-.19-3.95-2.07-1.97-4.41-4.07-7.03-4.95-3.8-1.28-6.08.81-6.6,4.98-8.69.84-9.34,1.81-5.42,7.64-2.52,1.32-5.06,2.65-7.59,3.98,1.33-3.68,1.71-8.32,4.22-10.81,3.64-3.62,8.52-6.58,13.4-8.16,5.29-1.71,8.44,3.81,12.46,6.29.07.81.15,1.62.22,2.43-.62.97-1.24,1.93-1.85,2.9-.53-.11-1.07-.23-1.6-.34Z"/>
  <path class="cls-4" d="M315.13,193.32c-.81.06-1.62.12-2.44.18-1.51-2.54-3.02-5.08-4.53-7.62-.27-.16-.37-.39-.31-.7-.29-.4-.58-.8-.86-1.21-.35-.52-.71-1.04-1.06-1.56-.34-.42-.67-.83-1.01-1.25-2.2-2.13-4.4-4.27-6.6-6.4-.47-.39-.94-.78-1.41-1.17-2.03-.98-4.07-1.95-6.1-2.93.27-1.27.54-2.54.81-3.82,11.93,5.17,19.23,14.48,23.52,26.47Z"/>
  <path class="cls-4" d="M303.26,212.38c-.27,1.3-.54,2.6-.81,3.9-.71-.67-1.41-1.34-2.12-2.02,0-1.83-.02-3.66-.03-5.49.36.65.72,1.3,1.07,1.95l.72.05.3-.24c.29.61.57,1.23.86,1.84Z"/>
  <path class="cls-3" d="M231.89,349.02c1.48.3,2.96.6,4.45.9-1.48-.3-2.96-.6-4.45-.9Z"/>
  <path class="cls-3" d="M267.95,346.35c1.08.13,2.15.26,3.22.39-.43.47-.86.94-1.28,1.41-.96.23-1.91.46-2.87.69.31-.83.62-1.67.93-2.5Z"/>
  <path class="cls-11" d="M167.02,204.85c.47,1.36.94,2.73,1.4,4.09-.61.01-1.22.03-1.83.04.14-1.38.28-2.76.42-4.14Z"/>
  <path class="cls-4" d="M289.81,327.95c.29-1.55.58-3.09.87-4.64-.29,1.55-.58,3.09-.87,4.64Z"/>
  <path class="cls-3" d="M206.76,346.29c1.04.22,2.07.44,3.11.66-1.04-.22-2.07-.44-3.11-.66Z"/>
  <path class="cls-4" d="M287.98,333.86c.33-.97.65-1.93.98-2.9-.33.97-.65,1.93-.98,2.9Z"/>
  <path class="cls-3" d="M182.34,330.93c.3.97.59,1.93.89,2.9-.3-.97-.59-1.93-.89-2.9Z"/>
  <path class="cls-4" d="M288.95,330.97c.28-.97.56-1.94.84-2.91-.28.97-.56,1.94-.84,2.91Z"/>
  <path class="cls-3" d="M181.58,327.13c.22,1.01.43,2.02.65,3.03-.22-1.01-.43-2.02-.65-3.03Z"/>
  <path class="cls-3" d="M195.31,344.39c.72.2,1.45.4,2.17.6-.72-.2-1.45-.4-2.17-.6Z"/>
  <path class="cls-3" d="M183.49,334.77c.25.56.51,1.13.76,1.69-.25-.56-.51-1.13-.76-1.69Z"/>
  <polygon class="cls-3" points="185.12 337.96 185.19 338.13 184.95 338.02 185.12 337.96"/>
  <path class="cls-4" d="M285.18,339.73c.26-.39.51-.79.77-1.18-.26.39-.51.79-.77,1.18Z"/>
  <path class="cls-4" d="M284.1,341.21c.21-.24.42-.47.62-.71-.21.24-.42.47-.62.71Z"/>
  <path class="cls-3" d="M193.03,343.57c.54.22,1.09.45,1.63.67-.54-.22-1.09-.45-1.63-.67Z"/>
  <path class="cls-3" d="M200.33,345.26c.28-.03.54.02.79.15-.26-.05-.53-.1-.79-.15Z"/>
  <path class="cls-4" d="M275.59,346.08c.1-.29.23-.57.38-.84.41.09.81.18,1.22.28-.53.19-1.07.38-1.6.56Z"/>
  <path class="cls-11" d="M269.89,348.16c.43-.47.86-.94,1.28-1.41,0,0,0,.15,0,.16-.12.36-.24.72-.36,1.08-.31.06-.61.11-.92.17Z"/>
  <path class="cls-3" d="M270.81,347.99c.12-.36.23-.72.36-1.08.16.36.32.72.48,1.09,0,0-.42.1-.42.1l-.42-.1Z"/>
  <path class="cls-3" d="M255.64,349.61c.29.07.58.14.88.2-.29-.07-.58-.14-.88-.2Z"/>
  <path class="cls-3" d="M257.5,349.84c.29-.08.59-.15.88-.23-.29.08-.59.15-.88.23Z"/>
  <path class="cls-3" d="M262.52,349.17c.22-.1.46-.13.7-.11,0,0-.33.28-.33.28l-.37-.17Z"/>
  <path class="cls-28" d="M303.26,212.38c-.29-.61-.57-1.23-.86-1.84-.39-.9-.77-1.8-1.16-2.7-.32-.96-.65-1.92-.97-2.87-.03-.51-.05-1.01-.08-1.52-.74-3.06,1.52-7.02-2.66-9.07-2.9-1.29-5.8-2.58-8.69-3.87-2.86.05-5.71.11-8.57.16,0,0,.12-.05.12-.05-1.62.29-3.23.58-4.85.87-3.68.37-7.36.75-11.05,1.12-1.89-.39-5.3-.59-5.38-1.22-.32-2.51-.54-5.94.88-7.61,8-9.41,17.97-14.83,30.82-13.12,2.03.98,4.07,1.95,6.1,2.93.47.39.94.78,1.41,1.17,2.2,2.13,4.4,4.27,6.6,6.4.34.42.67.83,1.01,1.25.35.52.71,1.04,1.06,1.56.29.4.58.8.86,1.21-.06.31.04.54.31.7,1.2,2.54,2.41,5.09,3.61,7.63.09.65.18,1.3.27,1.95.22.29.44.58.66.87,0,0,.05.04.05.04.39,1.89.77,3.78,1.16,5.67-.07.91-.15,1.82-.22,2.72-.26,5.37-.51,10.74-.77,16.1,0,0,0,.31,0,.31-1.16.06-2.31.12-3.47.18-.21-.01-.41-.02-.62,0-.94-1.33-1.87-2.66-2.81-3.99-.25-.4-.5-.81-.75-1.21,0,0,.08.05.08.05.03-.33-.1-.58-.39-.74-.57-1.03-1.13-2.06-1.7-3.1Z"/>
  <path class="cls-25" d="M237.55,346.09c-.3-.64-.86-1.28-.86-1.92.01-25.23.08-50.45.16-75.68,0-.77.28-1.55.43-2.32.1-2.58.2-5.16.3-7.74.03-2.24.06-4.48.09-6.72,2.93-2.44,2.26-5.09.45-7.8.11-5.29.31-10.57.25-15.86,0-.9-1.07-1.8-1.64-2.69.4-2.52.8-5.05,1.19-7.57.33.01.65.02.98.03.26,1.43.52,2.85.9,4.93.39-1.51.63-2.45.87-3.38.22,0,.44-.01.66-.02.62,8.03,1.67,16.06,1.79,24.1.5,34.2.73,68.4,1.06,102.61-.97.11-1.94.22-2.91.34-1.25-.1-2.49-.19-3.74-.29Z"/>
  <path class="cls-22" d="M225.69,345.3c-.83-.04-1.65-.09-2.48-.13-.32-3.81-.57-7.63-1.03-11.42-.08-.67-1.06-1.23-1.62-1.84-1.65-22.28-3.11-44.57-5.03-66.82-.77-8.93-2.56-17.77-3.88-26.65.85.95,2.22,1.79,2.46,2.88,3.45,15.99,7.22,31.93,9.94,48.05,2.51,14.87,3.89,29.93,5.71,44.91.48,3.91.74,7.84,1.11,11.76-1.3,0-2.61-.02-3.91-.03-.43-.23-.85-.46-1.28-.69Z"/>
  <path class="cls-26" d="M296.36,204.93c.01.34.03.68.04,1.02-6.57,2.47-13.02,6.54-19.74,7.07-14.22,1.11-28.77,1.8-42.85.03-18.33-2.31-36.34-7.16-54.48-10.98-1.97-.42-3.86-1.23-6.1-1.95,1.09-1.36,1.94-2.41,2.73-3.38,1.62.57,3.03,1.06,4.43,1.55.45.34.85.88,1.36.99,11.79,2.65,23.42,6.23,35.64,6.57,1.55.04,3.08.39,4.62.6,1.99.14,3.99.29,5.98.43,8.84.31,17.68.61,26.51.92.35-.26.7-.52,1.05-.77,1.28-.04,2.57-.08,3.85-.12,2.2-.2,4.4-.41,6.59-.61,9.22-1.4,18.44-2.8,27.66-4.2.9.95,1.81,1.89,2.71,2.84Z"/>
  <path class="cls-26" d="M207.87,342.61c-1.23-.83-3.4-1.51-3.56-2.52-2.42-15.12-4.49-30.29-6.8-45.42-3.02-19.74-6.17-39.46-9.3-59.19-.11-.68-.68-1.3-1.04-1.94-.05-2.48-.1-4.96-.15-7.44.01-.37.02-.74.03-1.11.08-.12.16-.25.23-.37-.07.13-.15.25-.22.38-.56-.98-1.23-1.92-1.6-2.98-.06-.18,1.44-1.31,1.76-1.14,1.02.55,2.39,1.36,2.62,2.32,1.74,7.02,3.62,14.03,4.73,21.16,2.08,13.37,3.71,26.81,5.46,40.23,1.44,11.08,2.69,22.19,4.17,33.27,1.1,8.26,2.43,16.49,3.66,24.74Z"/>
  <path class="cls-22" d="M187.81,330.31c-1.6-10.73-3.2-21.45-4.81-32.18-.18-1.19-.48-2.36-.72-3.53.23-.14.46-.27.68-.41-.24-.11-.47-.22-.71-.33-.92-5.83-1.91-11.66-2.75-17.5-1.36-9.42-2.67-18.84-3.93-28.27-.43-3.22-.67-6.48-.99-9.72-.08-.99-.17-1.98-.25-2.97v-19.8c.09-.04.18-.09.27-.13,1.61,8.51,3.38,17,4.8,25.55,1.9,11.48,3.6,23,5.24,34.53,1.84,12.92,3.54,25.87,5.27,38.81.38,2.81.82,5.62.9,8.44.08,2.85,1.08,6.26-3,7.52Z"/>
  <path class="cls-15" d="M293.65,202.09c-9.22,1.4-18.44,2.8-27.66,4.2-2.2.2-4.4.41-6.59.61-1.28.04-2.57.08-3.85.12-.35.26-.7.52-1.05.77-8.84-.31-17.68-.61-26.51-.92-1.99-.14-3.99-.29-5.98-.43-1.54-.21-3.08-.56-4.62-.6-12.22-.34-23.85-3.92-35.64-6.57-.5-.11-.91-.65-1.36-.99,7.24.93,14.47,1.84,21.71,2.78,1.89.25,3.75.71,5.64.85,7.04.51,14.09.92,21.13,1.37,7.33.02,14.67.04,22,.06,12.93-1.19,25.87-2.37,38.8-3.56,2.36-.22,4.71-.45,7.07-.67-1.03.99-2.06,1.98-3.09,2.98Z"/>
  <path class="cls-25" d="M280.35,307.07c.04-1.28.07-2.56.11-3.84,3.24-2.28,2.04-4.97.7-7.67.14-1.89.28-3.78.42-5.66,2.63-.27,4.49-.88,2.4-4.07-.51-.79-.81-2.33-.38-3.01,2.59-4.17.49-8.05-.43-12.02.3-2.86.6-5.71.91-8.57.65,1.36,1.83,2.7,1.87,4.07.19,7.86-.05,15.74.19,23.6.1,3.21,1.05,6.4,1.61,9.59.1,1.91.2,3.82.3,5.73-.62,12.25-1.09,24.54-8.35,35.07-.46-.06-.91-.13-1.37-.19.6-9.71,1.2-19.41,1.8-29.12.07-1.31.15-2.61.22-3.91Z"/>
  <path class="cls-29" d="M237.68,194.49c-.29-.98-.58-1.97-.87-2.95,0-5.54,0-11.07,0-17.11,3.73,0,7.01,0,10.29,0,6.58,0,6.49,0,6.63,6.68.06,2.89.61,5.76.93,8.64.09.31.08.61-.02.92-.23.16-.47.31-.7.47.24.15.48.29.72.44.03.34.07.68.1,1.02-1.4.52-2.81,1.04-4.21,1.56-.29.14-.58.28-.86.43-4-.03-8-.06-12.01-.09Z"/>
  <path class="cls-20" d="M250.87,203.34c-7.33-.02-14.67-.04-22-.06,5.63-.38,11.25-.88,16.88-1.07,1.69-.06,3.41.73,5.12,1.13Z"/>
  <path class="cls-20" d="M293.65,202.09c1.03-.99,2.06-1.98,3.09-2.98.2-.87.43-1.74.59-2.62.12-.7.14-1.41.21-2.12,4.18,2.05,1.92,6,2.67,9.07-.19-.08-.39-.1-.6-.06-1.08.51-2.15,1.03-3.23,1.54-.9-.95-1.81-1.89-2.71-2.84Z"/>
  <path class="cls-24" d="M226.14,194.62c-.63.53-1.26,1.06-1.89,1.6-3.83-.03-7.65-.05-11.48-.08,1.44-.24,2.94-.31,4.3-.77,1.23-.42,2.32-1.26,3.47-1.92,1.86.39,3.73.78,5.59,1.17Z"/>
  <path class="cls-19" d="M276.42,313.75c-.19,3.86-.38,7.72-.57,11.58-1.58-3.95-2.68-7.87.57-11.58Z"/>
  <path class="cls-19" d="M277.21,302.31c-.24,3.17-.48,6.35-.72,9.52-1.07-3.27-2.37-6.56.72-9.52Z"/>
  <path class="cls-19" d="M280.23,264.13c-.24,1.93-.48,3.85-.72,5.78-1.5-2.14-2.27-4.2.72-5.78Z"/>
  <path class="cls-15" d="M187.02,226.11c.05,2.48.1,4.96.15,7.44-.3.02-.6.04-.9.05-.31-1.94-.75-3.88-.83-5.83-.02-.53,1.03-1.1,1.58-1.66Z"/>
  <path class="cls-19" d="M288.05,305.23c-.1-1.91-.2-3.82-.3-5.73.42,0,.84-.02,1.26-.03l-.96,5.76Z"/>
  <path class="cls-11" d="M280.27,190.67c2.86-.05,5.71-.11,8.57-.16-2.86.05-5.71.11-8.57.16Z"/>
  <path class="cls-3" d="M174.33,235.39c.08.99.17,1.98.25,2.97-.59-1.3-1.18-2.59-1.77-3.89.51.31,1.01.61,1.52.92Z"/>
  <path class="cls-19" d="M280.95,258.42c-.2,1.27-.4,2.54-.6,3.81.2-1.27.4-2.54.6-3.81Z"/>
  <path class="cls-11" d="M266.02,240.1c-.33,1.8-.66,3.6-.99,5.4.33-1.8.66-3.6.99-5.4Z"/>
  <path class="cls-15" d="M186.26,242.18c.24.96.49,1.93.73,2.89-.24-.96-.49-1.93-.73-2.89Z"/>
  <path class="cls-19" d="M290.36,292.77c-.18,1.26-.36,2.53-.54,3.79.18-1.26.36-2.53.54-3.79Z"/>
  <path class="cls-11" d="M275.54,191.49c1.62-.29,3.23-.58,4.85-.87-1.62.29-3.23.58-4.85.87Z"/>
  <path class="cls-3" d="M211.97,277.48l.77,1.92c-.3-.01-.6-.06-.89-.15.04-.59.08-1.18.12-1.77Z"/>
  <path class="cls-19" d="M212.84,283.2c.01.33.02.66.03.99-.01-.33-.02-.66-.03-.99Z"/>
  <path class="cls-19" d="M211.85,279.25c.29.09.58.14.89.15-.02.31-.03.62-.05.94-.28-.36-.56-.73-.84-1.09Z"/>
  <path class="cls-19" d="M210.87,268.82c.27.34.54.67.81,1.01-.27-.34-.54-.67-.81-1.01Z"/>
  <path class="cls-21" d="M220.56,331.91c.56.61,1.54,1.17,1.62,1.84.46,3.79.71,7.61,1.03,11.42-.96-.77-2.7-1.49-2.75-2.32-.23-3.63.02-7.29.1-10.94Z"/>
  <path class="cls-20" d="M260.33,333.78c.32,4.1.64,8.2.95,12.3-3.64-3.84-1.68-8.12-.95-12.3Z"/>
  <path class="cls-20" d="M238.12,243.9c1.81,2.72,2.48,5.36-.45,7.8.15-2.6.3-5.2.45-7.8Z"/>
  <path class="cls-20" d="M261.24,315.63c1.35,2.4,2.18,4.74-.71,6.68.24-2.23.48-4.46.71-6.68Z"/>
  <path class="cls-20" d="M237.58,258.42c-.1,2.58-.2,5.16-.3,7.74.1-2.58.2-5.16.3-7.74Z"/>
  <path class="cls-21" d="M237.55,346.09c1.25.1,2.49.19,3.74.29-1.25-.1-2.49-.19-3.74-.29Z"/>
  <path class="cls-3" d="M182.25,293.86c.24.11.47.22.71.33-.23.14-.46.27-.68.41,0-.25-.01-.49-.03-.74Z"/>
  <path class="cls-21" d="M225.69,345.3c.43.23.85.46,1.28.69-.43-.23-.85-.46-1.28-.69Z"/>
  <path class="cls-20" d="M283.17,270.8c.92,3.97,3.02,7.85.43,12.02-.42.68-.13,2.23.38,3.01,2.08,3.19.22,3.8-2.4,4.07.53-6.37,1.06-12.73,1.59-19.1Z"/>
  <path class="cls-20" d="M281.16,295.56c1.34,2.7,2.54,5.39-.7,7.67.23-2.56.47-5.11.7-7.67Z"/>
  <path class="cls-5" d="M301.25,207.83c.39.9.77,1.8,1.16,2.7,0,0-.3.24-.3.24-.24-.05-.48-.07-.72-.05-.36-.65-.72-1.3-1.07-1.95.31-.31.62-.62.94-.94Z"/>
  <path class="cls-20" d="M280.35,307.07c-.07,1.3-.14,2.61-.22,3.91.07-1.3.14-2.61.22-3.91Z"/>
  <path class="cls-5" d="M299.59,203.38c.21-.04.41-.02.6.06.03.5.05,1.01.08,1.51-.23-.53-.46-1.05-.68-1.58Z"/>
  <path class="cls-2" d="M226.14,194.62c-1.87-.39-3.73-.78-5.59-1.17-2.18-2.87-4.31-5.78-6.57-8.59-1.84-2.29-3.84-4.45-5.77-6.67-1.26-1.62-2.52-3.24-3.79-4.86l-.16.07c-.31-.31-.62-.62-.93-.93l-.02-.02c-.31-.31-.63-.63-.94-.94l.08-.13c-1.04-1.29-2.09-2.58-3.94-4.89,9.87-.9,19.15-1.88,28.47-2.46,1.22-.08,3.49,1.7,3.71,2.91,1.61,8.83,2.81,17.73,4.14,26.62-.36.41-.71.82-1.07,1.24l-7.62-.16Z"/>
  <path class="cls-27" d="M199.48,171.65c.14.13.3.16.48.08,1.39,1.24,2.77,2.49,4.15,3.73v-.02c.33.32.65.65.97.97l-.09.07c3.16,4.01,6.27,8.06,9.49,12.03,1.19,1.46,2.6,2.74,3.92,4.11-.25.48-.49.96-.74,1.44-3.46-.53-6.91-1.07-10.37-1.6-.39-.29-.78-.58-1.17-.87,0,0,.02,0,.02,0-3.5-4.25-6.97-8.53-10.51-12.74-5.96-7.08-11.63-8.34-19.78-4.48-7.18,3.41-7.82,6.31-2.74,12.51-3.05,2.07-5.07.99-7.01-1.87-6.97-10.22-6.61-11.94,4.42-17.31,2.55-1.24,5.15-2.8,7.86-3.15,2.56-.33,5.43.4,7.94,1.28,3.81,1.34,7.43,3.23,11.13,4.88,0,0,.05-.04.05-.04.67.32,1.33.65,2,.97Z"/>
  <path class="cls-17" d="M201.35,192.57c-7.54-1.01-15.08-2.01-22.61-3.02-1.03-.57-2.07-1.14-3.1-1.71,0,0-.07-.04-.07-.04-.31-.26-.62-.51-.93-.77,0,0-.1-.12-.1-.12-.34-2.63-1.84-5.94-.79-7.75,2.77-4.73,9.86-5.73,14.52-2.73,1.81,1.17,3.38,2.75,4.95,4.26,3.71,3.59,7.34,7.25,11,10.88-.35.38-.7.76-1.05,1.15-.61-.06-1.22-.11-1.83-.17Z"/>
  <path class="cls-12" d="M204.23,191.59c-3.66-3.63-7.3-7.29-11-10.88-1.56-1.51-3.13-3.1-4.95-4.26-4.66-3-11.75-2-14.52,2.73-1.06,1.8.45,5.12.79,7.75-.48-.02-.96-.03-1.44-.05-5.08-6.2-4.44-9.1,2.74-12.51,8.14-3.86,13.82-2.6,19.78,4.48,3.55,4.21,7.01,8.49,10.51,12.74-.63,0-1.27,0-1.9,0Z"/>
  <path class="cls-9" d="M204.42,173.32c1.26,1.62,2.52,3.24,3.79,4.86-1.07-.57-2.14-1.14-3.22-1.7,0,0,.09-.06.09-.06-.32-.32-.64-.65-.97-.97,0,0,0,.02,0,.02.1-.71.21-1.43.31-2.14Z"/>
  <path class="cls-12" d="M175.63,187.84c1.03.57,2.07,1.14,3.1,1.71-1.03-.57-2.07-1.14-3.1-1.71Z"/>
  <path class="cls-12" d="M201.35,192.57c.61.06,1.22.11,1.83.17-.61-.06-1.22-.11-1.83-.17Z"/>
  <path class="cls-12" d="M174.63,187.03c.31.26.62.51.93.77-.31-.26-.62-.51-.93-.77Z"/>
  <path class="cls-12" d="M206.11,191.58c.39.29.78.58,1.17.87-.39-.29-.78-.58-1.17-.87Z"/>
  <path class="cls-6" d="M267.29,158.34c.62-.97,1.23-1.93,1.85-2.9.92-.83,1.86-1.64,2.76-2.5,5.95-5.73,12.18-3.9,14.49,4.26-3.61.85-7.73.88-10.7,2.75-4.19,2.65-7.45,6.75-11.28,10.04-1.58,1.36-3.57,2.23-5.38,3.32,2.75-4.99,5.5-9.99,8.25-14.98Z"/>
  <path class="cls-7" d="M259.04,173.33c1.8-1.09,3.8-1.96,5.38-3.32,3.82-3.29,7.08-7.39,11.28-10.04,2.97-1.87,7.09-1.9,10.7-2.75.77,2.68,1.55,5.35,2.5,8.66-12.7-1.38-21.73,5.03-30.45,14.03,0-2.59,0-4.52,0-6.45.2-.04.4-.09.6-.13Z"/>
  <path class="cls-8" d="M259.04,173.33c-.2.04-.4.09-.6.13-.32-.97-.65-1.94-.97-2.91.95-2.63,1.9-5.25,2.85-7.88-.34-.42-.68-.83-1.02-1.25-3.36,1.65-6.72,3.31-10.14,4.99,0-.34-.21-1.59.03-1.68,3.62-1.39,5.27-6.91,10.75-4.78,1.45.56,3.82-1.23,5.76-1.94.53.11,1.06.23,1.6.34-2.75,4.99-5.5,9.99-8.25,14.98Z"/>
  <path class="cls-16" d="M254.66,189.75c-.33-2.88-.87-5.75-.93-8.64-.14-6.68-.05-6.68-6.63-6.68-3.28,0-6.57,0-10.29,0,0,6.04,0,11.57,0,17.11-.68-5.93-1.36-11.86-2.1-18.31,6.53,0,12.75,0,18.98,0,.34.08.68.16,1.02.24.14,3.5.28,7,.42,10.5.02,1.59.04,3.19.06,4.78-.05.35-.1.69-.15,1.04,0,0-.37-.04-.37-.04Z"/>
  <path class="cls-9" d="M255.12,183.97c-.14-3.5-.28-7-.42-10.5,3.24,3.38,2.51,6.91.42,10.5Z"/>
  <path class="cls-1" d="M250.55,194.15c1.4-.52,2.81-1.04,4.21-1.56-1.4.52-2.81,1.04-4.21,1.56Z"/>
  <path class="cls-1" d="M255.03,189.79c.05-.35.1-.69.15-1.04-.05.35-.1.69-.15,1.04Z"/>
  <path class="cls-1" d="M254.66,191.57c-.24-.15-.48-.29-.72-.44.23-.16.47-.31.7-.47.07.3.07.6.02.91Z"/>
  <path class="cls-13" d="M204.42,173.32c-.1.71-.21,1.43-.31,2.14-1.38-1.24-2.77-2.49-4.15-3.73.82-.12,1.65-.24,2.48-.36,0,0-.08.13-.08.13.31.31.63.63.94.94,0,0,.02.02.02.02.31.31.62.62.93.93l.16-.07Z"/>
  <path class="cls-24" d="M233.75,194.78c.36-.41.71-.82,1.07-1.24.06.52.11,1.04.17,1.56-.41-.11-.82-.22-1.23-.33Z"/>
  <path class="cls-13" d="M199.48,171.65c-.67-.32-1.33-.65-2-.97.67.32,1.33.65,2,.97Z"/>
  <path class="cls-18" d="M312.92,220.87c.26-5.37.51-10.74.77-16.1.38,2.94.76,5.89,1.14,8.83-.05.62-.1,1.23-.15,1.85-.09.76-.18,1.52-.27,2.29-.17.5-.34,1-.51,1.5-.33.54-.65,1.09-.98,1.63Z"/>
  <path class="cls-5" d="M311.77,193.52c-1.2-2.54-2.41-5.09-3.61-7.63,1.51,2.54,3.02,5.08,4.53,7.62,0,0-.46.02-.46.02h-.46Z"/>
  <path class="cls-5" d="M313.91,202.04c-.39-1.89-.77-3.78-1.16-5.67.39,1.89.77,3.78,1.16,5.67Z"/>
  <path class="cls-18" d="M309.45,221.36c1.16-.06,2.31-.12,3.47-.18-.16,1.05-.32,2.11-.55,3.69-1.01-.78-1.7-1.3-2.38-1.83-.18-.56-.35-1.12-.53-1.68Z"/>
  <path class="cls-5" d="M314.68,215.45c.05-.62.1-1.23.15-1.85-.05.62-.1,1.23-.15,1.85Z"/>
  <path class="cls-5" d="M309.45,221.36c.18.56.35,1.12.53,1.68-.38-.56-.77-1.12-1.15-1.68.21-.01.41-.01.62,0Z"/>
  <path class="cls-5" d="M312.7,196.33c-.22-.29-.44-.58-.66-.87.22.29.44.58.66.87Z"/>
  <path class="cls-5" d="M313.9,219.24c.17-.5.34-1,.51-1.5-.17.5-.34,1-.51,1.5Z"/>
  <path class="cls-5" d="M305.27,216.16c.25.4.5.81.75,1.21-.25-.4-.5-.81-.75-1.21Z"/>
  <path class="cls-4" d="M304.96,215.47c.29.16.42.4.39.74-.13-.25-.26-.49-.39-.74Z"/>
  <path class="cls-5" d="M307.85,185.19c-.29-.4-.58-.8-.86-1.21.29.4.58.8.86,1.21Z"/>
  <path class="cls-5" d="M305.92,182.41c-.34-.42-.67-.83-1.01-1.25.34.42.67.83,1.01,1.25Z"/>
  <path class="cls-5" d="M298.31,174.76c-.47-.39-.94-.78-1.41-1.17.47.39.94.78,1.41,1.17Z"/>
  <path class="cls-11" d="M301.38,210.73c.24-.02.48,0,.72.05-.24-.02-.48-.04-.72-.05Z"/>
  <path class="cls-20" d="M259.4,206.9c2.2-.2,4.4-.41,6.59-.61-2.2.2-4.4.41-6.59.61Z"/>
  <path class="cls-20" d="M222.01,206.44c1.99.14,3.99.29,5.98.43-1.99-.14-3.99-.29-5.98-.43Z"/>
  <path class="cls-20" d="M254.5,207.79c.35-.26.7-.52,1.05-.77-.35.26-.7.52-1.05.77Z"/>
  <path class="cls-21" d="M187.06,225.01c.07-.13.15-.25.22-.38-.08.12-.16.25-.23.37,0,0,.01.01.01.01Z"/>
  <path class="cls-9" d="M204.26,173.39c-.31-.31-.62-.62-.93-.93.31.31.62.62.93.93Z"/>
  <path class="cls-9" d="M203.31,172.44c-.31-.31-.63-.63-.94-.94.31.31.63.63.94.94Z"/>
  <path class="cls-13" d="M204.11,175.44c.32.33.64.65.97.97-.32-.33-.64-.65-.97-.97Z"/>
</svg>